<svg xmlns="http://www.w3.org/2000/svg" viewBox="0 0 50 50"><path d="M14,.84c0,.42-.43.71-1.19.71-.95,0-1.18.23-1.18,1.18s1,2.18,3.22,4.46c3.7,3.79,5.16,4.59,9.48,5.44l3.17.67-2.32,0a14.06,14.06,0,0,0-3.79.56c-1.19.43-2.42.34-6.3-.47-6.83-1.42-7.35-1.37-9.91,1A17,17,0,0,0,2.32,17.7c-.85,1.71-.85,4.46.1,7.16.71,2.18.71,2.18-.81,4.88L.09,32.49,0,39.74C0,43.76.14,47,.33,47s.57.48.81,1c.23.71.8,1,1.84,1.13,1.81.15,2-.71.67-2.74-.71-1.09-.85-2-.67-5.22a16.67,16.67,0,0,1,.53-4.26c.38-.38,2.89,7.34,2.89,8.81a1.17,1.17,0,0,0,.66,1.09,2.07,2.07,0,0,1,1,1.42c.23,1,.57,1.14,2.18,1.14,2.18,0,2.13-.52-.1-3.32-.95-1.23-1.56-2.93-2.27-6.15-1.23-5.69-1.19-6.54.23-8.63a15.72,15.72,0,0,0,1.66-3c.48-1.14.57-1.18,1.33-.52a15.81,15.81,0,0,0,7.06,2.79,3.29,3.29,0,0,1,1.8.43c.47.66-.66,9-1.61,12.18-.9,3-.95,3.36-.24,4.78.95,1.85,3,2.13,3,.38a2.65,2.65,0,0,0-.47-1.56c-.38-.38-.05-1.85,1.14-5a53.38,53.38,0,0,0,1.94-6.35c.57-3.22,1.14-.85,1.56,6s1.05,8.44,3.32,8.44c1,0,1.09-.15.81-1.33-.48-1.75-.86-13.13-.53-15a10.12,10.12,0,0,1,1.71-3.32A5.37,5.37,0,0,0,32,26.71a5.78,5.78,0,0,1,.48-2.42c.42-.62.56-.62,1.13.14a1.84,1.84,0,0,0,1.57.71c.66-.14.9-.66,1-2.84l.14-2.65,2.09-.33c2.37-.34,3.22-1.38,3-3.46-.09-.95-.66-1.57-2.18-2.37-1.13-.62-1.94-1.28-1.75-1.42a18,18,0,0,1,4.22-.29c3.65,0,4.17-.19,6.06-1.47,2.09-1.51,3-3.55,1.61-3.55-.57,0-.76-.47-.76-1.94s-.14-1.9-.8-1.76-.9.67-1,1.47c-.19,1.47-1,1.76-1,.33a.85.85,0,0,0-.95-.94.86.86,0,0,1-.94-.71.73.73,0,0,0-.71-.71c-1,0-3.13,1.42-2.85,1.89.15.19-.47.52-1.37.66a4.11,4.11,0,0,0-2.51,1.61l-.86,1.28L35.3,4.15C35.06.65,35,.36,34,.22s-1.09.1-1.09.76-.24.85-1.19.66-1.18,0-1.18.57a.74.74,0,0,1-.71.76.73.73,0,0,1-.71-.71.82.82,0,0,0-.9-.71c-1.23,0-1.8,3.46-.81,5a1.71,1.71,0,0,1,.29,1.71c-.62.95-.95.38-1.42-2.65a11.76,11.76,0,0,0-1.19-3.84c-.8-1.28-2.6-1.57-2.6-.43,0,.38-.43.71-1,.71-.76,0-.9.19-.66,1,.38,1.23-.48,1.23-1.38-.05a1.5,1.5,0,0,0-1.61-.8c-.66.19-1.09-.05-1.47-.86C15.82,0,14-.3,14,.84Zm3.5,2.6a3.6,3.6,0,0,1,1.9,1.28c.95,1.14,1.23,1.19,1.89.67A2.47,2.47,0,0,0,22.08,4c0-.42.33,0,.71.76.76,1.8,1.89,2.18,1.37.48C24,4.63,23.74,3.63,23.64,3c-.23-1.09-.19-1.14.43-.33A7.7,7.7,0,0,1,25,5.86c.47,4,2.65,5.54,3.88,2.65.57-1.37.57-1.61-.24-2.46-1.18-1.28-.8-3.32.48-2.51a1.8,1.8,0,0,0,1.7.14,4,4,0,0,1,1.52-.28A2.08,2.08,0,0,0,33.59,3c.48-.43.57,0,.38,1.84-.24,2.56.38,3.79,1.85,3.79a2.14,2.14,0,0,0,1.47-.9,3.63,3.63,0,0,1,1.94-1.23,4.79,4.79,0,0,0,2.18-1.47c1-1.32,1.47-1,1.47,1V7.47l.9-1.14.9-1.18.19,1.14c.19,1.56,1.75,1.84,2.13.42.29-1,.33-1,.66-.14.67,1.71.43,2.13-1.75,3.13a7.94,7.94,0,0,1-4.88.66c-2-.24-2.89-.14-3.74.47-1.61,1.09-1.19,2.61,1,3.65,2.56,1.28,2.32,3.27-.38,3.56-2.22.23-3.22,1.42-2.93,3.5.23,1.76-.24,2.8-.86,1.8-.42-.71-1.94-.57-2.55.19A6.61,6.61,0,0,0,30.75,26a8.88,8.88,0,0,1-1.37,3.5,15.78,15.78,0,0,0-1.62,3c-.75,2-.61,12.51.19,14.73.62,1.8.62,1.85-.23,1-.71-.71-.95-1.9-1.19-5.88-.42-7.77-.66-8.95-1.7-9.52-1.33-.71-2.14.1-2.51,2.56a59.57,59.57,0,0,1-1.8,6.35c-1.28,3.79-1.43,4.59-.95,5.68.52,1.24.52,1.28-.14.43-1-1.28-.9-2.89.28-6A26.53,26.53,0,0,0,21,35c.33-4.88,0-5.59-2.8-5.83A25.22,25.22,0,0,1,13,27.37L9.52,25.76,8,28.7a25.85,25.85,0,0,1-2,3.36c-.71.71-.57,2.13.76,7.72a22,22,0,0,0,2.37,6.64c.66.85,1,1.56.76,1.56-1,0-2.51-3.08-3.46-6.82-1.19-4.84-1.9-6-3.13-5.21s-1.94,8.86-.85,10.7c.43.76.57,1.33.33,1.33s-.66-.47-1-1.09c-.66-1.33-.47-14.21.24-15.11a25.28,25.28,0,0,0,1.56-2.66c1.09-2,1.14-2,.34-4.26a15.58,15.58,0,0,1-.81-4.27c0-1.75.28-2.27,2.37-4.4l2.32-2.47,2.51.29c1.38.19,4.08.66,6,1.14,3.32.75,3.6.75,5.78,0a15.6,15.6,0,0,1,4.22-.81c1.33,0,2.08-.24,2.23-.71.47-1.23-.76-2.13-2.85-2.13-3.74,0-8-2.75-12.27-7.87-.8-1-.8-1,.38-.8.76.19,1.18,0,1.18-.33s.29-.38.86.14a2.83,2.83,0,0,0,1.7.8Z" transform="translate(0)" fill="#212121"/><rect width="50" height="50" fill="none"/></svg>