<svg xmlns="http://www.w3.org/2000/svg" viewBox="0 0 50 50"><path d="M16.11,8.63c-4.71.87-7.81,2.28-10.7,5C2.68,16.11,2.27,17.4,2.27,23.88c0,5-.09,5.46-.91,6.29C.16,31.36-.17,32.69.08,35.33c.16,1.65.45,2.27,1.4,3.06a4.87,4.87,0,0,0,2.28,1A2.25,2.25,0,0,0,6,36.74c-.21-.83,0-1.29,1.07-2.28l1.37-1.28.12,2.4c.21,3.64.95,4.21,5.5,4.21,3.18,0,3.72-.08,4.21-.86.87-1.2.42-2.4-1.2-3.06-1.15-.5-1.36-.79-1.65-2.48a4.35,4.35,0,0,1,.08-2.23A29.59,29.59,0,0,1,20,29.46a16.91,16.91,0,0,1-.37,2.07A4.51,4.51,0,0,0,20,35a7.66,7.66,0,0,1,.7,2.48,2.75,2.75,0,0,0,1.11,1.86c.91.7,1.57.83,3.56.74,1.73-.08,2.6-.33,2.89-.78.58-1,0-2.77-.95-3.06s-1-1,0-3.39L28.18,31l.58,1.36a15.57,15.57,0,0,0,5.08,5.79,19.31,19.31,0,0,1,2.69,2.23c1.49,1.57,3.39,1.53,5.7-.25s2.52-3,.41-3.8a6.51,6.51,0,0,1-2.93-2.64,13.57,13.57,0,0,1-1.28-2.32,52.66,52.66,0,0,0-2.52-5.66c-.58-1.16,1.36-1.36,5-.58,4.09.87,4.34.87,5.66-.37a3.77,3.77,0,0,1,1.61-1c.66,0,1.86-1.37,1.86-2.15,0-.33-.74-1.2-1.65-1.94a4.52,4.52,0,0,1-1.66-2,5.81,5.81,0,0,0-.82-2.07A5.65,5.65,0,0,1,45,13.14a1.47,1.47,0,0,0-1.12-1.49,3.34,3.34,0,0,0-1.52-.25c-.25.09-.79-.29-1.2-.82-.87-1.12-2.81-1.29-3.6-.33s-3.47.74-7.23-.46a24.08,24.08,0,0,0-8.27-1.2,51.86,51.86,0,0,0-6,0ZM30.16,11c3.43,1.2,6.86,1.41,8.1.46s1.82-.75,2.28.62,1,1.57,1.4.82,1.45-.33,1.86,1.12a8.45,8.45,0,0,0,1,2.35,3.43,3.43,0,0,1,.62,1.7c0,.53.62,1.32,1.66,2.11a7.33,7.33,0,0,1,1.65,1.44c0,.13-.45.46-1,.79-.83.41-1.2.41-2.27-.13s-1.29-.58-1.29,0a1.74,1.74,0,0,0,.75,1.2c.66.5.66.54,0,.83a4.58,4.58,0,0,1-2.28-.17c-3.14-.91-5.66-1-7.19-.33l-1.44.7,1.61,3.93c2.11,5.08,3.72,7.65,5.49,8.56.79.37,1.45.86,1.45,1s-.54.74-1.24,1.24c-1.53,1.16-3.47,1.2-4,.12a13.41,13.41,0,0,0-3.05-2.81c-2.53-1.86-3.89-3.8-5.54-7.77C28.3,27.73,24.58,34.75,25,36a2.69,2.69,0,0,0,1.28,1.28c1.82.83,1.28,1.74-1,1.74-2.11,0-2.86-.46-3.15-2.11a12.76,12.76,0,0,0-.78-2.23c-.7-1.45-.29-4.63.83-6.32.86-1.37.57-1.45-1.41-.5a28.24,28.24,0,0,1-4.09,1.4l-2.4.54V32c0,3.39.46,4.51,1.86,5,.7.21,1.24.67,1.24,1,0,.74-6.2.82-6.94.08a3.53,3.53,0,0,1-.5-2c0-2.19-.45-4.13-1-4.34-.25-.12-1.36.67-2.44,1.74C4.83,35,4.5,35.54,4.62,36.61c.17,1.7-1,1.94-2.35.54C.7,35.58.82,33.06,2.56,31l1.32-1.48-.12-5.38c-.17-7.11.28-8.18,4.42-11,4.58-3.1,6.9-3.64,14.17-3.39A22.63,22.63,0,0,1,30.16,11Z" fill="#212121"/><rect width="50" height="50" fill="none"/></svg>