<svg xmlns="http://www.w3.org/2000/svg" viewBox="0 0 50 50"><path d="M34.62,1.07a4.08,4.08,0,0,1-2.08,1.39,1.88,1.88,0,0,0-1.67,1.39c-.23,1-.42,1.06-1.11.65a1.11,1.11,0,0,0-1.58,0C27,5.52,27.3,7.05,29,9l1.57,1.85L30,13.3a6.81,6.81,0,0,0,.18,5.05c.56,1.81,1.16,2.74,1.81,3,1.58.6,1.21.79-.93.55a21,21,0,0,0-5.46.51,28.93,28.93,0,0,1-7.7.42,15.62,15.62,0,0,0-7.27.74c-3.29,1.11-3.2,1-3.8,4.73a2.3,2.3,0,0,0,.93,2.64c1.06.93,1.11,1.11.51,2.08a36.87,36.87,0,0,1-2.69,2.92A10.21,10.21,0,0,0,3,39.62a12.94,12.94,0,0,1-1.71,3.43c-1.95,2.59-1.39,7,.83,7a2,2,0,0,0,2.18-2c0-1.35,2.6-5.66,4.22-7s2.27-1.53,2.27-.56A10.91,10.91,0,0,0,13,43.7a36,36,0,0,1,3.15,4.35l1,1.72,3.38.09c3.8.09,4.68-.32,4.54-2.13-.05-.65,1-3.24,2.27-5.79,2.27-4.5,2.36-4.59,2.92-3.52a30.53,30.53,0,0,0,2.87,3.84,34,34,0,0,1,3.11,4.4c1.25,2.41,2.5,3.43,4.08,3.25,2.08-.23,2-2.18-.24-5.38-1-1.48-2.45-3.89-3.29-5.42-1.29-2.5-1.39-2.83-.69-3.24.46-.28,1.95-1.49,3.34-2.69l2.5-2.27,2.73.32c3.24.37,4.13-.09,4.13-2.31,0-1.25-.38-1.86-1.95-3.2l-2-1.62,1.57-1.62a9,9,0,0,1,2.41-1.9c1.21-.42,1.48-1.86.65-3.2a2.22,2.22,0,0,0-2.32-1.07,3.6,3.6,0,0,1-2.68-1,3.81,3.81,0,0,0-1.67-1c-.65,0,1.2-2.73,3.06-4.49,1.11-1.07,1.43-3.11.6-3.62A1.45,1.45,0,0,1,46,5.15a5.54,5.54,0,0,0-1.66-2.41c-2-1.86-3.06-1.58-3.43.92l-.23,1.53-.79-1.67c-.46-1-1.07-1.71-1.39-1.71A2,2,0,0,1,37.26.88C36.52-.37,35.5-.28,34.62,1.07Zm1.11,2.08c-.69,1.95-.23,2.32,1.21,1,.65-.61,1.25-1,1.39-.84s0,.51-.46.84c-1,.83-.84,1.53.32,1.2.79-.18,1.3.09,2,1,1.25,1.58,2,1.07,2-1.29a4.88,4.88,0,0,1,.27-2.13c.14-.19.28.69.28,1.9,0,2.36.88,2.82,1.39.69.19-.74.37-.93.6-.56a2.66,2.66,0,0,1-.37,2c-.74,1.43-.18,2,.65.55.42-.69.47-.69.51.23a1.66,1.66,0,0,1-.65,1.39c-1,.56-5.33,6.17-6.39,8.16-.7,1.39-.79,2-.33,2.46.7.88,1.21.83,2.78-.33a2.65,2.65,0,0,0,1.35-2.55c0-.88.18-1.57.42-1.57s.37.37.32.79.23.78.56.74.55.18.55.6.23.65.74.46a1.74,1.74,0,0,1,1.58.42c.55.51.93.6,1.16.23a.6.6,0,0,1,.74-.23c.65.42.51,1.16-.28,1.16a10.38,10.38,0,0,0-3,2.31L42.69,24.1l1.48,1.25c.83.69,1.9,1.53,2.36,1.85A2.39,2.39,0,0,1,47.37,29c0,1.12,0,1.12-3,.84l-2.92-.28-2.59,2.22C37.45,33,35.69,34.48,35,35L33.7,36l1.39,2.92a54.32,54.32,0,0,0,3.33,5.69,14.51,14.51,0,0,1,2,3.43c0,1.39-1.66.19-3-2.22a49.49,49.49,0,0,0-3.85-5.33,14,14,0,0,1-2.36-3.24,3.45,3.45,0,0,0-.7-1.35c-.69-.92-.69-.92-1.39,0-1.62,2-5.79,11-5.51,11.91.18.65.09.84-.51.7-1.62-.28-1.81-1.49-.56-3.43,1-1.53,1.95-4.13,3-8.34.32-1.49-.74-1.9-4.17-1.67-2.88.18-3.29.37-4.78,1.85a5.21,5.21,0,0,0-1.57,2.69c0,1.34,4.77,8.34,5.51,8.16.33-.05.47.09.28.37-.55.88-2.92.55-3.24-.47a25.61,25.61,0,0,0-2.83-4.07c-1.85-2.32-2.5-3.48-2.5-4.64,0-.79-.19-1.48-.37-1.48A18.72,18.72,0,0,0,9,39c-2,1.25-2.87,2.18-4.45,5-1.11,1.9-1.85,3.75-1.71,4.12s0,.56-.42.42-.69-.79-.79-1.49C1.35,45.13,5,38.18,7.33,36s3.24-4.08,2.5-5.43a1.65,1.65,0,0,0-1.16-1c-.64,0-.6-1.48,0-3.57.37-1.2,5.24-2.13,9.46-1.8a26.82,26.82,0,0,0,6.3-.19c4.82-1.06,6.81-1.06,9.5,0a20,20,0,0,0,2.87,1c.14,0,.46-.65.6-1.48a2,2,0,0,0-2.31-2.65c-1.63.1-3-.6-3-1.48a1.32,1.32,0,0,0-.46-1.11c-.6-.37-.6-4.36.05-6.21.46-1.34.37-1.58-1.16-3.29a5.71,5.71,0,0,1-1.62-2.69c0-.69.09-.69.65.14,1.66,2.41,2,2.69,2.5,2.37s.41-1.07.23-2.65-.14-2.27.23-2.27.51.56.42,1.25c-.19,1.81,1.06,1.72,1.57-.09.7-2.22,1.3-3.61,1.53-3.38s0,.88-.28,1.71ZM41.06,16.5A2.42,2.42,0,0,1,40,18.44l-1,.7,1-1.95A16,16,0,0,1,41,15.25,3.86,3.86,0,0,1,41.06,16.5Zm-4.82,6.35c0,.55-.27.6-1.39.23a4.13,4.13,0,0,1-1.39-.7,3.07,3.07,0,0,1,1.39-.18C35.78,22.2,36.24,22.43,36.24,22.85Zm-12.55,15c-.23.69-.65,2.08-.88,3.1a15,15,0,0,1-1.49,3.57l-1.06,1.72-2-3a14.86,14.86,0,0,1-2-3.57,4,4,0,0,1,1.3-1.9,4.81,4.81,0,0,1,3.56-1.34C24.15,36.28,24.2,36.33,23.69,37.86Z" fill="#212121"/><path d="M37.22,6.77l-1.07.83,2,1.11c2.45,1.35,3.47.75,2-1.2C38.93,5.89,38.47,5.79,37.22,6.77ZM34.48,9.36a19.17,19.17,0,0,0-2.41,6.77c0,1.39.79,2.31,3.11,3.47,1,.51,1.57.56,1.76.23a.65.65,0,0,0,.05-.74,7.86,7.86,0,0,1,1.15-2.92c2-3.84,2-5.05-.27-6.34S35.18,8.53,34.48,9.36Zm2.74,1.53c1.57.79,1.57,1.25-.51,5.15-1.21,2.27-1.35,2.36-2.27,1.71a2.63,2.63,0,0,1-1-1.76c0-1.07,1.76-5.84,2.18-5.84A10.7,10.7,0,0,1,37.22,10.89Zm6.25,8.34c-2.13.74-3.15,1.53-2.78,2.09.47.79,2.27.37,3.8-.93C46.35,18.82,46,18.35,43.47,19.23Z" fill="#212121"/><rect width="50" height="50" fill="none"/></svg>