<svg xmlns="http://www.w3.org/2000/svg" viewBox="0 0 50 50"><path d="M16.71.12A10.41,10.41,0,0,0,15,.7,21.66,21.66,0,0,1,11.35,1c-3.43,0-5,1-5,3.14,0,2.42-1,4.35-2.18,4.35-2.8,0-2.8,3.86,0,5.16,1.35.68,1.84.68,2.9.2.72-.29,1.45-.39,1.64-.2a19.24,19.24,0,0,1,.92,4c.77,4.78,2.22,8,4.54,10,1.88,1.59,1.93,1.79,2.8,6.86,1.16,6.71,1.11,8.69-.05,11.15C15.16,49.27,15.79,50,21.1,50c4.78,0,4.88-.1,5.12-7.92.24-7,.82-8.94,2.66-8.94,1.25,0,3,2.42,3,4.2,0,1.4-1.88,6.38-3,7.83-2.85,3.76,1.64,6.27,4.82,2.65a6.22,6.22,0,0,0,1.55-2.41,11.94,11.94,0,0,1,.92-2.75c2.85-6.14,2.89-6.76,1.4-9.32-1.31-2.22-.39-2,1.25.29,2.61,3.52,3,4.73,3,10.38v5.31l1.78.14c3.34.29,4-2.36,2.85-11.25a32.58,32.58,0,0,0-1.25-5.89c-1.21-2.61-.68-4.63,1.49-5.45,1.74-.68,1.65-4.35-.19-7-2.12-3-4.63-4.15-10.38-4.63-5.12-.39-6.47-.68-9.8-2.22l-2-.92L25.21,11c.67-.82.91-1.88.91-3.91,0-2.51-.14-2.95-1.78-4.78S22.21.26,20.09.07A14.2,14.2,0,0,0,16.71.12Zm5,1.83c2.56,1.35,3.62,5.26,2.22,8s-5.55,2.89-5.55.14V8.76l.87,1.11C20.91,12,23,9.48,21.49,7.21c-1.35-2.07-3.67-1.06-4.3,1.84-.58,2.56.92,4,4.4,4.3a15.86,15.86,0,0,1,5,1.4,24.21,24.21,0,0,0,10.67,2.46c4.15,0,6.37,1,7.92,3.38,1.2,1.88,1.64,4.83.72,4.83-.24,0-.48-.68-.48-1.45s-.19-1.45-.48-1.45-.49,1-.49,2.12a4.07,4.07,0,0,1-.72,2.71c-.92.77-.92,3.48,0,5.46,1.11,2.41,2.37,13.9,1.64,14.58a4.38,4.38,0,0,1-1.35.34c-.87.09-1.16,0-1-.58a34.44,34.44,0,0,0,.38-3.72c.34-3.67-.63-6.86-3.09-10.58-1.64-2.46-1.83-2.6-3.57-2.51-1.06.1-1.88.34-1.88.58a14.8,14.8,0,0,0,1.25,2.66l1.21,2.32-1.69,4.34c-1,2.42-1.74,4.49-1.74,4.68,0,.83-2.22,3.19-3,3.19-1.49,0-1.49-.82,0-3.47,1.69-3.1,3.05-7.34,2.61-8.5-.19-.44-.87-1.64-1.49-2.66-1.07-1.59-1.4-1.79-3.19-1.79s-2.13.15-2.95,1.79c-.67,1.4-1,3.19-1.06,7.39-.24,7.48-.29,7.72-2.12,7.72-1.11,0-1.45-.19-1.26-.67.87-2.27,1.21-5.07,1.21-10.58,0-3.38-.15-6.13-.39-6.13-.67,0-1,2.13-1,8,0,7-.68,9.36-2.71,9.36-1.06,0-1.16-.14-.87-1.11a17.67,17.67,0,0,1,1-2.36c.92-1.79.87-4.59-.29-11.35C17.58,29,17.24,28,16.32,27.35c-3-2-4.83-5.75-5.45-11.16-.2-1.83-.63-3.28-1.07-3.62a1.15,1.15,0,0,1-.43-1.35c.39-1-.29-1-1.11,0C7,12.67,5.84,13,4.59,12.14c-1.69-1.11-1.5-2.08.39-2,1.44.05,1.59-.1,2.41-2.8A9.15,9.15,0,0,0,8,4.17c-.1-.19.19-.72.67-1.16a2.75,2.75,0,0,1,4.2.63l.58,1.11.53-1C15.12,1.71,19.36.74,21.73,2Z" fill="#212121"/><rect width="50" height="50" fill="none"/></svg>