<svg xmlns="http://www.w3.org/2000/svg" viewBox="0 0 50 50"><path d="M29.43,6.7c-1,.61-2.46,1.54-3.23,2.06a3.45,3.45,0,0,1-2.83.73c-9.93-1.7-10.78-1.58-15.22,2.06a16,16,0,0,0-5.58,10,49.67,49.67,0,0,1-1.45,5.13A14.36,14.36,0,0,0,0,33c0,1.73.32,2.55,1.33,2.75a1.81,1.81,0,0,0,1.78-1.21,5.13,5.13,0,0,1,1.33-1.74,2.12,2.12,0,0,0,.77-1.41,5,5,0,0,1,.4-1.7c.45-1,.08,5.25-.48,7.8a4.11,4.11,0,0,0,.36,3.23c.65,1.41.77,1.49,2.67,1.49,2.7,0,3.23-.81,1.94-3.07-1.17-2-1-3.88.56-8.12,1.17-3.07,1.9-3.95,1.25-1.53-.4,1.49-.32,1.86,1.66,5.94a29.16,29.16,0,0,1,2.1,5c0,1.17,2.22,2.42,4.12,2.26,2.38-.16,2.55-1.34.57-3.84-2.39-3-3.56-7-2.87-9.57.28-1.05.44-1.13,1.78-.89a28.78,28.78,0,0,0,3.47.24c2,0,2,0,2.71,1.74a22,22,0,0,1,1.53,9c0,3.48,0,3.76,1,4.37,1.41.93,4.48.85,5-.12.32-.61.2-1.09-.57-2.23l-1-1.41,2.1-2.34c1.17-1.25,2.71-2.83,3.44-3.48,1.61-1.45,1.65-2.78.28-5.53-1.09-2.14-1.29-3.43-.57-3.88.33-.16.37,0,.17.61-.37,1.25,0,2.18,1.37,3a2.94,2.94,0,0,0,4-.32c1.09-.89,1.17-1.26,1.41-4.45.24-3.63.77-5.29,1.21-4.08.41,1.05,2.51.81,3.72-.44,1.73-1.9,1.86-5.7.24-7.19-1.21-1-2.22-.65-2.46,1l-.21,1.37-1.45-1.69a5.08,5.08,0,0,0-2.18-1.7,5,5,0,0,1-2.14-1.29c-1.66-1.42-7-4-8.28-4A7.47,7.47,0,0,0,29.43,6.7Zm6.26,1.58a20.13,20.13,0,0,1,3.64,2.22c.77.76.77.76-.16.76a4.54,4.54,0,0,0-2.35,1.42,10.91,10.91,0,0,1-1.57,1.41c-.08,0-.16-.4-.16-.93a3.38,3.38,0,0,0-.61-1.73c-.6-.77-.6-.77-1.41.2-1.09,1.25-1.37,2.5-1,4.64s1.65,3.27,3,2.75c1-.36,4.52-3.6,4.52-4.12,0-.77-.73-.4-2.75,1.41a10.25,10.25,0,0,1-2.38,1.82c-.24,0-.73-.61-1.09-1.33-.65-1.13-.65-1.54-.24-3.07.36-1.33.56-1.66.85-1.21a3.2,3.2,0,0,1,.36,1.41,1.83,1.83,0,0,0,.57,1.33c.44.37.72.25,1.45-.76,1.21-1.7,3-2.59,4-2,.56.28.81.28.81,0,0-1.46,3,.68,4.36,3.07.64,1.13,1.65.36,1.94-1.5.28-1.65.28-1.65.8-.73A4,4,0,0,1,48,17.65c-1,1.73-1.82,1.57-3.55-.73-1.62-2.1-2.38-2.59-1.9-1.17.73,2.22,0,10.3-1.09,11.35-1.74,1.73-3.39.52-3.68-2.71s-.44-4-.88-4.12c-.25-.08-.41.57-.41,1.41a4.19,4.19,0,0,1-.93,2.67c-1,1.29-1,1.62.57,5a16.07,16.07,0,0,1,1,2.54A11.28,11.28,0,0,1,35,34.41a41.89,41.89,0,0,0-3.27,3.51l-1.1,1.41.29-1.61c.2-1.21.76-2.14,2.26-3.68l2-2.06L33.51,29.8a12.09,12.09,0,0,1-1.65-2.5c0-.16-.45-.28-1-.28h-1v6.54l0,6.58,1.17,1.5,1.21,1.53H30.89c-.81,0-1.46-.2-1.46-.4s-.28-.41-.64-.41c-.57,0-.65-.36-.41-2.74.33-3.07-.32-6.59-1.94-11.19a19.59,19.59,0,0,1-1.05-3.76c0-.6-.2-.89-.48-.76a.63.63,0,0,0-.48.52c0,.2.16,1,.32,1.74L25,27.54l-4-.28L17,27l-.6,1.57c-1.09,2.79.2,7.63,2.91,10.91,1.45,1.77,1.49,2.1.32,2.1-1,0-2.75-1.3-2.91-2.1s-.6-1.78-2.3-5.46c-1.29-2.86-1.46-3.51-1.13-4.64.56-1.9.36-5.17-.33-5.17-.28,0-.52.16-.52.4a13.65,13.65,0,0,1-1.25,2.47,21.82,21.82,0,0,0-3,8.48c-.2,2-.12,2.54.64,3.75s.77,1.5.25,1.7C8,41.39,7,41,6.9,40c-.08-.52-.33-.81-.57-.65s-.36.05-.16-.48a56.17,56.17,0,0,0,.89-6c.36-2.87.72-5.93.85-6.78a9.53,9.53,0,0,0-.49-3.64,17.4,17.4,0,0,1-.77-2.83c0-.36-.2-.68-.44-.68s-.53,1.41-.65,3.11C5.28,25.48,4,31.86,3.5,31.86c-.16,0-.32-.48-.4-1.13l-.16-1.09-.24,1a22.19,22.19,0,0,0-.53,2.51c-.12.84-.4,1.53-.61,1.53-.64,0-.4-3.64.41-6.46.4-1.46,1.05-3.72,1.37-5.05,1.62-6,1.86-6.62,4-8.93,2.79-3.07,5.21-4.6,7.31-4.6a44.67,44.67,0,0,1,5.49.64c4.53.73,6,.53,7.8-1a10.48,10.48,0,0,1,4.32-2.43A12.58,12.58,0,0,1,35.69,8.28ZM6.41,27.82c-.4.93-.4.89-.2-.36.12-.73.24-1.74.28-2.22s.12-.36.2.36A4.84,4.84,0,0,1,6.41,27.82ZM32.58,33l-.93,1-.28-1.57a17.81,17.81,0,0,1-.28-2.71c0-1.17,0-1.17,1.21.57l1.25,1.69Z" transform="translate(0)" fill="#212121"/><rect width="50" height="50" fill="none"/></svg>