<svg xmlns="http://www.w3.org/2000/svg" viewBox="0 0 50 50"><path d="M16.86.46c-.78.78-.57,1.47.74,2.66,2.14,1.89,1.23,2.43-1.68,1a3.72,3.72,0,0,0-2.55-.58,5.11,5.11,0,0,1-2,.21,5.29,5.29,0,0,0-2.62.94c-2.55,1.77-3,1.32-.95-.86C9,2.59,9.06,2.34,8.65,1.4,8,.09,7.05.09,5.29,1.4c-2,1.44-3,3-2.71,4.43a3,3,0,0,1-.29,1.93C1.92,8.42,2,8.83,2.58,10a4.13,4.13,0,0,0,3.86,2.3c2,0,2.46,1.72,2.66,10.3.09,2.5-.08,3.33-.61,3.94-.9,1-.94,2.55-.12,2.83.41.17.49.45.24.95A1.44,1.44,0,0,0,9.8,32.39c.7,0,2.79-2.5,3.41-4.1.12-.33.25,0,.25.82A13.69,13.69,0,0,0,14,32a25.38,25.38,0,0,1,.61,4.72c.09,1.81.29,4.72.41,6.45a11.12,11.12,0,0,1-.2,4,2,2,0,0,0,0,1.84c.37,1,.49,1,4.19,1a13.43,13.43,0,0,0,4.31-.45c.36-.29.53-1.48.53-3.49a91,91,0,0,1,1.07-12c.16-.86.32-.94,1.93-.69a6.3,6.3,0,0,0,2.83-.17c1.11-.41,1.19-.37,2.58,2.42l1.44,2.88L33,41.34a18.83,18.83,0,0,1-1.48,4.31c-.78,1.31-.86,1.72-.49,2.58s.73,1,2.38.91c2.13-.08,3-.74,3-2.26a36.21,36.21,0,0,1,1.28-5.34,20,20,0,0,0,1.06-5.13c-.16-.57-.12-.74.17-.45a23.63,23.63,0,0,1,1.48,4.68c1,4.06,1,4.31.32,5.54-.57,1-.61,1.48-.2,2.18s.78.9,2.17.78L44.49,49l.33-2a32,32,0,0,0,.08-5.29c-.25-2.92-.21-3.25.57-3.82a2.08,2.08,0,0,0,.87-1.52,1.06,1.06,0,0,1,.86-1.19c.82-.2.86-.45.61-2.42A83.81,83.81,0,0,0,46.46,24c-.66-3-.86-3.45-2.79-5.34a31,31,0,0,0-5.09-3.9c-2.75-1.64-3.49-1.89-7.19-2.34-2.29-.29-4.43-.49-4.8-.53-1,0-3.53-2.67-3.78-3.94a4.4,4.4,0,0,1,.09-2c.61-1.65-.29-3.49-2.3-4.77s-3-1.51-3.74-.73ZM19.7,2.1c1.51.86,2.5,2.46,2.13,3.53-.29.74-2.55,1.89-4.23,2.13-1.07.17-1.48.41-1.56,1.11s0,.86.95.78a3.81,3.81,0,0,0,1.76-.78A4.51,4.51,0,0,1,20.6,8c.9-.25,1.11-.17,1.11.41,0,1,1.88,3.36,3.24,4.1a22.76,22.76,0,0,0,5,1c5.33.61,5.21.57,8.66,2.83,5.25,3.49,6.24,5.05,7.35,11.82,1,6.32.94,7.76-.25,4.35L45.14,31l0,3c0,1.72-.16,3-.41,3s-.41-1.69-.41-4.19c0-5.83-1.06-11.82-2.09-11.82-.66,0-.94,2.17-.94,6.56,0,3.9.12,4.52,1.1,6.37s1.11,2.46,1.28,8.12l.12,6H42.56c-1.36,0-1.36-.08-.49-1.44.73-1.11.53-3.4-.7-7.43-.95-3-4.76-10.83-5.3-10.83-.24,0-.41,1-.41,2.29a7.5,7.5,0,0,0,1.11,4.23l1.07,2L36.57,41.3a37,37,0,0,0-1.32,5.62c0,1.15-.82,1.52-.82.33,0-.66,0-.66-.57,0s-1.89,1-1.89.41a5.9,5.9,0,0,1,.74-1.52A16,16,0,0,0,34.55,39c0-1.36-.41-2.63-1.6-4.76l-1.6-2.92-1.56.54a6.3,6.3,0,0,1-3.65.16,7.82,7.82,0,0,0-2.22-.29C23.64,32,22.53,43.35,22.53,46v2.83H21.34c-1.56,0-1.93-.62-1.15-1.81.53-.78.61-2.38.57-8.78-.08-8.29-.24-9-1.93-8.5-.9.29-.9.41-.65,4.27.16,2.18.2,4.48.16,5.17s-.08,3.12,0,5.46l.08,4.23-1.31-.12c-.95-.08-1.27-.29-1.11-.74s.25-2.34.33-4.43c.08-2.75,0-3.78-.37-3.78s-.41-.58-.21-2a19.54,19.54,0,0,0-.57-6c-.86-4.18-.78-8.16.25-9,.53-.45,1.06-7.59.53-7.59s-.78,1.19-.78,3.2c0,2.71-.33,3.61-1.48,4.19-.78.45-1,.86-1,2.22a11.18,11.18,0,0,1-2.26,5.74c-1.11,1.44-1.11.37,0-1.6,1.15-2.13,1.19-2.75,0-1.44a2.43,2.43,0,0,1-1.36.83c-.49,0-.41-.25.29-1a4.32,4.32,0,0,0,1-2,4.15,4.15,0,0,1,.41-1.48,1.63,1.63,0,0,0,0-1.23,29.21,29.21,0,0,1-.54-4.88c-.32-5.13-1-6.37-3.73-6.74-1.77-.24-3.28-1.47-3.28-2.66,0-.5.28-.45,1.55.08a12,12,0,0,0,3.08.9c1.4.17,1.56.08,1.44-.57s-.53-.82-1.76-.91c-4.31-.28-5-2.66-1.65-5.25,1.77-1.35,2.38-1,.91.49S5,5.63,5.82,6.41s2.79.41,3.82-.74,2.22-1,2.5,0c.25.9.95,1.11.95.29,0-1.28.9-1.48,2.54-.66,3.65,1.89,5.83,0,3.16-2.75C17.23,1,17.48.83,19.7,2.1ZM43.17,30.34c.17,1.93.13,2.38-.16,1.68a26.25,26.25,0,0,1-.57-4.72c-.13-2.95-.13-3.32.16-1.68C42.8,26.73,43.05,28.86,43.17,30.34ZM19.53,35.55c-.08.86-.16.17-.16-1.52s.08-2.38.16-1.56A19.79,19.79,0,0,1,19.53,35.55Zm18-2.34c.53,1.11.57,1.32.08.82a4.37,4.37,0,0,1-.9-1.64C36.32,31.08,36.61,31.36,37.51,33.21ZM19.53,45c-.08.86-.16.17-.16-1.52s.08-2.38.16-1.56A19.79,19.79,0,0,1,19.53,45Z" transform="translate(0 0)" fill="#212121"/><rect width="50" height="50" fill="none"/></svg>