<svg xmlns="http://www.w3.org/2000/svg" viewBox="0 0 50 50"><path d="M12.56,5.71c-.52.52-1.43.65-8.4.86C.92,6.7.22,7.22.66,9.17A1.72,1.72,0,0,1,.44,10.6c-1.08.65-.26,2.12,3.46,5.92C6.07,18.73,8,20.68,8.1,20.89a21.24,21.24,0,0,0,3.59,2.9c.17,0,.43.7.56,1.52A37.06,37.06,0,0,0,16.49,35a14.48,14.48,0,0,1,1.86,3.9c.26,1.34.13,1.64-1,2.51-1.43,1-1.74,2.25-.74,3.07.52.43,2.81.43,14.32,0,1,0,3.55,0,5.76,0,4.84,0,5.62-.17,6-1.64a69.37,69.37,0,0,1,3.46-7.66c4.07-8.22,4.63-10.77,3.2-14.93-1.73-5.15-4-7.35-9.48-9.17-1.86-.65-3.67-.82-8-.82-5.36,0-5.66-.05-8-1.26A10.63,10.63,0,0,0,20,7.78a3.63,3.63,0,0,1-2.68-1.29C15.93,5.1,13.59,4.71,12.56,5.71Zm3.8,1.47a1.49,1.49,0,0,1,.78,1.51c-.17.69,0,.78,1.65.52s2.33,0,4.5,1.13c2.51,1.29,2.77,1.34,8.22,1.34,7.22,0,10.47,1,13.5,3.89a9.32,9.32,0,0,1,3,5.11c.87,2.81.91,3.33.39,5.41-.65,2.85-2.21,6.44-4.84,11.2a17.86,17.86,0,0,0-2,4.85c0,1.12,0,1.12-3,1.12-2.38,0-3-.13-3-.64,0-.35.7-.91,1.52-1.26,1.73-.74,1.77-1,.82-3.89a8.62,8.62,0,0,1,0-5.8c.61-1.82-.56-1-1.34,1s-.69,2.12,0,4.63A18.83,18.83,0,0,1,37.09,40c-2,.82-2.73,1.51-2.73,2.46s0,1-2.29.61c-1.69-.31-2.25-.56-2.16-1.08a1.34,1.34,0,0,1,1.21-.78c2.42-.35,2.46-.61,1.21-7-.56-2.73-.61-2.81-1.86-2.81h-1.3l-.3,4.32c-.18,2.38-.39,5.11-.48,6.06l-.17,1.73-2.68.13c-2.6.13-2.69.09-2.56-.87a2.08,2.08,0,0,1,1.13-1.42c1.21-.57,1.21-1.21-.17-4.11a15,15,0,0,1-1.39-5.54A8,8,0,0,0,22,28.55c-.52,0-1,3.77-.65,5.32a25.78,25.78,0,0,0,1.34,3.68l1,2.34-1.08,1.3c-.61.73-1,1.6-.91,1.9.17.48-.3.61-2.12.61-1.3,0-2.38-.18-2.38-.39,0-.52.95-1.21,1.95-1.43,1.38-.26.82-3.42-1.21-6.79-2.47-4-4.63-9.18-4.63-11,0-.3-.65-1-1.39-1.55a38.34,38.34,0,0,1-4-3.86c-1.43-1.55-3.55-3.72-4.76-4.84C.87,11.55.79,11,3,11.72c2,.69,2.08.26.3-1.38-.86-.78-1.51-1.6-1.43-1.82C2,8.09,5.63,7.74,10,7.78c1.64,0,2.64-.21,3-.65C13.64,6.27,15.11,6.31,16.36,7.18ZM31.16,34.7c.17,1,.43,2.59.61,3.46.3,1.56.3,1.64-.87,1.64s-1.17-.08-.91-1.34a27.21,27.21,0,0,0,.26-3.76C30.25,32,30.68,32,31.16,34.7Z" transform="translate(0)" fill="#212121"/><rect width="50" height="50" fill="none"/></svg>