<svg xmlns="http://www.w3.org/2000/svg" viewBox="0 0 50 50"><path d="M22.41.51a27,27,0,0,0-2.67,1.2c-.66.37-2.14,1.1-3.29,1.64a25.71,25.71,0,0,0-4.68,3.33C9.63,8.65,9,9,7.86,8.9s-1.27-.29-1.4-1.44A2.38,2.38,0,0,1,7.33,5.2,7.15,7.15,0,0,0,8.56,3.55c.29-.74-.66-2-1.48-2-1.11.08-3.37,1.56-4.56,3A4.82,4.82,0,0,0,1.28,8.36c0,2.06.13,2.39,1.57,3.87A9.77,9.77,0,0,0,5.6,14.32a10.82,10.82,0,0,0,5.92-.2c.66-.25.74-.25.33.24-.87.87-.66,3.95.29,4.9A2.8,2.8,0,0,1,13,20.78a5.5,5.5,0,0,0,.66,2A11.18,11.18,0,0,1,14.44,26,30,30,0,0,0,16,31.59c1.32,3.33,1.4,3.74,1.27,8s-.16,4.65-1.19,6.13c-2,2.87-1.19,4.15,2.63,4.15,3.66,0,3.83-.29,4.24-7.2.74-11,.61-10.27,1.72-10.27.91,0,1,.12.78.9a4.66,4.66,0,0,1-.65,1.36c-.5.53-.46,4.19,0,5.14.33.57.24,2-.25,4.81-.7,3.94-.7,4,.21,4.68,1.11.91,4.48,1,5.5,0a3.34,3.34,0,0,0,.7-2.51c0-1.43.13-1.72.5-1.35,1,1,3.12.57,4.68-.91s1.52-1.6,1.69-4.43a23.91,23.91,0,0,1,.53-4.2A19.89,19.89,0,0,0,39.1,32a7.84,7.84,0,0,1,.82-3.33c.49-.49.58-.08.58,3,0,2.51.2,4,.65,4.89a6.76,6.76,0,0,1,.54,3.17c-.29,5.3,1.15,7.68,4.52,7.27a4.16,4.16,0,0,0,2.18-.74,4.21,4.21,0,0,0-.21-3.62c-2-3.9-2.22-5.38-1.77-11.5a42.05,42.05,0,0,1,1.44-9.66C49.25,16,48.92,10.13,47.07,8A26.78,26.78,0,0,1,45.26,5.2a7.91,7.91,0,0,0-3.7-3.41C38.6.14,36.18-.1,32.19,1,30,1.5,29.73,1.5,28.08.76A6.68,6.68,0,0,0,22.41.51Zm6,1.77c1.15.62,1.44.66,3,.08a22.43,22.43,0,0,1,4.9-.57c2.79,0,3.28.12,5.22,1.35A6.94,6.94,0,0,1,44,5.32a18.21,18.21,0,0,0,1.77,2.92c1.35,2,1.48,2.47,1.64,5.71a20.22,20.22,0,0,1-.74,7,81,81,0,0,0-1.81,15.62,18.85,18.85,0,0,0,1.36,4.68,25.83,25.83,0,0,1,1.27,3.7c0,.7-2.79,1.2-3.49.62s-1.15-3-1.07-5.84a8.88,8.88,0,0,0-.49-3.49A19.22,19.22,0,0,1,41.61,31c-.21-4-.21-4.07,1-5.71s1.52-2.76.91-2.76c-.21,0-.78.78-1.36,1.69a10.18,10.18,0,0,1-2.26,2.55c-1.73,1.19-1.69,1.19-2,4.93a18.69,18.69,0,0,1-.79,4.4,10.76,10.76,0,0,0-.49,3.78c0,1.81-.16,2.79-.45,2.79s-.58.37-.7.83c-.25,1-2.1,1.48-3.41.86l-1-.45,1.44-2.72c1.32-2.46,1.44-3,1.44-6.2,0-2.55-.12-3.45-.49-3.33a1.72,1.72,0,0,0-.74,1.15A1.82,1.82,0,0,1,32,34c-.62.21-.62.08.12-1.69s.86-6,.16-5.34a2.84,2.84,0,0,0-.45,1.4,30.24,30.24,0,0,1-1,4.48c-1.73,6.45-2,8.18-1.53,9.86a16.7,16.7,0,0,1,.37,3.74l0,2.14-2,.08a3.8,3.8,0,0,1-2.18-.24,16.93,16.93,0,0,1,.45-4c.5-2.63.58-3.91.25-4.44a7.73,7.73,0,0,1,.12-5.59c1.11-2.51,0-3.7-2.91-2.92-.83.21-.91.58-1.15,4s-.37,5.88-.79,11.34c-.08,1.15-.32,1.52-1.23,1.81s-3.94.08-3.94-.37c0-.08.53-1.19,1.19-2.46,1.15-2.14,1.23-2.55,1.19-6.87a24.2,24.2,0,0,0-.29-5,25.5,25.5,0,0,1-2.51-7.4A12.2,12.2,0,0,0,15,23a12.07,12.07,0,0,1-.82-3.24c0-.82-.25-1.24-.82-1.4s-.82-.58-.82-1.48c0-1.6,2.3-6.49,3.33-7.15.78-.49,1.06-1.52.45-1.52a15.62,15.62,0,0,0-2.55,2.26C10.24,14,7,14.41,4.16,11.73c-2-1.93-2.26-3.33-1-5.63,1-1.72,3.37-3.65,3.9-3.16.12.16-.25.82-.82,1.48C4.78,6.19,4.45,8,5.44,9.06c2,2.18,3.94,1.73,7.72-1.85a10.52,10.52,0,0,1,4.69-3c1.19-.37,2-.78,1.93-.9s.7-.7,1.89-1.23A7.17,7.17,0,0,1,28.45,2.28Zm4.4,33.91A13.69,13.69,0,0,1,31.25,41a4.73,4.73,0,0,0-.74,1.23c-.41,1.15-.25-1.85.29-4.23.41-2.14,1.06-3.12,2-3.17C32.93,34.87,33,35.49,32.85,36.19Z" fill="#212121"/><path d="M35.56,3.18a2,2,0,0,0,.62,1.28A5.93,5.93,0,0,1,37.29,6.6c.41,1.35.37,1.68-.12,2-1.11.7-2.63.33-4.48-1.07-3.37-2.63-5.51-3.9-6.46-3.9-1.39,0-1.15.57.46,1.15A15,15,0,0,1,30.1,7.05c2.55,2.26,5,3.33,6.66,3,2.3-.5,2.71-2.47,1.06-4.93-.61-.83-1-1.65-.86-1.77a4.2,4.2,0,0,1,1.73.94c4.6,3.54,2.5,9.29-3.41,9.25-2.39,0-3.17-.45-5.84-3a15,15,0,0,0-2.26-1.93c-1.44,0,2.59,4.6,4.85,5.55,4.6,1.93,10.52-1.19,10.52-5.55,0-2.8-3.25-6.17-6-6.17C35.85,2.4,35.56,2.61,35.56,3.18Z" fill="#212121"/><rect width="50" height="50" fill="none"/></svg>