<svg xmlns="http://www.w3.org/2000/svg" viewBox="0 0 50 50"><path d="M34.29.44a1.72,1.72,0,0,1-1.24.41c-1.4,0-2.27,1.08-2.31,2.81a50.49,50.49,0,0,1-.91,9.39l-.54,2.89-2.48,1.24a25.59,25.59,0,0,0-4.5,3,19.14,19.14,0,0,1-4.43,2.61,21.37,21.37,0,0,0-3.8,1.86l-1.44,1-.13-1.12c-.08-.74-.41-1.15-1-1.24-1.2-.16-2.19,1.12-2.48,3.31a6.22,6.22,0,0,0,.83,4.18A21.91,21.91,0,0,0,12,34.33l1.11,1.32-1.65,1.49c-1.53,1.41-1.66,1.78-2,4.42-.41,3.64-.41,5,.09,6.82.33,1.41.45,1.45,2.52,1.57s2.19,0,2.52-.82a2.44,2.44,0,0,0-.41-2.32,6,6,0,0,1-.79-2.31c0-1.41.83-3.56,1.36-3.56s4,3.35,4,4a6,6,0,0,0,2,3.27,4.5,4.5,0,0,0,3.76-1.45c.29-.58-.08-1.32-1.78-3.55-1.2-1.57-2.35-3.1-2.52-3.39-.41-.66,4.38-5.46,5.46-5.46A2.39,2.39,0,0,0,27,33.84c.41-.46.45-.25.29.9-.71,4.26-.66,6.33.2,7.73A2.26,2.26,0,0,0,30,43.84c1.12,0,1.74-.25,2.11-.79.42-.7.58-.74,1.41-.2a3.15,3.15,0,0,0,3.76-.58c.41-.46.37-.87-.13-1.78-.33-.66-.74-1.2-1-1.2-.62,0-.82-3.84-.37-6.41a46.22,46.22,0,0,1,1.61-5.82c1.08-3.19,1.12-3.6.87-8.15L38,14.12l1.2-.33c2.27-.66,2.48-4.26.33-5.21-1.78-.78-2.06-1.44-1.86-4.09.17-1.78.08-2.65-.45-3.43C36.52,0,34.79-.39,34.29.44Zm2.07,1.69a10.26,10.26,0,0,1,0,3c-.29,2.32.17,3.18,2.36,4.51,1.9,1.2,1.24,3.06-1.12,3.26-1,.08-1.07.25-.87,1.16.09.58.25,3.18.29,5.79.08,4.34,0,5-1,7.43-2.11,5-2.4,10.79-.66,13,1,1.33,1,1.49-.37,1.49-1.66,0-2-1-2.53-6.41l-.37-4.54,1.2-2.11c1.28-2.27,1.41-2.65.87-2.65s-3,4-3,5.05a14.77,14.77,0,0,1-.62,3.06c-.82,2.72-.82,6.73,0,7,1.08.46.71,1.41-.53,1.41-1.78,0-2.15-1.2-1.7-5.62.21-2,.46-4.1.58-4.63.29-1.12,0-1.12-1.7-.09a7,7,0,0,1-2.72,1A2.08,2.08,0,0,0,23,34a11.48,11.48,0,0,1-2.15,2.44,6.9,6.9,0,0,0-2,2.77A13.06,13.06,0,0,0,21.07,43c1.28,1.65,2.19,3.14,2.06,3.31s-.58.45-1,.57c-.91.21-1.78-.82-2.23-2.68-.25-.83-2.69-3.31-4.34-4.3-.08-.08.58-.79,1.49-1.57,1.86-1.7,3.1-4,2.73-5s-.83-.79-1.33.95A10.64,10.64,0,0,1,15.78,38a15.08,15.08,0,0,0-2.9,3.51C12,43.26,12,45.9,12.8,47s.74,1.82-.54,1.82c-.95,0-1.2-.25-1.61-1.57A6,6,0,0,1,10.53,44a17.55,17.55,0,0,0,.41-3c0-1,.41-1.82,1.65-3.06a6.18,6.18,0,0,0,1.66-2.44,5,5,0,0,0-1.2-2.15,7,7,0,0,1-1.49-2.48,3.75,3.75,0,0,0-.87-1.57c-1-.83-.45-4.92.66-4.92.25,0,.33.21.17.46a2.36,2.36,0,0,0,.29,1.53c.29.62.58,1.15.62,1.24A13.61,13.61,0,0,0,14,26.31,10.49,10.49,0,0,1,17,24.37a17.57,17.57,0,0,0,6.36-3.47,20.71,20.71,0,0,1,4.26-2.65c1.9-.91,2.77-1.61,2.93-2.23.91-4.38,1.2-6.2,1.2-8.22,0-2.81.91-4.14,1.32-2.07.29,1.53,1,1.78,1,.37s-1-3-1.78-2.85c-.46.08-.62-.08-.46-.54a1,1,0,0,1,.79-.62c.7,0,2.27,2,2.31,2.85,0,.38.21.13.46-.49.45-1.24.16-2.56-.5-2.15-.45.29-.58-.33-.12-.74C35.33,1,36.11,1.27,36.36,2.13ZM31.69,39c.08,1,0,1.82-.17,1.69a5.7,5.7,0,0,1-.29-2.52C31.28,35.57,31.48,35.94,31.69,39Z" fill="#212121"/><rect width="50" height="50" fill="none"/></svg>