<svg xmlns="http://www.w3.org/2000/svg" viewBox="0 0 50 50"><path d="M23.39,3.73A5.09,5.09,0,0,0,23,6.31c.15,1.38,0,1.58-1.34,1.83a29.42,29.42,0,0,0-3.91,1.39,13.06,13.06,0,0,1-5.51,1.09,10.64,10.64,0,0,0-8.67,4.06C.63,18.15.19,20.24,0,32.78c-.1,6.2,0,11.6.2,11.9.54.84,4.06.84,4.71,0a13,13,0,0,0,.69-4.07A16.58,16.58,0,0,1,6.48,36c.5-.89.75-1,1.74-.54S9.46,36.55,10,40.27a19.25,19.25,0,0,0,1.14,4.9c.65.8,5,.85,5.75,0s.75-2.28-.39-3.72a3.27,3.27,0,0,1-.2-4.36c.74-1,.74-1,1.34,0a12.47,12.47,0,0,1,1.78,6.45A6.49,6.49,0,0,0,20,46.71c.84.84,3.81.74,5.55-.15a7.16,7.16,0,0,1,2.73-.74,5.7,5.7,0,0,0,3.22-1.64L33.4,42.6l.25-6.3c.35-7.24.74-8.18,3.52-7.39a7.24,7.24,0,0,0,6.54-1.83A39.18,39.18,0,0,1,47,24.35a5.21,5.21,0,0,0,2.62-3.82c.75-3,.4-5.45-.89-6.69-1.68-1.49-2.73-.79-3,1.94-.25,2.42-1.49,3.91-1.49,1.78a1.35,1.35,0,0,0-1-1.34c-.89-.25-.89-.35-.15-1.44s.69-1.29,0-2.43a2.69,2.69,0,0,0-1.83-1.23c-.8,0-.95-.15-.55-.65A14.18,14.18,0,0,0,41.73,7c.45-2.23.45-3,0-3.57-.94-1.14-3.42-.89-5.25.5-1.39,1.09-1.84,1.19-2.73.69a5.89,5.89,0,0,0-2.93-.3,3.83,3.83,0,0,1-3-.69C26.16,2.39,24.08,2.44,23.39,3.73Zm3.47,1.19a4.09,4.09,0,0,1,1.59,1.29c.09.34.54.34,1.53-.1s1.69-.45,3.37.2l2.09.84,1.68-1.49a5.35,5.35,0,0,1,2.63-1.49c.84,0,.94.25.64,1.59-.44,2.43-1,3.87-1.63,3.87-.75,0-.6,1.34.29,2.43a2,2,0,0,0,1.74.69c1.19-.35,1.29,1.39.2,2.33a2.39,2.39,0,0,0-.75,1.59c0,.79.25.94,1.24.79,1.24-.25,1.79.69.75,1.34a1.15,1.15,0,0,0-.5.79c0,.3.2.35.5.2a2,2,0,0,1,1.58.3c.95.49,1.24.39,2.28-.79a3.15,3.15,0,0,0,.9-3.13c-.25-1.68-.25-1.68.69-.84a3.14,3.14,0,0,1,1,1.93c0,1.94-1.39,5-2.53,5.7a31.07,31.07,0,0,0-3.27,2.63c-2.18,2-4.56,2.48-6.59,1.39-.7-.4-1.24-.2-2.48,1l-1.59,1.49-.1,6-.1,6-1.63,1.44c-1.29,1.14-1.93,1.39-3,1.14-.69-.2-1.33-.39-1.43-.44-.25-.25,2.52-4.27,3-4.27,1,0,.25-2.77-1.34-4.51a7.67,7.67,0,0,1-1.73-2.63c0-.54-.5-.64-2.08-.44a18.68,18.68,0,0,0-2.29.39,21.71,21.71,0,0,0,1.14,3c.85,1.88,1.19,3.32,1,4.16a6.66,6.66,0,0,0,.49,3.23c1,2.47.7,3.27-1.44,3.27H21l-.2-3.13c-.3-4.06-4.56-13.23-6.2-13.23-.89,0-.79.74.15,1.49,1.44,1.23,1.79,2.47,1.19,4a3.45,3.45,0,0,1-1.29,1.69c-1.19.44-.89,4.51.4,5.75s.69,2.13-1.39,1.88c-1.34-.15-1.49-.35-2-3.37a16.3,16.3,0,0,1-.3-4.31c.2-.9-.1-1.29-1.39-2-1.93-1-4.11-3.07-4.51-4.11-.15-.4-.44-.55-.69-.35s0,1,.49,1.89c.8,1.33.8,1.58.15,2.33a3.09,3.09,0,0,0-.74,1.58A20.12,20.12,0,0,1,4.15,39,12.09,12.09,0,0,0,4,42.6c.19,1.09,0,1.23-1.1,1.23C1.38,43.83.73,42.15,1.38,40A63.42,63.42,0,0,0,1.63,31c-.1-6.69,0-7.93.94-10.8C4.5,14.49,7.67,12,12.88,12.16a9.8,9.8,0,0,0,4.51-.75A35,35,0,0,1,21.7,9.63l2.68-.84,1.69,1.63c1.88,1.84,2.28,2,2.28,1a7.2,7.2,0,0,0-2-2.53c-1.83-1.68-2.53-3.57-1.63-4.41C25.17,4.08,25.22,4.08,26.86,4.92Zm-.6,31,1.64,1.79-1.24,1.88L25.37,41.5V39.08a10.07,10.07,0,0,0-.74-3.67c-.75-1.34-1-2.53-.35-1.74C24.48,34,25.37,35,26.26,36Z" transform="translate(0)" fill="#212121"/><path d="M30.33,17.46c-1.88,1.88-1.93,3.92-.25,5.75a3.92,3.92,0,0,0,2,1.29c1.14,0,.9-.74-.44-1.49-2.13-1.09-2.13-3.71-.05-5.45.74-.59.79-.5.49,1.09-.39,2.18.1,4.21.9,3.42.34-.35.34-.69-.05-1.19-.6-.69-.25-2.82.39-2.82.25,0,.35-.4.3-.9C33.35,15.78,31.92,15.92,30.33,17.46Z" transform="translate(0)" fill="#212121"/><rect width="50" height="50" fill="none"/></svg>