<svg xmlns="http://www.w3.org/2000/svg" viewBox="0 0 50 50"><path d="M30.56,13.67a4.71,4.71,0,0,0-2.08,4.15c.12,1.19.08,1.27-.47,1.27a1,1,0,0,0-.74.25A2.25,2.25,0,0,1,26,19.6c-1.64,0-3.88,1-8,3.81-5.63,3.71-6.27,4.44-4.66,5.37l.76.43-.5.8c-.52.84-.45,1.65.14,1.65a1,1,0,0,1,.64.38c.51.62,1,.46,2.32-.81L17.91,30l1,.33a8.6,8.6,0,0,0,3.05.2L24,30.43l.13.68a8.88,8.88,0,0,1,0,3.47c-.61,1.48,3.16,3,4.65,1.84a2.07,2.07,0,0,1,1.1-.39.69.69,0,0,0,.73-.53.7.7,0,0,1,.62-.51,1.21,1.21,0,0,0,.91-1.41,3.11,3.11,0,0,0-2.71-1c-.68.15-.81.07-1.19-.68-.77-1.46-.91-2.27-.42-2.27,1.82,0,5.72-3.25,6.85-5.69,1-2.19.84-3.3-.84-5.12-.77-.83-.58-1,1.68-1.2s2.58-1.11.87-2.19a6.81,6.81,0,0,1-1.52-1.34C34.21,13.1,31.81,12.88,30.56,13.67ZM34.51,15a3.45,3.45,0,0,0,1.23,1,1,1,0,0,1,.63.38c.27.34.18.39-.63.39-3,0-4.1.86-2.86,2.17,1.94,2.06,2.07,2.69.95,4.63-1.55,2.69-4,4.77-6.3,5.25-.71.16-.78.25-.73,1.11.11,1.55,1.35,3.83,2,3.64,1.48-.47,1.85-.47,1.3,0s-.46.41.51.25c.74-.11.95-.09.76.12a9.27,9.27,0,0,1-4.22.14,7,7,0,0,1-.62-1.71c-.58-2.19-1-2.7-.76-1,.35,2.87.57,3.19,2.3,3.28,2,.11,2.49.57.67.57-1.28,0-1.81.34-.89.59.25.06.07.13-.41.15a4.59,4.59,0,0,1-2.58-.93c-.05,0,0-.21.17-.39.36-.44-.05-4.53-.5-5-.26-.25-.86-.28-2.55-.14-2.09.18-3.84,0-3.8-.41C18.33,27.74,20,26.69,25,25c4.59-1.63,5.95-3.52,3.33-4.61L27.52,20l1-.15c1.06-.14,1.5-.8.92-1.37-.78-.79.32-3.39,1.75-4.16A2.38,2.38,0,0,1,34.51,15ZM28,20.79a1.25,1.25,0,0,1,.55.81c.25,1-.7,1.62-5,3.12-4.75,1.65-5.33,2-5.72,3.32-.32,1.08-2.84,3.87-3,3.36,0-.17.17-.58.49-.91s.5-.71.41-.81-.45.14-.77.55-.72.68-.88.63.26-.73,1-1.51c1.68-1.89,1.58-2.32-.33-1.4l-.82.4.73-.67c1-.91.65-1.13-.47-.28-.5.38-.91.59-.91.46a8.65,8.65,0,0,1,2.57-2.1c.36-.2,1.94-1.2,3.51-2.24C23.84,20.57,25.83,20,28,20.79Z" fill="#212121"/><rect width="50" height="50" fill="none"/></svg>