<svg xmlns="http://www.w3.org/2000/svg" viewBox="0 0 50 50"><path d="M13.78,15.28c-.73.47-.73,1.31,0,2.16A9.46,9.46,0,0,1,15,19.82l.5,1.53-1.1,1.26c-2.19,2.6-2.57,5.48-.87,6.83a3,3,0,0,0,1.16.62c.65,0,1.5,1.82,1.15,2.45-.43.84.29,1.75,1.76,2.16s14.16.28,16.76-.13S38.27,32.7,37,31.66a4.09,4.09,0,0,1-.63-1.78A10.19,10.19,0,0,0,27,21.35c-1.72-.12-2-.21-1.88-.65a15.88,15.88,0,0,0,.54-2c.31-1.31.28-1.56-.28-2.35a2.28,2.28,0,0,0-1.54-.94,5.28,5.28,0,0,0-4,2.48L19.19,19l-1.44-1.53C15.91,15.46,14.59,14.71,13.78,15.28Zm2.66,2.13A12.21,12.21,0,0,1,18.66,20l.57,1.13L20,19.35c.82-1.85,1.57-2.57,3.1-2.91,1-.25,1.79.25,1.79,1.06a12.49,12.49,0,0,1-.47,2.16,4.27,4.27,0,0,1-1.76,2.57,12.49,12.49,0,0,1-1.63,1c-.21.06-.28.21-.18.34a3.89,3.89,0,0,0,1.72-.6c2.41-1.22,5-1.09,7.93.35a8.2,8.2,0,0,1,5,6.61,4.3,4.3,0,0,0,.65,2c.66.78.07,1.41-1.59,1.59L31.6,34a8.54,8.54,0,0,1-2.19,0c-.53-.22-.53-.25,0-.69a2.91,2.91,0,0,1,1.5-.44c.47,0,.88-.15.88-.31,0-.66-2.19-.34-2.91.44s-1,.72-5.77.94c-3.16.12-5.1.12-5.1-.06,0-.38.78-.69,1.75-.69.41,0,.75-.16.75-.32,0-.47-1.6-.37-2.63.16s-1.66.31-1-.47c.5-.56.47-.66-.47-2-.63-.94-1.19-1.44-1.63-1.44s-.59-.15-.5-.78.06-.78-.41-.63c-1.38.44-.37-2.82,1.47-4.85l1.13-1.22L16,19.91a8.71,8.71,0,0,0-1.28-2.63C14.06,16.47,14,16,14.62,16A10.27,10.27,0,0,1,16.44,17.41Z" fill="#212121"/><rect width="50" height="50" fill="none"/></svg>