<svg xmlns="http://www.w3.org/2000/svg" viewBox="0 0 50 50"><path d="M23.23,12.83a1.71,1.71,0,0,0-.35,1,25.28,25.28,0,0,0,1.48,5.74,4.63,4.63,0,0,1,.63,3c-.14.69-.46,1-1.76,1.56-2,.86-5.31,4.15-5.82,5.74a11.36,11.36,0,0,0,.25,5.53,9.4,9.4,0,0,1,.44,1c.11.44.72.52,4.7.64,2.51.06,5.25.2,6.08.32,2.43.31,3-.55,1.53-2.23a6.73,6.73,0,0,1-1.18-2.48c-.35-1.52-.35-1.55.55-2.79a3.91,3.91,0,0,0,.89-2.66c0-1.24.09-1.44.87-1.87,1.29-.72,1.21-2-.23-3.4-1.1-1.1-1.1-1.13-.58-1.79,1.35-1.73,2.48-5.34,2-6.29s-1.59-.69-3.2,1.15L28,16.81l-.58-.92C25.68,13,24.18,11.88,23.23,12.83Zm2.11,1.74c1.44,1.7,1.87,2.59,2,4.18s.54,2.1.69.95c.17-1.62.4-2.05,2-3.75s2.31-2.16,2-1.24c-.09.29-.2.86-.29,1.27a18,18,0,0,1-2.22,4.5l-.58.92.67.35a4.22,4.22,0,0,1,2,2.33c0,.35-.23.52-.64.52-1.24,0-1.44.38-1.24,2.11a2.91,2.91,0,0,1-.72,2.91,2.75,2.75,0,0,0-.78,2.54,6,6,0,0,0,1.5,3.63l.78.92H29.29a2.1,2.1,0,0,1-1.53-.46c-.32-.37-.92-.43-4.44-.23l-4.1.2-.49-1a6.64,6.64,0,0,1-.2-5.42,13.9,13.9,0,0,1,5.36-4.9l2-1.07L26,22.18a3.85,3.85,0,0,0-.55-2.65,15.26,15.26,0,0,1-1.15-3.09c-.92-3.46-.69-3.86,1-1.87Z" fill="#212121"/><path d="M25.48,31.87a2.67,2.67,0,0,1-.58,1.38c-1,1.24-.75,1.59,1,1.65.87,0,1.59,0,1.59-.18a11.63,11.63,0,0,0-.72-1.87C26,31.18,25.48,30.77,25.48,31.87ZM22.25,34a1.12,1.12,0,0,0-.52.72c0,.6,1,.31,1.36-.41S23.09,33.28,22.25,34Z" fill="#212121"/><rect width="50" height="50" fill="none"/></svg>