<svg xmlns="http://www.w3.org/2000/svg" viewBox="0 0 50 50"><path d="M14.25.2C13.5.48,12.38,3,11.35,6.58l-1,3.26L9.31,8.69C8,7.25,7.8,7.25,6.48,8.37c-.91.84-1,1.15-.91,3.31l.12,2.39-2,1.19C1.27,16.66.91,17.77,2.34,19.2a5.18,5.18,0,0,0,3,1.24c1.47.2,2.07.44,2.07.88,0,1.23,3.59,6,7.77,10.28L19.43,36l0,2c-.08,5.3-.55,8.68-1.27,9.4-1.2,1.2-1,2.27.56,2.55,1.71.32,3.38-.36,3.86-1.59a24.32,24.32,0,0,0,.64-3.91c.36-4.14.71-4.22,1.43-.32.44,2.36.44,2.48-.4,3.07-1.07.76-1.11,1.6-.12,2.15a3.23,3.23,0,0,0,4.11-.87c1.31-1.44,1.35-2.15.12-6.46a9.94,9.94,0,0,1-.44-4l.28-1.63h3.26a23.72,23.72,0,0,0,4.47-.28c1.15-.28,1.31-.2,2.11,1.27a6.67,6.67,0,0,1,.87,2.19c0,1.08-2.39,5.5-3.66,6.86a3.14,3.14,0,0,0-1,2c.2,1,2.08,1.63,3.51,1.07.72-.28,1.27-.28,1.51,0,.68.68,3.43.68,4.55,0s1.71-1.71,2.47-5.65c1.23-6.34,1.23-6.54-.12-8.53l-1.28-1.79,1.51.08,1.52.08.36-2.79c.56-4.46.4-6-.84-7.89-1.71-2.55-4.26-3.67-8.29-3.59-13,.2-19.28.44-20.35.68-.84.2-1.32.16-1.64-.24a24.73,24.73,0,0,1-2.71-5.06c-.28-.87-.24-.91,1.36-.63a3.14,3.14,0,0,0,2.15-.16c.4-.32.92-.16,2,.55,2.39,1.64,4.58,1.08,3.51-.91-.32-.64-.24-.84.55-1.2.56-.28,1-.71,1-1s.64-.84,1.44-1.2c1.23-.6,1.39-.84,1.19-1.67a1,1,0,0,1,.52-1.4,1.82,1.82,0,0,0,.8-2.63c-.4-.47-.92-.55-2-.39-1.39.23-1.51.16-1.51-.68a1.71,1.71,0,0,0-1.79-1.87,2,2,0,0,1-1.28-.44A1.77,1.77,0,0,0,20.91.8c-.88.12-1,.32-1,2.31,0,2.27-1.19,5.74-1.83,5.34s-.4-1.6.44-2.67,1-2.59.16-2.95a8.58,8.58,0,0,1-2-1.59C15.37-.08,15.17-.2,14.25.2Zm1.12,1.87c0,.8.16.92.88.72l.87-.2-.91,1.16c-1,1.31-.52,1.75,1,.75.56-.35,1.12-.55,1.24-.47s-2.19,2.67-3.31,3.3c-.4.28-.64.6-.44.8s.52.08.76-.16c.8-.8,1.11-.56.72.52-.32.87-.28,1,.43,1,.44,0,.68.16.56.4a1.72,1.72,0,0,1-1.23.4c-.56,0-.92.16-.76.36s-.12.48-.48.56,0,.2.92.24c2.07,0,3.42-1.12,4.78-4.23a6.42,6.42,0,0,0,.8-3.78c-.24-1.52.23-2.11.71-.88.2.48.52.56,1.28.4,1-.28,1.07-.24.83,1.31s.24,2.28.64,1.12c.08-.24.32-.36.48-.2s.08.56-.2.92c-.88,1.07-.16,1.07,1.12,0s2.07-1.28,2.07-.6c0,.2-.12.4-.28.4a10,10,0,0,0-2.91,2.55c0,.12.4.24.92.28.83,0,.83,0,.08.28-1.36.43-2.71,1.59-2.39,2,.16.28-.12.44-.68.44a8,8,0,0,0-1.87.27L20,12l1.36,1.12c1.91,1.55,1.15,1.91-.92.4-1.56-1.16-4.26-1.76-3.71-.84.16.24-.2.28-1,.16a8.53,8.53,0,0,0-2.67,0c-1.28.28-1.4.36-.88,1a23,23,0,0,1,1.87,3.34c1.68,3.51,2.87,4.47,5,4.07,1.36-.24,11.44-.6,20.12-.68,3.31,0,5.94,1.08,7.09,3,1,1.55,1.12,2.91.6,6.85-.36,2.67-.4,2.75-.91,1.71L45.53,31l-.72.95c-1,1.24-1,2.12.24,3.87,1,1.43,1,1.63.6,4-1.32,7.77-1.87,9-4.27,9H40L41,48c1.35-1.08,1.75-2.31,2.11-6.06.2-2.15.16-3-.16-2.79a2.81,2.81,0,0,0-.68,1.44,13.1,13.1,0,0,1-1.63,3.23A13.15,13.15,0,0,0,39,46.73c-.23,1-1.63,1.8-2.94,1.8-1,0-1-.2.2-1.52,1.39-1.51,3.78-6.17,3.78-7.41a9.85,9.85,0,0,0-1.23-3.26c-1-1.64-1.44-2.16-1.92-2a15,15,0,0,1-7,.8C28.36,35,27,34.9,27,34.94a10.22,10.22,0,0,0-.36,2.63,13.75,13.75,0,0,0,.68,5.34,20,20,0,0,1,.84,3.39c0,1-1.48,2.23-2.71,2.23H24.33l1-.76c.84-.64.92-1,.72-2.67a18.89,18.89,0,0,0-.88-3.74c-.36-1-.8-2.35-1-3s-.39-1-.51-.6-.44,1.24-.72,2a35.26,35.26,0,0,0-1,4.9c-.48,3.67-.83,4.27-2.55,4.27-.91,0-.91,0-.28-.76.8-.88,1.36-4.62,1.52-9.88.08-3.07,0-3.47-.68-3.87A53.72,53.72,0,0,1,15.25,30c-4-4.14-6.65-7.93-6.65-9.52,0-.8-.24-.92-2.47-1.16s-3.43-.91-3.51-1.91A9.34,9.34,0,0,1,4.77,15.9C7.28,14.5,7.64,14.07,7,13.23s-.08-1.24.84-.64c1.12.68,1,0-.2-1.11a3,3,0,0,1-1-1.56c0-.4.4-.16,1.16.68,1.43,1.55,2,1.67.92.16-1.2-1.71-1.36-2.07-.92-2.07.24,0,.72.55,1,1.23.47.84.87,1.16,1.47,1.08,1-.16,1.19-.52,2.27-4.11C14.05,1.87,15.37-.36,15.37,2.07Zm25.7,44.31c-.92,1.43-1.2.91-.36-.72.4-.72.75-1.08.87-.8A2.66,2.66,0,0,1,41.07,46.38Z" fill="#212121"/><path d="M11.7,11.36c-.39.08-.71.35-.71.59s.4.32.91.16a7.87,7.87,0,0,1,1.4-.24c.28,0,.4-.19.28-.39C13.34,11.08,12.9,11,11.7,11.36ZM40.87,35.22c0,1,1.39,2.55,2.27,2.55.52,0,.4-.28-.52-1.31a17.56,17.56,0,0,1-1.43-1.68C41,34.58,40.87,34.78,40.87,35.22Z" fill="#212121"/><rect width="50" height="50" fill="none"/></svg>