<svg xmlns="http://www.w3.org/2000/svg" viewBox="0 0 50 50"><path d="M33.28,3.83c-1.36.22-1.79.48-1.88,1.23-.13,1,1.31,2.32,2.63,2.32A1.64,1.64,0,0,1,35.3,8.52c.57,1.57.22,1.75-1.14.7s-2.24-.88-2.94,1l-.52,1.49-3.11,0c-1.67,0-6.7.13-11.13.22C9,12.2,8.27,12.28,6.3,13.29c-2.67,1.36-3.37,2.45-4,6.09a12.35,12.35,0,0,0,.22,5.91c1.05,4.34,1,6.27-.35,7.84a4.59,4.59,0,0,0-1.09,2.63,20.82,20.82,0,0,1-.66,3.86C-.1,41.68-.14,42.46.3,43.69c.79,2.28,1.18,2.67,2.76,2.67,2,0,2.85-.39,2.85-1.31,0-.48.43-.88,1.31-1s1.31-.52,1.31-1.31a2.91,2.91,0,0,0-.87-1.84c-1.36-1.23-1.14-3.46.52-5.57,3.33-4.07,3-3.89,5.22-3.11,1.88.66,6.61.62,11-.13,1.79-.3,1.66-.7,1.84,6.27a17.05,17.05,0,0,0,.52,4.86,9.51,9.51,0,0,0,2.32.92c1.62.44,2.06.44,2.94-.13,1.53-1,1.75-2.24.66-4.08a5.35,5.35,0,0,1-.71-3.81c.14-1.22.22-2.45.22-2.76s.75-.74,1.58-1c1.45-.49,4.16-3.6,4.16-4.78,0-.26.57-.48,1.27-.48A4.21,4.21,0,0,0,41.65,26c1.05-.88,1.22-1.4,1.36-3.59a12.16,12.16,0,0,1,.74-3.9,12.8,12.8,0,0,0,.88-2.45,2.43,2.43,0,0,1,1.57-1.71,4.16,4.16,0,0,0,2.46-4.21c-.22-.74-.09-1,.35-1,.74,0,1.22-1.05.87-1.93-.26-.65-5.34-2.45-7-2.45a3.22,3.22,0,0,0-1.75.61c-.7.53-.92.44-1.71-.43-1-1.14-3.37-1.58-6.18-1.1Zm5.3,1.84a4.11,4.11,0,0,1,.88,2.23c.35,2,1,2,1.66-.08.62-1.89,1.54-2.06,5.08-1,3.2.92,3.46,1.62.49,1.23-2.11-.27-2.19-.27-2.85,1.05s-.53,2.67.39,2.67a4.74,4.74,0,0,0,1.71-.92c1.36-1.1,1.8-.88,1.4.7a3.35,3.35,0,0,1-1.88,1.88,3.41,3.41,0,0,0-2.19,2.68,11.05,11.05,0,0,1-1.05,2.54,5.49,5.49,0,0,0-.48,2.89c0,2.41-.79,4.25-1.89,4.25-.52,0-.44-.22.22-.88A2.79,2.79,0,0,0,40.9,23c0-.88-.08-.84-.61.35-.35.7-.61,1.05-.66.74,0-1.14-.78-.44-2.36,2.19-2.67,4.6-3.55,5.3-6.4,5.26-1.62,0-1.66,0-1.92,2a40.6,40.6,0,0,0-.27,4.2c0,1.93.22,2.46,1.4,3.68,1.67,1.76,1.36,2.24-.83,1.4l-1.66-.65-.13-3.9c-.05-2.19-.14-4.82-.22-5.87l-.09-1.88-2.63.26c-7.71.83-8.89.83-11.21,0L11,30.07,9.85,31.38c-4.56,5.35-5.92,7.05-6.49,8.32-.74,1.54-.78,1.45,1.14,4.39.62.92.57,1-1,1-1.27,0-1.58-.13-1.45-.79a1.29,1.29,0,0,0-.39-1.18c-.4-.35-.4-.92-.09-2.41.26-1.1.57-2.85.7-3.9a9.18,9.18,0,0,1,1.31-3.5c1-1.45,1.1-1.89.84-4.69a22.24,22.24,0,0,0-.75-4.38c-.52-1.4-.22-5.74.53-7.36a7.28,7.28,0,0,1,2.27-2.15c1.63-1,2.28-1.18,6.22-1.27,2.41,0,5.17-.08,6.14-.08s4.42-.09,7.66-.27c3.94-.22,6-.17,6.18.13a1,1,0,0,0,1.09.14c.79-.31.79-.4-.13-1a2.37,2.37,0,0,1-1-1.71v-1l1.57,1.05c1.32.88,1.75,1,2.24.57,1.35-1.09-.44-5.17-2.28-5.17-1.49,0-1.75-.78-.35-1C35.56,4.75,37.84,5.06,38.58,5.67ZM30.7,35.46c-.27,2.67-.22,3.28.57,4.6,1.31,2.19,1.14,2.67-.4,1s-1.57-2.72-1.05-6.75C30.3,31,31,32,30.7,35.46ZM6.39,41.37c1.09,1,1.05,1.49-.22,1.49-1.71,0-2.15-1-1.49-3.16.52-1.88.52-1.88.7-.52A4,4,0,0,0,6.39,41.37Z" fill="#212121"/><rect width="50" height="50" fill="none"/></svg>