<svg xmlns="http://www.w3.org/2000/svg" viewBox="0 0 50 50"><path d="M24.27,12.5a33.09,33.09,0,0,1-4.28.59,12.11,12.11,0,0,0-5.93,1.81C11,16.51,9.28,18,9.28,19.22c0,.79-2,4.31-3,5.2A4.7,4.7,0,0,0,5,27a1.58,1.58,0,0,0,.53.79c.46.46.59.46,1.48,0a3.48,3.48,0,0,0,1.38-1.39,8.78,8.78,0,0,1,1-1.68l.59-.79v1.35c0,1-.16,1.49-.72,1.85a3.09,3.09,0,0,0-1,2.07C8.13,30,7.83,31.77,7.6,33l-.43,2.24,1,.83c1.84,1.58,4.51.49,3-1.19-.52-.59-.52-.72,0-2.24A4.61,4.61,0,0,1,13,30c1.28-.93,1.41-1,1.28-.4a1.45,1.45,0,0,0,.33,1.25,9.26,9.26,0,0,1,1,1.72A11.39,11.39,0,0,0,17.35,35a2.94,2.94,0,0,0,2.9,1.31c2.31,0,2.44-.69.43-2.73-1.78-1.78-2-2.44-1.55-3.62.36-.83.53-.89,2.77-1A20.65,20.65,0,0,0,25,28.77c.6-.13.83.1,1.55,1.68a9.1,9.1,0,0,1,.86,3.26c0,2.4.53,3.39,2,3.82s2.9.16,2.9-.53a.8.8,0,0,1,.59-.62A3.27,3.27,0,0,0,35,33.15a10.37,10.37,0,0,0-.26-2c-.23-.79.69-.79,1.74,0a5.7,5.7,0,0,0,2.34.88,7.61,7.61,0,0,1,2.21.66,2.3,2.3,0,0,0,3-.26c1-1.22,1.12-1.45.53-2.77a13,13,0,0,1-.73-2.93c-.16-1.45-.3-1.65-.92-1.58s-.76-.13-1-1a48.79,48.79,0,0,1-.42-5.53c0-1-1.49-2.9-2.18-2.9a1.16,1.16,0,0,0-.79.56c-.26.49-.49.39-1.84-.86-2.34-2.17-4.45-3-8.11-3.16a22.25,22.25,0,0,0-4.41.2Zm8.86,1.58a17.28,17.28,0,0,1,3.46,2.43c2.17,1.88,2.67,2,2.67.83,0-.66,0-.69.66-.1a2.41,2.41,0,0,1,.65,1.61c0,3.73.63,7.18,1.35,7.65a.9.9,0,0,0,.86-.27c.46-.39.53-.33.33.56-.2,1.06.36,3.49.86,3.82.19.13,0,.56-.4,1-.66.69-.79.73-1.78.33a17.56,17.56,0,0,0-2.37-.72A12.83,12.83,0,0,1,37,30.28a8.77,8.77,0,0,0-2.44-.82c-1.15-.23-1.25-.2-1,.36a15.32,15.32,0,0,1,.4,2.64c.2,2,.16,2-.92,2.7s-1.62.66-1-.1a.87.87,0,0,0,.23-.82.36.36,0,0,1,.13-.53c.66-.4.33-1.75-.73-3.06a6.22,6.22,0,0,0-1.28-1.36,6,6,0,0,0-.43,2.24c-.23,2.41.27,4.12,1.32,4.55.72.26.56.76-.26.76a1.59,1.59,0,0,1-1.68-1c-.14-.36-.2-.33-.23.16-.1,1.32-.63-.52-.66-2.3a9.88,9.88,0,0,0-1-3.79c-1.09-2.4-.76-2.31-5.17-1.84-1.68.19-2.41.16-2.41-.1,0-.76-.52-.3-1.38,1.22l-.89,1.58.79,1.38a12.16,12.16,0,0,0,1.88,2.41l1.08,1-1.21-.17c-1.49-.23-2.54-1.28-3.89-4-.79-1.52-.89-2-.66-2.74.53-1.35.4-1.48-.89-.82-2.77,1.42-3.92,2.54-4.51,4.32-.5,1.54-.5,1.78,0,2.7.26.56.49,1,.49,1.08a2.36,2.36,0,0,1-.82-.09c-.53-.1-.83-.37-.83-.73a.81.81,0,0,0-.33-.72c-.23-.07-.23-.66,0-1.75.19-.92.42-2.24.52-3a4.43,4.43,0,0,1,1-2.18c.76-.79.79-1,.59-3.23a8.68,8.68,0,0,0-.46-2.5C10,21.69,8,24.65,7.57,25.8a2.92,2.92,0,0,1-.92,1.09c-1.19.72-.76-.3,1.15-2.87a17.44,17.44,0,0,0,2.34-4.18c.59-2,.89-2.34,4.35-4.05a11.49,11.49,0,0,1,5.27-1.55,33.87,33.87,0,0,0,4.18-.66C26.11,13,31.29,13.25,33.13,14.08ZM31.68,32.52a2.54,2.54,0,0,1-.49,1.22c-.43.59-.46.5-.5-1s.07-1.54.5-1.18A1.52,1.52,0,0,1,31.68,32.52Z" fill="#212121"/><path d="M34.81,18.36c-.36,1.15.72,4.18,1.32,3.59a3.67,3.67,0,0,0-.33-1.42c-.56-1.68-.17-2.17,1.05-1.28,1.52,1.12,1.75,1.18,1.75.66s-1.52-1.72-2.7-2C35.21,17.73,35,17.83,34.81,18.36Zm5.76,10.08c-.85.89-.69,1.51.2.79.5-.4.53-.36.33.3-.16.42-.1.72.1.72.49,0,.82-1.48.46-2.14C41.4,27.68,41.27,27.71,40.57,28.44Z" fill="#212121"/><rect width="50" height="50" fill="none"/></svg>