<svg xmlns="http://www.w3.org/2000/svg" viewBox="0 0 50 50"><path d="M24.81.41c-1.27.75-.86,1.5,1.71,3.19,6.22,4.1,10,7.48,9.32,8.43a1.61,1.61,0,0,0-.1,1.94q1,2.25-3.53,2.25a19.31,19.31,0,0,0-5.37,1.07,16.82,16.82,0,0,1-10.42.4c-3-.68-4.79-.42-7.76,1.1C6.26,20,5.68,21,3.93,26.64a65.67,65.67,0,0,1-2.74,7.5c-1.82,3.58-1.56,6,.83,8.09C3.61,43.62,4,44.18,4,45.4c0,2.93,1,4.19,3.55,4.25,1.22,0,2.95.11,3.85.15,2.63.15,3.68-1.47,2-3-2.08-1.87-2.35-6-.62-9.78a17,17,0,0,0,1.11-2.93c0-.94,1.16-2.12,1.5-1.56,1,1.71,8.75,3,12.17,2l1.07-.3V40.3c0,9.18.34,9.93,4.49,9.63,2.63-.19,3.06-1.09,1.54-3.27-1.17-1.71-1.2-1.78-.9-6.18.32-4.75.39-5,1.71-5.69,1-.56,8.56-8.71,8.82-9.52.15-.43.49-.39,1.5.19,3.4,1.95,5.81-2.44,3.16-5.73a8.61,8.61,0,0,1-1.54-2.91,5.29,5.29,0,0,0-1.22-2.31,30.26,30.26,0,0,1-2.63-4.28C41.58,6.51,35.39-.23,34.11,0c-2,.39-1.75,1.5,1.09,4.71L38,7.85,34.9,5.42C29.53,1.14,26.28-.47,24.81.41Zm7.8,4.88a67.75,67.75,0,0,1,6.12,5.22c1.84,1.79,3.45,3.14,3.57,3,.43-.4-2.71-5.58-4.83-8-1.11-1.26-2.42-2.78-2.91-3.36l-.88-1,1.44,1c2.22,1.54,6,6.35,7.63,9.71A18.41,18.41,0,0,0,45,15.6a2.66,2.66,0,0,1,.84,1.75,5.6,5.6,0,0,0,1.54,2.7c2.46,2.74,1.37,5.17-1.67,3.72-1.58-.75-2.85-.92-2.91-.39-.13,1.46-.79,2.4-4.15,6-2.1,2.28-4.24,4.21-4.73,4.27-1,.15-1.13.56-1.6,5-.54,5.2-.43,6.78.6,8.21a7.13,7.13,0,0,1,.94,1.61c0,.53-3.21,0-3.25-.52a3.35,3.35,0,0,0-.15-.64c-.07-.06-.18-3.08-.28-6.74C30,32.18,30.54,33,25,33.22c-5.05.24-8.06-.55-9.41-2.46-.9-1.3-1.18-1.09-2.68,2-.75,1.58-1.6,3.36-1.92,4-1.5,2.91-1.29,7.75.45,9.8,1.32,1.56,1.3,1.76-.13,1.73-2.12,0-3.27-2.09-3-5.26.23-2.39-.15-4.26-.73-3.66-.86.86-.75,6.36.15,7.62l.94,1.33H7.46c-1.67,0-2.44-1.76-2.08-4.6a9.89,9.89,0,0,0-.13-3.45c-.34-1.22-.23-1.69.86-3.4a10,10,0,0,0,1.26-2.5.78.78,0,0,1,.47-.69c.79-.25.56-3.63-.4-6-1.2-2.95-2.93,3.57-3.21,12a6.34,6.34,0,0,1-.45,2.57c-.22.21-.28-.05-.15-.62.21-.84.13-.95-.64-.71s-.82.13-.65-.3c.84-2,.86-2.33.15-1.45-1,1.19-1.28.53-.47-1.05.71-1.37.52-2.44-.23-1.26s-.37-.07.85-2.46c1.12-2.21,4-10.83,3.88-11.49-.09-.41,2.05-2.27,3.33-2.91,2-1,3.77-1.13,6.81-.49,4.15.9,7.25.79,9.54-.28A15.92,15.92,0,0,1,31.33,18a14.94,14.94,0,0,0,4.36-.82,5.6,5.6,0,0,1,2-.57c1,0,1.15-.77.25-1.46a3.69,3.69,0,0,1-.92-1.75l-.32-1.29,1.61,1.22c.87.67,1.71,1.12,1.81,1,.77-.75-5.28-6.63-10.46-10.14C27.89,3,26.22,1.78,26,1.57,25,.62,30.05,3.47,32.61,5.29ZM6.75,32.78c-.43,2.26-.81,1.32-.43-1,.2-1.14.43-1.69.52-1.26A7.39,7.39,0,0,1,6.75,32.78Z" fill="#212121"/><rect width="50" height="50" fill="none"/></svg>