<svg xmlns="http://www.w3.org/2000/svg" viewBox="0 0 50 50"><path d="M35.91,10.87a8.37,8.37,0,0,0-.56,2.39,2.91,2.91,0,0,1-1.47,2.6,12.13,12.13,0,0,0-2.08,1.86c-1.43,1.69-3.26,2.14-7.83,1.86-6.7-.42-11.44,1.19-12.88,4.39a7.32,7.32,0,0,1-2.42,2.6c-2.92,2-3.41,2.67-3.62,5-.35,4.25,1.19,5.23,3.58,2.21a7.92,7.92,0,0,1,1.65-1.75,7.52,7.52,0,0,1,.21,2.8c-.07,3.62.35,4.22,3.23,4.22,2.39,0,3.13-.56,2.6-2A1.46,1.46,0,0,0,15.2,36a1.29,1.29,0,0,1-1-.67,5.22,5.22,0,0,1,1.19-3.65c.53-.46.53-.42,0,.63-.81,1.51-.73,2.18.25,3.23A18.51,18.51,0,0,1,17.2,37.8c.91,1.76,1.26,2,3.23,2s2.84-.56,2.7-2.11c-.1-1.08-.21-1.23-1.26-1.33S20.6,35.94,20,34.82l-.7-1.37.81-1.61L21,30.18l3.72,0c3.65,0,3.72,0,4.15.84a17.6,17.6,0,0,1,.66,3.69c.32,3.19.74,4.53,1.58,4.88a11.94,11.94,0,0,0,5.13-.14,1.52,1.52,0,0,0,.67-1.37c0-1.16-.5-1.69-1.76-1.86-.88-.11-.88-.14-.88-3.69V28.92l1.23-1.26A12.26,12.26,0,0,0,37.6,24l.91-2.35,2.74-.21c2.14-.14,2.88-.32,3.23-.85,1.05-1.44.74-2-3.12-5a5.43,5.43,0,0,1-2.15-2.53C38.76,10.66,36.72,9.36,35.91,10.87Zm2.21,2.57a5.24,5.24,0,0,0,1.34,2.28c.42.28,1.16.84,1.65,1.23S42.48,18,43,18.53c1.51,1.19.81,1.72-2.35,1.82a5.89,5.89,0,0,0-2.92.53,12.58,12.58,0,0,0-1.23,2.84,5.61,5.61,0,0,1-1.79,3.13c-1.37,1-1.72,2.28-1.72,6.21,0,3.62.25,4.25,1.65,4.25.57,0,.81.21.81.7,0,.64-.24.71-1.93.71h-1.9l-.52-1.83a23.12,23.12,0,0,1-.63-3.62A8.12,8.12,0,0,0,30,30.64a4.18,4.18,0,0,1-.46-1.26c0-.28-1.16-.39-3.58-.35A37.65,37.65,0,0,1,21,28.78c-1.09-.21-1.3-.18-1.13.21A5.22,5.22,0,0,1,19,31.45l-1.05,2,1,1.86c.81,1.54,1.16,1.89,2.11,2,.63.11,1.15.28,1.12.42v.64c0,.17-.7.35-1.55.35-1.47,0-1.58-.07-2.49-1.69a24.07,24.07,0,0,0-1.51-2.28c-.46-.53-.46-.84,0-2.81.53-2.14.49-3.23-.1-2.32-.18.28-.32.35-.32.21s-.67.32-1.47,1.09c-1.34,1.3-1.48,1.58-1.62,3.51s-.11,2.07.77,2.32a2.29,2.29,0,0,0,1.27,0c.21-.14.35.1.35.52,0,.67-.18.74-1.83.63l-1.86-.1-.1-3.13c-.11-2.84,0-3.19.73-4,1.51-1.72,1.69-2,1.37-2.85s-.35-.77-1,.56a5.68,5.68,0,0,1-2.42,2.36A9,9,0,0,0,7.79,33C6.63,34.64,6,34.54,6,32.54s.24-2.5,3.12-4.81a16.94,16.94,0,0,0,3.27-3.44A5.38,5.38,0,0,1,14.78,22a16.73,16.73,0,0,1,8-1.41c2.49.36,6,.22,7.41-.38a11.82,11.82,0,0,0,3-2.25,6.09,6.09,0,0,1,2.39-1.75.61.61,0,0,0,.63-.64,27.29,27.29,0,0,1,.53-3.86C37,11,37.53,11.61,38.12,13.44Z" fill="#212121"/><rect width="50" height="50" fill="none"/></svg>