<svg xmlns="http://www.w3.org/2000/svg" viewBox="0 0 50 50"><path d="M2.6,2.36c-2,2.4-2.36,3.7-1.49,5.38.33.63.33,2.17-.1,5.1C-.1,20.64.58,26.6,2.89,30a25.77,25.77,0,0,1,2.4,5.77c1.3,4.67.92,8-1.06,8.85C2.89,45.27,2.16,47.33,3,48.3s8.9,1,9.62.14c1-1.2,3.42-8.61,3.42-10.39V36.22l3.22-.29c2.94-.24,3.32-.14,4,.77a19.73,19.73,0,0,0,2.31,2.51c1.34,1.25,1.53,1.68,1.29,3a4.45,4.45,0,0,1-1.68,2.5c-1.44,1.11-1.83,2.79-.82,3.8.63.62,4.14.77,5.05.19a10.7,10.7,0,0,0,1.83-3.17c.92-2.07,1.44-2.7,2-2.5a7.83,7.83,0,0,0,1,.28c.57,0,0,2.07-.77,2.89-1.11,1.11-1.25,2.41-.39,3.27s5,.72,5.63-.09a13,13,0,0,0,.82-4.29c.29-3.32.43-3.6,1.2-3.22a4.74,4.74,0,0,0,2.12.48c1.39,0,5.53-2,6.44-3.08.72-.86.24-2.69-.72-2.69a4.19,4.19,0,0,1-1.54-.43,23.53,23.53,0,0,0-3-1.21c-2.69-1-5.53-3.75-8.08-8-2.41-4-4.76-5.53-9.67-6.25-5.15-.77-8.71-1.83-10-3s-3.41-4-2.59-3.51,2-.53,2-1.63a4.45,4.45,0,0,0-1.64-2.26,11.47,11.47,0,0,1-2.45-3.18,5,5,0,0,0-2-2.36A4.41,4.41,0,0,1,7.79,2.79C7.07,1.11,6.11,0,5.2,0A7.92,7.92,0,0,0,2.6,2.36Zm4,1A9.83,9.83,0,0,0,8.8,6.21a4.8,4.8,0,0,1,1.69,2.3,4.25,4.25,0,0,0,1.78,2.31c2.11,1.35,2.31,2.26.43,1.88s-1.78-.24-.48,2.26c2.16,4.28,4.71,5.73,12.31,7,6.69,1,7.22,1.39,11,7.26,2.84,4.38,6.25,7.17,9.52,7.7l1.88.28-1.4.63c-1.29.58-1.29.58-.28.63A5.07,5.07,0,0,0,47.33,38c.53-.33.92-.33.92,0s-1,1-2.26,1.74c-1.88,1-2.7,1.2-4.24,1a9.61,9.61,0,0,1-6.39-4.19c-.68-1.05-1.35-1.68-1.45-1.39-.24.67,1.45,3.37,3,4.81,1.29,1.25,1.58,3.13,1,6.88-.29,1.73-.39,1.83-2.17,1.83-2.07,0-2.4-.63-.91-1.54.72-.48,1-1.16,1-2.6,0-1.88-.09-2.07-1.92-2.79a19.5,19.5,0,0,0-2.12-.77,13.8,13.8,0,0,0-1.25,2.79c-1.49,3.65-1.78,3.94-3.66,3.94s-2.26-1.25-.53-1.87c.87-.34,1.35-1.16,1.93-3.27.58-1.93.67-2.84.29-3-1-.28-3.8-3-4.57-4.37s-.92-1.3-2.79-.87a17.3,17.3,0,0,1-4.28.29l-2.26-.15V36.8a25.43,25.43,0,0,1-1.35,6.49c-1.4,4.09-1.4,4.09-3.13,4.24-2,.19-2.4-.72-1-1.88a8.33,8.33,0,0,0,2.07-5.24c0-2.21-.82-1.73-1.16.67-.43,2.65-3.36,6.54-5,6.54s-1.4-.48.34-1.92c2.16-1.83,2.69-5.34,1.44-9.62a32,32,0,0,1-1-3.75,8.66,8.66,0,0,0-1.45-2.6C2.55,27,1.3,20.25,2.07,16.64A33.62,33.62,0,0,0,2.36,6.25c-.34-1.49-.29-1.58.33-.86,1,1.3,1.45,1.06,1.11-.68a2.66,2.66,0,0,1,.48-2.4C5.44,1.11,5.68,1.2,6.59,3.32Z" fill="#212121"/><rect width="50" height="50" fill="none"/></svg>