<svg xmlns="http://www.w3.org/2000/svg" viewBox="0 0 50 50"><path d="M36.66.45a1.66,1.66,0,0,0-.48,1,8.32,8.32,0,0,1-1,2.21,7.62,7.62,0,0,0-1,2.91,3.46,3.46,0,0,1-.84,2.05l-.85.9-1.34-.86c-1-.68-1.35-1.15-1.35-2.09a5.08,5.08,0,0,0-2.07-3.68A1.69,1.69,0,0,1,27,1.78c0-1.67-2.35-1.65-3.44,0-.88,1.35-.42,2.69,1.13,3.39,1.36.59,1.93,2,1.2,2.88-1.24,1.52,0,6.06,1.71,6.49,1.35.34,1.41,2.53.1,3.21l-2.85,1.49a8.56,8.56,0,0,1-5,1c-3.8,0-8.4,2.45-9.83,5.22-1,2-.62,9.55.57,10.29.22.14.2,1.08,0,2.41-.63,3.47-.23,8.94.74,10.26s2.71,1.65,3.39.55c.47-.77.49-.77,1.47,0,1.15.9,2.17,1,3,.18.57-.55.47-2.61-.12-2.61-.42,0-1.52-3-1.83-5.07A3.5,3.5,0,0,1,18,38.3a23,23,0,0,0,1.52-2.59c.45-1,.63-1.09,3-1.09h2.47l.3,2.09c.18,1.15.36,4.08.44,6.49.14,5.12.54,6.53,1.85,6.57.5,0,1.59.1,2.45.18,2.29.24,3.17-.36,2.83-1.93-.92-4-.56-12.79.61-15A10.17,10.17,0,0,0,35,28a10.13,10.13,0,0,1,.59-3.35c.48-1.31.64-2.91.58-5.93l-.06-4.13,1.18-.49c2.11-.9,2.69-4.44,1.07-6.73-.89-1.3-.65-2.09.84-3,1.73-1,1.79-2.05.16-3.41C38-.15,37.38-.27,36.66.45ZM38.81,2c.62.7.66.9.18,1-2,.7-3,3.17-1.83,4.68.75,1,.75,1.38.06,1.38s-3,1.93-3,2.63.34.67,1.45-.64c1-1.12,2.53-1.63,2.53-.82a3.66,3.66,0,0,1-2.11,3L34.71,14l.2,4c.16,3.4.06,4.3-.7,6.39A7.81,7.81,0,0,0,33.55,28a2.59,2.59,0,0,1-.33,2,3,3,0,0,0-.6,1.47c0,.38-.18.7-.38.7-1.06,0-1.61,13.16-.66,15.83.26.73.18.89-.48.89-1.21,0-1.43-1.17-1.67-8.76-.14-4.34-.38-6.93-.62-6.87-.47.12-.51,12.93-.06,14.52.3.93.24,1-.49.83-1-.25-1.16-.77-1.42-6.49-.12-2.53-.32-5.57-.46-6.79l-.21-2.19-3.43,0-3.42.06-1.78,3.11c-2,3.64-2.11,5.65-.24,9.62,1.12,2.35,1.08,2.82-.17,2.17-.94-.5-2.25-3.79-2.67-6.63-.7-4.8-1.56-3.51-1.28,1.93a23.26,23.26,0,0,0,.5,4.4c.26.6.16.72-.44.6-1.81-.36-2.39-9.14-.79-12.21.71-1.37.85-4.28.24-4.66-.24-.14-.4.4-.4,1.37,0,2-1,2.23-1.36.36C9.5,26.13,13,21.93,20.85,21.45c3.15-.19,3.84-.37,5.63-1.51a7.33,7.33,0,0,1,2.57-1.17c.36.08.62-.6.82-2.07.3-2.33,0-3.19-1.25-3.19-.88,0-1.46-.68-1.82-2.09s.9-1.48,2.41.1c1.34,1.39,1.79,1.51,1.52.4a4,4,0,0,0-3.21-2.39c-.78,0-.92-.14-.68-.7,1.06-2.45.64-3.51-2-5.1-.6-.36-.62-.52-.14-1.29.68-1.08,1.3-1.16,1-.12-.18.56,0,.83.56,1a4.15,4.15,0,0,1,2.41,3.81c0,1.15.17,1.57.77,1.77A5.27,5.27,0,0,1,31.2,10.4l1,1.24,1.33-1.46a5.79,5.79,0,0,1,1.7-1.45c.2,0,.35-.92.33-2,0-1.79.12-2.15,1.26-3.17.72-.61,1.11-1.25.9-1.37-.46-.3-.5-1,0-1A2.74,2.74,0,0,1,38.81,2Z" fill="#212121"/><rect width="50" height="50" fill="none"/></svg>