<svg xmlns="http://www.w3.org/2000/svg" viewBox="0 0 50 50"><path d="M14.5,13.92c-1.68,1.35-1.88,1.71-1.48,2.7.16.4.69.53,2.14.53H17.1v1.22a13.73,13.73,0,0,1-.66,3.33c-1.38,4.44-.43,7.28,3,8.79,1.42.66,1.91,1.65,1.29,2.77a1.33,1.33,0,0,1-1.09.69,1.44,1.44,0,0,0-1.55,1.55c0,1,1.22,1.49,3.43,1.35,1.68-.1,1.68-.1,1.71-1.25a5.6,5.6,0,0,1,.46-2c.4-.75.43-.75.86-.16.63.86.59,1.25-.2,1.75a1.2,1.2,0,0,0,.2,2.24,6.93,6.93,0,0,0,4-.93,1.06,1.06,0,0,0-.26-1.81.86.86,0,0,1-.66-.76,3.3,3.3,0,0,0-.17-1.05c-.29-.76,3.07-1.71,5.11-1.48,1.38.16,1.78.1,2.31-.43a3,3,0,0,1,1.38-.73c.53-.06.79-.36.86-1s-.13-1-2-2c-3.06-1.68-10.61-4.81-11.66-4.81a9,9,0,0,1-1.72-.2c-.69-.2-.72-.33-.53-1.81.33-2.5-.42-5.5-1.71-6.82C18,12,16.71,12.14,14.5,13.92Zm4.15.1c1,.69,1.48,2.7,1.55,6.09l0,2.8,1.32.27c3.82.76,5.7,1.32,6.79,2a4.44,4.44,0,0,0,1.55.82A29.38,29.38,0,0,1,36,29c.29.46-.46.46-1.65,0s-1.38-.2-.69.59c.85.93.69,1-1.29.83-1.68-.17-4.94.53-5.83,1.25a3.92,3.92,0,0,0,0,1.88c.16,1.25.36,1.68.85,1.81s.56.33.47.53a.55.55,0,0,1-.66.16.6.6,0,0,0-.7.17c-.09.2-.66.36-1.22.36-.82,0-.92-.07-.59-.46a.83.83,0,0,1,.86-.3c.69.27.59-1.68-.1-2.9s-2-1.18-2.8.36a3.82,3.82,0,0,0-.46,1.92c.1.62,0,.72-1,.72a6.09,6.09,0,0,1-1.58-.2c-.86-.33-.6-.79.49-.79.86,0,1.09-.2,1.65-1.51s.62-1.55.16-2.28A4.72,4.72,0,0,0,20.3,29.8C16.74,28,16.08,26.11,17.46,22c.8-2.43,1-5.14.27-5.56a6,6,0,0,0-2.18-.3A4.5,4.5,0,0,1,13.81,16a9,9,0,0,1,1.25-1.31C16.41,13.42,17.53,13.23,18.65,14Z" fill="#212121"/><rect width="50" height="50" fill="none"/></svg>