<svg xmlns="http://www.w3.org/2000/svg" viewBox="0 0 50 50"><path d="M15.62,13.1a1.81,1.81,0,0,0-.53.8c0,.14-.33.26-.75.26-1.77,0-2.56,2.69-.86,2.93,1.25.19,1.6,1.4.9,3.18-1.65,4.18.06,8.37,4.48,11l1.51.91-.65.62c-.94.9-1.7,2.49-1.52,3.17s2.34.76,3,0a1.32,1.32,0,0,1,.89-.49c.27,0,.72-.4,1-.89.47-.79.71-.92,1.9-1.07A5.89,5.89,0,0,0,27,33c.57-.38.62-.36.89.32.61,1.61.6,1.77-.23,2.23-1.68,1-.85,2.07,1.41,2,1.66-.09,2.32-.44,2.32-1.2a.74.74,0,0,1,.55-.61c.93-.24.6-1.59-.45-1.91-2.31-.68-1.6-3.45.74-2.94,1.19.26,3.43,1.9,3.43,2.53s1,1,1.48.52.48-1.21-.25-3.35c-.88-2.52-1.46-6-1-6.17,2.07-.69-2.74-5.71-6.24-6.49-1.66-.38-7.26.81-10.83,2.29-.43.17-.47,0-.47-2.19A7.23,7.23,0,0,0,18,15.31c-.22-.21-.18-.48.16-1C19.12,12.86,16.94,11.78,15.62,13.1Zm1.87.44a1.79,1.79,0,0,1-.44.66c-.4.44-.4.54,0,1.2s.44,1,.31,2.52c-.34,3.48,0,3.63,4.49,2.25,5.5-1.69,7.1-1.78,9.52-.6,1.33.66,3.93,3.27,3.94,3.95s-8.25,1.95-10.43,1.59c-3.8-.62-4.27-.08-.55.64,2.39.46,8.09-.08,9.68-.94.54-.29.58-.22,1.06,2.68a18.2,18.2,0,0,0,1,3.42,6.59,6.59,0,0,1,.59,2c0,.53,0,.53-.28-.12-.31-.87-2.73-2.52-4.32-2.94s-3.23.71-3,2c.36,1.74.86,2.53,1.55,2.53a1.15,1.15,0,0,1,.83.27c.09.15-.08.27-.39.27s-.55.17-.55.82-.05.79-.4.51-.42-.24-.56.11-.28.42-.44.42-.12-.17.07-.4c.44-.52.15-.5-.68,0-.37.24-.76.34-.87.23s0-.25.15-.32c1.57-.56,1.67-1.6.41-4.28-.48-1-.66-1.06-1.47-.24a4.79,4.79,0,0,1-2.3.95c-1.41.28-1.7.43-1.94,1s-.31.66-.48.21-1,.32-1.42,1.44c-.12.33-.17.32-.33-.08a1,1,0,0,1,.31-1c.36-.41.38-.52.09-.42a3,3,0,0,0-1,1c-.76,1.12-.8.52-.05-.68a4.21,4.21,0,0,1,3.45-2.07c2-.26,2.67-.44,2.67-.74s-.66-.17-1.67-.05c-2.57.32-3,.24-4.64-.85-4.55-3-5.6-5.46-4.21-9.68.54-1.66.65-2.28.42-2.51a1.4,1.4,0,0,1-.3-.87c0-.77-.5-1.2-1.39-1.2-.41,0-.75-.09-.75-.21,0-.41,1.1-1.12,1.74-1.12.45,0,.77-.24,1.06-.8s1.47-1.16,1.47-.62Z" fill="#212121"/><rect width="50" height="50" fill="none"/></svg>