<svg xmlns="http://www.w3.org/2000/svg" viewBox="0 0 50 50"><path d="M34.78.64a4.32,4.32,0,0,1-2.89.41c-4.76-.74-5-.74-5.84,0a31.07,31.07,0,0,1-3.47,2.36,15.82,15.82,0,0,0-3.72,3.14,6.16,6.16,0,0,1-2.48,2.07c-1.82.66-4.51,3.14-6.42,5.92-2.77,4-5.13,12.78-4.13,15.34.41,1,1.28.79,1.73-.49.29-.71.46-.87.46-.42a18,18,0,0,0,1.32,3.43c1.2,2.57,1.29,3,1.45,9,.29,8.56.17,8.15,2.69,8.15,2,0,2.11,0,1.82-.91a8.5,8.5,0,0,1,1.41-8.56l1.15-1.41.25,4.18c.29,5.29,1,6.83,3.35,7,2.61.21,2.94-.08,1.91-1.78-.75-1.2-.87-1.9-.71-3.84.29-3.93,1.16-7.53,1.78-7.53.46,0,.58,1,.58,4.84,0,4.13.12,5.09.83,6.2.54.91,1.11,1.37,1.78,1.37s2.15.12,3.55.25l2.53.29V48.62a5.19,5.19,0,0,0-.46-2c-.29-.53-.33-2.27-.16-5.17.33-4.34.33-4.34,1.65-5.13a5.93,5.93,0,0,0,1.82-1.86l.5-1.07.82,1.07c1.25,1.61,3.07,1.49,3.64-.21A8.5,8.5,0,0,0,42,32.07a13.4,13.4,0,0,1,.66-2.73,15.35,15.35,0,0,0,.66-5.09,28.63,28.63,0,0,1,.54-5.79c1.16-4.84.5-10-1.69-13.15a34.76,34.76,0,0,1-1.87-3C39,0,37.14-.6,34.78.64Zm3.81,1.11c.49.58.2,2.36-.37,2.36a.41.41,0,0,1-.38-.41c0-.25-.37-.42-.78-.42-1,0-2.53,1.86-2.53,3.15,0,1.11.13,1.16,1.29.58s1,0-.46,1.9a5.14,5.14,0,0,0-1.24,3.47c0,1.95-.87,3.73-1.82,3.73s-1.9-1.95-1.9-4.22c0-2.11-.13-2.24-1.7-3.35-1.82-1.24-1.94-1.78-.33-1.2,2,.74,2.61-.46,1.37-2.9-.58-1.16-.79-1.24-2.28-1-1.78.25-1.94.08-.91-1,.7-.78,3.23-1,3.64-.33s4.59.5,5.17-.2S38,1,38.59,1.75ZM25.1,4.36c-.12.62,0,1,.17.91s.87-.41,1.49-.7c1.32-.67,2.4-.09,2.4,1.24,0,.62-.25.7-1.45.49s-1.45-.12-1.45.54a5.24,5.24,0,0,0,1.66,2.28c1.53,1.4,1.65,1.69,1.65,3.68,0,1.82.17,2.31,1.2,3.35a4.91,4.91,0,0,0,1.61,1.2c.91,0,2.57-2.57,2.57-4A9.52,9.52,0,0,1,37,8c1.2-1.57,1.07-2.32-.38-2.11-1.07.16-1.15.08-.7-.58.54-.91,1.74-1,2.07-.13s1,.75,1.24-.33c.25-.86.29-.86,1.49.54,1.49,1.7,2,3.35,2.36,7.24a15.16,15.16,0,0,1-.46,5.5,29.28,29.28,0,0,0-.62,6,14.82,14.82,0,0,1-.62,5.21A10.56,10.56,0,0,0,40.74,32c0,3.6-1.78,2.73-4.47-2.11-.66-1.24-1.2-1.24-1.57-.08-.25.87-.29.87-.83.12-.29-.41-.45-.91-.33-1.07s0-.37-.37-.37-.7.57-.87,1.4c-.25,1.24-.41,1.41-1.36,1.33-1.16-.13-2.16-1.54-2.2-3.07,0-1-.74-1.24-1.07-.29s-.79.79-1.28-.33c-.42-.86-.46-.86-1.08.62-1,2.49-1.53,1.95-1.53-1.73,0-4.93-.58-7.45-3-12.74-1.12-2.48-1.45-5-.87-6.5.17-.53,4.8-3.93,5.3-3.93A3.32,3.32,0,0,1,25.1,4.36ZM20.18,14.91c1.74,3.84,2.23,6.08,2.61,12.16.33,5.17.37,5.25,2.07,3.35,1.11-1.33,1.44-1.49,1.65-.91s.37.58.83.2c.7-.57.62-.66,1.61,1.58.74,1.82,1.24,2.19,1.57,1.24.13-.37.29-.37.83,0,.7.62,1.57.33,1.49-.46-.17-1.4,0-1.65.78-1,.58.54.87.58,1.29.17s.58-.38.87.12c.7,1.12.45,1.7-1.7,3.76l-2.07,2,.13,5.09A30.37,30.37,0,0,0,32.63,48c.29.62.13.74-.7.74-1.61,0-2.36-2.56-2.36-8.06,0-3.56-.12-4.39-.5-4s-.57,2.19-.66,5c-.16,3.72,0,4.76.5,5.59.66,1,.66,1-.33,1-1.86,0-2.32-1.32-2.32-6.54s-.33-6.28-1.86-6.28c-1.28,0-1.49.41-2.36,4.55-.91,4.38-.95,6.78-.12,7.44s.78,1.66-.08,1.66c-2.11,0-2.57-1.82-2.61-9.64,0-4.76-.08-5.67-.62-5.67s-.62.46-.62,1.53c0,1.24-.33,1.91-1.61,3.27a11.88,11.88,0,0,0-2.28,3.6c-.74,2.23-.87,5.09-.25,5.46s.42,1.08-.49,1-1-.29-1.2-6.78-.29-6.75-1.78-10a16.77,16.77,0,0,1-1.49-4.88c0-2-.79-1.74-1.61.66l-.67,1.82L6.49,28c-.17-1.9,2.32-9.18,4.14-12.2a15.75,15.75,0,0,1,5.91-5.88l1.61-.87.5,1.78a33.07,33.07,0,0,0,1.53,4.06Z" transform="translate(0 0)" fill="#212121"/><rect width="50" height="50" fill="none"/></svg>