<svg xmlns="http://www.w3.org/2000/svg" viewBox="0 0 50 50"><path d="M18,12.52c-1.49.4-8.76,4.2-8.94,4.65a.58.58,0,0,1-.68.18c-.9-.36-4.1,1-4.6,1.85-.27.5-.81,1.4-1.27,2.08a3.46,3.46,0,0,0-.67,2A2.12,2.12,0,0,1,1,24.94c-1.67,1.3-1.08,3.47.86,3.47.54,0,.81.27.72.77-.14.72.27.81,2.93.81,2,0,3.3-.22,3.62-.58.63-.82,4-2.49,4.24-2.17.82.77-3.16,7-4.47,7a4.51,4.51,0,0,0-2,1.09C5,37,5.9,37.67,9.78,37.67c3,0,3.12-.05,6.33-2.39a35.69,35.69,0,0,0,4.11-3.53l.81-1L22.29,32l1.22,1.27-1,.54a1.37,1.37,0,0,0-.81,1.49c.13.9.4,1,2.84,1,1.49,0,2.85.18,3,.45a9.48,9.48,0,0,0,3.43.58c2.84.18,3.25.09,4.15-.85.55-.59,1.81-2,2.85-3l1.8-1.9,1.31,1.08a4.58,4.58,0,0,0,2.31,1.13c1,0,1,0-.09,1-1.31,1.22-1,1.9,1,2.39a4.29,4.29,0,0,0,4.92-1.62c.9-1.22.9-1.31.18-2.89A18.26,18.26,0,0,1,48.26,28a28,28,0,0,0-.86-4.25c-.22-.63-.31-1.22-.18-1.35.54-.59-.59-2.35-3-4.84-4.25-4.2-7.86-5.14-15-4-2.76.45-3.39.41-4.79-.27A11.32,11.32,0,0,0,18,12.52Zm5.83,2.16c.86.64,1.67.68,4.74.41,8.22-.81,11.2-.09,14.86,3.75,1.76,1.81,2.35,3.57,3.25,9.8a11.42,11.42,0,0,0,1.17,3.66,6.64,6.64,0,0,1,.86,1.89c0,.68-3.11,2-4,1.67-.59-.27-.45-.45.72-.76s1.44-.64,1.35-1.13c-.13-.73-.94-1.09-3.65-1.67a2.4,2.4,0,0,1-1.67-1.4c-.23-.64-.68-1.13-1-1.13a17.12,17.12,0,0,0-3.71,3c-2.71,2.57-3.34,3-5.28,3.2-1.4.18-2.17.09-2.17-.22s.68-.54,1.49-.63L32.23,35l0-3.39,0-3.38-2.8-.14c-3.12-.13-3.84.45-2.58,2.26.82,1.13.95,2.89.28,3.3-.28.18-.37.45-.23.67.32.5-.9.91-2.62.86l-1.44,0,1.49-.64a4.4,4.4,0,0,0,1.44-.85,36.76,36.76,0,0,0-4.83-4.75A10.71,10.71,0,0,0,19,30.63a30.8,30.8,0,0,1-4.24,3.83c-2.31,1.72-3.07,2.08-4.74,2.08-1.09,0-2-.22-2-.45s.5-.45,1.08-.45c.77,0,1.63-.68,3-2.4,2.08-2.52,2.49-3.38,3-6l.32-1.71-1.85.31c-1.94.27-5,1.81-5.6,2.71-.27.36-.36.32-.36-.09,0-.77-1.58-.67-2.26.14-.81,1-1.45.81-.9-.27.76-1.36.27-2.4-.86-1.76a5.36,5.36,0,0,1-1.67.45c-.68,0-.59-.23.4-1.27A4.34,4.34,0,0,0,3.55,23.9c0-1.45,1.58-4.52,2.22-4.29a1.68,1.68,0,0,0,1.44-.5c.45-.41,1-.59,1.31-.41a1.15,1.15,0,0,0,1.22-.31c.41-.32,2.26-1.45,4.15-2.49C16.78,14.32,17.73,14.05,20,14A6.66,6.66,0,0,1,23.83,14.68Zm5.78,14.91c.77.22,1,.67,1.13,2.16.13,1.81,0,2-1.31,2.4s-1.4.4-.72-.63.67-1.22,0-2.67S28,29.18,29.61,29.59Z" fill="#212121"/><rect width="50" height="50" fill="none"/></svg>