<svg xmlns="http://www.w3.org/2000/svg" viewBox="0 0 50 50"><path d="M28.14,17.73a5.3,5.3,0,0,0-1.6,5.64,5.43,5.43,0,0,1,.25,1.76,11.42,11.42,0,0,1-1.39-.38A20.24,20.24,0,0,0,22,24.21a11.71,11.71,0,0,0-7.24,1.65c-2.08,1.09-2.54,1.66-2,2.41.32.41.3.6,0,1.12s-.35.65.38,1.32c2.33,2.2,4.42,2.82,9.3,2.82,4,0,7-.48,8.84-1.43S33.54,30.61,33.7,29a6.5,6.5,0,0,0-1.38-4.58c-.84-1.27-.54-1.52,1.08-.84s3.58.57,3.93-.08c.44-.81,0-1.38-1.32-2-1.66-.7-2.2-1.22-2.2-2.17a2.87,2.87,0,0,0-.9-1.73,2.75,2.75,0,0,0-2.16-1.12C29.47,16.37,29.42,16.4,28.14,17.73Zm4.07.24a2.9,2.9,0,0,1,.68,1.52,4.07,4.07,0,0,0,2.82,2.93c.59.19,1.08.46,1.08.59,0,.36-1.92.25-3.17-.19s-2.79-.27-2.79.38a6.23,6.23,0,0,0,1,1.9,5.92,5.92,0,0,1,1,4.53c-.6,1.82-4.88,3.09-10.31,3.09-4.31,0-7.35-.87-8.7-2.49-.57-.71-.08-1.25,2.28-2.71A12.42,12.42,0,0,0,18.27,26a14.61,14.61,0,0,0-4.09,1.58c-.71.4-1,.48-.92.24.19-.6,3.17-2.09,5.07-2.6A9.71,9.71,0,0,1,21.85,25c1.95.22,5.07,1.09,5.32,1.5s.67.24.67-.57a16.72,16.72,0,0,0-.43-2.69c-.41-1.76-.38-1.92.11-3a8,8,0,0,1,1.38-2.08c.76-.79,1-.9,1.82-.76a3.89,3.89,0,0,1,1.49.62Z" fill="#212121"/><rect width="50" height="50" fill="none"/></svg>