<svg xmlns="http://www.w3.org/2000/svg" viewBox="0 0 50 50"><path d="M32.46.33A2.44,2.44,0,0,0,31,1.41a6.22,6.22,0,0,1-2.45,1.74C26.11,4.21,23.59,6.77,23.7,8a8.74,8.74,0,0,1-1.12,3.3C21.23,14,21,16.26,22,16.83c.52.3.57.76.23,2.2-.55,2.41-.55,5.57,0,6.6.43.83-.16,1.56-3.56,4.41l-1.05.87,1.17-2.5c4.65-10-6.49-17.1-12.9-8.21a31.79,31.79,0,0,1-2.64,3.21c-1.35,1.35-1.56,3.16-.37,3.23,4.08.26,7-1.53,7-4.33,0-1.19.74-1.67,2.59-1.67,3,0,3.79,2.29,1.81,5.41C11.05,31.2,8.51,37.71,8.51,40.92c0,1.81,3,7.86,4.26,8.69.94.59,16.57.43,17.19-.19,1.58-1.58-.53-5-3.09-5H25.45l1.1-1.71a4,4,0,0,1,2.4-2,16.92,16.92,0,0,0,3.05-1L33.72,39l.66,1.56a20.73,20.73,0,0,1,1,4.83,9.72,9.72,0,0,0,1,3.9c.71.71,8.16,1,9.1.32,1.72-1.17.92-4-1.4-5-3.16-1.33-2.36-9.33,1.24-12.17,1.95-1.54,1.9-11.07-.07-13.45-.39-.46-.34-.67.19-.87a1.1,1.1,0,0,0,.71-.9,10,10,0,0,1,.91-2.5c1.49-3.09,1.13-4.74-1.42-6.09a1.58,1.58,0,0,1-.87-1c0-1.17-1.9-4.27-3.62-5.89S36.38-.4,32.46.33ZM36,1.84c1.14.33,1.67.3,1.92-.09S42,4.5,42,5.31c0,1,2,4.33,2.77,4.56,2.18.71,1,6.8-1.46,7.45-1.1.29-1.08.41.34,2.47,1.67,2.43,2.06,11.67.48,11.16-.91-.32-3.21,5.09-3.41,8.05-.32,4.47.18,6.73,1.53,6.73a2.27,2.27,0,0,1,2.5,2c0,.78-.39.87-3.6.87h-3.6L37,45.28c-.6-4-.69-4.29-1.47-6.08-1-2.31-1.12-6.74-.25-8.45.8-1.54.71-2.2-.23-1.63S33.26,32.49,33.26,35v2.47l-2.27,1c-2.93,1.26-2.93,1.26-2.61-.76.78-5-7.15-6.44-10.54-2-.85,1.13-.16,1.56.91.58,5.55-5.07,10.75-1.11,6.88,5.22a9.12,9.12,0,0,1-2.8,2.91c-2.61,1.26-1.9,1.95,1.65,1.61,3-.3,3.21-.26,3.9.75,1.24,1.74,1.08,1.79-6.92,1.79-8.18,0-8.69-.14-9.1-2.64a6.87,6.87,0,0,0-1.08-1.81c-1.9-2.38-1-7.65,2.52-14.11,1-1.77,2.11-3.95,2.59-4.82a3.83,3.83,0,0,0-.66-4.93c-1.84-1.94-7.22-.89-7.22,1.43,0,1.16-1.33,3.3-1.35,2.15,0-.46-.26-.34-.74.34a2.43,2.43,0,0,1-1.65,1c-.87,0-.87-.09.28-1.42a19.59,19.59,0,0,0,1.88-2.75c2-3.87,9.05-4.15,11-.43,1.35,2.63.75,5.4-2.3,10.79-2.88,5-3.53,8.46-.78,4a13.85,13.85,0,0,1,3.33-3.28c2.45-1.67,7.77-6.78,7.77-7.47,0-.23-.62-.28-1.38-.12-1.67.37-1.79-.71-.69-6,.39-1.77.69-3.28.69-3.35s-.41,0-.91.14c-1.27.39-1.22-.81.11-2.94a9,9,0,0,0,1-1.94A5.22,5.22,0,0,1,26,9c1.49-1.38,1.61-1.84.35-1.45-2.8.9-.19-1.58,3.48-3.27,1.53-.74,2.7-1.54,2.61-1.84-.16-.45.21-.68,1.7-1A10.18,10.18,0,0,1,36,1.84Z" fill="#212121"/><rect width="50" height="50" fill="none"/></svg>