<svg xmlns="http://www.w3.org/2000/svg" viewBox="0 0 50 50"><path d="M33.23,5.59c-1.19.75-2,2.33-1.14,2.33A4.45,4.45,0,0,0,33.62,7a4.56,4.56,0,0,1,1.54-.88c.62,0-.53,1.89-1.76,2.9s-1.09,1-.57,2.77.62,1.8,1.23,1.27c1.28-1,3.21-4.43,3.21-5.62A2.76,2.76,0,0,0,35,4.84,5.16,5.16,0,0,0,33.23,5.59Z" fill="none" stroke="#212121" stroke-miterlimit="10"/><path d="M31.34.89a5.61,5.61,0,0,0-2.06,1.5c-.27.48-.75.39-2.51-.49C23.57.32,21.06.36,19,2a6.2,6.2,0,0,0-2.33,6.63c.57,2.29,2.64,5,4.26,5.71,1.1.44,1,.48-1.45.79-6.37.79-10.36,6.28-9.75,13.48a15.34,15.34,0,0,0,.75,4c.57,1,.53,1.49-.84,9.62a34.1,34.1,0,0,0-.7,6.45c.27,1.23,2.07,1.76,3.56,1.06.88-.4,1.05-.8,1.05-2.33a40.94,40.94,0,0,1,.57-4.75l.53-2.85.62,2.63a36.43,36.43,0,0,0,1.14,4.18c.31.83.7,1.84.79,2.24.26.83,2.81,1.36,3.95.74,1-.48.92-1.23-.13-4.65-1.36-4.35-1.19-5.76.88-7.78,1.27-1.23,1.8-1.53,2-1s.36,3.25.57,6.5l.31,5.93,1.28.31a3.1,3.1,0,0,0,2.19-.13,9.63,9.63,0,0,1,2.2-.75c2-.44,2.24-1.28,1.58-4.79-1-5.14.13-11.46,2.59-15a8.44,8.44,0,0,0,1.41-7c-.27-1.36-.53-3.25-.62-4.22-.09-1.62,0-1.84,1.89-3.07a8,8,0,0,0,3.78-7.56C40.56,1.07,36-1.48,31.34.89Zm6.59,1.89C41,5.85,40.21,10.29,36.17,13.1A10.28,10.28,0,0,0,34,14.86c0,.17.21,2.63.39,5.49l.35,5.18-1.27,1.84A25.13,25.13,0,0,0,31.12,32c-.88,2.41-1,3.25-.75,7.46a45.28,45.28,0,0,0,.53,5.67c.22.74.13,1.1-.44,1.27-1.05.44-1.54-.57-1.54-3.34,0-1.31-.22-4.52-.52-7.11-.35-3.6-.66-4.74-1.14-4.74s-.58.39-.36,1.93c.18,1.1.49,4.39.66,7.38a59.77,59.77,0,0,0,.66,6.1.64.64,0,0,1-.35,1c-1.62.66-1.89,0-2.15-5.54s-1-10-1.71-10a.4.4,0,0,0-.36.4,15.19,15.19,0,0,1-2.41,3l-2.37,2.59L19,41.34a21.14,21.14,0,0,0,.92,5.14c.88,2.11.79,2.37-.53,2-1-.26-1-.26-2.54-6.15-.88-3.29-1-4.3-.62-5.71a7,7,0,0,1,.88-2.11c.62-.7.44-1.14-.44-1.14-1.67,0-3.78,5.93-4.26,12-.31,3.29-.35,3.42-1.4,3.42s-1.06-.13-.84-1.23c.13-.7.48-3,.79-5.14A37,37,0,0,1,12,36.86c.57-1.62.48-2.5-.62-6.1a11.12,11.12,0,0,1,2.46-11c2-2.19,3.25-2.76,6.85-3.25a5.41,5.41,0,0,0,4.88-4.13c.7-2,.61-2.67-.35-2.67-.75,0-2.68-2.11-2.33-2.51.17-.17.92.13,1.62.66C26.07,9,26.29,9,26.29,8.14c0-1.06-1.63-2.42-2.9-2.42-.83,0-1.23.35-1.76,1.54A9.7,9.7,0,0,0,21,9.63c0,1.1,2.06,3.56,3,3.56.48,0,.57.13.26.44-.62.61-2.68-.18-4.22-1.63a9.39,9.39,0,0,1-1.89-3.25c-.61-1.84-.61-2.24,0-3.6,1.49-3.6,6-4.13,9.4-1.05l1,.92,1.44-1.36c1.94-1.85,2.9-2.29,4.88-2.33a3.75,3.75,0,0,1,3.12,1.45Zm-13.4,8.3a.87.87,0,0,1-.39.57c-.4.22-1.8-1.36-1.8-2.11C22.34,9.15,24.49,10.64,24.53,11.08Z" fill="#212121"/><rect width="50" height="50" fill="none"/></svg>