<svg xmlns="http://www.w3.org/2000/svg" viewBox="0 0 50 50"><path d="M19.76,4.39a16.59,16.59,0,0,0-5.61,1.75L11.22,7.7V6.25A1.68,1.68,0,0,0,9.6,4.58l-1.69,0L6,4.45a2.07,2.07,0,0,0-2,1.2l-.44.93C2.93,8,2.25,8.78,1.66,8.78a1.85,1.85,0,0,0-1.41,1c-.69,1.32.1,2.73,1.7,3.12,1,.25,1.22.59,1.22,2.15a5.77,5.77,0,0,1-.73,2.83A6.18,6.18,0,0,0,2,22.63c.39,1.07,4.39,3.71,5.56,3.71.59,0,1.57-.83,2.35-1.91l1.41-1.95,1,2.34a10.72,10.72,0,0,0,2.49,3.61,6,6,0,0,1,2,3.22A11.85,11.85,0,0,0,18,34.87a5.94,5.94,0,0,1-.19,6.1c-1.08,1.36-1.27,3.85-.34,4.14a40.22,40.22,0,0,0,4.87.39l4.3.25,1.51-2.25c1.46-2.09,1.51-2.29,1-4.34a4.6,4.6,0,0,1-.14-3,13.1,13.1,0,0,0,.83-3.37c.44-3.26,1.65-3.56,1.65-.34,0,1.47.25,2.29.79,2.59s.73.68.19,2.24a20.29,20.29,0,0,1-2.24,4.29c-2.25,3.32-2.05,4,1.07,4.2,2.78.14,6-1.32,6.1-2.73.05-.49.19-.2.39.63.29,1.37.48,1.46,2.73,1.61,3.32.2,4.53-1.07,4.83-4.83.39-5.12.92-8.78,1.31-9,.59-.34.54-2.34-.09-3A3.81,3.81,0,0,1,46.2,26c.09-1.51.43-2.05,1.51-2.53,1.7-.83,2.29-2.3,2.29-5.86,0-3.12-.88-5-3.85-8C42.59,5.9,42,5.7,35.66,6.39L30.1,7,27.51,5.75C24.44,4.24,23.37,4,19.76,4.39ZM6.2,7.31c-.68,1.12-.78,3.42-.15,3.42.25,0,.78-.83,1.17-1.86C8,7,9.32,5.51,9.81,6c.14.14-.1.92-.59,1.75-1.56,2.68-.34,2.83,4.25.49C17.12,6.39,18,6.14,21,6.09a13.94,13.94,0,0,1,5.95,1.08c2.73,1.22,5.36,1.36,10.34.63,2.73-.39,3.36-.29,5.07.54,1,.53,2,1.41,2.15,1.95s.44.92.68.92A7.12,7.12,0,0,1,47,13.46a7.23,7.23,0,0,1,1.32,4.88c-.05,2.73-1.27,5.07-1.27,2.48,0-2.05-.63-1.56-1.66,1.27-.82,2.25-1,4.2-.73,7.76a19.21,19.21,0,0,1-.19,3.07c-.15,1.07-.44,3.76-.64,5.95-.24,2.78-.53,4.05-1,4.05a.85.85,0,0,0-.78.54c-.1.29-.88.43-1.76.34l-1.56-.15,1-1.95c1.36-2.44,1.7-7.27.63-8.88a5.42,5.42,0,0,1-.68-2.53,2.89,2.89,0,0,0-.44-1.76c-.25-.15-.54,1.32-.68,3.27-.2,3.17-.69,5.12-2.4,9.8-.53,1.37-3,2.78-4.82,2.78-1.27,0-1.17-.44.53-2.53,2.88-3.47,3.71-7,1.95-8.1-.83-.49-1-.93-.73-2.2.44-2.34-.58-3.41-2.83-3-1.36.29-1.8.59-1.8,1.32a34,34,0,0,1-.83,4.39c-.64,2.63-.68,3.8-.29,5.31.29,1,.29,1.91,0,1.91s-.69.53-1,1.22c-.44.92-.93,1.21-2.2,1.21-.87,0-1.6-.24-1.6-.48a.44.44,0,0,1,.43-.49c.93,0,1.61-3,1.27-5.51a38.41,38.41,0,0,1-.34-4.15c.05-1-.19-1.56-.54-1.41s-.53,1.51-.43,4.58c.14,4.15.09,4.44-1.13,5.9a3.36,3.36,0,0,1-2.78,1.56H17.76l1.07-1.51a10.39,10.39,0,0,0,1.46-3.7c.35-1.86.25-2.49-.78-4.44a10.15,10.15,0,0,1-1.21-3.37,6.22,6.22,0,0,0-1.61-2.93,20.29,20.29,0,0,1-2.3-3.31C13.56,22.82,11,20,10.2,20c-.29,0-.54.59-.54,1.27A3.89,3.89,0,0,1,8.3,23.75L7,25l-.68-1a2.59,2.59,0,0,0-1.66-1c-1.37,0-1.76-2.15-.78-4.19a11.56,11.56,0,0,0,.78-4.1c0-2.29,0-2.39-1.71-2.93-.93-.29-1.71-.78-1.71-1s.73-.34,1.71-.15c1.56.29,1.71.2,1.71-.88,0-2.05,1-4.44,1.61-3.85S6.64,6.63,6.2,7.31ZM39.51,38.14A11.87,11.87,0,0,1,38.44,41c-.39.68-.59.83-.44.39s.49-1.71.78-2.78C39.42,36.19,40,35.9,39.51,38.14Z" transform="translate(0)" fill="#212121"/><rect width="50" height="50" fill="none"/></svg>