<svg xmlns="http://www.w3.org/2000/svg" viewBox="0 0 50 50"><path d="M31.17.39A5.76,5.76,0,0,1,29.08,1a2.28,2.28,0,0,0-1.42.5C27,2.14,27,5.6,27.75,6.6a15.45,15.45,0,0,1,1.08,4.13c.38,2.21.84,3.63,1.5,4.38.92,1.08.92,1.12.17,2.12s-1.17,1.05-5.3,1.3a29,29,0,0,1-8-.42c-6.8-1.25-10.35-.58-12.39,2.46-1.21,1.75-1.25,4.34-.13,9.05l.88,3.5-.88,1.21c-1,1.42-1,1.29-.91,9.09l.08,5.92,1.09.42c1.41.54,3.08.09,3.46-1a4.28,4.28,0,0,0-.21-2.5,10.41,10.41,0,0,1-.59-3.13c0-1.38.13-1.25,1.51,1.84,2.12,4.83,1.91,4.58,4,4.58,1.75,0,1.83-.08,2-1.29.08-.83-.46-2.46-1.55-4.75a19.48,19.48,0,0,1-1.71-4.22,12,12,0,0,1,1.17-3.12L14,33.71h9.09l.5,1.66a76.84,76.84,0,0,1,1.67,10.76c.33,3.55,1,4.17,4.29,3.76,2.67-.3,3.59-1.3,2.92-3a51.65,51.65,0,0,1-.62-7.46c-.3-7.13-.25-7.26,2.62-10.72,2.26-2.79,4.76-6.34,4.76-6.88,0-.21.41-.42,1-.42,2.21,0,3.67-2.5,2.17-3.75-.92-.75-.8-1.12.83-3a5,5,0,0,0,1.46-3,4.4,4.4,0,0,1,.83-2.34c1-1.25,1.09-3.25.21-3.59a1.18,1.18,0,0,1-.62-1A1.7,1.7,0,0,0,43,3.18c-.58.17-.83,0-.83-.5A2.67,2.67,0,0,0,39.92.55c-.37,0-.83.42-1,.92-.25.75-.37.79-.58.21C38,.8,36,.76,35.63,1.6a6.62,6.62,0,0,0,.58,2.87c.8,2.13.8,2.21,0,2a3,3,0,0,0-1.8.51c-1.25.83-1.29.58-.16-1.3.91-1.5.83-2.62-.26-2.62-.54,0-.62-.26-.41-1.21C34,.18,32.84-.49,31.17.39Zm.71,2.79c-1.05,2.13-1.63,5.92-1,6.34.29.17.45-.21.45-1,0-1.38,1.05-4,1.76-4.42s.79.2-.05,1.54A5.71,5.71,0,0,0,32.17,8c0,.87.12,1,1.37.71.71-.17,1.42-.46,1.46-.67.17-.5,1.34-.58,1.34-.08S34.63,9.44,33.63,9.6a3.2,3.2,0,0,0-1.42.75c-.54.55-.54.71.17,1.21s.87.54,1.29,0c.63-.79,1.17-.79.83,0s1.21,1.88,2.3,1.88c.41,0,.83-.46,1-1.13a3.05,3.05,0,0,1,1-1.66c.58-.42.67-.84.46-1.88a10.58,10.58,0,0,0-.79-2.21c-.8-1.38-1.8-4.09-1.59-4.3.42-.41,1.09.46,1.5,2,.25.91.63,1.66.8,1.66.45,0,.87-1.46.87-3,0-.63.21-1.13.42-1.13.54,0,.46,4.09-.08,4.42s-.42,3,.12,3.34c.88.5,2.13-1.33,2.42-3.63.25-1.62.42-2,.67-1.5a6.13,6.13,0,0,1,.08,2.38c-.13,1,0,1.58.17,1.42a1.06,1.06,0,0,0,.37-.84.62.62,0,0,1,.67-.58c1.29,0-.79,2.5-3,3.58s-4,2.67-3.08,2.67A8.29,8.29,0,0,0,41,12c1.17-.71,1.87-.92,2.12-.67.63.63-1.16,3.38-2.41,3.67s-1.26,1.17,0,2.75c.83,1,1,1.38.58,1.84a2,2,0,0,1-1.54.5c-1-.13-1.38.25-3.25,3.63A32.39,32.39,0,0,1,34,27c-3.41,4-3.54,4.42-3.54,10a51.46,51.46,0,0,0,.92,10.59.7.7,0,0,1-.5.76c-.92.2-1.75-4-1.92-9.35-.13-4.67-.42-6.08-1.13-5.83a.62.62,0,0,0-.33.75A49.59,49.59,0,0,1,28,39.54a45.39,45.39,0,0,0,.79,6.8c.54,2,.38,2.59-.79,2.59-1,0-1-.25-1.88-7-.62-4.83-1.42-8.05-2.29-9.09-.25-.33-2.09-.41-5.72-.37l-5.29.12-.5,1.46a15.11,15.11,0,0,1-1.25,2.55c-1.09,1.66-.8,3.62,1.25,7.79A19.27,19.27,0,0,1,13.9,48.3a1.43,1.43,0,0,1-2-.54c-.42-1.17-3-6.42-3.88-8-.71-1.25-.75-1.54-.25-2.29.67-1,1-3.75.54-4.21-.12-.17-.33,0-.41.29s-.5,1.58-.92,2.79c-.59,1.76-.67,3-.46,5.84.12,2,.29,4.3.38,5.09,0,1-.09,1.46-.59,1.58C5.31,49,5.15,48,5,41.55c-.08-4.51,0-5.63.54-6.26,1.5-1.75,1.59-2.42.79-5.63-.41-1.67-.87-3.92-1-5-.75-5.13,3.34-6.93,11.8-5.13,3.13.66,9.89.5,12.47-.29,1.3-.38,3.42-2.63,3.42-3.59,0-.25-.37-.54-.79-.71-.92-.29-1.46-1.58-2.13-5A35.09,35.09,0,0,0,29,5.85c-.75-2-.75-3.63,0-3.63.46,0,.54.38.37,1.42-.29,1.75.55,2.38.92.71C30.58,3,32.13.76,32.5,1.18,32.63,1.3,32.34,2.18,31.88,3.18Zm5.25,7.17c-.5.8-1,1.46-1.25,1.46-.71,0-.38-1.54.46-2.29a3,3,0,0,0,.87-1.63c0-.83,0-.83.38,0C37.88,8.64,37.76,9.27,37.13,10.35Z" fill="#212121"/><rect width="50" height="50" fill="none"/></svg>