<svg xmlns="http://www.w3.org/2000/svg" viewBox="0 0 50 50"><path d="M12.68,13.87c-.43.4-.11,1,1.21,2.4,1.48,1.61,3.93,4.49,4.19,4.94.11.16-.1.29-.52.26s-.72.13-.69.53c0,.63,4.86,7.05,5.94,7.84a1.45,1.45,0,0,1,.71,1.4,2.48,2.48,0,0,0,.21,1.21,3.52,3.52,0,0,1,.24,1.4c0,.92.13,1.13,1.05,1.79,1.43,1,2.35.9,2.46-.23.08-.72,0-.93-.58-1.19-.77-.35-.79-.42-.42-1.37.47-1.3,1.58-.77,1.58.73a4,4,0,0,0,.4,1.43c.34.66.65.87,1.84,1.13,1.69.37,2.25.22,2.25-.66A1.77,1.77,0,0,0,30.78,34c-.45,0-.58-.19-.66-.85a2.89,2.89,0,0,1,1.34-2.74c2.27-1.9,3.83-5,3.7-7.36-.11-1.64.39-2.62,1.16-2.19a.82.82,0,0,0,1.13-1,5.19,5.19,0,0,0-2.87-2.22c-.32,0-1.22,0-2,0-1.64,0-2,.42-1.27,1.69.53,1,.37,1.58-.61,2.42a9.12,9.12,0,0,1-4.53,1.69c-1.59,0-2.46-.58-6.05-4.06C14.76,14.16,13.39,13.16,12.68,13.87Zm6.17,5.36a55.55,55.55,0,0,0,5.09,4.46c1.88,1,5.2.45,7.36-1.37a2.6,2.6,0,0,0,1.17-2c.1-.89.05-1.16-.29-1.29s-.43-.24-.43-.34a8.22,8.22,0,0,1,3.43-.05,9.51,9.51,0,0,0,.87.63c.93.58.93,1.05,0,.63-.55-.24-.71-.24-.81,0a2.39,2.39,0,0,1-.53.76c-.34.32-.45.93-.45,2.3a8.69,8.69,0,0,1-3,6.46c-2.06,2-2.29,2.59-1.84,4,.31,1,.5,1.16,1.24,1.31,1.58.32,1.55.85-.06.59-1.08-.16-1.37-.61-2-2.91-.52-1.9-2.21-1.74-3,.29-.45,1.19-.26,1.74.66,2.09.24.08.45.29.45.42,0,.32-.63.11-1.53-.45-.53-.34-.58-.53-.45-1.42A1.78,1.78,0,0,0,24.6,32a1.72,1.72,0,0,1-.29-1.13c.08-.58-.1-.9-.84-1.45s-6.1-7.21-5.91-7.39A6.8,6.8,0,0,1,19,23.08c1.55,1.43,2.48,2.06,2.63,1.9s-5.46-7.54-7.28-9.34a5.08,5.08,0,0,1-1-1.24c0-.37,1.24.71,5.57,4.83Z" fill="#212121"/><rect width="50" height="50" fill="none"/></svg>