<svg xmlns="http://www.w3.org/2000/svg" viewBox="0 0 50 50"><path d="M23.53.7a3.84,3.84,0,0,0-.44,1.52c0,.56-.12.48-.52-.28C22,.78,20.89.46,20,1.18c-.48.44-.56,1-.4,2.84A5.25,5.25,0,0,0,21.25,8a7.32,7.32,0,0,1,1.44,2,5.59,5.59,0,0,0,1.68,1.64c1.4,1,1.68,1.4,1.6,2.32s.2,1.4,1.32,2.36c1.24,1.13,1.36,1.37.92,2.09a2.62,2.62,0,0,1-1.72,1c-.64.08-2.4.36-3.88.56a12.39,12.39,0,0,1-4.21,0,20.55,20.55,0,0,0-3.84-.36c-2.2,0-2.48.12-4.16,1.6a10.88,10.88,0,0,1-2.13,1.6c-.72,0-1.16,2.48-1.08,5.81s0,3.72-1,4.88-1.08,1.89-1.52,5.69a39.16,39.16,0,0,1-.84,5.48C3.31,46,3.39,49,4,49.51c.76.76,3,.6,3.44-.24A23.74,23.74,0,0,0,8,44.34a20.5,20.5,0,0,1,.92-5.8L9.55,37l.77,3.2A24.55,24.55,0,0,1,11,45c-.12,3,2.32,5,4.84,4.08,1-.36,1-1.12.08-3a20,20,0,0,1-1.72-7.33,3,3,0,0,1,1.28-3.08c1.24-1.13,1.68-1.25,3.93-1.29h2.48L22,36.86c0,1.4.08,3.8.08,5.4,0,3.49.68,4.53,2.84,4.53,1.16,0,1.48.2,1.8,1s.6,1,2.41,1c2.44,0,2.84-.6,1.8-2.72-.56-1.16-.76-2.77-.88-7.49l-.12-6,2.6-2.12c3.52-2.88,5.08-6.09,4.2-8.77-.68-2.24-.84-4.52-.28-4.52A3.79,3.79,0,0,0,38.06,16c.85-.88,1.09-1.48,1-2.24s0-1.16.92-1.6a5.24,5.24,0,0,1,1.92-.6c.72,0,2.84-2.08,2.84-2.8a2.73,2.73,0,0,1,.92-1.2c.72-.73.88-1.29.88-3.41,0-2.8-.88-4.32-2.36-4.12-.76.12-.84.36-.72,2.32l.12,2.2-1.12-2.2c-1-1.92-1.28-2.2-2.32-2.2h-1.2l.16,4.2c.12,4.17.12,4.21-.64,3.49-1.21-1-1.77-.85-3.73,1.52a10.58,10.58,0,0,1-2.2,2.16c-.6,0-2-2.32-2.2-3.76-.16-1-.36-1.21-1.4-1.21A2.08,2.08,0,0,1,27.37,6a1.13,1.13,0,0,0-.8-.48c-.32,0-.48-.88-.48-2.68C26.09.22,26.05.14,25,0A1.3,1.3,0,0,0,23.53.7Zm1.36,3.4c-.6,3.13-.36,4.89.72,5.65,1.36,1,1.52.72.6-.84-.6-1-.72-1.52-.36-1.89s.44-.36.44.33a5.86,5.86,0,0,0,.56,1.32c.64,1.28,2.25,2.8,2.25,2.16a.81.81,0,0,0-.41-.68c-.64-.4-.48-2.6.21-2.6.4,0,.52.32.36,1.08-.16.92.12,1.48,1.56,3.12l1.76,2,2-2.12A9.2,9.2,0,0,0,36.7,8.83c0-.6.08-.56.68,0s.6.72-.32,1.48c-1.36,1.12-.64,1,1.49-.2,1.84-1.08,2-1.36,1.76-4.37,0-1.24,0-1.48.4-1.16a4.83,4.83,0,0,1,.52,2.53c.08,2.24.32,2.52,1,1.12.36-.76.24-1.33-.56-2.93A13.36,13.36,0,0,0,40.27,3a1.66,1.66,0,0,1-.36-.92c0-1.08.72-.44,1.84,1.72,1.4,2.68,1.72,2.92,2.44,1.92a3.82,3.82,0,0,0,.36-2.76c-.2-1.8-.16-1.92.36-1.24a4.44,4.44,0,0,1-.32,4.92,16.12,16.12,0,0,0-1.48,2.25,2.64,2.64,0,0,1-1.56,1.32,10.21,10.21,0,0,0-1.92.8c-.52.32-.92.48-.92.32,0-.36-2.93,1.52-3.49,2.24-1,1.24-.56,1.6.92.76A4.94,4.94,0,0,1,38,13.63c.53.2-1.2,2.32-1.88,2.32-1.16,0-1.44,1-1,3.85a36,36,0,0,1,.44,3.84C35.5,25.56,34,27.81,31.26,30l-2.65,2.16.17,6.49c.16,5.12.36,6.73.88,7.49.88,1.36.84,1.44-.56,1.44-1,0-1.21-.16-1.21-.84,0-.52-.16-.72-.44-.52s-.4,0-.2-.84c.24-1-.72-10.62-1.2-12.18-.44-1.32-.92.4-1.36,4.45-.36,3.56-.32,4.52.2,6a15,15,0,0,1,.6,2c0,.4-1.56-.12-1.88-.64a31.24,31.24,0,0,1-.4-5.25c-.2-7.49.16-6.81-3.52-6.65-2.93.12-3.25.2-4.85,1.52A7,7,0,0,0,13,37c-.28,1.6.52,6.32,1.52,8.81a8.86,8.86,0,0,1,.84,2.48c-.32.36-2.24-.72-2.24-1.28a.58.58,0,0,0-.52-.6c-.32,0-.44-.48-.36-1.52a21.9,21.9,0,0,0-.84-5.33l-1-3.84,1.32-1.45c1.32-1.44,1.76-2.68,1-2.68a.39.39,0,0,0-.4.36,12,12,0,0,1-2,2.52c-2.53,2.69-3.21,4.61-3.49,10-.24,4.29-.56,5-1.72,4.33-.52-.32-.44-1.88.36-5.65a39.48,39.48,0,0,0,.64-4.76c.2-2.32.48-3.21,1.44-4.49,1.12-1.6,1.16-1.72,1-5.52l-.2-3.93,2.33-1.88,2.28-1.88,2.8.28a37.05,37.05,0,0,0,11.73-.44C29.74,20.16,31.1,16,28.86,16c-.53,0-1.77-1.48-1.77-2.08,0-.2.52-.08,1.2.28,1.53.8,1.61.76,1.61-.4,0-.88-.4-1.2-2.49-2.16a14.12,14.12,0,0,1-6.24-5.93c-.6-1.08-.64-3.72-.08-3.72.24,0,.4.72.4,1.56a3.13,3.13,0,0,0,.4,1.84c.24.12.4-.12.4-.56s.2-.84.4-.84.4.56.4,1.24c0,1.89.68,1,1-1.24.32-2.56.64-3.4,1-2.8A8.4,8.4,0,0,1,24.89,4.1Zm1.16,37.48c.16,1.76.12,2.4-.16,2-.36-.56-.6-5.16-.24-4.76A19.42,19.42,0,0,1,26.05,41.58Z" fill="#212121"/><rect width="50" height="50" fill="none"/></svg>