<svg xmlns="http://www.w3.org/2000/svg" viewBox="0 0 50 50"><path d="M9.16,16.09a4.9,4.9,0,0,0-.58,1.73,3.52,3.52,0,0,1-.73,1.69,1.45,1.45,0,0,0-.48,1.07c0,.38-.49.93-1.21,1.34-1.35.83-1.52,1.63-.52,2.56.55.48,1,.59,2.66.41,1.83-.2,2.11-.1,4.38,1.21,1.35.8,2.52,1.49,2.59,1.56a6.43,6.43,0,0,1-.27,2c-.35,1.52-.56,1.9-1.18,2a.94.94,0,0,0-.86.93c-.24,1.69,2.18,2.35,3.83,1.07.8-.62,1-.66,2.66-.28s1.8.35,2.45-.31a1.45,1.45,0,0,0-.55-2.52c-.76-.28-.79-.41-.48-1.35a1.67,1.67,0,0,1,1.58-1.24,1.93,1.93,0,0,1,2.11.62l.83.87L24.15,30.8c-1.32,1.45-1.52,2.07-.83,2.76,1,1,2.24.48,3.73-1.42,1.72-2.17,2.21-2.48,2.76-1.79.34.45.27.69-.48,1.38-1.08,1-1.14,1.73-.25,2.24,1.66.87,3.84-.13,3.84-1.83,0-1.17.55-1.83,1.1-1.38,1.49,1.25,8.67,2,10.32,1.14A1.5,1.5,0,0,0,45,30.73c0-.66-.35-1-1.52-1.59a30.26,30.26,0,0,1-4.8-3.76c-4.14-3.84-6-5-9.35-5.91-2.63-.72-2.94-.72-8-.31-5.32.42-5.32.42-7.12-.38a11.59,11.59,0,0,1-2.9-2C10.13,15.57,9.71,15.43,9.16,16.09Zm3.66,3.42c2.73,1.21,3.21,1.27,8.36.79,4.42-.41,5.28-.38,7.25.1a17.36,17.36,0,0,1,8.35,4.73,33,33,0,0,0,6.32,5.15c.9.45,1,.55.42.79-1.21.45-6.25-.1-8-.86a6.1,6.1,0,0,1-3.84-3.59A4,4,0,0,0,30.5,25c-.45,0-.45.58,0,.86a1.44,1.44,0,0,1,.34,1,3.39,3.39,0,0,0,.73,1.73A2.45,2.45,0,0,1,32.05,31c-.31,1.83-.69,2.31-1.86,2.31h-.9l1-.86c1.48-1.42,1.31-2.07-1-3.9C27.67,27.31,26.56,27,27.5,28a2.12,2.12,0,0,1,.58.9c0,.52-3.21,4-3.66,4-.76,0-.58-.52.73-1.87a5.4,5.4,0,0,0,1.21-1.72A6,6,0,0,0,25,27.62c-1.14-1.1-1.45-1.24-2-.93a4.16,4.16,0,0,1-1.69.38c-.86,0-1,.21-1.59,1.69-.76,2.18-.76,2.45.21,2.45s1.76.52,1.48,1-2.14.07-3-.45c-.25-.14-.35-.73-.28-1.42.21-1.65-.48-1.27-1,.52-.55,2-1,2.45-2.21,2.45s-1.31-.52-.21-.83c.66-.13.93-.62,1.38-2.27a23.37,23.37,0,0,0,.59-2.42,12.33,12.33,0,0,0-2.9-2.25c-2.9-1.89-3-1.89-5.25-1.83-1.62.07-2.35,0-2.45-.34s.07-.41.34-.41c1,0,2.73-2.77,3.18-5.08l.24-1.28.69,1.11A5.51,5.51,0,0,0,12.82,19.51Z" fill="#212121"/><rect width="50" height="50" fill="none"/></svg>