<svg xmlns="http://www.w3.org/2000/svg" viewBox="0 0 50 50"><path d="M40.82.26c-.56.33-.66.69-.46,1.62l.26,1.21L39,1.82c-2.73-2.2-4.34-.49-2.44,2.57.89,1.45.87,2.26,0,1.17a1.6,1.6,0,0,0-2.13-.3,3.23,3.23,0,0,1-1.57.3c-2.11,0-1.92,1.6.5,3.88,2.87,2.73,3.06,5.44.45,6.81l-1.11.57.2-2.55c.32-3.88-1.84-4.28-3-.56-1.62,5.09-2.15,5.94-2.53,4-.75-4-1.28-5.05-2.45-5.05-1.35,0-1.82,1.15-1.35,3.27.32,1.5.2,1.54-1.5.51s-2.49-3.5-1.54-5,.69-2.73-.42-2.89c-.83-.12-.83-.18-.24-1.23,1.17-2-.24-3.17-2.19-1.8-1.05.73-1.07.53-.22-1.86C18.64.39,16.64-.77,14.7,2.14c-1.07,1.62-2.79,1.9-3.56.59C9.83.51,7.89,2.93,8.27,6.31c.15,1.33.29,3.31.33,4.39.08,1.79.18,2,1.07,2.12,1.33.18,2.26,1.07,3.13,3,1,2.33,2.31,3.3,5.56,4.19,6.71,1.86,5,3.67-3.35,3.63-5.89,0-9.67,1.14-10.5,3.32-.64,1.68-.48,5.92.25,6.53s.58,4.33-.19,5.26-1.41,9.66-.83,10.33,2.59.8,3,.18c.18-.28.42-.28.77,0a3.45,3.45,0,0,0,2.06.32c1.68-.14,1.61.35,1.07-5.54l-.24-2.65,1.73-2c1.4-1.65,2-2,3-2H16.4v2.89a24,24,0,0,1-.5,4.85c-.69,2.79-.47,4.09.82,4.57,2,.77,2.94-.1,2.65-2.52a8.13,8.13,0,0,1,.35-3.86,11.72,11.72,0,0,0,.64-3.06c0-3.66,1.32.51,1.74,5.5.24,3.11.73,3.9,2.41,3.9,1.92,0,2.4-1,1.61-3.39-.72-2-.84-8.64-.22-10.29a19.18,19.18,0,0,1,2.57-3.48c1.66-1.86,2.18-2.73,2.18-3.7a2.28,2.28,0,0,1,.41-1.52c.26-.16.34-.85.18-1.72-.22-1.37-.14-1.53,1.27-2.44a3.71,3.71,0,0,0,1.62-1.8c.08-.61.67-1,2.37-1.52,2.75-.87,6-3.84,6-5.48a3.4,3.4,0,0,1,2.24-3.47c1.4-.45,2.19-2,1.4-2.83A2.41,2.41,0,0,1,46,6.37a1.73,1.73,0,0,0-.77-2A4,4,0,0,1,44,2.47C43.45.45,42.1-.5,40.82.26ZM42.46,2a6.42,6.42,0,0,1,.46,2.31c0,1.53.33,2,1,1.41.84-.68,1.11.33.42,1.4-.85,1.31-.79,1.92.16,1.66,1.32-.33.89.52-.6,1.13a4.48,4.48,0,0,0-2.57,4c0,1.92-2.45,3.74-7,5.24-3.47,1.13-7.19,3.21-4.06,2.28,2.38-.71,2.87-.75,2.69-.2a2.45,2.45,0,0,1-1.4.93c-1.33.4-1.78,1.53-1.41,3.45.1.55,0,1.14-.24,1.3a1.89,1.89,0,0,0-.43,1.37c0,1.12-2.06,4.39-2.77,4.39-1.19,0-2.4,3.07-2.59,6.57a22.75,22.75,0,0,0,.83,8.17c.22.83.12,1.09-.36,1.09-.89,0-1.44-1.25-1.44-3.21,0-4-1.31-8.7-2.38-8.58-.83.1-1,.39-1.3,1.9-.16,1-.6,3-.93,4.45a12.58,12.58,0,0,0-.38,4.25c.26,1.61.08,1.84-.87,1.25-.65-.42-.67-1.29-.12-4a32.19,32.19,0,0,0,.44-5.24V36.23H15.45c-2.16,0-2.16,0-4.2,2.45L9.2,41.14l.19,2.79a22.69,22.69,0,0,0,.48,3.68c.24.73.14.89-.55.89-.46,0-.84-.08-.84-.16s-.17-2-.41-4.15c-.4-3.92-.4-4,.59-5.72s1.31-3,.68-3c-1.07,0-3,5.8-3.17,9.4C6.05,48.2,6,48.5,5.24,48.5s-.77-.18-.57-1.19c.13-.65.35-2.67.51-4.45a14,14,0,0,1,.75-4.06,13.44,13.44,0,0,0,.71-3.95c.14-1.75.36-3.84.5-4.65.18-1,.12-1.49-.18-1.49s-.55.89-.69,2c-.32,2.36-.95,2.24-.95-.2,0-2.15.57-3.7,1.48-4,.38-.12,1.47-.6,2.42-1,1.44-.68,2.15-.76,4.35-.52a16.36,16.36,0,0,0,6.07-.08c2-.25,2.93-.59,3.69-1.28l1-.93-.85-.93c-1.12-1.19-.73-1.53.85-.72.7.36,1.39.54,1.53.4.33-.34-1.09-1.37-2.12-1.56-6.37-1.17-9.26-2.54-9.91-4.69-.38-1.23-2.58-3.45-3.43-3.45s-1-.63-.21-.89c.37-.12.33-.61-.2-2.11C9.26,6.69,9.1,5.1,9.51,4s.77-.66.64.87c-.16,1.7.87,4.63,1.5,4.23a4,4,0,0,0,.4-2.18,4,4,0,0,1,.39-2.17c.24-.16.4.55.42,1.86l0,2.1L14.4,5.52c1.39-3,2.89-5,2.28-3.09-2.36,7.38-2.38,8.51-.1,5.9,1-1.09,1.86-1.86,2-1.72S18,7.8,17,8.94c-2.19,2.58-2.17,3.82.12,6.45,1.25,1.41,2.08,1.63,1.43.36-.82-1.56-.74-4.17.17-5.3s1.49-.72.64.61c-1.49,2.26,0,5.4,3.32,7,2.44,1.12,2.63,1,2.14-1.47a8.07,8.07,0,0,1-.2-2.45c.22-.63,1.64,3.72,1.66,5,0,.78.2.9,1.59.9s1.58-.1,1.58-1a6.3,6.3,0,0,1,.63-2.24,21.12,21.12,0,0,0,1.15-2.85l.51-1.62,0,1.58a9.49,9.49,0,0,1-.73,3.27c-.91,2-.75,2,2.2.63,4.43-2.1,5-5.3,1.54-8.63-2.91-2.81-2.75-3.05.4-.61,2.71,2.1,3.38,1.9,1.4-.42-1.72-2-1.46-2.37.38-.57l1.58,1.54V8c0-.61.16-1,.34-.89.61.38.83,2.54.39,3.8-.61,1.76-.06,2,.66.28.81-2,.75-3.58-.2-4.43s-2.87-4.18-2.61-4.46,2.61,1.69,3.22,3c1.07,2.24,2.1-.67,1.21-3.36C41.17.67,41.89.77,42.46,2Z" fill="#212121"/><rect width="50" height="50" fill="none"/></svg>