<svg xmlns="http://www.w3.org/2000/svg" viewBox="0 0 50 50"><path d="M7.94.74C7,1.82,6.91,5.67,7.85,7c.59.81.59,1.31.14,3s-.45,2.12.63,3.75a13.13,13.13,0,0,1,1.67,5.33c.64,4.16,3.39,10.4,5.61,12.75l1.35,1.44-.49,3.3c-.27,1.81-.64,4.38-.73,5.74a5.79,5.79,0,0,1-1.22,3.48,2.79,2.79,0,0,0-.76,2.08c.22,1.62,2.93,1.71,4.83.13,1.27-1.13,1.4-1.44,1.45-4a15.93,15.93,0,0,1,.36-3.71c.31-.81.36-.77.63.27.18.63.41,2.26.59,3.62.22,2.08.18,2.57-.45,2.8-1.13.45-.91,2.08.36,2.62a3.2,3.2,0,0,0,4.11-1.22c.68-1.08.72-1.63.32-4.43-.27-1.76-.64-5-.82-7.14L25.16,33l1.63-.23c5.33-.85,4.7-1,5.92,1.63a13.42,13.42,0,0,1,1.13,3c0,1.09-2.17,4.84-3.57,6.15-1.58,1.54-1.81,3.16-.54,3.89,2.12,1.13,4.42-.19,5.87-3.3.81-1.77.86-1.81.9-.64a3,3,0,0,1-1.13,2.35,2.5,2.5,0,0,0-1,2.35c.14,1.09.36,1.27,1.72,1.4a3.93,3.93,0,0,0,3.12-1.13c1.44-1.22,1.53-1.44,1.94-5.78a19.72,19.72,0,0,1,.86-5c.72-.77.45-1.67-1.18-3.43a6.42,6.42,0,0,1-1.58-2.67,6,6,0,0,1,1.85-2.71c1.77-1.67,1.86-1.9,1.63-3.71a4.84,4.84,0,0,0-2.08-3.57c-3.39-3-4.52-3.34-10.26-2.75s-11,.67-11.75.18a4.89,4.89,0,0,1-1-2c-.5-1.54-.46-1.85.36-2.89,1.17-1.5,1.31-4.88.22-5.52-.67-.36-.67-.63.18-3.11C19.56,2.1,19.24.24,17.43,0c-1.26-.14-1.76.49-2.3,3.12-.27,1.22-1.85,2.07-2.35,1.26A1.41,1.41,0,0,0,11.7,4c-.68,0-.86-.4-1-1.94S10.39.11,9.62,0A2.19,2.19,0,0,0,7.94.74ZM9.57,3.63a3.85,3.85,0,0,0,.5,2.85c.68.9.68.9.72-.14,0-.58.27-1,.68-1s.59.41.41,1.94a5.47,5.47,0,0,0,.45,3.39,4.59,4.59,0,0,0,.95,1.45,5,5,0,0,0,1-1.4,3.85,3.85,0,0,0,.27-3.17c-.27-1-.27-1.85-.05-2s.59.41.45,1.27c0,.22.14.36.41.36s.45-.36.45-.77A11.05,11.05,0,0,1,16.26,4c.32-.9.63-1.9.72-2.26s.32-.5.64-.18.22,1.31-.46,3.25a21.11,21.11,0,0,0-.95,3.26,10.21,10.21,0,0,1-.9,2.3c-1.08,2.26-1.08,2.21-.27,1.9A2.87,2.87,0,0,0,16.12,11c.32-.58.73-1.08,1-1.08.81,0,.5,2.57-.5,3.79s-1,1.72-.27,4.12a4.24,4.24,0,0,0,2.17,2.71c1.17.4,6.91.45,9.22.09,7.27-1.13,8.49-.91,12,2.26,2.39,2.17,2.3,3.25-.32,5.74-2.08,1.89-2.12,2-1.58,3.48a8,8,0,0,0,1.63,2.66l1.08,1.13L40,40.91c-.63,5.47-1.31,6.92-3.29,6.92-1.27,0-1.32-.32-.14-1.27s1.76-3.43,1.81-7c0-2.53-1.09-5.78-2-5.78-.22,0-.27.31,0,.77a7.92,7.92,0,0,1-.54,6.23c-.55.73-1.49,2.22-2.17,3.26C32.8,45.52,32.17,46,31.35,46c-1.44,0-1.44-.59,0-1.49s3.88-5.51,3.88-7.19-2.26-6.19-3.25-6.5a47.17,47.17,0,0,0-8.31.85c-.28.41.76,11.48,1.17,12.84.5,1.53.45,2-.23,3A2.66,2.66,0,0,1,23,48.73c-1,0-1.13-.68-.18-1.08s.9-3.17,0-6.78c-.36-1.54-.82-3.66-1-4.7-.31-1.76-.9-2.53-1.13-1.58,0,.22-.36,1.49-.72,2.84a32.64,32.64,0,0,0-.86,5.43c-.18,2.17-.45,3.2-1.17,3.93-.95,1-2.58,1.4-2.58.59a.47.47,0,0,1,.5-.46c.81,0,1.67-2.84,2.17-7.59.67-6.28.63-6.78-.45-7.68a27.24,27.24,0,0,1-3.12-5.06,25.34,25.34,0,0,1-2.8-8.23,13.77,13.77,0,0,0-1.68-5.15c-1-1.31-1.17-2.26-.54-3.3.32-.54.59-.31,1.22,1,.45.9,1,1.67,1.18,1.67s.36-.09.36-.18A30.28,30.28,0,0,0,9.53,7.16,6.43,6.43,0,0,1,8.8,2c.5-1.31,1-.32.77,1.62Z" fill="#212121"/><rect width="50" height="50" fill="none"/></svg>