<svg xmlns="http://www.w3.org/2000/svg" viewBox="0 0 50 50"><path d="M25.8.45C25.17.81,25,1.5,25,3.37c0,2.78-.45,3.19-1.23,1.14-.36-1-.82-1.37-1.59-1.37C20.65,3.14,20,4,20,5.69a3.13,3.13,0,0,1-.68,2,2.3,2.3,0,0,0-.14,3.09,2.39,2.39,0,0,0,3,.05c.73-.73,3.51.27,6.06,2.1a26.53,26.53,0,0,0,3.88,2.27c1.77.73,1.77.78.91,1.46s-1.51.6-3.88.32c-1.64-.18-4.83-.36-7.1-.36-2.65-.05-4.42-.28-4.83-.64a11.23,11.23,0,0,0-3.65-.87c-2.42-.18-3.24-.09-4.79.69-3.87,2-4.69,4.37-3.64,10.43l.68,4L4.48,31.62C3.29,32.9,3.2,33.35,2.93,38.27c-.18,3.28-.14,5.75.18,6.52.41,1.14.59,1.23,2.83,1.09s2.41-.22,2.55-1.32a2.32,2.32,0,0,0-.55-1.77c-.91-.73-1-4.33-.09-5.88.55-1,.64-.87,1.78,2.82a29.31,29.31,0,0,1,1.23,4.83c0,.64.5,1.23,1.55,1.73,3.23,1.51,6.33-.91,4-3.09-1.19-1.05-2.92-5.7-2.74-7.2.14-1.14.28-1.19,3.1-1.19h3l0,3.65A56.52,56.52,0,0,1,19.29,45c-.32,2.6-.28,3,.45,3.51,1.19.86,4.06.82,4.83-.09.46-.55.46-1,.05-2.19a8.55,8.55,0,0,1-.55-2.6c0-1.09,1.73-7,1.78-6.06a8.52,8.52,0,0,0,1.41,2.23A14.51,14.51,0,0,1,30,47.34c.27,2,.37,2,2.19,2.46,3.78.78,5.6-.82,3.6-3.28a17,17,0,0,1-2.05-4c-.55-1.51-1.42-3.79-1.92-5-1.59-4.28-1.59-4.92.19-6.47a28.29,28.29,0,0,1,3.32-2.41,14,14,0,0,0,3.51-3.19c1.6-2,2-2.23,4.1-2.51,3.1-.41,3.83-.86,4.2-2.46.36-1.78-.32-3-2.28-4-1.42-.69-2.24-2-1.19-2a5.54,5.54,0,0,0,1.82-1.46c1.69-1.73,1.83-3.37.46-5.15C45,6.78,44.72,6.74,42.8,7a7.41,7.41,0,0,0-2.87,1c-.77.69-.82.64-.82-1a10.3,10.3,0,0,0-1-3.74c-.91-1.69-1.23-1.91-2.42-1.82s-1.36.27-1.36,2a10.72,10.72,0,0,0,.41,3l.36,1.14L33.82,6.28a7.36,7.36,0,0,0-2.91-1.55c-1.83-.41-2.28-.86-2.28-2.59A2,2,0,0,0,27.76.4C26.72-.14,26.76-.14,25.8.45Zm2,4.83c.69,4.24,1.78,5.74,1.78,2.46,0-1,.23-1.87.46-1.87s.45,1.23.45,2.74c0,2.59.09,2.78,1.28,3.23,2.19.87,3.51.73,3.51-.27s-1.73-1.5-2.78-.64-1.42.09-.73-1c.5-.78.45-1.14-.14-2.1-1-1.46-.5-1.91.82-.73a7,7,0,0,0,3.51,2c.55,0,.41-3.28-.23-5.37-.18-.55-.13-1,.09-1,.73,0,2,3.1,2,4.92,0,2.83,1.87,5.34,2.19,2.92.18-1.09.78-1.32,1.14-.45.14.31.27,0,.27-.69s.23-1.18.5-1c.73.46.55,1.82-.45,3.1-1.23,1.59-1.14,1.82.45,1s2.37-2.14,2-3.74c-.32-1.14-.27-1.23.41-.63,1.78,1.41,0,5.51-2.37,5.51-.5,0-1,.18-1.18.46s0,.45.45.45.68.23.55.68c-.28.69,1.78,2.69,3.32,3.19,1,.32,1.14.83.46,2-.27.59-1.18,1-2.83,1.14-2.87.36-2.87.36-5.14,3.19a12,12,0,0,1-3.33,2.87A12.31,12.31,0,0,0,30.91,30c-2.1,2.09-2.37,4-1,6.74A16.6,16.6,0,0,1,31.14,40c.41,2,2.73,7.15,3.37,7.51,1,.6.5,1.19-.87,1.19-1.18,0-1.37-.23-1.82-2a21.09,21.09,0,0,0-3.42-7.93c-4-6.11-4.1-6.2-4.6-2a30,30,0,0,1-.91,4.37c-.82,2.28-.82,3.92,0,5.11.37.55.5,1.09.37,1.27-.91.87-3.06-.68-2.69-2A30.67,30.67,0,0,0,21.66,38l.27-4.14-1.5-.28a28.66,28.66,0,0,0-4.56-.31h-3.1l-.5,1.5c-.41,1.23-.37,2.1.41,4.56a16.1,16.1,0,0,0,2.05,4.33c1.37,1.64,1.37,1.68.14,1.77-1,.09-2.42-.73-2.42-1.46a36.17,36.17,0,0,0-2.09-6.79,7.15,7.15,0,0,1-.73-3.05c.32-1.27-.23-1-1.92.68a7.9,7.9,0,0,0-1.82,7.43c.27.82.68,1.51.91,1.51a.42.42,0,0,1,.41.45c0,.23-.59.46-1.32.46-1.82,0-2-.87-1.41-6.47.45-4.06.68-4.88,1.68-5.93l1.19-1.27-.59-4c-.87-5.92-.78-6.88,1.13-8.79,1.55-1.55,1.74-1.6,4.79-1.55a11.79,11.79,0,0,1,3.74.5,6.91,6.91,0,0,0,5.78,1c1.51-.45,2.37-.41,5.24.27s3.65.73,4.93.23c2.55-1.05,3.05-1.68,2.5-3.23-.27-.73-.77-1.32-1.14-1.32-.86,0-3.87-1.6-5.42-2.92-2.42-2-7-3.05-7-1.6,0,.23-.32.41-.69.41-.95,0-.86-.63.23-1.59A2.07,2.07,0,0,0,21.52,6c-.23-1.19-.14-1.5.46-1.5a.77.77,0,0,1,.73.82c0,1,1.13,2.14,2.64,2.55,1,.32,1,.27,1-3.1,0-1.91.18-3.46.37-3.46S27.4,3.09,27.76,5.28Z" fill="#212121"/><path d="M36.38,11.3a5,5,0,0,1-.28,1.14c-.18.45,0,.72.41.72.91,0,1.32-.63,1-1.55C37.15,10.84,36.38,10.61,36.38,11.3Z" fill="#212121"/><rect width="50" height="50" fill="none"/></svg>