<svg xmlns="http://www.w3.org/2000/svg" viewBox="0 0 50 50"><path d="M15.8,18a3.47,3.47,0,0,0-.86.81,17.53,17.53,0,0,1-1.45,1.52c-.86.79-1.07,1.15-1,1.61s.33.66,2.29.55a2.91,2.91,0,0,1,1.48.21c.07.12-.13.63-.46,1.09-1.42,2-1.93,3.1-1.93,4.22,0,1.65,1.24,2.87,3.81,3.69a21,21,0,0,0,10,0,14.07,14.07,0,0,0,5.82-4.1c1.93-2.08,4.14-5.82,3.94-6.78-.13-.77-.79-.72-3.23.28a24.33,24.33,0,0,1-7.83,1.65,22.55,22.55,0,0,0-5.42,1l-.63.26V21.88c0-2.28-.41-3.2-1.68-3.86A3.49,3.49,0,0,0,15.8,18Zm2.8,1c1.09.94,1.47,3.73.79,5.41-.43,1-.31,1.07.76.53A19.82,19.82,0,0,1,27,23.51,23.07,23.07,0,0,0,35.1,21.6,8.62,8.62,0,0,1,36.67,21c.26.28-1.93,3.94-3.38,5.64-3.15,3.69-5.74,4.86-10.62,4.86A14.24,14.24,0,0,1,18,30.91c-3.53-1.09-4.25-2.75-2.29-5.34,1.32-1.75,1.91-3,1.5-3.43a6,6,0,0,0-2.13-.36l-1.86-.1,1.6-1.63C16.62,18.22,17.43,18,18.6,19Z" fill="#212121"/><rect width="50" height="50" fill="none"/></svg>