<svg xmlns="http://www.w3.org/2000/svg" viewBox="0 0 50 50"><path d="M27.3,1a5.88,5.88,0,0,0-1.47,2.28c-.34,1.39,1.31,5.74,2.78,7.18.64.63,1,1.27.76,1.44-.71.42-.38,2.32.64,3.33a2.33,2.33,0,0,1,.8,2.54,8,8,0,0,1-.3,1.48s-4,.13-8.91.25c-8.87.26-8.87.26-11.58,1.61A13.09,13.09,0,0,0,6.1,23.9c-2.33,2.87-2,8.66.5,9.46,1.14.38,1.06,1-.42,2.71-1.27,1.39-1.27,1.47-1.27,6.25,0,5.28.59,7.14,2.41,7.56,2.28.59,3.42-1.1,2-3-.63-.8-.93-4.9-.34-4.31A11.43,11.43,0,0,1,10.41,47c0,1.82,4.18,3,5,1.48a1.49,1.49,0,0,0-.25-1.77,23.82,23.82,0,0,1-1.61-3.25,6,6,0,0,1-.5-4.48,14,14,0,0,1,1.43-3.76c1-1.52,1.06-1.52,2.45-.93a9.28,9.28,0,0,0,3.05.59h1.6l-.29,4.94a52,52,0,0,1-.55,6.09c-.38,1.39,1.81,3.88,3.21,3.67a1.58,1.58,0,0,0,1.31-2.45c-.68-1.1-.64-3.59.12-5.7a13,13,0,0,0,.68-3c.08-2.07,1.52,2.83,1.86,6.42s1.35,4.9,3.63,4.69c1.69-.17,2.16-1.48,1-2.62-.55-.59-.8-2-1.05-6.5-.34-5.24-.3-5.83.42-6.64a17.21,17.21,0,0,0,1.69-2.45c.55-.84,1.65-2.36,2.45-3.38a24.48,24.48,0,0,0,2.79-4.43c1-2.28,1.22-3,1-5s-.13-2.41.85-3.38a2.38,2.38,0,0,0,.84-2.49c-.21-1.18,0-1.52.76-2.07,1.31-.84,3.17-4.73,3.17-6.63,0-2.66-3.51-5.2-4.1-3a1.5,1.5,0,0,1-1,1c-1.06.3-1,1.74.08,3.3a2.59,2.59,0,0,1,.59,2c-.25.68-.29.68-.67,0s-2.49-1-2.54-.21a4.3,4.3,0,0,1-1.35,3.21c-1,1-1,1-2.15.26a2.59,2.59,0,0,1-1.1-2.2c0-1.56-.93-2.2-2.11-1.44s-1.31,0-.17-1.48c1.35-1.77,1.18-2.87-.38-2.87-.76,0-1-.13-.72-.38.67-.68.51-1.44-.42-1.94C28.7-.18,28.36-.06,27.3,1Zm1.06,1.48A2.71,2.71,0,0,0,28,4.63l.25,1.1,1.23-1.39c.8-.93,1.18-1.19,1.22-.72a2.52,2.52,0,0,1-.84,1.44c-1.14,1-1.06,2.15.21,3.67L31.11,10V8.9a1.92,1.92,0,0,1,.42-1.31c.25-.17.42.3.42,1.06a3.71,3.71,0,0,0,1.52,2.74,7.25,7.25,0,0,0,1.86,1.48c.8,0,3.38-3.46,3.38-4.52,0-1.35.72-.84.93.63.13,1,.13,1,1.52-.33,1.65-1.65,1.69-2.07.25-3.81-.63-.71-1-1.43-.8-1.6s.68.21,1.14.89,1,1.14,1.23,1.14c.5,0,.5-2.41,0-2.75a1.29,1.29,0,0,1-.43-1c.05-.59.21-.51.89.34s.85,1.39.63,2.91c-.33,2.45-1.18,3.72-4.35,6.38A10.82,10.82,0,0,0,37,13.84c0,.26.42.05,1-.46,1.19-1.14,2.41-1.23,2.41-.17a1.78,1.78,0,0,1-2,1.77c-1,0-1.36.64-.55.93a4.43,4.43,0,0,1,.71,2.45c.22,2,.05,2.71-1,5a16.54,16.54,0,0,1-2.45,3.8,21.88,21.88,0,0,0-2.2,3,19.93,19.93,0,0,1-1.94,2.88c-.81.92-.89,1.43-.76,6.12.08,5.45.59,8.24,1.56,8.62s.34.93-.63.68c-1.19-.3-1.57-1.19-1.9-4.36a33.12,33.12,0,0,0-1.31-5.66,21.31,21.31,0,0,1-1-3.71c0-1.61-.76-.64-1.43,1.9-.43,1.43-.93,3.08-1.19,3.67-.67,1.69-.93,6.59-.38,6.93s.59,1.1-.12,1.1c-1.06,0-2-1.9-1.57-3.3a37.6,37.6,0,0,0,.51-6.29l.17-5-2.75-.25a11.8,11.8,0,0,1-3.76-.8c-1-.51-1.14-.42-2.11.8-.59.76-2.15,2.54-3.46,4-3.22,3.51-4.14,7-2.71,9.76.76,1.44.76,1.52.09,1.52a2.42,2.42,0,0,1-1.27-.84c-.59-.72-.72-1.69-.72-5.41,0-4.39.08-4.56,1.27-6a4.23,4.23,0,0,0,1.27-3.38c0-2.2-.93-5.58-1.61-5.83-.42-.13-.3.59.55,3.8.21.89.17,1.19-.34,1.19-1.69,0-2-5.37-.42-7.57a12.79,12.79,0,0,1,3.51-2.45l2.74-1.35,8.79-.21c5.87-.13,9-.38,9.42-.72a2.29,2.29,0,0,0,.59-1.6,3.91,3.91,0,0,1,.64-2c.84-1.14.8-1.44-.43-1.44a1.76,1.76,0,0,1-1.48-.8c-1-1.86-.08-2.32,1.57-.8.8.72,1,.76,1,.25S32.16,12.07,30.9,11A9.45,9.45,0,0,1,27.73,6.7c-1.06-2.87-1.06-3.17,0-4.56s1.56-1.14.59.3ZM11.71,39.57c-.42,1.73.55,4.94,2.07,7.1l.89,1.27h-.89a2.32,2.32,0,0,1-1.43-.55A26.4,26.4,0,0,1,10,40.59c0-.55,1.78-2.88,2-2.67A9,9,0,0,1,11.71,39.57Z" fill="#212121"/><rect width="50" height="50" fill="none"/></svg>