<svg xmlns="http://www.w3.org/2000/svg" viewBox="0 0 50 50"><path d="M14.13.6c-.25.34-.46.75-.38.92a2.62,2.62,0,0,1-.41,1.29c-.46.79-.34,1.08.75,2.33s1.25,1.79,1.25,3.79c0,1.34-.17,2.34-.46,2.34s-.67.62-1,1.33a7.31,7.31,0,0,1-1.59,2.33l-1,1L10.17,14.6a4.77,4.77,0,0,1-1.08-2.09,1.29,1.29,0,0,0-.42-1,4.22,4.22,0,0,1-.42-2.25A3.6,3.6,0,0,1,9.71,5.85c1.67-1.62,1.79-3,.38-3.25A1.48,1.48,0,0,1,9,1.64C8.59.23,7,.81,5.59,2.89,4.51,4.56,4.38,5,4.34,8.72c0,3.59,0,4.17.92,5.21.91,1.21.91,1.21.08,1.79-1.25.88-1,2,.83,3.88a6.61,6.61,0,0,1,1.67,2.2A8.32,8.32,0,0,0,8.67,24,20.87,20.87,0,0,1,10,27.05a12.31,12.31,0,0,0,2.42,3.37,30.84,30.84,0,0,1,3.29,3.84c.79,1.16,1.71,2,2.12,2,.92,0,1.21,1.2,1.59,6.49.25,3.63.2,3.83-.67,4.29a1.5,1.5,0,0,0-.38,2.46A5.16,5.16,0,0,0,21,50c1.75,0,2.33-.21,3.12-1s.92-1.25.67-3.87a31.58,31.58,0,0,1,0-5.67c.25-2.62.33-2.79,1.16-2.54,2.09.67,5.92.71,7.46.08l1.54-.66,1,2c1.17,2.29,1.25,3,.59,6.33-.38,1.79-.71,2.41-1.46,2.79-1.17.54-1.29,1.5-.25,2.08,1.25.67,6.37.29,7.62-.5,1.08-.71,1.12-.87,1.29-6s.17-5.33-.75-6.37a3.68,3.68,0,0,1-1-2.92c0-2.24.25-2.58,1.29-1.91s2.21,0,2.38-1.5c.16-1.25-1.38-3.87-3.21-5.37-2.75-2.34-4.67-2.63-16.12-2.59l-10.5.09-.45-1c-.34-.79-.34-1,.16-1,1.09,0,2-2,1.75-3.79a4.18,4.18,0,0,1,.59-3c1.12-1.92,1.37-4.67.79-8C18,1.31,15.63-1.23,14.13.6ZM16.67,3A7.2,7.2,0,0,1,17,8.35c-.29.92-.33.79-.37-.67a3.25,3.25,0,0,0-1.34-2.83C14,3.73,13.88,2.73,15.13,3.77c.37.29.75.41.87.29.33-.33-.25-2-.71-2a.43.43,0,0,1-.37-.46C14.92.77,16,1.56,16.67,3Zm-9.08.16a2.72,2.72,0,0,0-.5,1.71c.12.63.29.58,1.33-.37,1.79-1.67,1.92-1,.13.87C7.26,6.68,7,7.23,7,8.77c0,1.37-.13,1.7-.42,1.25-1-1.63,0-8.88,1.25-8.13C8.09,2.06,8,2.52,7.59,3.14ZM6.3,10.85A7.92,7.92,0,0,1,7,13.14c0,.21.25.12.46-.21.38-.54.42-.54.42,0A6.48,6.48,0,0,0,9.3,15.31a7.81,7.81,0,0,1,1.45,2.16c0,.25.3.46.63.46s.62-.21.62-.46a6.88,6.88,0,0,1,1.46-2.08A6.38,6.38,0,0,0,15,12.81c0-.5.13-.67.25-.42.25.71,1,.67,1,0A8.38,8.38,0,0,1,17,10l.84-1.83-.17,1.71a10.56,10.56,0,0,1-3,6.16c-1.46,1.59-1.67,2.67-.25,1.38a2.47,2.47,0,0,1,1.5-.71c.62,0,.62.12.08,1.21a5.83,5.83,0,0,1-1.66,1.83c-1,.67-1,.75-.42,2A6.15,6.15,0,0,0,15,23.22c.3.21,5.38.33,11.33.33,9.37,0,11,.09,12.41.71,2.92,1.33,5.71,4.21,5.71,5.83,0,1.17-.67.88-1.25-.54l-.54-1.29-.83,1.58a15.56,15.56,0,0,1-1.79,2.75c-1.3,1.58-1.55,3.12-.84,5.54.59,1.83.59,2.46,0,5.62-.83,4.46-1,4.75-2.7,4.92l-1.42.08,1.08-.62c.92-.5,1.21-1.09,1.58-3.25.67-3.79.59-4.67-.58-6.88-1.83-3.45-1.91-3.54-3.79-2.54-1.62.84-3.71.88-8.12.13l-1.54-.25-.29,4a35.77,35.77,0,0,0,0,6.08c.33,2.37-.13,3.37-1.54,3.37-.75,0-.75,0-.17-.67.79-.79.87-3.74.21-9l-.5-3.67H20.12c-1.74,0-2.7-.37-2.7-1a14.11,14.11,0,0,0-2.54-3.2A24.61,24.61,0,0,1,9.3,21.34,2.28,2.28,0,0,0,8.09,19.6c-1-.38-2.54-2.42-2.13-2.84.13-.16.84,0,1.54.46,1.8,1,1.92.58.46-1.5C6,13,5.34,11.43,5.38,9.72c0-.91.13-1.25.25-.75A18.2,18.2,0,0,0,6.3,10.85ZM41.7,37c.83.87.87,1.33.75,5.58-.13,4.83-.63,6.16-2.21,6.16-1,0-1-.33.17-1.21.79-.66.87-1.08.79-4.16a17.1,17.1,0,0,0-.71-4.83,6.81,6.81,0,0,1-.25-4.67c.21-.58.34-.42.42.71A4.9,4.9,0,0,0,41.7,37Zm-20.78.91c.12.92.37,3.33.54,5.42.21,3.24.16,3.87-.5,4.58a2.47,2.47,0,0,1-1.38.83c-.5,0-.41-.25.3-.92.95-.87.95-1,.7-5.29a49.39,49.39,0,0,0-.5-5.37c-.16-.5-.08-.91.17-.91S20.75,37,20.92,37.92Z" fill="#212121"/><rect width="50" height="50" fill="none"/></svg>