<svg xmlns="http://www.w3.org/2000/svg" viewBox="0 0 50 50"><path d="M25.3,1.1c-.66,1-.62,1.24.49,3.63a12,12,0,0,0,5.34,6.14c2.44,1.46,3.67,4.33,2.66,6.28a6.49,6.49,0,0,1-1.24,1.68C31.36,19.76,24.77,20.9,20,21c-4,.09-5.26.31-6.85,1.06C9.61,23.78,7.93,24.93,7.45,26s-.18,3.89.48,4.33a2.16,2.16,0,0,1,.4,1.5c0,1-.4,1.59-1.63,2.52A11.45,11.45,0,0,0,4.75,36a39,39,0,0,0-.88,6.15l-.58,5.74,1.24,1c2.65,2.3,4,1.06,3.84-3.71,0-2.3.14-3.67.53-4.25.54-.75.76-.53,2.92,2.79,1.24,1.94,2.39,3.89,2.52,4.24a3.3,3.3,0,0,0,1.46,1.28,2,2,0,0,0,2.39,0c1.37-.75,1.54-2,.35-3.13s-3.14-4.69-3.14-5.53a9.29,9.29,0,0,1,2.3-3l2.3-2.3,3.67-.09c3.53-.08,3.66,0,4.06,1a25.8,25.8,0,0,1,1.59,7.07c.53,3.54.84,4.38,1.77,5.17,1.33,1.2,3,1.33,3.93.31s.89-1.37-.17-2.69c-.8-1-.89-1.82-.89-6.5,0-5.3,0-5.35,1.29-6.54a9.69,9.69,0,0,0,1.81-2.65,44.14,44.14,0,0,1,1.81-4.11,18.55,18.55,0,0,0,1.55-4.91c.26-2.17.35-2.3,1.94-2.78,1.86-.53,2.74-1.95,2.17-3.5A2.2,2.2,0,0,1,44.84,13a3.94,3.94,0,0,0,.53-2.47A3.26,3.26,0,0,1,46,7.91c1.07-1.41.93-4.29-.22-5-.66-.4-1-.31-1.68.57s-.84.93-.84.18c0-1.86-2.25-2.61-3.09-1a3,3,0,0,0-.22,1.81c.26.8.22.84-.57.36s-1-.44-1.55,0-.75.4-1.15-.31c-.84-1.64-2.83-1.68-3.27-.13a5.22,5.22,0,0,0,.4,2.25c.75,1.72.62,2-.49,1.15A4,4,0,0,1,32.24,5C32,3,31.93,2.87,30.56,2.87c-.88,0-1.46-.22-1.46-.53A3.59,3.59,0,0,0,26.67,0,2.33,2.33,0,0,0,25.3,1.1Zm2.92,2.7a.66.66,0,0,0,.71.62c.35,0,.53.18.39.44a1.08,1.08,0,0,0,.05,1c.26.4.44.22.62-.48.31-1.42,1.28-1.77,1-.4a3.7,3.7,0,0,0,2.3,4.11c2.34,1,2.56.88,2.21-1A5.43,5.43,0,0,0,34.8,6c-.53-.53-.53-1.55,0-1.55S36.66,7.29,36.92,9c.45,2.74,1.55,3.13,3.19,1.06l1.1-1.37L39.66,7.47c-.79-.66-1.32-1.37-1.14-1.55s.57-.09.84.18C40.42,7.16,41,6.67,41,4.82c0-1.24.18-1.73.58-1.59s.49.92.4,2.47c-.09,1.37,0,2.26.31,2.26s.48-.49.48-1.07a2,2,0,0,1,.44-1.37c.27-.13.45.05.45.45s.22.57.44.44.44-.75.44-1.37S44.79,4,45,4s.44.66.44,1.5c0,1.33-.35,1.86-2.43,3.67-1.32,1.15-2.43,2.38-2.43,2.74s.44.18,1.15-.58a4.47,4.47,0,0,1,1.77-1.15c1,0,.71,1.73-.53,2.92-1,1.06-1.06,1.19-.35,1.68,1.19.93.57,2.17-1.37,2.74-1.77.49-1.77.49-2.08,3.09a20.44,20.44,0,0,1-1.64,5.26A25.38,25.38,0,0,0,36,29.7a6.84,6.84,0,0,1-1.81,2.52l-1.5,1.37v5.92c0,5.3.09,6,.93,7.07s.79,1.19.26,1.42c-.71.26-2.52-.49-2.52-1.06a80.36,80.36,0,0,0-2.08-10.7l-.79-2.43H19.38l-2.61,2.65c-3.53,3.58-3.58,4-.71,8.35,1.11,1.68,2,3.14,2,3.19s-.39.17-.88.17c-.66,0-1.68-1.19-3.76-4.42a39,39,0,0,1-2.87-4.81c0-.23.44-.76,1-1.11s.84-.79.67-1c-.31-.35-2.35,1.06-3.85,2.69-1,1-1.1,1.64-1.24,5.13a12.83,12.83,0,0,1-.48,3.93A3.17,3.17,0,0,1,5.5,48c-.75-.57-.79-.93-.26-6l.57-5.34,1.72-1.42c2.35-1.85,2.66-2.78,1.6-5.43A6.66,6.66,0,0,1,8.55,27c.27-.84,4-3.36,5.84-4a53.15,53.15,0,0,1,6.54-.62c5.92-.26,11.31-1.5,12.86-3s2.47-4.2,1.72-4.82a3.91,3.91,0,0,1-.84-2c-.26-1.24-.66-1.73-2.17-2.48a14.84,14.84,0,0,1-2.87-1.9C28.31,7,26.45,3.45,26.45,2.12l0-1,.84,1.07A3.5,3.5,0,0,1,28.22,3.8Z" fill="#212121"/><rect width="50" height="50" fill="none"/></svg>