<svg xmlns="http://www.w3.org/2000/svg" viewBox="0 0 50 50"><path d="M18.76,13.07c-.7.7-1.65,3.79-1.41,4.49.13.34-.15.83-.82,1.44-1.44,1.32-2.05,3.89-1.32,5.36a3.46,3.46,0,0,0,1.26,1.31,4.15,4.15,0,0,1,1.5,2,6.1,6.1,0,0,0,2.17,2.63c1.1.77,1.37,1.13,1.25,1.62a7.14,7.14,0,0,0-.18,1.53c0,.74-.22,1-1,1.38s-1,.64-1,1.37.09.92,1.29,1c1.77.13,2.69-.52,3.15-2.32a9.88,9.88,0,0,1,.58-1.68c.12-.13.88.21,1.74.76l1.5,1-1.19.18c-1.38.19-2.05.95-1.53,1.75.27.46.88.55,3.58.64s3.27,0,3.76-.46.67-.61,1.71-.67c1.2-.09,1.38-.74,1.26-4.59a15.42,15.42,0,0,0-.74-5.42C33.05,23,30,21,25.8,21c-1.75,0-2.27-.12-2.76-.61-.73-.73-.79-1.71-.15-2a4.39,4.39,0,0,0,1.68-3A3,3,0,0,0,24,14c-.55-.67-.67-.7-1.59-.36s-1,.3-1.68-.37C19.86,12.3,19.56,12.27,18.76,13.07Zm1.65,1.34a4.52,4.52,0,0,1-.27,2c-.64,1.84.21,1.72.92-.15a3,3,0,0,1,1.25-1.71c.86-.4.92-.37,1.19.7.16.61-.06,1.07-1,2.23-1.07,1.35-1.16,1.56-.85,2.3.7,1.74,1.25,2,4.28,2.2,6,.4,8,2.85,8.23,10.06l.09,3.22L33,35.34c-.86.06-1.23.27-1.32.7s-.46.58-3.18.58c-3.18,0-4.13-.42-1.5-.67a5.71,5.71,0,0,0,1.71-.34c.43-.39-.24-1.16-1.86-2.23C24.48,31.88,23.66,32,23,34c-.55,1.65-1.22,2.33-2.32,2.33s-.86-.37.3-.92c.92-.43,1-.58,1.23-2.54.24-2.29.21-2.39-1.65-3.52-1-.61-1.29-1-2.42-3.48a2,2,0,0,0-1.07-1A2,2,0,0,1,16,23.81c-.31-.77-.28-1.14.15-2.3a7.11,7.11,0,0,1,1.41-2.2c.61-.58.82-1,.7-1.44a7,7,0,0,1,1-4C19.83,13.28,20.17,13.43,20.41,14.41Z" fill="#212121"/><rect width="50" height="50" fill="none"/></svg>