<svg xmlns="http://www.w3.org/2000/svg" viewBox="0 0 50 50"><path d="M19,11.15c-.7.26-2.26,1-3.45,1.52-2.05.93-2.2,1-2.86.37s-2.23-.44-2.23.41c0,.63,0,.63-1.27.15a1.21,1.21,0,0,0-1.52.22c-.67.67-.71,1-.15,2a1,1,0,0,1,0,1.22,8.43,8.43,0,0,0-1,2.08,10.84,10.84,0,0,1-1.16,2.31c-.85.93-.37,2.41,1,3.27s2.2.7,4.5-.45a6.81,6.81,0,0,1,3.71-.59c2.2.11,2.31.15,3.39,1.67L19.17,27,18,29.32a11.26,11.26,0,0,0-1.19,3.19c0,.56,1,2,2.68,3.83l2.64,2.93L24,39.09A7.25,7.25,0,0,0,26,38.72a10.09,10.09,0,0,0,.48-2.38c.15-1.15.56-3.38.93-4.94.56-2.57.7-2.79,1.45-2.64.59.11,1.07.74,1.67,2.23l.89,2.08L29.5,34.78c-2.64,2.38-2.53,4.09.3,4.09,1.37,0,2.19-.64,5.09-3.79l1.56-1.71-.6-1.86c-.52-1.6-.52-2-.11-2.49s.56-.48,1,.59a13.37,13.37,0,0,0,2.16,3,9.74,9.74,0,0,1,1.67,2.11c0,.19-.59.82-1.3,1.34-2,1.56-1.56,3.2.93,3.2,1.71,0,2.27-.49,3.64-3.16,1.23-2.34,1.45-3.31.82-3.72-.3-.18-.3-.4,0-.74s.29-1.41.07-3.6A15,15,0,0,0,43,22.15a19,19,0,0,0-2.2-3.64A9.45,9.45,0,0,0,35.93,16c-1.94-.33-4.2-1.23-8.55-3.34C23.48,10.7,21.14,10.3,19,11.15Zm7.54,2.38C31,15.68,34.11,17,35.07,17a9.84,9.84,0,0,1,5.39,2.82,22.15,22.15,0,0,1,3.23,8.84c.19,2.3.15,2.49-.33,1.86a4.09,4.09,0,0,1-.56-2.12c0-1.78-.86-1.71-1,.08a4.89,4.89,0,0,0,1.08,3.08l1.22,1.89L43,35.48c-1.27,2.42-1.49,2.64-2.83,2.64s-1.33-.59,0-1.26c2.12-1.12,2-2.34-.33-5a13.66,13.66,0,0,1-2.31-3.31C37,27.16,36.11,27,35,28.09c-.86.86-.93,1.75-.34,3.72.41,1.37.41,1.41-1.78,3.67-1.64,1.68-2.49,2.27-3.2,2.27-1.26,0-1.33-1-.14-1.45s2.86-2.49,2.86-3.38a10.87,10.87,0,0,0-.93-2.71c-.82-1.86-1.08-2.12-2.45-2.49a5,5,0,0,0-1.68-.26,55.93,55.93,0,0,0-1.93,8.21c-.15,1.23-.44,2.27-.7,2.34-.71.26-1-2.23-.71-6.2l.22-3.57-1.07-.82a6.52,6.52,0,0,1-1.75-2.3c-.37-.82-.78-1.49-1-1.49-.67,0-.22,1.41,1,3.27l1.34,2-1.34,1.71a8.11,8.11,0,0,0-1.33,2.16c0,.26.55.89,1.22,1.37,1.27,1,2.45,4,1.6,4-.67,0-5.05-5-5.05-5.83A10.31,10.31,0,0,1,19,29.61,9.18,9.18,0,0,0,20.14,27a8.33,8.33,0,0,0-1.34-2.52l-1.34-2H14.79a10.75,10.75,0,0,0-4.28.74c-2.11,1-3.6,1-4.12,0-.33-.59-.26-1,.33-1.74A3.16,3.16,0,0,0,7.5,20a5,5,0,0,1,.78-1.85C9,16.87,9,16.46,8.43,15c-.18-.49-.11-.6.34-.41a1.54,1.54,0,0,1,.78.93,1.13,1.13,0,0,0,.93.7c.52,0,.74-.33.81-1.22.15-1.53.64-1.53,1.53,0,.59,1,.67,1.42.29,2.2-.22.52-.33,1-.22,1.18.48.45,1.3-1.22,1.3-2.6,0-1.15.15-1.45,1-1.78.56-.22,1.93-.82,3.05-1.34C21,11.45,22.66,11.6,26.56,13.53ZM22.77,32.1c-.18,1.45-.29,1.56-.89,1.12s-.59-.56.19-1.67A7.15,7.15,0,0,1,23,30.43,8.67,8.67,0,0,1,22.77,32.1Z" fill="#212121"/><rect width="50" height="50" fill="none"/></svg>