<svg xmlns="http://www.w3.org/2000/svg" viewBox="0 0 50 50"><path d="M5.66,1.08A4.47,4.47,0,0,0,4.54,3.92a3.65,3.65,0,0,1-1,2.59C2,8,2.34,10,4.58,12.5a11.66,11.66,0,0,1,2.2,3.36c1.29,6.12,3.49,10,6,10.61a6.27,6.27,0,0,1,2.37,1.76c1.29,1.47,1.34,1.68,1.34,5.52,0,5.13-.61,8.66-1.9,11.12-.86,1.68-.95,2.2-.52,3a2.44,2.44,0,0,0,4.44-.35,16.31,16.31,0,0,0,.73-2.5c.18-.73.39-1.76.52-2.37s.39-1.94.56-3l.35-1.94.3,3.27c.3,2.63.21,3.54-.35,4.61-1.25,2.46-.69,4.4,1.3,4.4,1.07,0,2.76-1.85,2.76-3.06a1.41,1.41,0,0,1,.47-1.08c.34-.21.39-1.2.17-3.14-.13-1.56-.34-4.1-.47-5.65s-.26-3.71-.39-4.83l-.22-2,2.46.21A16,16,0,0,0,31.91,30,7.4,7.4,0,0,1,35,29.61c.13.22,1.29,1.55,2.5,3,2.46,2.93,2.59,3.44,1.77,8.32A11.15,11.15,0,0,1,38,44.74c-1.6,2-.86,3.54,1.59,3.54,1.86,0,2.89-1.64,3.41-5.31l.34-2.67.17,2.33a6.87,6.87,0,0,1-.86,4.22c-1,1.86-1,1.9-.17,2.5,1.16.87,2.89.48,4.05-.94.95-1.17,1-1.43.78-5.69C47.17,40.26,47,37.2,47,36c0-1.94-.22-2.54-1.29-3.75a3.15,3.15,0,0,1-1-2.29,2.29,2.29,0,0,0-.43-1.68c-.52-.73-.52-1.12.22-3.06a5.74,5.74,0,0,0,.43-4.05c-1.08-4.87-8.06-7.54-15.26-5.86a29.12,29.12,0,0,1-5.61.69,17.48,17.48,0,0,0-8,1.94l-1.38.69-.61-1.51C13.2,15,13.2,15,15.14,13a8.88,8.88,0,0,0,2-2.8c.43-1.81,0-3.45-1-3.92a1.57,1.57,0,0,1-1-1.38C15.14,2.59,13.2,0,11.48,0c-1.9,0-2.63,2.2-1,3.06,1,.52,1,1.42,0,4.05L9.93,8.36,9.06,6.51c-.9-2.07-1-3.1-.43-3.75a2.15,2.15,0,0,0,.18-1.6C8.5-.34,7-.39,5.66,1.08Zm2.15.6a.82.82,0,0,1-.43.69c-.77.47-.43,2.72.87,5.47a19.15,19.15,0,0,1,1.29,3.24.53.53,0,0,0,.43.56c.26,0,.43-.26.43-.56a16.76,16.76,0,0,1,1.08-3.24c1.29-3.23,1.38-4.65.21-5.34s-1.12-1.21-.08-1.21c.82,0,2.24,2,2.24,3.28a18.32,18.32,0,0,1-1.12,3.49c-1.21,3.1-1.21,4.48,0,2.5s2.67-3.62,3-3.36c.81.82.13,2.8-1.69,4.91a8.79,8.79,0,0,0-1.93,3.06c0,1.38,1.33,4.18,2.11,4.44a8.07,8.07,0,0,0,3.27-.9,14.33,14.33,0,0,1,5.78-1.34,45.27,45.27,0,0,0,6.42-.86,15.09,15.09,0,0,1,10,.86c4,1.77,4.83,3.62,3.41,7.72-.82,2.28-.82,2.58-.22,3.44.82,1.13.86,1.64.26,1.64-.26,0-.91-.73-1.42-1.59-.74-1.25-1-1.47-1.08-.86-.22,1,1.51,3.49,3,4.39a5.41,5.41,0,0,1,1.59,1.42,44.18,44.18,0,0,1,.65,7c.3,6.68.13,7.32-1.81,7.93-1.17.39-1.21-.13-.09-1.6,1-1.25,1-2.41.39-7-.35-2.11-.69-3.23-1-3.23-.61,0-1.3,2.67-1.77,6.59-.3,2.72-1,3.88-2.33,3.67-1-.13-1-.13-.13-1.21S41,40,41,37c0-1.72-.3-2.32-2.62-5.34-1.47-1.9-2.81-3.54-3-3.75s-1,0-2,.43c-1.25.56-2.85.73-6.25.73l-4.53,0,.3,2.2c.18,1.2.44,3.92.56,6S23.85,42,24,43.1c.17,1.3.09,2.16-.21,2.33a1.7,1.7,0,0,0-.48,1.29,1.85,1.85,0,0,1-1.59,2c-.74,0-.69-1.73.08-2.76a4.17,4.17,0,0,0,.65-2.11c0-1.86-1.81-11.94-2.16-11.94a16.62,16.62,0,0,0-.81,4.22,55.41,55.41,0,0,1-2.07,10,3,3,0,0,0-.18,1.16c.05.35-.38.56-1,.56-1.29,0-1.34-.47-.22-2.84s1.73-6,1.73-11.25c0-4.35,0-4.44-1.38-5.95a11,11,0,0,0-3-2.37c-2.25-1.16-3.28-2.67-4.32-6.21-1.55-5.56-1.76-6.07-3.44-7.63C4.37,10.43,3.94,9.7,3.94,8.71c0-2.2.47-1.9,3.14,1.85.48.65.91,1,1,.91S6.61,6.51,6,5.82s-.38-2.54.35-3.58S7.81,1,7.81,1.68Z" fill="#212121"/><rect width="50" height="50" fill="none"/></svg>