<svg xmlns="http://www.w3.org/2000/svg" viewBox="0 0 50 50"><path d="M30,14.77a5.62,5.62,0,0,0-2.52,2.38,3.38,3.38,0,0,0-.27,2.11l.16,1.28-1.15.11c-1.23.14-5.38,2.08-7.65,3.58a11.74,11.74,0,0,1-2.46,1.26,2.63,2.63,0,0,0-1.28.84,1.8,1.8,0,0,1-1.1.69c-.93.19-1.36.79-1.14,1.56.1.49.32.54,2.07.43,1.92-.11,2-.11,3.94,1.18a13.33,13.33,0,0,0,2.73,1.45c.66.16.74.3.74,1.34s0,1.14,1,1.23c.74,0,1,.24,1.15.62s.36.52,3.36.47l3.26-.08.24-.77c.36-1,0-1.31-1.58-1.47s-1.81-.85-.44-1.48a12.68,12.68,0,0,0,5.16-4.92A7.86,7.86,0,0,0,35,24.09a6.07,6.07,0,0,0-1.42-3.41c-.33-.36-.52-.69-.44-.77A6.46,6.46,0,0,1,35,20c1.34.19,1.81.17,2.11-.13.79-.8.57-1.15-2.16-3.5-1.61-1.4-2-1.59-3.14-1.67A8.54,8.54,0,0,0,30,14.77Zm2.67,1a14.68,14.68,0,0,1,3,2.49l1.12,1-2.65-.2c-2.54-.16-2.65-.16-2.46.33a4.55,4.55,0,0,0,.85,1.2A7.44,7.44,0,0,1,34.2,24c0,1-1.39,3.36-2.81,4.64a9.45,9.45,0,0,1-4.21,2.44c-.71.13-.9.33-.9.84s.13.66.71.66.68.06.38.41a1.19,1.19,0,0,1-.74.41c-.22,0-.3.11-.22.27s.69.2,1.37.09a7.25,7.25,0,0,1,1.94,0c1.94.5-1.75,1-4,.55-.6-.14-.82-.3-.74-.55s-.14-.38-.9-.38a2,2,0,0,1-1.4-.41c-.24-.3-.24-.41,0-.41s.3-.3.24-.74c-.05-.6-.33-.82-1.42-1.23A16.73,16.73,0,0,1,18.38,29l-1.81-1.21-1.47.39c-1,.21-1.59.27-1.75.1s.16-.38.87-.57,1.21-.46,1.29-.68a2.19,2.19,0,0,1,1.15-.71A9.14,9.14,0,0,0,19,25c2.52-1.89,6.48-3.56,8.48-3.56,1.25,0,1.47-.19.92-.73s-.38-3,.2-3.72a3.25,3.25,0,0,1,4-1.23Z" fill="#212121"/><path d="M23.65,31.31a1.25,1.25,0,0,0,0,.76c.14.41.41.55,1.15.55s.93-.08.79-.44a2.86,2.86,0,0,1-.16-.65C25.46,31.23,23.82,31,23.65,31.31Z" fill="#212121"/><rect width="50" height="50" fill="none"/></svg>