<svg xmlns="http://www.w3.org/2000/svg" viewBox="0 0 50 50"><path d="M6.82,1.61C5.25,3,4.92,3.14,4.55,2.6c-.66-.91-2.19-.33-2.52,1-.5,1.94.78,3.76,3.68,5.08A12.72,12.72,0,0,0,9,9.92c1.32,0,.75.78-1.24,1.65-2.56,1.12-3.18,1.74-3.84,3.72s-.17,3.39,1.73,4.54c1.62,1,3.1,1,4.22.21,1.28-.95,1.73-.74,2.31,1.08a7.15,7.15,0,0,0,1.57,2.48c1,.74,1.12.74,2,.16s.95-.58,1.36.95a11.08,11.08,0,0,1,.45,2.07,6.22,6.22,0,0,0,1.29,2.1c1.19,1.53,1.24,1.74,1.4,6.49a37.53,37.53,0,0,1-.41,7.89c-.66,3.52-.54,4.05.95,4.59s2.93-.16,3.18-1.32c.17-.91.54-6.24.62-9.13.08-1.57.08-1.53.58.82a30.57,30.57,0,0,1,.7,6.82c0,2.52,1.28,3.35,4.79,3,2.94-.29,5.09-2.32,5.09-4.75a14.1,14.1,0,0,1,1.65-4,13.67,13.67,0,0,0,1.65-4.26c0-1.48,1.16-3.92,1.66-3.43A15.09,15.09,0,0,1,42,34.3c1.15,2.85,1.44,8.92.53,11.11C41.33,48.22,42.15,50,44.59,50c1.53,0,2.31-.62,2.31-1.82a11.6,11.6,0,0,1,.62-2.64c.5-1.33.54-2,.17-2.61a25,25,0,0,1-.37-6.11,66.06,66.06,0,0,0-.21-7.27,12.41,12.41,0,0,1,.45-5c.62-2.57.67-3.23.21-4.84a7.36,7.36,0,0,0-1.28-2.56A17.13,17.13,0,0,0,42,15.5c-3.48-.95-4.05-1-6.45-.54s-2.85.37-4.05-.21a3.21,3.21,0,0,1-1.65-1.44A3,3,0,0,0,28.43,12l-1.07-.49,1.28-.79C30.09,9.83,30.75,8.1,30,7a3.39,3.39,0,0,1-.45-1.36c0-.74-1.28-1.2-2.23-.83-.46.17-.66,0-.66-.58A2.4,2.4,0,0,0,26,2.77c-.75-.75-2.28-.46-2.28.45,0,.5-.12.54-.49.17a2.26,2.26,0,0,0-1.45-.5c-.95,0-1.11.42-1,2.36.12,1.15-.66,1.61-1,.54a1.14,1.14,0,0,0-1-.83c-.58,0-.71-.25-.54-1.2a1.57,1.57,0,0,0-2.56-1.57c-.87.58-.95.54-1.41-.62-.62-1.69-2.11-1.45-3.06.5l-.7,1.44,0-1.49c0-1.4-.5-2-1.61-2A10.79,10.79,0,0,0,6.82,1.61ZM9.47,2.93c0,1.2.16,1.41,1.07,1.41S11.74,4,12.15,3c.79-1.74,1.37-1.7,1.24.08a3.91,3.91,0,0,0,.08,1.69c.13.13.95-.25,1.78-.82,1.78-1.2,1.9-1.24,1.9-.46a4.08,4.08,0,0,1-1.49,1.82C14.8,6,14.3,6.74,14.47,7s.45.25.9-.28c.54-.71.58-.67.42.28a9.8,9.8,0,0,1-.5,1.82c-.58,1.41.79.5,1.49-1A4.56,4.56,0,0,1,18.1,6.12c.58-.29.7-.17.7.9,0,1.45.21,1.49,2.07.58C22.11,7,22.19,6.82,22,5.33c-.13-.91-.13-1.61,0-1.61.45,0,1.32,1.45,1.36,2.15,0,1.32.79.78,1.07-.7A4,4,0,0,1,25,3.51c.5-.29.83,1.41.54,2.77-.21,1-.12,1.12.54.87a3.15,3.15,0,0,0,1.24-.87A.69.69,0,0,1,28.27,6c.37.21.12.7-.83,1.7-1.53,1.57-.83,2,.79.45l1-.91-.17,1c-.16,1.33-2.48,2.52-5.45,2.81a5,5,0,0,0-2.32.54,5.73,5.73,0,0,0,2.61.5c2.85.24,5,1,4.67,1.77-.09.29.58,1,1.53,1.57,1.77,1.16,3.43,1.37,6.19.75,1.16-.29,2.44-.13,5.21.58a37.32,37.32,0,0,1,4,1.15,5.37,5.37,0,0,1,1,2.07,6.54,6.54,0,0,1-.21,4.3,13.36,13.36,0,0,0-.45,5.12c.29,3.6.33,15.91,0,17.81-.21,1.32-.41,1.57-1.24,1.57-1.36,0-1.65-1-.83-2.73,1-2,.91-7.6-.12-10.86-.74-2.36-2.56-5.42-3.27-5.42s-2.56,3.8-2.56,5A14.36,14.36,0,0,1,36.2,39a19.26,19.26,0,0,0-1.86,4.38c-.25,1.69-1.78,3.43-2.93,3.26s-1.24-1.44.12-3a23.4,23.4,0,0,0,2.4-3.81c1-2.1,1.16-2.93,1.16-6.28l0-3.84-1.2.21c-3.8.78-4.22,1-4.79,2.72-.42,1.2-.46,3.15-.29,7.36.16,3.18.37,6,.49,6.36.21.5,0,.58-.74.46-1-.17-1-.46-1.28-3.43A27.13,27.13,0,0,0,26.7,39c-.21-.66-.58-2.27-.87-3.64-.41-2.06-.58-2.31-1.07-1.82-.71.71-1.37,4.05-1.66,8.6-.29,4.34-.33,4.54-1.4,4.54-.83,0-.87-.12-.54-2.6a80.75,80.75,0,0,0,.29-8.18c0-5.08-.12-5.79-.95-7.15-.54-.83-1.08-1.49-1.28-1.49s-.46-.95-.62-2.06-.46-2.07-.66-2.07a4,4,0,0,1-.91-2l-.58-1.95-.7,1.62a8.75,8.75,0,0,0-.66,2c0,.7-1.24-.54-1.29-1.28,0-1.12-1.4-3.14-2.23-3.31a4.62,4.62,0,0,0-2.15.58A2.22,2.22,0,0,1,7,19.05c-1.82-.74-2.36-1.86-1.7-3.64.41-1.11,1-1.69,2.81-2.64a26.74,26.74,0,0,0,3.47-2.19l1.24-1L11.53,9.3c-4-.91-5.66-1.61-7-2.85A4.7,4.7,0,0,1,3.1,4.17c0-1.15.58-1.11,1.16.17.5,1.07,1.32,1.4,1.32.54,0-.54,1.2-2,1.7-2,.16,0,.2.66.08,1.49-.21,1.2-.13,1.49.33,1.32s.58-.78.62-1.61c0-2.52.16-2.93.66-2.77.29.13.5.83.5,1.61ZM33.68,34.5c0,3.1-.5,4.63-2.4,7.57-1,1.48-1.32.41-1.32-4.14,0-5.53.29-6.15,3.22-6.48C33.56,31.4,33.68,32.27,33.68,34.5Z" fill="#212121"/><rect width="50" height="50" fill="none"/></svg>