<svg xmlns="http://www.w3.org/2000/svg" viewBox="0 0 50 50"><path d="M31.19.41a3.76,3.76,0,0,0-1.1,2.21c-.16.9-.41,1.55-.57,1.43-.53-.33-2,1.06-2,1.92A5.31,5.31,0,0,0,29,8.38c1,.94,1.43,1.71,1.22,1.92-.73.73-.12,2.33,1.19,3.14s1.31,1,1.1,2.25c-.37,2.69-1.22,3.06-6.41,3a38.9,38.9,0,0,1-7.64-.82,14.49,14.49,0,0,0-8,.09c-.69.24-1,0-1.51-1.11a7.48,7.48,0,0,1-.61-3c.12-2.78,0-3-1-3-2.29,0-3.88,4.41-2.82,7.72a30,30,0,0,1,.9,4.86,8.7,8.7,0,0,0,1,3.72c.86.93.82,1.26-.12,1.26A2.05,2.05,0,0,0,5,29c-.57.7-.2,2.09,1.51,5.6,1.06,2.12,1.23,3.35.57,3.76s-.45,2.16.49,2.82a1.33,1.33,0,0,0,1.6.2c.65-.33.77-.16,1,1.15.57,3.22,2,4.77,4.16,4.53,1.31-.16,1.72-1.63.78-2.7a18.43,18.43,0,0,1-2.29-5.88c-.41-1.67-.37-1.71,2-4.12l2.37-2.46,2.45.5a24.22,24.22,0,0,0,4.74.4l2.29-.16-.21,3.68c-.12,2-.4,5.18-.61,7C25.19,47.92,26,50,28.25,50c1.68,0,2.25-.57,1.88-1.88a17.19,17.19,0,0,1-.08-7.88c.37-1.47.86-3.68,1.1-4.82.45-2,.57-2.17,1.64-2.17a4.07,4.07,0,0,1,2.08.78,5.81,5.81,0,0,0,2,.94c.86.08,1.06.37,1.14,1.67a3.23,3.23,0,0,1-1.14,3c-2.49,2.86-.69,5,2.53,3,2.05-1.19,2.41-2.41,2.29-7.19l-.12-4.05-1.72-.81c-2.12-1-2.16-1.43-.77-6.09a48.6,48.6,0,0,0,1.26-5.43c.25-2,.37-2.17,1.8-2.7,2-.77,2.57-1.59,2.41-3a2,2,0,0,0-1.43-1.72c-1.31-.57-1.8-1.26-.9-1.26s3.64-2.66,3.64-3.51c0-1.43-1.6-3.15-2.7-2.9a1.8,1.8,0,0,1-1.43-.37A1.51,1.51,0,0,0,40.67,3a4.08,4.08,0,0,1-1.51-.62c-.9-.57-1-.57-1.68,0S36.83,3.6,37,4.91c.17,1.47.09,1.75-.57,1.92-1.1.28-1.63-.58-1.39-2.21s-.69-3.11-1.51-2.57c-.2.12-.37.08-.32-.13C33.52.21,32.54-.53,31.19.41Zm.7,3.72c-.45,2.78-.29,4.49.45,4A8.39,8.39,0,0,0,33,5.48c.41-3.52,1.14-3.15.82.41-.21,1.92-.13,2.85.16,2.85s.49-.32.61-.73c.13-.61.21-.61.49.12.49,1.23,1.47,2.25,2.17,2.25.41,0,.49-.25.28-.74A14.91,14.91,0,0,1,37,8.13c-.16-.77-.16-.81.45,0a5.47,5.47,0,0,1,.78,1.19.35.35,0,0,0,.57.16c.29-.21.25-1-.12-2.61-.66-2.78-.7-3.4-.21-3.4.21,0,.45.74.62,1.64.28,1.88,1.06,3.67,1.55,3.67.73,0,.82-1.26.16-2.85-.32-.86-.49-1.72-.28-1.84s.65.53,1,1.39c.73,1.92,1.22,2.28,1.84,1.51.32-.41.36-.66,0-.86-.53-.33-.53-1,0-1,.2,0,.61.41.85.9.41.77.29,1-.89,2a20.51,20.51,0,0,1-3,2l-1.63.86L41.08,12c1.47.66,2.29,1.27,2.2,1.68s-.94,1.06-2,1.63c-1.88,1-1.92,1.06-2.16,3.27a41.3,41.3,0,0,1-1.31,5.51,21,21,0,0,0-1.1,4.86c0,1.51.08,1.68,1.92,2.58l1.92,1V36a14.84,14.84,0,0,1-.41,4.25,7.13,7.13,0,0,1-3.15,2c-.49,0,.08-1,1.11-1.92s1.26-1.27,1.14-3.8l-.12-2.65-1.88-.45a19.44,19.44,0,0,1-3.07-1.07,5.06,5.06,0,0,0-2.28-.4c-1.19.12-1.27.32-2.94,7.27-.9,3.67-.94,7.23,0,8.57.65,1,.65,1-.49.9-.82-.08-1.19-.36-1.27-1.06-.08-.49-.29-.9-.49-.9s-.21-.45,0-1.06c.49-1.23,1.39-13.6,1.06-14a15.57,15.57,0,0,0-3.39-.12,20.39,20.39,0,0,1-5.11-.49l-1.91-.61L14.73,32.6c-3.43,2.86-3.92,3.8-3.23,6.29a36,36,0,0,0,2.82,6.7c.09.2-.12.33-.49.33-.9,0-1.71-1.39-2.73-4.7l-.86-2.86-.9,1.14c-1.47,1.8-1.76,1.31-.74-1.18.49-1.19.45-1.55-.73-4.09-.74-1.55-1.47-3.14-1.68-3.51-.32-.57-.12-.82,1-1.31,2-.81,2.08-1.3.69-2.94a4.18,4.18,0,0,1-1.27-3.59A14.44,14.44,0,0,0,6,19,11.34,11.34,0,0,1,5.42,16c0-1.11,1.39-4.42,1.84-4.42.12,0,.08.74,0,1.64a6.58,6.58,0,0,0,1.22,5.43c.9,1.14,1,1.14,2.13.61,1.79-.9,4.45-.85,8.74,0,7.55,1.68,13.52.86,14.13-1.92.12-.61.41-1.75.61-2.53.49-1.92.49-1.88-.53-1.92a3.73,3.73,0,0,1-1.92-1.14l-1.06-1h1.27a4.4,4.4,0,0,1,2.08.61c.49.33.94.49,1,.33.49-.94-.08-1.6-1.88-2.21-2.78-1-4.78-3-4.08-4.12.2-.29.4-.17.61.4.53,1.39,1.06,1.07,1.31-.85s1-4.17,1.3-3.88A10,10,0,0,1,31.89,4.13Z" fill="#212121"/><path d="M10.08,30.76c-2,.49-2.21.7-1.68,2.08s1.06,1.56,2.37.09c2-2.21,2.21-2.54,1.35-2.5A20.1,20.1,0,0,0,10.08,30.76Z" fill="#212121"/><rect width="50" height="50" fill="none"/></svg>