<svg xmlns="http://www.w3.org/2000/svg" viewBox="0 0 50 50"><path d="M15.42,12.46a4,4,0,0,0-1.94.67,23.44,23.44,0,0,0-3.65,5.26c-.1.53-.34.63-1.21.57-1.37-.14-1.94.3-2.44,1.87a5.77,5.77,0,0,1-.87,1.78c-.6.7-.27,3.08.53,3.78a7.41,7.41,0,0,0,3.08.74A6.56,6.56,0,0,1,12,27.9a5,5,0,0,0,2.81.57c1.44.06,2.31.23,2.48.53.6.91.3,3.42-.54,4.79s-1.1,3-.57,3.28a19.08,19.08,0,0,0,3.15.4c2.61.21,2.95.17,3.55-.43a4.24,4.24,0,0,0,.87-2.11c.57-3.62.27-3.32,3.15-3.32a19.29,19.29,0,0,0,3.75-.33c1-.27,1.24-.23,1.6.23a2.64,2.64,0,0,1-.13,2.95,3.09,3.09,0,0,0-.4,1.74c.1.91.17.94,2.61,1.21a15.51,15.51,0,0,0,3.22.06c.7-.16,2-2.37,1.7-2.74-.1-.1.1-.7.47-1.34a5.44,5.44,0,0,0,.6-3.05,17.41,17.41,0,0,1,.21-3c.23-1,.3-1.07,1.87-1.07s1.68-.1,2.18-1c1.1-2.18-.14-3.32-2.25-2.08l-.93.57-2-2.24c-1.7-1.84-2.34-2.31-3.78-2.71-6.2-1.78-7.64-2.31-8.94-3.25A12.46,12.46,0,0,0,20,13.2a3.75,3.75,0,0,1-1.85-.3C17.87,12.49,17,12.33,15.42,12.46Zm1.64,1.61c-.2.83-.17.83.54.47,1-.54,4.15-.24,5.86.57.73.33,2.31,1.17,3.51,1.84a25.07,25.07,0,0,0,6.23,2.41C36,20,38.43,21.43,39.26,23a3.84,3.84,0,0,0,.91,1.3c.53.37,2.54.34,2.54,0s1-.8,1.24-.57c.1.07,0,.44-.2.84s-.77.7-2.08.77l-1.7.1-.64,2c-.54,1.57-.6,2.17-.3,3a1.74,1.74,0,0,1-.2,1.84,5.41,5.41,0,0,0-.64,2.11c-.13,1.67-.67,2.31-1.87,2.31s-1.18-.1-.24-1.41.94-4.39,0-4.22c-.4.1-.5.44-.44,1.34a6.08,6.08,0,0,1-.4,2.41c-.43,1-.67,1.21-1.51,1.21-1.2,0-1.23-.14-.36-1.24,1-1.31.8-3-.57-4.69l-.61-.74-2,.67a8.9,8.9,0,0,1-4,.54c-2.31-.17-2.82.17-3.12,2a21.12,21.12,0,0,1-.6,2.58c-.37,1.21-.5,1.34-1.64,1.44-.74.07-1.27,0-1.27-.23a.34.34,0,0,1,.3-.37c.67,0,2-4.15,1.4-4.49s-.87.3-.93,1.24a5.69,5.69,0,0,1-.77,2.08C19,35.7,18.67,36,17.9,36c-.54,0-1-.07-1-.17a8.67,8.67,0,0,1,.84-1.37,5,5,0,0,0,1-4.32C18.47,28,17.4,27.19,15,27.29c-1.31.07-1.94-.06-2.41-.53a4.45,4.45,0,0,0-2.28-.7c-3.25-.21-3.55-.31-4.08-1.44s-.47-1.14.06-1.54c.3-.24.57-.51.57-.64,0-.7,1-2.55,1.34-2.38s.24.4,0,.84-.2.7,0,.8c.4.27,3.05-2.68,3.05-3.38s2.84-4.45,3.38-4.45c.2,0,.3.3.2.67-.3,1.17.37,1.07,1-.17C16.46,13,17.4,12.73,17.06,14.07Z" fill="#212121"/><rect width="50" height="50" fill="none"/></svg>