<svg xmlns="http://www.w3.org/2000/svg" viewBox="0 0 50 50"><path d="M25.49,15.36a21.15,21.15,0,0,0-1.73,3.86c-1.21,3.17-1.26,3.42-1.18,5.94l.09,2.66-1,.2a4.15,4.15,0,0,1-2.47-.31c-2-.76-2.8-.7-4.28.22-.68.42-1.49.9-1.8,1.07a1.25,1.25,0,0,0-.44,1.76c.16.25,1.31.51,3.44.73a12.37,12.37,0,0,1,6.16,1.9,14.43,14.43,0,0,0,4.54,1.74,48.6,48.6,0,0,0,8.85-.59c2.07-.28,2.44-1.4.73-2.24-.48-.25-1.46-.84-2.22-1.34-1-.67-1.28-1-1.14-1.43s.3-1.21.44-2a5.23,5.23,0,0,1,1.21-2.83c.84-1.18.81-5.32,0-6.47-1-1.32-1.82-1.18-3.19.5L30.26,20.2l-.34-1.15a11.56,11.56,0,0,0-1.49-2.68C27.17,14.69,26.36,14.41,25.49,15.36Zm2.22,1.48c2,2.72,2,3.87.3,6.42-1.26,1.84-2,3.89-1.73,4.62s.64.39.81-.76a8.08,8.08,0,0,1,1.09-2.66c1.24-2,4.76-6.27,5.16-6.27s1.23,2.07,1.23,3.36a4.82,4.82,0,0,1-1.09,3.22,3.83,3.83,0,0,0-.65,1.87,8.63,8.63,0,0,1-.73,2.44c-.47.9-.53,1.21-.25,1.46a26.09,26.09,0,0,0,3.84,2.27l1.26.61L34,33.79c-6.19.72-6.28.72-7.87.22a33.15,33.15,0,0,1-4.09-1.82,9.57,9.57,0,0,0-5.18-1.51,26.87,26.87,0,0,1-3.08-.34c-.67-.19-.65-.67,0-.67a2.82,2.82,0,0,0,1.37-.7,3.65,3.65,0,0,1,3.89-.28c1.48.61,3.31.56,4-.17.54-.53.59-.78.4-2.91a9,9,0,0,1,.36-4.09c.95-3,2.32-5.85,2.83-5.85A5.08,5.08,0,0,1,27.71,16.84Z" fill="#212121"/><rect width="50" height="50" fill="none"/></svg>