<svg xmlns="http://www.w3.org/2000/svg" viewBox="0 0 50 50"><path d="M15.54,6.82C12.42,8,8.73,10.9,8.73,12.31c0,.26-.48,0-1.05-.53-1.54-1.45-3.47-1.14-3.82.61-.17.71-.31,1.06-.35.75s-.53-.53-1.1-.53c-1.93,0-2.24,1-2.37,8.08-.13,8,0,8.43,1.58,8.83a2.64,2.64,0,0,1,1.89,1.62C4.87,34.21,7.9,35,9.17,32.54c.79-1.4,2-2.06,3.16-1.66.84.26.88.52.71,3.42a12.06,12.06,0,0,1-1.45,5.44c-1.58,2.95-1.14,3.69,2.11,3.52,1.93-.14,2.32-.31,3-1.45a5.93,5.93,0,0,0,.79-2.5c0-1.59,1-3.47,1.54-3.3s.83,3.3.22,4.74c-.4,1-.4,1.41,0,1.94.61.74,3.6.87,4.83.21s1.54-3.07,1-5.26A4.26,4.26,0,0,1,25.59,34c1.14-2.41,3.78-4.08,5.18-3.33a3.44,3.44,0,0,0,2.11.22,2.38,2.38,0,0,1,1.45,0c.44.44-2.77,7.63-4.66,10.4-.43.66-.39.92.31,1.45,1.49,1.05,5.53.7,5.53-.48a1.13,1.13,0,0,1,.66-.84,1.67,1.67,0,0,0,.66-1.49A13.8,13.8,0,0,1,39,35.27l2.2-3.43.44,1.67c1,3.91,1,4.61.21,6.8-.7,1.94-.7,2.24-.17,2.64,1,.61,4.92.31,5.27-.48.79-1.67,1.14-3.43.83-4.17a19.94,19.94,0,0,1-.35-4.17c0-3.3,0-3.34,1.27-3.82S50,29.6,50,27.85a17.71,17.71,0,0,0-.88-4.52c-.52-1.41-1.18-3.56-1.49-4.7a7.75,7.75,0,0,0-4.21-5.14c-1.85-.92-3-1.18-8-1.71C31,11.3,24.93,9.37,23.18,7.92c-.92-.79-1.89-1.1-4-1.23a13.79,13.79,0,0,0-3.64.13Zm5.27,1.67a35.5,35.5,0,0,0,14.75,4.74c5.53.66,7.11,1.18,8.65,2.59a7.24,7.24,0,0,1,2.28,4.08,17.2,17.2,0,0,0,1.14,3.56c1,2.68,1.27,5.62.44,5.62-.57,0-2.46-5.89-2.46-7.69a5.31,5.31,0,0,0-.44-2.19c-.31-.48-.44-.26-.44.92a13.05,13.05,0,0,1-.66,3.47c-.74,2.06-.57,3.07.79,4.92.75,1,.93,2,1.06,5.26.3,8.52.35,8.26-1.63,8.26H42.62l.66-1.76c.62-1.54.62-2.19.14-4.92s-.8-3.33-2.29-4.82c-1.84-1.8-2.54-2-1.71-.4.44.75.18,1.45-1.71,4.43a16.36,16.36,0,0,0-2.2,4.61c0,.71-.26,1.1-.66,1.1s-.65.4-.65.88c0,.75-.31.88-1.85.88h-1.8l.84-1a26.52,26.52,0,0,0,3.68-7c1-2.5,1-2.54.18-4-.92-1.75-1-1.75-2-.83-.7.62-1,.66-2.1.18-1.58-.62-2.86-.27-4.83,1.36-2.94,2.41-3.87,5.26-2.59,8.07.39.93.39,1.23-.09,1.54a.92.92,0,0,0-.31,1c.22.58,0,.71-1.4.71H20.24l.61-1.67c.79-2.2.75-2.68-.26-4.61a13.86,13.86,0,0,1-.92-1.93c-.05-.49-.79-.22-1.5.44-.92.92-2.46,4.25-2.19,4.69a1.91,1.91,0,0,1-.31,1.41,2.91,2.91,0,0,0-.44,1.36c0,.18-.74.31-1.75.31-1.72,0-1.76-.05-1.1-.79,1.89-2.07,2.9-10.28,1.45-11.46S8.47,29.65,8,31.53c-.35,1.32-1.8,1-2.64-.61a5,5,0,0,1-.65-1.84c0-.27-.53-.53-1.28-.57a4.73,4.73,0,0,1-1.75-.36c-.62-.35-.49-4.91.17-5.13.4-.13.4-.4,0-1.14C1.14,20.78,1.1,17,1.71,17c.31,0,.35-.26.09-.7-.48-.88-.18-2.37.44-2.37.26,0,.35.31.22.66-.35.88.35,1.23,1,.44a2,2,0,0,1,1.31-.66c1.06,0,1.36-.44.84-1.36-.31-.66-.27-.83.22-.83s1,.57,1.36,1.31.88,1.32,1.1,1.32.92-.75,1.49-1.67C11.63,10.38,12,10,14.49,8.93,17.29,7.65,19,7.52,20.81,8.49Z" fill="#212121"/><rect width="50" height="50" fill="none"/></svg>