<svg xmlns="http://www.w3.org/2000/svg" viewBox="0 0 50 50"><path d="M28,48.37a2.72,2.72,0,0,1-.8-1.27c-.31-1-.43-2.12-.68-6.32-.34-5.8-.62-7.34-1.41-7.89a2.31,2.31,0,0,0-1-.39,1.28,1.28,0,0,0-.9.44,4.81,4.81,0,0,0-.77,2.12,59.54,59.54,0,0,1-2,7.13c-.33,1-.68,2.14-.79,2.53a4.14,4.14,0,0,0-.19,1.44v.73l.27.67a4.61,4.61,0,0,1,.26.7,5.58,5.58,0,0,1-.77-1,3.6,3.6,0,0,1-.31-1.54,12.2,12.2,0,0,1,1-4.06,29.45,29.45,0,0,0,1.33-9c0-1.66-.15-2.35-.62-2.82a3,3,0,0,0-2-.71,26.73,26.73,0,0,1-7-2.49c-1.06-.49-2-.87-2-.86s-.44.74-.91,1.63a42.5,42.5,0,0,1-2.85,4.84c-.36.51-.38,1.3,0,3.17.22,1.3,1,4.54,1.35,6,.28,1,.74,2.43,1,3.11a10.08,10.08,0,0,0,1.18,2.25c.45.65.67,1.1.6,1.18s-.37-.09-.7-.42c-1-1-2.07-3.56-2.87-6.76-.75-3-1.36-4.5-2-4.9a1,1,0,0,0-1.4.4c-.6.94-1,3.42-1.08,6.27,0,2.34.08,3.22.63,4.38.3.65.36.84.31,1s-.16.09-.4-.14c-.57-.57-.75-1.13-.88-2.68-.09-1.14-.1-7.77,0-9.3A16.44,16.44,0,0,1,2,31.92c0-.1.31-.52.57-.94a19.78,19.78,0,0,0,1.88-3.66c.11-.5,0-.82-.41-2.22a13.72,13.72,0,0,1-.86-4.59,4.14,4.14,0,0,1,.1-1.3A4.8,4.8,0,0,1,4.4,17.35c.28-.31,2.74-2.92,3.2-3.41l.19-.19,1.36.16a60.9,60.9,0,0,1,7.6,1.37c2.65.6,3.12.6,5.11,0a15.49,15.49,0,0,1,4.37-.87c1.72-.09,2.12-.24,2.31-.88.25-.84-.32-1.54-1.52-1.86a11.16,11.16,0,0,0-1.41-.16A16.23,16.23,0,0,1,24,11.29c-3.19-.65-6.7-3.12-10.17-7.18a8.21,8.21,0,0,1-1-1.27c0-.09.38-.08.87,0,.83.16,1.18.07,1.25-.33,0-.12.06-.23.09-.24s.3,0,.7.37a3.55,3.55,0,0,0,1.64.81c.66.09,1.22.47,2.16,1.48a7.15,7.15,0,0,0,.72.69.83.83,0,0,0,.72,0,2.54,2.54,0,0,0,1.08-1.47.87.87,0,0,1,.08-.28c.07-.12.26.16.68,1a3.94,3.94,0,0,0,.69,1.08c.37.39.57.47.72.29s.12-.4-.17-1.54a21.3,21.3,0,0,1-.52-2.48c0-.11,0-.12.09,0a4,4,0,0,1,.75,1.13,11.16,11.16,0,0,1,.6,2.5,6.79,6.79,0,0,0,1.31,3.67,1.31,1.31,0,0,0,1.37.52,2.34,2.34,0,0,0,1.14-1.2c.48-1,.62-1.69.42-2.06a4.46,4.46,0,0,0-.44-.59,5.4,5.4,0,0,1-.5-.68,2.14,2.14,0,0,1-.2-1.66c.2-.44.53-.5,1.09-.2A2,2,0,0,0,31,3.67a4.79,4.79,0,0,1,1.43-.27,1.88,1.88,0,0,0,1.14-.33,1.42,1.42,0,0,1,.33-.19c.07,0,.16.31.16.57s0,.72-.08,1.31A5.07,5.07,0,0,0,34.37,8a1.64,1.64,0,0,0,2.08.54,4.07,4.07,0,0,0,.86-.73A3.88,3.88,0,0,1,39.1,6.59a4.74,4.74,0,0,0,2.12-1.31c.79-.83,1-1,1.11-1,.4,0,.49.35.53,2l0,1.2.55-.7c.3-.39.69-.89.85-1.11a3.27,3.27,0,0,1,.34-.41,2.79,2.79,0,0,1,.13.62,2.46,2.46,0,0,0,.5,1.38.89.89,0,0,0,.76.35.81.81,0,0,0,.66-.29,2.1,2.1,0,0,0,.43-.92c.09-.29.17-.46.21-.44a4.2,4.2,0,0,1,.61,1.83c0,.63-.29,1-1.36,1.52a9,9,0,0,1-3.31,1.08,10.85,10.85,0,0,1-2.36-.09,5.89,5.89,0,0,0-3.17.22c-2,1-1.89,2.7.3,3.84,1.59.82,2.27,1.72,1.91,2.53-.28.62-.84.92-2.14,1.12a3.52,3.52,0,0,0-2.15.87A2.25,2.25,0,0,0,35,20a2.87,2.87,0,0,0-.07,1,8.61,8.61,0,0,1-.07,2.39c-.17.44-.38.43-.7,0a1.77,1.77,0,0,0-2.41-.06,4.46,4.46,0,0,0-.95,2.32,9.3,9.3,0,0,1-1.45,3.86,14.61,14.61,0,0,0-1.68,3.23,24,24,0,0,0-.4,5.22,55,55,0,0,0,.35,7.81,10,10,0,0,0,.49,2c.2.61.27.9.2.9a2.48,2.48,0,0,1-.36-.32Z" fill="#e6be70" stroke="#e6be70" stroke-miterlimit="2"/><rect width="50" height="50" fill="none"/></svg>