<svg xmlns="http://www.w3.org/2000/svg" viewBox="0 0 50 50"><path d="M38.49,40.15a1.54,1.54,0,0,1-1.16-.8,13.73,13.73,0,0,0-2.76-2.57,13.64,13.64,0,0,1-3.63-3.71,23.63,23.63,0,0,1-2-3.76,3.33,3.33,0,0,0-.28-.56c-.27-.28-1.15.84-2.19,2.8a14.13,14.13,0,0,0-1.6,4c0,.37.06.58.43,1a3.66,3.66,0,0,0,1.13.81c.58.3.9.68.8.94-.16.42-1.15.66-2.44.61s-2.05-.37-2.41-1.1a5.79,5.79,0,0,1-.28-.88,13.46,13.46,0,0,0-.72-2.14A4.26,4.26,0,0,1,21,32.69a8.52,8.52,0,0,1,1.29-4.63c.36-.61.4-.86.14-.9a4.47,4.47,0,0,0-1.51.53,26.76,26.76,0,0,1-5.81,1.84l-.86.2v1.95a20.18,20.18,0,0,0,.08,2.53,3.84,3.84,0,0,0,.79,2.19,2.35,2.35,0,0,0,1,.62,2,2,0,0,1,1.13.78c.11.2,0,.3-.27.42a10.29,10.29,0,0,1-3.1.32c-2,0-3.2-.19-3.5-.55a4.29,4.29,0,0,1-.48-2.39A11.55,11.55,0,0,0,9.6,33c-.21-.83-.52-1.35-.8-1.35-.57,0-3.14,2.28-3.88,3.44a2.71,2.71,0,0,0-.24.52,1.89,1.89,0,0,0-.08.87C4.65,37.52,4.46,38,4,38s-1.75-.77-2.29-1.72a4.47,4.47,0,0,1,.44-4.63c.14-.21.6-.77,1-1.25.6-.67.77-.9.77-1s0-1.32-.07-2.77c-.07-3.1-.08-5.92,0-6.75.26-3.3,1-4.44,4.56-6.79a17.29,17.29,0,0,1,5.85-2.82,21.89,21.89,0,0,1,5.58-.49,52.63,52.63,0,0,1,6.74.34,20.89,20.89,0,0,1,4.15,1.06,15.8,15.8,0,0,0,5,.86,5.46,5.46,0,0,0,1.41-.1,3.38,3.38,0,0,0,1.34-.57c.64-.45,1.13-.57,1.45-.35a2.13,2.13,0,0,1,.64,1c.36.93.61,1.27.93,1.27s.18,0,.68-.56a.52.52,0,0,1,.73-.16,1.82,1.82,0,0,1,.67.74c.05.11.21.54.36,1a9,9,0,0,0,.89,2,3.7,3.7,0,0,1,.67,1.75,2.34,2.34,0,0,0,.71,1.29,6.59,6.59,0,0,0,.73.67c1,.79,1.32,1,1.58,1.29a1.46,1.46,0,0,1,.29.32,3.92,3.92,0,0,1-1.35.92,1.38,1.38,0,0,1-.61.12,3.13,3.13,0,0,1-1.46-.49c-.75-.35-1-.39-1.08-.2s.09,1,.57,1.41l.46.39c.2.18.17.26-.14.41a2.16,2.16,0,0,1-1.3.16A9.1,9.1,0,0,1,42,24a12.29,12.29,0,0,0-5.87-.42,7.81,7.81,0,0,0-1.3.53l-.88.42s1.9,4.67,2.29,5.55c1.54,3.48,2.85,5.55,4.14,6.53a9.81,9.81,0,0,0,.84.53,5.16,5.16,0,0,1,1.18.79c.15.16.11.25-.28.64A5.89,5.89,0,0,1,39.76,40a4.17,4.17,0,0,1-1.27.11Z" fill="#e6be70" stroke="#e6be70" stroke-miterlimit="2"/><rect width="50" height="50" fill="none"/></svg>