<svg xmlns="http://www.w3.org/2000/svg" viewBox="0 0 50 50"><path d="M19,48.6a2.64,2.64,0,0,1-1.06-.41,1.37,1.37,0,0,1-.51-.66,32.1,32.1,0,0,0-3.09-4.37,17.34,17.34,0,0,1-1.7-2.51,3.79,3.79,0,0,1-.47-1.73c-.06-1-.2-1.46-.38-1.46a21.8,21.8,0,0,0-3.35,1.81A8.88,8.88,0,0,0,6,41.58,30.92,30.92,0,0,0,3,47a2,2,0,0,0-.2,1,1.46,1.46,0,0,1-.06.53c-.08.08-.38,0-.55-.11a2.73,2.73,0,0,1-.59-1.58c0-1.42,1.78-5.33,3.78-8.33a15.76,15.76,0,0,1,2.27-2.76c.56-.57,1.14-1.19,1.27-1.37a4.3,4.3,0,0,0,1.17-3.05c-.14-.85-.84-1.71-1.4-1.71-.16,0-.33-.18-.4-.41a6.57,6.57,0,0,1,.28-2.64,1.32,1.32,0,0,1,.63-1c1.31-.88,5-1.45,8.31-1.28,1.69.09,5,.09,5.8,0,.32,0,1.21-.19,2-.34a20.23,20.23,0,0,1,5.5-.6,12.08,12.08,0,0,1,3.78,1A15.47,15.47,0,0,0,36.8,25c.13,0,.39-.54.54-1.11a3.39,3.39,0,0,0,0-1.87,2.14,2.14,0,0,0-2.27-1.19,4.69,4.69,0,0,1-2.23-.44,2.07,2.07,0,0,1-.66-.66,1.82,1.82,0,0,1-.12-.52,1.35,1.35,0,0,0-.39-.93c-.38-.39-.48-1-.48-2.58a11.28,11.28,0,0,1,.54-3.83,2.72,2.72,0,0,0,.16-.85c0-.59-.18-.89-1.47-2.38a9.37,9.37,0,0,1-1.32-1.88A1.21,1.21,0,0,1,28.91,6c0-.33,0-.45.12-.4s.41.53.85,1.15c1.3,1.82,1.63,2.11,2.12,1.86.21-.11.3-.32.36-.83a12.44,12.44,0,0,0-.17-2.64,3.22,3.22,0,0,1,.06-1.27.26.26,0,0,1,.39-.13c.21.17.24.35.25,1.2a2.33,2.33,0,0,0,.09,1c.26.48.71.41,1.12-.2a6.22,6.22,0,0,0,.55-1.32C35.42,2.07,36,1,36,1.67a5.39,5.39,0,0,1-.36,1.61,2.83,2.83,0,0,0-.21,1.1c0,.44,0,.46.13.53s.15.07.46-.08A6.27,6.27,0,0,0,37,4.16a4.47,4.47,0,0,1,1.26-.88c.09,0,.14.13.1.28a3.85,3.85,0,0,1-.54.63c-.37.37-.52.55-.56.7-.12.45.16.61.88.49.94-.15,1.16-.06,2.06.9A7.37,7.37,0,0,0,41,7.1a.64.64,0,0,0,.75,0c.3-.29.39-.72.44-2.28a4.66,4.66,0,0,1,.25-1.9c.12-.12.26,1,.26,2.05s.27,1.89.63,1.89c.15,0,.41-.27.53-.55,0-.1.15-.43.23-.73.17-.57.28-.81.38-.81s.28.26.28.57a3.76,3.76,0,0,1-.45,1.57c-.51,1.14-.41,1.75.2,1.24A3.68,3.68,0,0,0,45,7.51a3.47,3.47,0,0,1,.37-.5c.08,0,.13.53.09.89A1.82,1.82,0,0,1,45,9a20.18,20.18,0,0,0-2.09,2.16,44.85,44.85,0,0,0-4.48,6.24c-.66,1.34-.71,1.76-.27,2.33.64.84,1.17.82,2.47-.06,1-.68,1.43-1.18,1.59-1.82a10,10,0,0,0,.13-1.13c.07-1.13.25-1.59.52-1.31.09.09.12.2.15.56.05.65.18.84.58.85s.47.16.54.66.28.59.77.42a1.73,1.73,0,0,1,1.59.45,2.66,2.66,0,0,0,.52.34c.28.13.43.08.7-.21s.22-.2.4-.2a.47.47,0,0,1,.42.2c.17.17.2.23.2.41a.42.42,0,0,1-.12.34c-.13.12-.18.14-.56.2a5.84,5.84,0,0,0-1.58,1.05,38,38,0,0,0-3.75,3.67c.07.1,2.22,1.88,3.13,2.58s1.22,1,1.4,1.6a2.67,2.67,0,0,1,0,1.34c-.16.34-.64.34-3.63.06a9.81,9.81,0,0,0-2.22-.14l-2.23,1.91c-2.61,2.23-3.05,2.59-4.31,3.59-.55.43-1,.82-1.09.87s-.08.14.6,1.56a51.58,51.58,0,0,0,4.22,7.43,20.61,20.61,0,0,1,1.66,2.75.94.94,0,0,1,0,.85c-.12.15-.42.1-.75-.13a8.33,8.33,0,0,1-2.11-2.53,52.72,52.72,0,0,0-4.62-6.28,9.33,9.33,0,0,1-1.61-2.35,4.51,4.51,0,0,0-.7-1.33C29.78,35,29.73,35,29,36a55.88,55.88,0,0,0-5.3,10.9,2.74,2.74,0,0,0-.11,1.28c.08.43-.13.49-.91.25s-1.17-.94-.82-2a6.65,6.65,0,0,1,.77-1.51,26.9,26.9,0,0,0,2.61-7.2,4.67,4.67,0,0,0,.27-1.51.75.75,0,0,0-.18-.57,1.66,1.66,0,0,0-.92-.51,19.93,19.93,0,0,0-4.67.06,4.36,4.36,0,0,0-3.09,1.58,5.12,5.12,0,0,0-1.72,2.86,1.92,1.92,0,0,0,.17.67A29.85,29.85,0,0,0,20,47.59a.64.64,0,0,0,.41.19c.24,0,.33,0,.33.18s-.31.46-.6.55A2.68,2.68,0,0,1,19,48.6ZM42.61,21.53a6.45,6.45,0,0,0,2.16-1.35c.8-.7,1.07-1.18.75-1.36-.11-.07-.19-.07-.53,0a11.37,11.37,0,0,0-3.91,1.57c-.61.48-.64,1-.08,1.25A2.35,2.35,0,0,0,42.61,21.53Zm-5.72-1.6c.19-.21.29-.7.16-.78s.11-.93,1.13-3a17.2,17.2,0,0,0,1.32-3.06c.46-1.75-.11-2.59-2.58-3.83-1.54-.77-2.09-.66-2.8.58a21.53,21.53,0,0,0-2.06,6.06c-.11,1.49.79,2.55,3.13,3.71a2.78,2.78,0,0,0,1.28.4C36.73,20,36.8,20,36.89,19.93ZM40.53,9.38c.34-.18.38-.53.1-1.11a6,6,0,0,0-1.71-2,1.11,1.11,0,0,0-1,.07,9.2,9.2,0,0,0-1.74,1.34s.25.16.5.3a12.49,12.49,0,0,0,2.91,1.44A1.32,1.32,0,0,0,40.53,9.38Z" fill="#e6be70" stroke="#e6be70" stroke-miterlimit="2"/><rect width="50" height="50" fill="none"/></svg>