<svg xmlns="http://www.w3.org/2000/svg" viewBox="0 0 50 50"><path d="M17.93,48.52c-.24-.08-.3-.16-.3-.41a9.11,9.11,0,0,1,.82-2.39,7.75,7.75,0,0,0,.86-4.47,45.71,45.71,0,0,0-.83-7.13c-.7-4.15-1.09-5.65-1.65-6.34a5.26,5.26,0,0,0-.74-.63,11.42,11.42,0,0,1-3.44-4.3,21.74,21.74,0,0,1-1.76-6.62c-.31-2.34-.57-3.18-1.16-3.77A1.11,1.11,0,0,1,9.4,11.2a.84.84,0,0,0,0-.68c-.19-.19-.54,0-1.26.76a4.87,4.87,0,0,1-1.47,1.13,2.22,2.22,0,0,1-2.13-.33c-.9-.6-1.29-1.23-1-1.57S4,10.22,5,10.19s1.14-.07,1.46-.43a6.12,6.12,0,0,0,.8-1.94,12.83,12.83,0,0,0,.8-3.63c-.05-.3.15-.66.58-1.07a2.59,2.59,0,0,1,1.92-.76,2.69,2.69,0,0,1,1.24.27,2.78,2.78,0,0,1,1.27,1.42c.2.39.38.71.39.71a5.39,5.39,0,0,0,.38-.65,3.64,3.64,0,0,1,1.44-1.6A7.33,7.33,0,0,1,21.65,2c2.2,1.11,3.4,4.21,2.68,6.91a6.45,6.45,0,0,1-.38,1,2.93,2.93,0,0,1-.75,1,3.51,3.51,0,0,1-1.62,1,2.42,2.42,0,0,1-2.91-.79,3,3,0,0,1-.25-1.49V8.85L19,9.5c.58.73.77.92,1.12,1.08,1.13.5,2.2-.75,1.9-2.22a2.61,2.61,0,0,0-2.19-2.27c-1.1,0-2.15,1.12-2.55,2.74s-.1,2.72.89,3.46a6.33,6.33,0,0,0,3.34,1.07,16.4,16.4,0,0,1,2.53.47,14,14,0,0,1,2.79,1A20.84,20.84,0,0,0,31,16.41a25.85,25.85,0,0,0,6.12.81c.88,0,1.84.07,2.13.1a7.53,7.53,0,0,1,5.12,2.2,7.65,7.65,0,0,1,2,4.8c0,.7-.06.91-.3,1s-.51-.34-.58-1.43c-.06-.79-.19-1.27-.38-1.38-.36-.18-.55.45-.63,2a4.59,4.59,0,0,1-.62,2.65,2.47,2.47,0,0,0-.61,1,7.46,7.46,0,0,0,.44,4.63,17.86,17.86,0,0,1,.89,3.57,59.8,59.8,0,0,1,.95,9.7c0,1.14-.07,1.27-.45,1.39a4,4,0,0,1-1.9.19c-.2-.09-.21-.2-.12-.75a38,38,0,0,0,.39-5.42c-.11-3-1.12-5.66-3.37-9-.9-1.33-1.3-1.78-1.78-2-.28-.13-.33-.14-1.14-.14a5,5,0,0,0-2,.3c-.33.14-.37.22-.27.52s.8,1.72,1.63,3.3c.4.75.72,1.4.73,1.44s-.51,1.37-1.13,3A65.28,65.28,0,0,0,33.81,45a1.94,1.94,0,0,1-.15.4A7.71,7.71,0,0,1,31.2,48a.76.76,0,0,1-.55.09c-.64-.06-.87-.3-.82-.83a4.87,4.87,0,0,1,.67-1.76c1.07-2.08,1.24-2.43,1.54-3.15a17.1,17.1,0,0,0,1.54-5.39l0-.69-.3-.58c-.43-.82-1.17-2.07-1.5-2.54-.62-.88-1-1.21-1.65-1.36a10.89,10.89,0,0,0-3,.06c-.42.15-.74.53-1.15,1.33-.88,1.72-1.07,3-1.24,7.93s-.29,6.26-.67,6.93a.88.88,0,0,1-.41.4c-.23.11-.32.12-1,.12s-1.06,0-1.23-.24-.09-.13.13-.78A16.27,16.27,0,0,0,22.23,45a43.85,43.85,0,0,0,.42-7.69c0-3.74-.1-5.7-.31-6s-.49.07-.66.74c-.26,1-.36,2.74-.41,6.77,0,1.55-.05,3.27-.08,3.81-.19,3.64-.73,5.32-1.86,5.82A3.33,3.33,0,0,1,17.93,48.52Z" fill="#e6be70" stroke="#e6be70" stroke-miterlimit="2"/><rect width="50" height="50" fill="none"/></svg>