<svg xmlns="http://www.w3.org/2000/svg" viewBox="0 0 50 50"><path d="M32.24,6.82a6.85,6.85,0,0,0-2.35,1,26.44,26.44,0,0,0-2.57,1.88,4.72,4.72,0,0,1-3,.91,18.81,18.81,0,0,1-4-.34,31.4,31.4,0,0,0-6.48-.6,10.45,10.45,0,0,0-5,3,19.52,19.52,0,0,0-3.4,3.92,25.27,25.27,0,0,0-1.78,5.1C3.07,24,2.42,26.4,1.77,28.77a18.44,18.44,0,0,0-.61,5c.05.32,0,.73.31.94s.39-.28.48-.48c.34-1,.39-2,.67-3,.1-.42.19-.83.3-1.24a7.51,7.51,0,0,0,.41,1.82.17.17,0,0,0,.33,0A16,16,0,0,0,4.49,29a61,61,0,0,0,1.22-7.83A8,8,0,0,1,6.18,19c.07-.13.22.07.28.14a7.82,7.82,0,0,1,.29,1.18A25.55,25.55,0,0,1,7.85,25a23.1,23.1,0,0,1-.3,3.51c-.4,3-.71,6.08-1.18,9.1A13.61,13.61,0,0,1,6,39.24c0,.14.07.33.23.23s.29-.15.39,0c.26.4.19,1,.59,1.29a1.79,1.79,0,0,0,2.11.12c.29-.27,0-.69-.1-1a6,6,0,0,1-1.07-2.64A16.57,16.57,0,0,1,9,32.08a30.2,30.2,0,0,1,2.81-6,8.51,8.51,0,0,0,.74-1.63.38.38,0,0,1,.68,0,7.37,7.37,0,0,1,.31,3,12.53,12.53,0,0,1-.39,2.35A6.65,6.65,0,0,0,14,33.09c.83,1.92,1.78,3.79,2.52,5.76a2.84,2.84,0,0,0,.67,1.38,4.35,4.35,0,0,0,2.41,1.37c.3,0,.69,0,.91-.21s-.18-.65-.33-.92a28.78,28.78,0,0,1-2.26-3.23,12.94,12.94,0,0,1-1.75-7.39A12.6,12.6,0,0,1,17,27.12c.12-.14.4,0,.58,0,2.45.14,4.9.35,7.35.49.14-.12,0-.35,0-.5-.14-.91-.37-1.8-.46-2.72.07-.27.48-.55.7-.31a12.82,12.82,0,0,1,.27,1.4c.66,2.53,1.7,5,2.27,7.52a20.43,20.43,0,0,1,.64,5.45c0,1.18-.25,2.36-.13,3.55a.53.53,0,0,0,.55.45c.24,0,.55.09.59.38s.55.3.84.38a14,14,0,0,0,2.05,0c.16-.11-.13-.27-.17-.39L30,40.12l0-13a4.11,4.11,0,0,1,1.78.19,3,3,0,0,0,.3.59c.92,1.43,2,2.75,3,4.12-1,1.06-2.07,2.07-3,3.18a5.36,5.36,0,0,0-1.26,2.69,13.76,13.76,0,0,0-.24,1.43c.14.12.22-.17.32-.24a37.16,37.16,0,0,1,3.31-3.78,37.53,37.53,0,0,0,2.79-3c.29-.33,0-.77-.08-1.11-.58-1.56-1.38-3-1.86-4.63a1.8,1.8,0,0,1,.19-1.61,5.86,5.86,0,0,0,1.18-2.23c.19-.74.06-1.53.32-2.25.1-.24.32,0,.39.11a5.42,5.42,0,0,1,.38,1.74,23.1,23.1,0,0,0,.57,3.89,2.5,2.5,0,0,0,1.5,1.73,1.82,1.82,0,0,0,1.29-.27,2.11,2.11,0,0,0,1-1.22,22.5,22.5,0,0,0,.89-5.15,21,21,0,0,0-.09-5.2c0-.35-.26-.7-.19-1,.32,0,.53.37.76.57.91.93,1.56,2.09,2.56,2.93a1.12,1.12,0,0,0,1.37.18,4.51,4.51,0,0,0,1.28-1.82,4,4,0,0,0-.1-3.44,2.17,2.17,0,0,0-.53-.76c-.24,0-.22.35-.29.52a5.39,5.39,0,0,1-.86,2.57.55.55,0,0,1-.76.15c-.38-.28-.54-.75-.84-1.11a8.91,8.91,0,0,0-2.79-2.61c-.3-.14-.67-.33-1-.18s-.2.36-.24.55-.43,0-.61-.1a2.43,2.43,0,0,0-2.29.24,8.52,8.52,0,0,0-2.4,2.35c-.18.21-.5.48-.78.25-.6-.39-.62-1.18-.71-1.8-.1-.42-.15-.94-.53-1.21-.26-.06-.35.3-.44.49a8.91,8.91,0,0,0-.57,2.54,5,5,0,0,0,.9,2.15c.21.27.42.68.81.7A7.16,7.16,0,0,0,36.11,17,20.23,20.23,0,0,1,39,14.65c.15-.12.42-.1.42.13,0,.39-.35.65-.57.93a21.55,21.55,0,0,1-3.54,3.07,1.65,1.65,0,0,1-2-.06A4.36,4.36,0,0,1,32,15.44a5,5,0,0,1,.52-2.91A6,6,0,0,1,33.77,11c.22-.15.39.17.52.3a3.51,3.51,0,0,1,.76,2.19,1.31,1.31,0,0,0,.18.7,9.83,9.83,0,0,0,1.2-1,6.94,6.94,0,0,1,2.45-1.75c.33-.12.71,0,1-.15.12-.18-.15-.35-.25-.48A16,16,0,0,0,36,8.38a20.48,20.48,0,0,0-3.42-1.52,1.39,1.39,0,0,0-.35,0Z" fill="#e6be70" stroke="#e6be70" stroke-miterlimit="2"/><rect width="50" height="50" fill="none"/></svg>