<svg xmlns="http://www.w3.org/2000/svg" viewBox="0 0 50 50"><path d="M17.91,1.23c-.3.06,0,.42.1.54.71.88,1.72,1.69,1.92,2.87a1.2,1.2,0,0,1-.86,1.29,4.45,4.45,0,0,1-3-.44c-.78-.33-1.65-.88-2.53-.56-.56.28-.37,1-.61,1.46-.28.2-.52-.2-.61-.4-.18-.48-.45-1.09-1.05-1.09-.88-.12-1.49.63-2.1,1.12a3.07,3.07,0,0,1-3.08.53,1.42,1.42,0,0,1-.41-1.92c.47-1,1.48-1.62,2-2.6.13-.29-.26-.36-.45-.25A7.56,7.56,0,0,0,4.47,3.9c-.54.69-1,1.72-.5,2.54.74,1,2.12,1.27,3.3,1.41.65.12,1.55,0,1.94.69.13.26.19.8-.24.8A12.22,12.22,0,0,1,4.34,8.21C4,8.13,3.61,7.84,3.28,8c-.23.48.09,1,.36,1.44a5.35,5.35,0,0,0,3.55,1.7,2.88,2.88,0,0,1,2.15,1.59,15.53,15.53,0,0,1,.87,4.89,36.14,36.14,0,0,0,.54,5c.35.78-.22,1.57-.35,2.34a4.63,4.63,0,0,1-1.26,2.51c-.14.22-.53.51-.33.78.48.19.95-.24,1.32-.51s.66-.76,1.12-.92a6.24,6.24,0,0,1-.68,1.68,8.63,8.63,0,0,0-1,2.48c0,.26.32.22.43.05a11.62,11.62,0,0,0,2.25-3.92,14.14,14.14,0,0,0,.57-3.43c.08-.65.69-1,1.19-1.32a2.66,2.66,0,0,0,1.08-2.2,35.11,35.11,0,0,1,.36-4.36c.09-.22.21-.62.5-.58a9.19,9.19,0,0,1,.11,2.87,22,22,0,0,1-.55,4.28,6.52,6.52,0,0,0-.75,1.55,17.27,17.27,0,0,0-.1,4.87c.31,3.12,1.4,6.2,1,9.36,0,.51-.21,1.13.13,1.58.17.1.39.2.39.44a31,31,0,0,1,0,5c-.05,1-.13,2-.27,3,.09.49.71.47,1.09.55a5.66,5.66,0,0,0,1.47.08c-.15-2.34-.08-4.7-.11-7,0-3.07,0-6.15-.21-9.22a9.77,9.77,0,0,1,.07-2.36c.25-.45.86-.51,1.33-.54.65,0,.79.79.88,1.29a64.64,64.64,0,0,1,.29,7.1c0,2.54.06,5.08-.14,7.6,0,.83-.6,1.48-.79,2.25-.1.59.56.92,1.06.89l1.7,0a9.85,9.85,0,0,0,0-1.45,102,102,0,0,1,.72-10.76c.19-1.61.3-3.24.63-4.82.17-.16.48,0,.69,0,1.61.2,3.29.74,4.88.16.62-.18,1.23-.39,1.84-.59a50.81,50.81,0,0,1,2.83,5.55,9.33,9.33,0,0,1,.16,4.27,16.3,16.3,0,0,1-2.08,5.71c-.1.3-.39.64-.26,1,.39.42,1,.11,1.43-.15s.59-.63.91-.86c.15.36,0,.9.32,1.15.42.08.57-.49.62-.81a47.12,47.12,0,0,1,1.6-6.79c.33-1.2.69-2.41,1-3.61a16.73,16.73,0,0,1-2.07-4.68,13.59,13.59,0,0,1,0-3.25c.07-.16.09-.45.28-.49a14.34,14.34,0,0,1,1.48,2.43,58.94,58.94,0,0,1,3.76,8.49,17.07,17.07,0,0,1,1,6.19c-.08.83-.74,1.45-.93,2.25,0,.37.51.25.75.31l1.51.07a6.53,6.53,0,0,0,0-1.33c-.09-3.21-.08-6.42-.35-9.62a6.53,6.53,0,0,0-.76-2.73,9.76,9.76,0,0,1-1.3-3.94c-.1-2.31,0-4.64,0-7A6.19,6.19,0,0,1,42,21.06c.24-.29.57.09.68.32A16.41,16.41,0,0,1,43.79,26a64.11,64.11,0,0,1,.49,8.43,8.35,8.35,0,0,0,.32,2.39c.19.18.33-.19.34-.34a46.62,46.62,0,0,0,.26-5.29,21.28,21.28,0,0,0,1.24,3c.17.2.29-.14.26-.28a38.67,38.67,0,0,0-.55-4.9,26.59,26.59,0,0,0-1.9-7.41c-1.25-2.45-3.62-4-5.84-5.5A11.54,11.54,0,0,0,33.94,14c-2.83-.51-5.74-.59-8.5-1.39a6.64,6.64,0,0,1-2.85-2.48,3.77,3.77,0,0,1-.87-2A.51.51,0,0,0,21,7.84,5.6,5.6,0,0,0,18.54,9a3.22,3.22,0,0,1-2.23.62c-.4-.15-.24-.68-.16-1,.22-.66,1-.67,1.6-.84A8.12,8.12,0,0,0,21.62,6c.57-.58.27-1.48-.07-2.09a6.59,6.59,0,0,0-3.5-2.63l-.14,0Z" fill="#e6be70" stroke="#e6be70" stroke-miterlimit="2"/><rect width="50" height="50" fill="none"/></svg>