<svg xmlns="http://www.w3.org/2000/svg" viewBox="0 0 50 50"><path d="M18.88,43.64a5.25,5.25,0,0,1-1.47-.23c-.14-.07-.13-.24,0-.46a3,3,0,0,1,1.6-1c.73-.22.93-.52.93-1.46a6.42,6.42,0,0,0-.43-2.18,18.27,18.27,0,0,0-1.85-3.8c-2.17-3.66-4-8.07-4.26-10.08a2.91,2.91,0,0,0-.12-.61,6.31,6.31,0,0,0-1.38-1.4,40.45,40.45,0,0,1-4.14-4c-.55-.59-2.06-2.12-3.35-3.41-2.63-2.63-3-3.08-3-3.4s.62-.17,1.84.25A2.33,2.33,0,0,0,4.4,12c.33-.15.08-.52-1.11-1.7-1-1-1.44-1.52-1.44-1.77S2.64,8.18,3.9,8s2.16-.18,4.68-.22c1.38,0,2.65-.06,2.84-.09a2.4,2.4,0,0,0,1.51-.55,2.06,2.06,0,0,1,2.16-.55c1.08.27,2,1.07,2,1.73,0,.11,0,.34,0,.52s0,.32.07.39a2.86,2.86,0,0,0,1.33,0c1.73-.27,2.34-.13,4.74,1.06a9.78,9.78,0,0,0,3.06,1.17,25.84,25.84,0,0,0,3.91.18c2.23,0,4.38.06,5.56.17,3.75.32,6.07,1.13,8.22,2.85a19.12,19.12,0,0,1,2.38,2.39A11.61,11.61,0,0,1,48,20.87,9.08,9.08,0,0,1,48.67,24a7.4,7.4,0,0,1-.38,2.31,45,45,0,0,1-4.38,10.22,35.4,35.4,0,0,0-1.95,4,5.2,5.2,0,0,0-.47,1.72c-.08,1-.1,1-2.81,1-2.21,0-2.8-.06-3.08-.32s-.16-.38.08-.66a4.3,4.3,0,0,1,1.44-.92c.83-.4,1-.55,1.18-.85.23-.47.15-1-.4-2.72a7.47,7.47,0,0,1-.53-3A7.48,7.48,0,0,1,37.76,32,5.3,5.3,0,0,0,38,31c0-.27,0-.28-.12-.3-.38,0-1.13,1.15-1.6,2.54A3.85,3.85,0,0,0,36,35a7.32,7.32,0,0,0,.35,1.79c.41,1.6.68,2.71.72,3l0,.21-.71.35a5.12,5.12,0,0,0-1.62,1.09,1.75,1.75,0,0,0-.39,1.17c0,.68-.09.73-.59.72a21.53,21.53,0,0,1-2.68-.47c-.88-.22-1.26-.53-1.11-.89a1.58,1.58,0,0,1,1.25-.73,4.23,4.23,0,0,0,1.37-.37.91.91,0,0,0,.4-.44,1.57,1.57,0,0,0,.16-.87,19.74,19.74,0,0,0-.55-4.09c-.48-2.56-.71-3.44-1-3.76s-.46-.32-1.56-.32c-.86,0-.92,0-.92.09s-.34,4.91-.5,7c-.26,3.27-.41,4.91-.46,5s-3.78.25-4.37.22-.76-.12-.81-.3a2.11,2.11,0,0,1,.14-1,2.46,2.46,0,0,1,1-1c.7-.38.91-.75.81-1.42a12.51,12.51,0,0,0-1.19-3,15.52,15.52,0,0,1-1.2-4.91,16.21,16.21,0,0,0-.41-3.14c-.28-.82-.71.43-.88,2.53A13,13,0,0,0,21.38,34a32.73,32.73,0,0,0,1.69,4.41c.35.78.63,1.43.63,1.46a7,7,0,0,1-.61.78,7.21,7.21,0,0,0-1.21,1.77,1,1,0,0,0-.12.62c0,.33,0,.43-.33.51a11.76,11.76,0,0,1-2.55.09Z" fill="#e6be70" stroke="#e6be70" stroke-miterlimit="2"/><rect width="50" height="50" fill="none"/></svg>