<svg xmlns="http://www.w3.org/2000/svg" viewBox="0 0 50 50"><path d="M25,1.31A9.64,9.64,0,0,0,20,3a.57.57,0,0,0-.3.42A4.71,4.71,0,0,1,18.33,4a10.65,10.65,0,0,0-3.18,1.45c-1.73,1.23-3.1,2.92-4.92,4A3.68,3.68,0,0,1,7,10.18,4.32,4.32,0,0,1,5.22,8.69a3,3,0,0,1,.22-3C5.89,4.8,6.69,4.13,7.1,3.2a.21.21,0,0,0-.18-.35c-.46-.06-.85.28-1.23.5A9.67,9.67,0,0,0,3.28,5.88a4.69,4.69,0,0,0-.86,3.25,5.53,5.53,0,0,0,2,2.82,5.48,5.48,0,0,0,3.86,1.54,7.28,7.28,0,0,0,4.12-1.74c1.35-1.07,2.47-2.42,3.85-3.48.18-.2.5.08.41.3a2.1,2.1,0,0,1-.94,1.23A13.53,13.53,0,0,0,13.73,13a14.8,14.8,0,0,0-1.17,3.35,2.76,2.76,0,0,0,.17,1.56c.31.47,1,.4,1.26.94a10.56,10.56,0,0,1,.27,1.67c.33,1.74,1.18,3.33,1.44,5.09A15.68,15.68,0,0,0,16.08,28a29.8,29.8,0,0,0,2.24,6,11.29,11.29,0,0,1,.21,2.25,61.32,61.32,0,0,1,0,6.36A11.86,11.86,0,0,1,17,46.53a13.31,13.31,0,0,0-.74,1.64c0,.29.39.3.59.37a7.23,7.23,0,0,0,3.55,0,1.37,1.37,0,0,0,1-1.1c.16-1.1.19-2.22.29-3.34.27-3.41.44-6.83.71-10.24a6.26,6.26,0,0,1,.4-2c.25-.36.74-.37,1.12-.5a6.37,6.37,0,0,1,1.69,0,1.32,1.32,0,0,1,1,1.32c.06,1.09-.63,2-.8,3.08a9.86,9.86,0,0,0-.06,3.16c.11.72.59,1.34.55,2.08-.06,1.77-.51,3.49-.74,5.24a11.78,11.78,0,0,0-.18,2.13c.08.31.48.3.73.35a22.47,22.47,0,0,0,3.48-.07,4.55,4.55,0,0,0,.06-1,19.93,19.93,0,0,0-.4-5.17,11,11,0,0,1,.31-4.5c.61-2.88,1.51-5.69,2.1-8.58A6.66,6.66,0,0,1,32.25,27c.08-.14.23-.07.26.07A8.59,8.59,0,0,1,32.6,29a10.49,10.49,0,0,1-.82,3.94A2.42,2.42,0,0,0,31.5,34a.8.8,0,0,0,.85-.41c.43-.55.4-1.37,1-1.84a.2.2,0,0,1,.35.08,12.92,12.92,0,0,1,.22,2.5,23.32,23.32,0,0,1-.18,3.74A15.51,15.51,0,0,1,32,42c-.34.64-.69,1.27-1,1.93a4.83,4.83,0,0,0,.82.41,3.19,3.19,0,0,0,3.07-.11,1.75,1.75,0,0,0,.68-1,1.08,1.08,0,0,1,.66-.58,2.56,2.56,0,0,0,.32-1.34c.15-1.71-.06-3.48.53-5.11A24.2,24.2,0,0,0,38,30.85a10.79,10.79,0,0,1,.43-2.59c.4-.88,1.38-1.24,2-1.93a10.71,10.71,0,0,0,1.85-2.23,7,7,0,0,1,1.16-1.49c.23-.1.37.24.29.43-.29,1.23-1.22,2.17-1.84,3.25a5.61,5.61,0,0,0-.4,2.93,32.83,32.83,0,0,0,.66,6.25,12.11,12.11,0,0,1,.62,2.29c.2,2.22-.07,4.52.58,6.69.17.53.42,1.21,1,1.33a5.05,5.05,0,0,0,2.44-.25c.3-.11.76-.31.65-.71A40.43,40.43,0,0,0,46,40.69a19.33,19.33,0,0,1-1.1-3.79,40.45,40.45,0,0,1,.19-5.5c.3-3,.67-6.11,1.27-9.12a28,28,0,0,0,1-6.15,27.69,27.69,0,0,0-.26-5C46.89,9.57,45.81,8.33,45,7a19,19,0,0,1-1.12-2,10.87,10.87,0,0,0-2.83-2.3,5.75,5.75,0,0,0-3-1A26.44,26.44,0,0,0,33.13,2a17.18,17.18,0,0,0-2.64.63A2,2,0,0,1,29,2.47a9.6,9.6,0,0,0-2.9-1.08A6.91,6.91,0,0,0,25,1.31ZM36.54,2.45a5.79,5.79,0,0,1,4,2,5.93,5.93,0,0,1,2,4.47,6,6,0,0,1-2.92,4.36,8.31,8.31,0,0,1-3.79,1.28,7.89,7.89,0,0,1-3-.27,9.12,9.12,0,0,1-3.69-2.5A10.65,10.65,0,0,1,27,9.17c-.1-.19-.16-.52.13-.57a10.22,10.22,0,0,1,1.55,1.25A19.81,19.81,0,0,0,32.58,13a7.33,7.33,0,0,0,3.74.45,5.52,5.52,0,0,0,4.47-2.85,4.6,4.6,0,0,0,.35-2.83,6.12,6.12,0,0,0-2.22-3.4A6.34,6.34,0,0,0,37.1,3.28c-.23,0-.21.27-.13.4.5,1.18,1.48,2.12,1.72,3.4a2.26,2.26,0,0,1-.62,2.28,3.24,3.24,0,0,1-2.39.65A8.07,8.07,0,0,1,32.4,8.73c-1.64-1-3-2.46-4.65-3.43-.7-.47-1.54-.66-2.22-1.14-.14-.08-.23-.31,0-.37a2.92,2.92,0,0,1,2.35.47A48.56,48.56,0,0,1,33,7.83,4.91,4.91,0,0,0,36.31,9c.48-.09,1.07-.27,1.25-.77a4.56,4.56,0,0,0-.42-2.11A6.1,6.1,0,0,0,36,4.15a1.35,1.35,0,0,1-.24-1.43,1,1,0,0,1,.8-.27Z" fill="#e6be70" stroke="#e6be70" stroke-miterlimit="2"/><rect width="50" height="50" fill="none"/></svg>