<svg xmlns="http://www.w3.org/2000/svg" viewBox="0 0 50 50"><path d="M11.91,48.75a1,1,0,0,1-.72-.37,5.47,5.47,0,0,1-.74-2.19,6.52,6.52,0,0,1,.14-2.34A17.57,17.57,0,0,0,11,41.22a3.44,3.44,0,0,1,.36-1.61,7.76,7.76,0,0,1,1.2-1.52,9.45,9.45,0,0,0,1.65-2.18.75.75,0,0,0,.09-.47A5.57,5.57,0,0,0,13,33.24a11.56,11.56,0,0,1-1.08-1.6c-.08-.15-.22-.52-.33-.82a3.9,3.9,0,0,0-.78-1.44,2.16,2.16,0,0,1-.34-.48,5.77,5.77,0,0,1,.24-3.82c.23-.47.58-.74.81-.62s.12.14,0,.41a1.65,1.65,0,0,0,.08,1,11.49,11.49,0,0,0,.86,1.78,14.13,14.13,0,0,0,1.35-1.15,10.31,10.31,0,0,1,3.57-2.22,17.62,17.62,0,0,0,5.53-3,21,21,0,0,1,1.83-1.39,26.36,26.36,0,0,1,3-1.71,9.86,9.86,0,0,0,2.33-1.43c.46-.44.48-.49.79-2a36.54,36.54,0,0,0,.95-6.93,6.73,6.73,0,0,1,.42-2.69c.3-.67.59-.5.82.46S33.47,7,33.7,7s.39-.25.39-.94a3.62,3.62,0,0,0-.92-2.43,1.07,1.07,0,0,0-.92-.44c-.44,0-.53-.12-.37-.49a1.2,1.2,0,0,1,.48-.54.7.7,0,0,1,.3-.06c.64,0,2.07,1.72,2.25,2.72.07.38.15.36.37-.08a3.32,3.32,0,0,0,.29-2.12c-.13-.41-.33-.53-.67-.38s-.36.07-.36-.15a1,1,0,0,1,.69-.82c.52-.16,1.05.36,1.17,1.14a15.31,15.31,0,0,1,0,2.35,10,10,0,0,0,0,2.26c.19.91.69,1.52,1.94,2.34s1.45,1.13,1.5,1.79a1,1,0,0,1-.1.58,2.14,2.14,0,0,1-1.38,1c-.15,0-.5.1-.78.14-.54.07-.75.15-.84.31a3,3,0,0,0,.05,1.1c.16,1.27.29,5.11.26,7.57a10.81,10.81,0,0,1-1,5.44c-.23.57-.52,1.36-.65,1.76A18.9,18.9,0,0,0,34.43,38a5.34,5.34,0,0,0,1,2.45c.48.64.58.82.56,1s-.22.27-1,.25a2,2,0,0,1-.84-.11c-.72-.33-1.06-1.14-1.37-3.25-.16-1.13-.27-2.23-.5-5l-.21-2.47.8-1.41c1.36-2.39,1.65-3,1.54-3.26-.05-.09-.09-.11-.24-.11s-.22,0-.4.19a14.83,14.83,0,0,0-2.44,4.06,3.32,3.32,0,0,0-.22.93,18.69,18.69,0,0,1-.75,3.45,20.14,20.14,0,0,0-.37,2,17.92,17.92,0,0,0,0,3.44c.11.58.3,1,.52,1.07.71.33.81.87.22,1.19-.22.12-.26.13-.8.13a1.54,1.54,0,0,1-.81-.11,1.73,1.73,0,0,1-.9-1.45,16,16,0,0,1,0-3c.16-1.87.5-4.72.66-5.52s.1-1.06-.47-.85a12.89,12.89,0,0,0-1.45.78,7.23,7.23,0,0,1-2.55.93c-.94.17-1.34.38-1.59.82a12.44,12.44,0,0,1-1.78,2c-1.62,1.62-2.38,2.65-2.31,3.16a15.32,15.32,0,0,0,2.38,3.86,12.14,12.14,0,0,1,1.93,3.07c0,.23-.75.62-1.2.62-.73,0-1.39-.82-1.85-2.27A3.66,3.66,0,0,0,19.18,43,19.31,19.31,0,0,0,15.75,40l-.17-.09.08-.14a10.46,10.46,0,0,1,.83-.85,13.22,13.22,0,0,0,2.38-2.65c.83-1.22,1.16-2.29.91-2.95s-.46-.7-.69-.48A3.47,3.47,0,0,0,18.52,34c-.44,1.32-1,2.14-2.89,4-2.38,2.42-3,3.4-3.33,5.26a7.19,7.19,0,0,0,0,2.45,3.08,3.08,0,0,0,.55,1.31,2.49,2.49,0,0,1,.49,1,.33.33,0,0,1-.13.37,1.64,1.64,0,0,1-1.3.26Z" fill="#e6be70" stroke="#e6be70" stroke-miterlimit="2"/><rect width="50" height="50" fill="none"/></svg>