<svg xmlns="http://www.w3.org/2000/svg" viewBox="0 0 50 50"><path d="M39.85,4.09a4.9,4.9,0,0,0-2.56,1.32C36.65,5.94,36,6.5,35.41,7A26.21,26.21,0,0,0,32,5.78a5.88,5.88,0,0,0-1.39,0,5.55,5.55,0,0,1-1.88.58c-.21-.13-.26-.42-.48-.57a8.79,8.79,0,0,0-2.75-1.59c-.58-.18-1.07.44-1.17,1a3.92,3.92,0,0,0,1.17,3,25.28,25.28,0,0,1,2.68,3.08c.11.22.19.61-.06.76a5,5,0,0,1-1.42-1.1c-.78-.7-1.48-1.49-2.31-2.13-1.12.3-2.24.69-3.34,1.06a39.37,39.37,0,0,0-3.91,1.64,9.85,9.85,0,0,1-3.87.64,14.41,14.41,0,0,0-3.88.38A8.54,8.54,0,0,0,4.57,15.9a18.87,18.87,0,0,0-2.68,6.45,30.65,30.65,0,0,0-.35,6.35c0,3.38.07,6.77-.12,10.14,0,1.17-.58,2.32-.29,3.5A1.77,1.77,0,0,0,2.74,43.9c.42,0,.95.07,1.26-.27a5.61,5.61,0,0,0,0-1.36,13.58,13.58,0,0,1,.25-3.43c.24-1.05.35-2.12.53-3.17a4.39,4.39,0,0,1,1-1.73c.38-.56-.06-1.19-.3-1.7a5.12,5.12,0,0,1-.72-1.9c0-.3.39-.27.47,0A7.82,7.82,0,0,0,7,32.49a19.44,19.44,0,0,0,3.67,2.62,1.12,1.12,0,0,1,.6,1.21,21.44,21.44,0,0,0,.51,5.7c.19.7.25,1.56.88,2a4.23,4.23,0,0,0,2.06.29c.53,0,1.2-.35,1.13-1s-.95-1.18-1.24-1.89a6.7,6.7,0,0,1-.5-3.82,1.43,1.43,0,0,1,.78-1.09,4.46,4.46,0,0,0,1.39-2.43,3.12,3.12,0,0,0-1.08-2.88A4.67,4.67,0,0,1,14.11,30c-.06-.4.5-.49.76-.3a6.06,6.06,0,0,1,1.7,2,36.34,36.34,0,0,1,3.59,8.27,13.85,13.85,0,0,1,.59,3.38c.07.84.12,1.68.18,2.52.26.16.61,0,.91.08a4.94,4.94,0,0,0,2.53-.39c.58-.44.44-1.26.25-1.86a11.83,11.83,0,0,1-.9-3.43,10.53,10.53,0,0,0-.11-2.63c-.46-1.85-1.44-3.53-2-5.35a21.13,21.13,0,0,1,3.27-.48c.34,0,.85,0,.89.45a6.7,6.7,0,0,0,1.38,2.24,8,8,0,0,1,2.13,4c0,.3,0,.77-.34.85a4.86,4.86,0,0,0-1.38,1.44,15.5,15.5,0,0,0-1.69,2.75c-.07.31.39.32.58.42a4.09,4.09,0,0,0,2,.3,5.9,5.9,0,0,0,2.26-1.47,17.32,17.32,0,0,0,1.34-1.22l.21-12a23.1,23.1,0,0,1,2.78-2.45,1.38,1.38,0,0,1,1.43.14,5,5,0,0,0,3.82.09c1.82-.67,3.1-2.18,4.61-3.33a8.34,8.34,0,0,0,2.2-2,9.37,9.37,0,0,0,1.58-4.48,3.25,3.25,0,0,0-1.4-2.6c-.14-.12-.48-.36-.56-.05,0,1,.39,2,.1,3A5.82,5.82,0,0,1,45.23,20a1,1,0,0,1-1.13.08,3.31,3.31,0,0,0-1.69-.46c-.18,0-.41.2-.56.07-.09-.54.49-.82.79-1.17a.67.67,0,0,0-.08-1c-.5-.29-1.13-.09-1.68-.12a.45.45,0,0,1-.51-.59,2,2,0,0,1,.57-1.51,2.47,2.47,0,0,0,.87-2,.73.73,0,0,0-.82-.65,2.16,2.16,0,0,1-1.45-.3,2.88,2.88,0,0,1-1.15-2c0-.28.14-.65.48-.6.5-.21.69-.79.91-1.25a18.19,18.19,0,0,0,.85-3.57A.65.65,0,0,0,40,4.1a.61.61,0,0,0-.19,0ZM32.59,16.31c.59,0,.94.57.93,1.1a.51.51,0,0,1-.38.61,2.11,2.11,0,0,0-.63,1.66,2.59,2.59,0,0,0,.53,1.6.61.61,0,0,1-.48.86c-.43-.29-.44-.93-.5-1.38a16.13,16.13,0,0,1,.25-3.25c.06-.2-.1-.48-.32-.33a3.91,3.91,0,0,0-2,3.74,3.08,3.08,0,0,0,1.79,2.29c.34.25.8.49.93.92-.22.43-.82.28-1.16.09A4.74,4.74,0,0,1,29,20.53,4.71,4.71,0,0,1,31,17a3,3,0,0,1,1.63-.73Z" fill="#e6be70" stroke="#e6be70" stroke-miterlimit="2"/><rect width="50" height="50" fill="none"/></svg>