<svg xmlns="http://www.w3.org/2000/svg" viewBox="0 0 50 50"><path d="M32.47,13.92a2.89,2.89,0,0,0-1.33.42,4.56,4.56,0,0,0-1.74,2.29,2.58,2.58,0,0,0-.15,1.55c.08.31.43.48.44.82s-.34.59-.63.7a9.48,9.48,0,0,1-1.39.27c-.07,0-.17.06-.08.11a4.69,4.69,0,0,1,1.77,1,.94.94,0,0,1,.08,1.07,4.14,4.14,0,0,1-1.61,1.44,41.65,41.65,0,0,1-5.3,2.2,16.75,16.75,0,0,0-3.14,1.57,2.61,2.61,0,0,0-1.24,1.66.28.28,0,0,0,.15.32,3.65,3.65,0,0,0,1.22.26,25.77,25.77,0,0,0,3.17-.09,5.05,5.05,0,0,1,1.6.06c.3.1.37.45.44.71a16.16,16.16,0,0,1,.39,3.17A3.84,3.84,0,0,1,25,34.55c-.06.17-.24.32-.21.52a6.81,6.81,0,0,0,2.06.92,3.43,3.43,0,0,0,1,0,.07.07,0,0,0,0-.14c-.16-.08-.4-.09-.5-.27.14-.18.4-.19.61-.23.57-.08,1.15,0,1.72-.14.11,0,.19-.14.08-.21a2.33,2.33,0,0,0-.9-.25c-.61-.09-1.23-.06-1.83-.21a1.22,1.22,0,0,1-.83-.78,10.11,10.11,0,0,1-.46-2.39,3.78,3.78,0,0,1,0-1c.09.05.12.19.17.28.43,1.06.6,2.2,1.07,3.25a.43.43,0,0,0,.39.27,11.32,11.32,0,0,0,2.1.06,6.5,6.5,0,0,0,1.7-.22c.11,0,.28-.13.24-.27s-.28,0-.41,0c-.41,0-.81.13-1.21.13.15-.2.39-.33.52-.54s-.15-.15-.23-.13c-.49.07-.94.27-1.42.36-.26,0-.43-.26-.6-.44A6.67,6.67,0,0,1,27,30.75a3.9,3.9,0,0,1-.12-1.48c.08-.28.41-.32.64-.39a7.64,7.64,0,0,0,2.73-1.26,12.78,12.78,0,0,0,3.9-4.52,3,3,0,0,0,.43-1.47,2.24,2.24,0,0,0-.49-1.33c-.42-.62-1-1.12-1.43-1.72a.82.82,0,0,1-.09-1A1.94,1.94,0,0,1,33.7,17a17.08,17.08,0,0,1,2.59-.23c.11,0,.3-.07.24-.21a1.25,1.25,0,0,0-.75-.6,1.38,1.38,0,0,1-.63-.41,12.7,12.7,0,0,0-1.49-1.35,1.91,1.91,0,0,0-1.06-.29Z" fill="#e6be70" stroke="#e6be70" stroke-miterlimit="2"/><path d="M26.2,20.42a8.27,8.27,0,0,0-3.55,1.09c-1.84.95-3.52,2.16-5.27,3.26-.67.44-1.37.84-2,1.26a11,11,0,0,0-1.94,1.59c-.05.08-.19.19-.12.29s.27-.06.38-.1a9.55,9.55,0,0,1,1.42-.88c.06,0,.18,0,.13.06a3,3,0,0,1-.67.75c-.18.19-.39.35-.56.54,0,.12.14,0,.2,0A9.55,9.55,0,0,1,16,27.53c.11,0,.31,0,.27.14a2.87,2.87,0,0,1-.58,1,15.91,15.91,0,0,0-1.53,1.94c-.06.1-.12.3,0,.33a1.22,1.22,0,0,0,.62-.38c.29-.27.5-.64.86-.81.07,0,.14,0,.1.08-.16.58-.78.9-.9,1.5a.14.14,0,0,0,.17.19,2.51,2.51,0,0,0,.84-.62,11.92,11.92,0,0,0,1.76-2.18,8.39,8.39,0,0,0,.51-1.15,3,3,0,0,1,1.56-1.28c1.47-.67,3-1.16,4.52-1.71A21.22,21.22,0,0,0,27.77,23c.38-.23.82-.54.88-1a1.6,1.6,0,0,0-.36-1.07,2,2,0,0,0-.92-.39,4.2,4.2,0,0,0-1.17-.13Z" fill="#e6be70" stroke="#e6be70" stroke-miterlimit="2"/><rect width="50" height="50" fill="none"/></svg>