<svg xmlns="http://www.w3.org/2000/svg" viewBox="0 0 50 50"><path d="M29.54,34c-.22-.05-.49-.2-.49-.27s.36-.4.66-.55A3.43,3.43,0,0,1,31,32.89c.46,0,.71-.11.81-.24s.06-.1,0-.19-.24-.23-.66-.25a3.57,3.57,0,0,0-1.39.26,2.36,2.36,0,0,0-.91.56,2.11,2.11,0,0,1-1.44.63c-1.38.2-7.62.43-8.8.33-.48,0-.58-.07-.55-.17.12-.34.94-.62,1.85-.62a1.51,1.51,0,0,0,.37-.07c.35-.13.37-.35.06-.49a1.3,1.3,0,0,0-.54-.07,4.56,4.56,0,0,0-1.91.46c-.81.36-1.22.39-1.22.09,0-.13.1-.31.34-.61.41-.49.38-.61-.32-1.65a7.54,7.54,0,0,0-1.05-1.34,1.38,1.38,0,0,0-.86-.42c-.44-.05-.52-.2-.42-.76s.07-.6,0-.67-.1-.05-.31,0c-.39.1-.55.06-.65-.17a2.18,2.18,0,0,1,0-.89A8.43,8.43,0,0,1,14.57,24,12.08,12.08,0,0,1,16,22.29a7.94,7.94,0,0,0,.59-.67c0-.11-.6-2.07-.74-2.43a7.79,7.79,0,0,0-1.09-2,2.13,2.13,0,0,1-.5-.91.29.29,0,0,1,.26-.29c.17,0,.28,0,.85.48a16.26,16.26,0,0,1,3,3.07,6.66,6.66,0,0,1,.56,1l.34.66.08-.19c.49-1.09,1-2.23,1.17-2.49a3.62,3.62,0,0,1,2.35-2,1.89,1.89,0,0,1,1.41,0,1.18,1.18,0,0,1,.55.51c.18.35.15.69-.17,1.93a5,5,0,0,1-1.33,2.74,11.24,11.24,0,0,1-2.11,1.49c-.28.14-.34.19-.34.3s.09.18.33.12a6.45,6.45,0,0,0,1.32-.52,7.49,7.49,0,0,1,3.25-.88,11.06,11.06,0,0,1,7.33,2.9,8,8,0,0,1,2.39,4.81A4.76,4.76,0,0,0,36.11,32c.28.37.33.56.23.79s-.49.52-1.09.67c-.19,0-1.13.19-2.1.32a15.32,15.32,0,0,1-2.62.26C30.06,34,29.62,34,29.54,34Z" fill="#e6be70" stroke="#e6be70" stroke-miterlimit="2"/><rect width="50" height="50" fill="none"/></svg>