<svg xmlns="http://www.w3.org/2000/svg" viewBox="0 0 50 50"><path d="M28.7,36.65a1.56,1.56,0,0,1-.95-.43,1,1,0,0,0-.36-.22,5.26,5.26,0,0,0-1.25-.11c-.56,0-.75,0-4.35.19l-2.55.13a14.45,14.45,0,0,1-.82-1.78,6.31,6.31,0,0,1,.13-4.59,12.51,12.51,0,0,1,4.11-4.14,20.23,20.23,0,0,1,2.2-1.27l1.07-.57s0-.52.06-1.15a7,7,0,0,0-.09-2.22,6,6,0,0,0-.57-1.26,15.19,15.19,0,0,1-1-2.85q-.69-2.56-.45-2.91c.06-.11.12-.11.3,0a10.92,10.92,0,0,1,2.18,2.44,5.47,5.47,0,0,1,1,2.94c.09,1,.25,1.48.46,1.48s.19-.19.29-.88a4.49,4.49,0,0,1,1.43-2.92c.45-.52,1.73-1.79,2-2s.45-.28.5-.23,0,.17-.05.57c-.05.2-.14.57-.19.83a8.32,8.32,0,0,1-.91,2.37c-.41.81-.8,1.5-1.45,2.54-.28.45-.5.81-.5.82l.43.23a4.37,4.37,0,0,1,1.09.76c.68.64,1.18,1.47,1.08,1.81s-.22.35-.7.38c-.74,0-.95.14-1.12.51a1.44,1.44,0,0,0-.08.63,6.27,6.27,0,0,0,0,.89c0,.23.06.59.08.81.07.79,0,1.11-.79,2.17s-.79,1.22-.82,1.78a8.54,8.54,0,0,0,.4,2.49,7.35,7.35,0,0,0,1.75,2.65l.13.17h-.77a8.27,8.27,0,0,1-.92,0Zm-6.22-1.76a1.39,1.39,0,0,0,.75-1.13c0-.13,0-.16-.08-.21s-.1,0-.23,0a2.49,2.49,0,0,0-.82.53c-.38.35-.48.66-.28.87s.1.08.28.07a1,1,0,0,0,.38-.11Zm4.86,0c.19-.06.2-.1.12-.35s-.39-1-.65-1.61c-.55-1.24-1-1.83-1.23-1.59-.07.09-.09.15-.12.52a2.85,2.85,0,0,1-.7,1.59,1.92,1.92,0,0,0-.44.87.3.3,0,0,0,.09.29c.15.16.36.23,1,.32C25.63,34.92,27.23,34.88,27.34,34.85Z" fill="#e6be70" stroke="#e6be70" stroke-miterlimit="2"/><rect width="50" height="50" fill="none"/></svg>