<svg xmlns="http://www.w3.org/2000/svg" viewBox="0 0 50 50"><path d="M18.88,48.89c-.27,0-.26-.1.14-.58A5.11,5.11,0,0,0,20,45.9a51.61,51.61,0,0,0,.69-9.17c0-1.77-.06-1.89-.68-2.33-.17-.12-.55-.44-.85-.71-.73-.64-3.78-3.67-4.65-4.61-3-3.25-5.14-6.18-5.69-7.86a4.38,4.38,0,0,1-.15-.77c-.07-.82-.21-.9-2.07-1.14-.57-.07-1.2-.17-1.42-.22a4.56,4.56,0,0,1-2-.84,1.55,1.55,0,0,1-.46-.83A8.4,8.4,0,0,1,5,15.78c1.86-1.07,2.38-1.56,2.21-2.08A2.88,2.88,0,0,0,7,13.21c-.19-.29-.22-.36-.23-.55s0-.23.13-.28.48,0,.87.21a1.47,1.47,0,0,0,.76.28c.23-.09-.08-.59-.77-1.3S6.64,10.3,6.64,10s.29-.18,1.23.8,1.36,1.28,1.36,1a4.61,4.61,0,0,0-.79-1.38c-.9-1.36-1-1.62-.71-1.65s.56.34,1.09,1.27a2.54,2.54,0,0,0,.82.92,1.51,1.51,0,0,0,1,0c.63-.24.9-.78,1.71-3.42C13.46,4,14.27,1.92,14.83,1.31c.33-.36.46-.2.51.67a5,5,0,0,0,.08.69c.1.25.3.27,1,.1a3.31,3.31,0,0,1,.53-.1,3.43,3.43,0,0,1-.43.61,5,5,0,0,0-.83,1.24c-.09.27-.08.41,0,.5s.62,0,1.35-.43,1.3-.66,1.3-.51c0,.37-2,2.36-3.18,3.16-.4.28-.65.56-.63.73a.37.37,0,0,0,.14.2c.11.08.14.09.32,0a1.13,1.13,0,0,0,.4-.22c.48-.41.55-.45.69-.44s.13,0,.15.21a2.31,2.31,0,0,1-.17.76,4.35,4.35,0,0,0-.18.69c0,.19.15.26.56.29s.57.08.63.2-.39.5-1.21.56a2.92,2.92,0,0,0-.65.11l-.17.07,0,.2c0,.18,0,.22-.09.33a1.08,1.08,0,0,1-.33.2c-.12,0-.21.09-.2.12s.26.12,1,.14a3.73,3.73,0,0,0,1.12-.06c1.54-.32,2.67-1.54,3.79-4.09a9.28,9.28,0,0,0,.85-2.71,4.24,4.24,0,0,0,0-1.16,2.63,2.63,0,0,1,.05-1.34c.12-.3.34-.14.62.45.17.36.31.48.61.52a4.37,4.37,0,0,0,1.13-.16c.32-.07.45,0,.49.2A5.14,5.14,0,0,1,24,4c-.16,1.15-.08,1.93.19,2,.11,0,.27-.14.38-.4s.34-.52.5-.35,0,.55-.35,1.1c-.63.89.06.81,1.23-.13,1.35-1.09,2.09-1.33,2.09-.68,0,.23-.09.36-.27.4a8.32,8.32,0,0,0-2.17,1.7c-.63.62-.79.83-.68.94A2.64,2.64,0,0,0,26,8.76l.46,0L26,9a8.51,8.51,0,0,0-.79.32,4.26,4.26,0,0,0-1.66,1.34c-.09.18-.09.23,0,.53s-.11.26-.76.3c-.29,0-.58.05-.86.09s-1.76.38-1.86.43a3.6,3.6,0,0,0,.72.67c1.23,1,1.69,1.47,1.69,1.72,0,.08,0,.09-.22.07a4.59,4.59,0,0,1-1.63-.85,9.88,9.88,0,0,0-1.22-.73c-1.17-.56-2.42-.8-2.67-.52-.07.08-.07.11,0,.23s.1.27-.23.29a5.35,5.35,0,0,1-.74-.06,11.29,11.29,0,0,0-2.26,0,5.34,5.34,0,0,0-1.36.34c-.17.1-.19.25-.06.44a13.71,13.71,0,0,1,.9,1.37c.18.33.6,1.11.91,1.73,1.16,2.32,1.56,3,2.27,3.67a2.91,2.91,0,0,0,1.26.84,4.3,4.3,0,0,0,1.73.07c1.74-.24,8.72-.51,17.08-.65,3.87-.06,4.55,0,5.85.25,2.78.62,4.57,2.25,5.08,4.63A7.39,7.39,0,0,1,47.2,27a15.17,15.17,0,0,1-.12,2.22c-.28,2.36-.47,3.45-.6,3.45s-.28-.33-.59-1a4.08,4.08,0,0,0-.37-.67,14.38,14.38,0,0,0-1.06,1.4c-.6.93-.48,1.81.44,3.21a8.62,8.62,0,0,1,.83,1.44,1.94,1.94,0,0,1,.11.9,27.56,27.56,0,0,1-.61,4.09c-.74,4-1.33,5.71-2.23,6.33a3.37,3.37,0,0,1-2.17.4H40l.71-.6A5.64,5.64,0,0,0,42,46.86a10.17,10.17,0,0,0,1-3.92,15.6,15.6,0,0,0,.16-3.69c-.16-.46-.56.06-.88,1.14A13.33,13.33,0,0,1,40.46,44a14.3,14.3,0,0,0-1.4,2.59,2.2,2.2,0,0,1-.52.91,3.51,3.51,0,0,1-2.42,1c-.59,0-.77-.05-.73-.24s.2-.42.68-1a19.67,19.67,0,0,0,2.81-4.42c1-2.14,1.31-3,1.12-3.81a13.77,13.77,0,0,0-1.25-2.93c-.78-1.29-1.23-1.81-1.6-1.81a2.6,2.6,0,0,0-.58.16c-.24.09-.69.23-1,.31a17.33,17.33,0,0,1-6.47.29c-.71-.08-1.5-.14-1.74-.15h-.44l-.05.22c-.07.27-.21,1.56-.28,2.52a13.62,13.62,0,0,0,.6,4.95,19.79,19.79,0,0,1,.9,3.7c0,.85-1.19,1.94-2.35,2.15a5.26,5.26,0,0,1-.8.05h-.54L25,48c.71-.57.85-.72,1-1.06a10.53,10.53,0,0,0-.44-4.17c-.08-.31-.36-1.19-.62-2s-.57-1.74-.68-2.13c-.27-.94-.39-1.18-.54-1.08a27,27,0,0,0-1,2.64,48,48,0,0,0-.9,4.73c-.49,3.38-.8,3.89-2.37,3.94ZM43.34,37.76c.27-.1,0-.48-.9-1.54-.31-.34-.61-.69-.91-1a3.48,3.48,0,0,0-.47-.5c-.15,0-.21.21-.19.59A1.53,1.53,0,0,0,41,36a3.59,3.59,0,0,0,1.77,1.76A.67.67,0,0,0,43.34,37.76ZM12,12.11c.31-.07.62-.13.93-.17a3.09,3.09,0,0,0,.6-.14c.16-.13,0-.46-.24-.59a3.51,3.51,0,0,0-1.93.24c-.36.18-.53.54-.33.69A1.77,1.77,0,0,0,12,12.11Z" fill="#e6be70" stroke="#e6be70" stroke-miterlimit="2"/><rect width="50" height="50" fill="none"/></svg>