<svg xmlns="http://www.w3.org/2000/svg" viewBox="0 0 50 50"><path d="M30.43,36.77a1.49,1.49,0,0,1-1.08-.83c-.15-.3-.16-.32-.21-.32s-.08.1-.14.51-.05.33-.12.26a7,7,0,0,1-.47-2.64,10.15,10.15,0,0,0-1-3.94,5,5,0,0,0-.87-1.6c-.35-.35-.48-.39-1.37-.39a14,14,0,0,0-1.61.1l-1.6.17c-.39,0-1,.08-1.24.08-.48,0-.56,0-.69-.06s-.14-.09-.16-.25c0-.33-.23-.33-.52,0a15.3,15.3,0,0,0-1.54,2.49l-.24.44.4.71A12.74,12.74,0,0,0,20.69,35l.53.51s-1.31-.18-1.52-.24c-1.09-.29-2-1.17-3-2.91a22.2,22.2,0,0,1-1.13-2.32,1.79,1.79,0,0,1-.12-.72,2,2,0,0,1,.19-.9c.38-1.11.24-1.18-1-.55a9.61,9.61,0,0,0-3.87,2.94,7.21,7.21,0,0,0-1,2.95c0,.39,0,.51.46,1.43.19.4.34.73.34.74a2.78,2.78,0,0,1-1.18-.21.62.62,0,0,1-.4-.59,1,1,0,0,0-.32-.7c-.26-.16-.25-.47,0-1.83.18-.89.34-1.78.48-2.68a5.42,5.42,0,0,1,.48-1.59,3.57,3.57,0,0,1,.63-.91,1.88,1.88,0,0,0,.57-1.53,21.73,21.73,0,0,0-.46-3.86c-.09-.31-.17-.31-.44,0a17.28,17.28,0,0,0-2.32,3.57,2.75,2.75,0,0,1-.66,1c-.41.4-.9.62-1,.43a7.77,7.77,0,0,1,1.55-2.62,21.16,21.16,0,0,0,2.36-3.92c.09-.21.23-.59.31-.85a3.79,3.79,0,0,1,1-1.83,11.69,11.69,0,0,1,3.14-1.9,11.57,11.57,0,0,1,5.13-1.6,39.55,39.55,0,0,0,4.38-.66,12.48,12.48,0,0,1,3.47-.33,22.22,22.22,0,0,1,2.86.14A12.49,12.49,0,0,1,33,14a15.83,15.83,0,0,1,3.51,2.43c1.51,1.27,2,1.6,2.35,1.65s.4-.12.44-.78a3.58,3.58,0,0,1,0-.49c.06-.05.2,0,.51.36a2,2,0,0,1,.44.56,3.28,3.28,0,0,1,.3,1.72,24,24,0,0,0,.71,5.79,3.34,3.34,0,0,0,.55,1.17c.22.18.57.1,1-.21s.36-.25.39-.18a3.79,3.79,0,0,1-.06.56,3.81,3.81,0,0,0-.07.92,6,6,0,0,0,.85,3c.11.11.12.14.1.26a1.07,1.07,0,0,1-.14.33,3.92,3.92,0,0,1-.89.92,1.1,1.1,0,0,1-.81,0,25.67,25.67,0,0,0-3-.94A13.18,13.18,0,0,1,37,30.3a9,9,0,0,0-2.64-.88c-1-.19-1.12-.15-.94.36a14.86,14.86,0,0,1,.44,2.89c.16,1.7.1,1.84-.9,2.44-.69.42-1.2.62-1.27.5s.06-.26.22-.47a1,1,0,0,0,.28-.93c-.09-.22,0-.31.18-.53a.62.62,0,0,0,.25-.37,2.85,2.85,0,0,0-.57-2,8.51,8.51,0,0,0-1.74-2,.19.19,0,0,0-.11.11,13.61,13.61,0,0,0-.32,4.47,2.67,2.67,0,0,0,1.28,2.22c.47.25.57.4.36.58a1.53,1.53,0,0,1-1.12.11Zm11-6.62a2.17,2.17,0,0,0,.38-1.44c0-.55-.28-1-.54-.89A3.68,3.68,0,0,0,40.11,29c-.12.23-.14.42-.07.49s.38,0,.83-.33a1.63,1.63,0,0,1,.29-.2c.05,0,0,.17-.07.48A2.24,2.24,0,0,0,41,30C41,30.28,41.21,30.37,41.44,30.15ZM36.08,22c.14-.07.08-.44-.21-1.34s-.37-1.43-.22-1.67.52-.21,1.58.55,1.39.88,1.38.34c0-.72-2.11-2.08-3.2-2.08-.35,0-.59.28-.67.8a5.4,5.4,0,0,0,.92,3.26c.17.17.29.21.42.14Z" fill="#e6be70" stroke="#e6be70" stroke-miterlimit="2"/><rect width="50" height="50" fill="none"/></svg>