<svg xmlns="http://www.w3.org/2000/svg" viewBox="0 0 50 50"><path d="M2.9,45c-.78-.06-.84-.13-.83-.82a1.22,1.22,0,0,0-.37-1.1,1.35,1.35,0,0,1-.26-.4,5.13,5.13,0,0,1,.12-1.82c.23-1.08.49-2.48.62-3.32a10.42,10.42,0,0,1,.48-2.22,8.22,8.22,0,0,1,1-2.15,6.06,6.06,0,0,0,.74-1.41A10.84,10.84,0,0,0,4.48,29a24.66,24.66,0,0,0-.86-5.13,8.39,8.39,0,0,1-.16-2.37,12.82,12.82,0,0,1,.78-4.66A6.81,6.81,0,0,1,6.4,14.79a6.87,6.87,0,0,1,2-1c1.15-.3,2.39-.36,10.25-.46,3.2,0,4.72-.09,7.89-.26.74,0,2.14-.09,3.13-.1,2,0,2.63,0,2.89.18a1.32,1.32,0,0,0,1.54.06c.25-.12.33-.22.27-.37a3,3,0,0,0-.52-.44,3,3,0,0,1-1-1.17,1.89,1.89,0,0,1-.14-.92c0-.55,0-.66.05-.63s.54.36,1.13.75c1.43,1,1.78,1.11,2.23,1a1.39,1.39,0,0,0,.77-.79,3.43,3.43,0,0,0,0-1.59,4.94,4.94,0,0,0-1.28-2.31A1.87,1.87,0,0,0,34.1,6a2,2,0,0,1-.93-.2c-.36-.17-.33-.4.07-.59a8.54,8.54,0,0,1,4.36,0,1.71,1.71,0,0,1,1.33,1,6.05,6.05,0,0,1,.51,1.67c.23,1.15.39,1.49.7,1.49a.39.39,0,0,0,.32-.16,4.63,4.63,0,0,0,.65-1.3c.32-.9.57-1.29,1-1.51a2.23,2.23,0,0,1,1.23-.22c1.4.1,4.93,1.19,5.35,1.65.09.1.08.1,0,.18a5.61,5.61,0,0,1-2,0,13,13,0,0,0-1.31-.11c-.77,0-.94.13-1.44,1.12a3,3,0,0,0-.46,1.62,1.15,1.15,0,0,0,.13.71.8.8,0,0,0,.7.44,5.09,5.09,0,0,0,1.91-1c.53-.39.82-.54,1-.52s.18,0,.25.2.06.24,0,.66a4.56,4.56,0,0,1-.18.7,3.75,3.75,0,0,1-1.74,1.59,4.38,4.38,0,0,0-1.35.92,4.36,4.36,0,0,0-1,2,11,11,0,0,1-1,2.35,4.9,4.9,0,0,0-.49,2.5c0,2.17-.38,3.63-1.12,4.32a1,1,0,0,1-.79.34c-.42,0-.39-.11.21-.76a2.89,2.89,0,0,0,.89-1.91c0-.44-.05-.68-.13-.68a3.44,3.44,0,0,0-.42.74,7,7,0,0,1-.53.92l-.15.18,0-.19c-.06-.38-.09-.43-.26-.45a.45.45,0,0,0-.3.1,14.15,14.15,0,0,0-2.12,3c-1.77,3-2.66,4-3.81,4.48a5.18,5.18,0,0,1-2.17.29c-1.48,0-1.54.06-1.75.49a21.88,21.88,0,0,0-.57,5.71c0,2,.16,2.4,1.32,3.66a5.91,5.91,0,0,1,1,1.31c.11.25.11.32,0,.43s-.94,0-2.49-.61a8.86,8.86,0,0,1-.89-.38c0-.06-.08-.72-.21-5.44,0-.91-.07-2.13-.1-2.72-.11-2.41-.17-3.44-.19-3.46s-.71.05-1.55.14c-6.15.63-6.74.68-8.2.72a12.26,12.26,0,0,1-2.65-.17c-.47-.1-1-.25-2.65-.79L11,30l-.11.13c-1.5,1.71-4.28,5-5.36,6.37A15.48,15.48,0,0,0,3.18,40a1.7,1.7,0,0,0-.28,1,1.29,1.29,0,0,0,.17.77,21.91,21.91,0,0,0,1.25,2.07c.51.78.56.91.45,1A4.44,4.44,0,0,1,2.9,45Z" fill="#e6be70" stroke="#e6be70" stroke-miterlimit="2"/><path d="M31.81,41.93a8.07,8.07,0,0,1-1-1,4.13,4.13,0,0,1-1.16-2.28A19.44,19.44,0,0,1,30.13,33c.25-.84.45-.83.57,0a21.25,21.25,0,0,1-.08,3.07,11.19,11.19,0,0,0,0,2.48,4.24,4.24,0,0,0,.56,1.4,6.84,6.84,0,0,1,1,2C32.13,42.07,32,42.06,31.81,41.93ZM5.67,42.8c-1-.18-1.4-.84-1.2-2.06a18.65,18.65,0,0,1,.63-2.33c.07-.15.08-.16.11-.08a5.13,5.13,0,0,1,.12.66,4.09,4.09,0,0,0,1.18,2.55,4.1,4.1,0,0,1,.54.64.46.46,0,0,1,0,.42A2.12,2.12,0,0,1,5.67,42.8Z" fill="#e6be70" stroke="#e6be70" stroke-miterlimit="2"/><rect width="50" height="50" fill="none"/></svg>