<svg xmlns="http://www.w3.org/2000/svg" viewBox="0 0 50 50"><path d="M33.83,1.16c-.18.15.14.32.21.46,1.37,1.67,2.86,3.24,4.19,5a39.26,39.26,0,0,1,3.59,5.61,3.07,3.07,0,0,1,.4,1.23,19.72,19.72,0,0,1-2.68-2.25,63.29,63.29,0,0,0-7.68-6.48,51.17,51.17,0,0,0-5.49-3.22c-.18-.06-.43-.24-.58-.07,0,.25.35.35.51.52,2.52,1.85,5.16,3.53,7.55,5.55a42.3,42.3,0,0,1,5.51,5.36,3.31,3.31,0,0,1,.78,1.39c0,.19-.28,0-.38,0a30,30,0,0,1-2.95-2.06c-.24,0-.05.32-.05.46a5,5,0,0,0,1.36,2.84c.25.23.56.72.21,1s-1,.11-1.44.29a27.08,27.08,0,0,1-2.59.86c-2.23.47-4.55.36-6.74,1A34.21,34.21,0,0,1,24,19.75a16.72,16.72,0,0,1-4,.12c-1.83-.12-3.6-.67-5.42-.85a8.8,8.8,0,0,0-3.61.34,10.54,10.54,0,0,0-4.24,2.92,1.2,1.2,0,0,0-.33.88C6,25,5.33,26.83,4.74,28.64A52.34,52.34,0,0,1,2,35.38a11.63,11.63,0,0,0-.76,1.87c.05.22.28,0,.33-.1.24-.25.38-.64.71-.79.12.16,0,.43,0,.61-.17.89-.83,1.64-.84,2.56a.28.28,0,0,0,.5.14,9.56,9.56,0,0,0,.92-.88c-.16.68-.53,1.3-.68,2,0,.28.34.27.52.2s.6-.22.89-.11c.06.45-.24.91-.11,1.36.18.22.42-.11.46-.29a19.23,19.23,0,0,0,.4-3.86,47,47,0,0,1,1.2-8.76,5.89,5.89,0,0,1,1-2.17c.21-.28.55-.06.65.2a11.42,11.42,0,0,1,.94,3.31,9.36,9.36,0,0,1,0,2.48.71.71,0,0,1-.44.52,1.34,1.34,0,0,0-.45.87c-.48,1.38-1.46,2.52-2.05,3.85a3.79,3.79,0,0,0,.08,2.33,11.89,11.89,0,0,1,0,3,6.07,6.07,0,0,0,.46,3.67,1.8,1.8,0,0,0,1.65.93,7.92,7.92,0,0,0,1.29,0c.13-.18-.18-.36-.24-.53A4.78,4.78,0,0,1,7.4,45.68a16.25,16.25,0,0,1-.15-5,2.14,2.14,0,0,1,.56-1.36c.2,0,.26.27.32.42.49,1.8-.09,3.68.21,5.51A3.71,3.71,0,0,0,10,48a3.19,3.19,0,0,0,2.29.22c.3-.12.16-.51,0-.7a10.75,10.75,0,0,1-1.6-2.43,11.29,11.29,0,0,1-.55-5.19,9.48,9.48,0,0,1,.92-3.14c.68-1.41,1.36-2.81,2-4.22a14.51,14.51,0,0,1,1.3-2.27.41.41,0,0,1,.67,0A7,7,0,0,0,16.81,32a11,11,0,0,0,5.4,1.32c1.89.09,3.8-.1,5.68-.13.59,0,1.33,0,1.68.58A5.38,5.38,0,0,1,30,36.05c.14,3.57.16,7.15.36,10.72a7.08,7.08,0,0,0,.23,1.3c.39.46,1.06.49,1.62.64a4.25,4.25,0,0,0,1.55,0c.29-.1.17-.42,0-.6-.56-1-1.42-2-1.58-3.18a20.43,20.43,0,0,1,0-3.91c.16-1.91.34-3.82.65-5.72a2.25,2.25,0,0,1,.59-1.39,4.18,4.18,0,0,0,1.13-.53A45.3,45.3,0,0,0,40,28.08a15.86,15.86,0,0,0,2.58-3.41c.23-.44.24-1,.42-1.39.23-.19.57-.09.85-.07,1.13.15,2.08.9,3.22,1a1.49,1.49,0,0,0,1.64-.74A3.15,3.15,0,0,0,48,20.7a11.34,11.34,0,0,1-2-2.94,4.5,4.5,0,0,0-.52-1.69,18.91,18.91,0,0,1-1.22-1.61c-1.12-1.79-1.9-3.76-3.1-5.49a34.27,34.27,0,0,0-5.15-6.24,14.59,14.59,0,0,0-2.19-1.57Z" fill="#e6be70" stroke="#e6be70" stroke-miterlimit="2"/><rect width="50" height="50" fill="none"/></svg>