<svg xmlns="http://www.w3.org/2000/svg" viewBox="0 0 50 50"><path d="M19.6,38.63c-.55-.12-.67-.26-1.63-1.87-.39-.66-.82-1.3-1.27-1.92a3.11,3.11,0,0,1-.36-.56c-.12-.33-.05-.86.29-2.39a5.74,5.74,0,0,0,.29-2.56c-.1-.1-.23,0-.44.28s-.29.32-.29.21-.68.3-1.58,1.18a3.69,3.69,0,0,0-1.34,1.94A12,12,0,0,0,13,35.4c0,.89,0,1,.3,1.18a3,3,0,0,0,1.74.24c.11,0,.19,0,.23,0s.2.67.08.9-.21.22-.67.24-2.86-.09-2.9-.12-.05-1.1-.09-2.43c-.13-3.72-.12-3.74.86-4.87A10.09,10.09,0,0,0,13.78,29a.91.91,0,0,0,.14-.59,1.49,1.49,0,0,0-.12-.6c-.28-.71-.37-.68-.91.38a5.5,5.5,0,0,1-2.53,2.57A9.45,9.45,0,0,0,7.75,33c-1.08,1.47-1.56,1.51-1.71.15a8.94,8.94,0,0,1,.06-1.88c.18-.94.67-1.55,2.27-2.88l.93-.76a30.07,30.07,0,0,0,2.53-2.51,11.5,11.5,0,0,0,.8-1.17,6.57,6.57,0,0,1,1.47-1.46,14.48,14.48,0,0,1,6-1.81,14.63,14.63,0,0,1,2.81,0,21.7,21.7,0,0,0,6.48-.14,4.44,4.44,0,0,0,1.45-.58,15.57,15.57,0,0,0,2.63-2.15,5.25,5.25,0,0,1,2.15-1.52,1,1,0,0,0,.36-.13c.2-.13.25-.29.3-.91a24.13,24.13,0,0,1,.51-3.47c.07-.18.19-.32.27-.32a.59.59,0,0,1,.19.14,4.61,4.61,0,0,1,.87,1.79,8.37,8.37,0,0,0,.81,1.72,2.42,2.42,0,0,0,.68.73c.58.4,2.08,1.57,3.16,2.48s1.15,1.07,1,1.36-1,.56-2.48.64a22.22,22.22,0,0,0-2.4.19,2.25,2.25,0,0,0-1.1.38,11.4,11.4,0,0,0-1.25,2.89c-.6,1.78-1,2.47-1.75,3.06-1.16.91-1.54,1.82-1.69,4.13,0,.74,0,3.53,0,4.16.11,1.41.33,1.93.93,2.13a3.85,3.85,0,0,0,.62.09c.54,0,.69.11.79.35a1.05,1.05,0,0,1,0,.68c-.14.29-.43.33-2.27.33H31.68l-.08-.26c-.2-.67-.47-1.65-.54-1.93a24.43,24.43,0,0,1-.51-3,8,8,0,0,0-.66-3.1,4.42,4.42,0,0,1-.35-1c0-.14-.2-.24-.65-.31-.14,0-1.37-.06-2.73-.08a36,36,0,0,1-5.25-.27c-.68-.11-.86-.13-1-.08s-.11.05-.08.19a1.64,1.64,0,0,1-.1.92,13,13,0,0,1-1.1,2.33c-.37.7-.68,1.29-.68,1.32s.93,1.88,1.25,2.44c.44.78.79,1.16,1.23,1.32a4.22,4.22,0,0,0,.67.17,2.59,2.59,0,0,1,.9.28c.09,0,.09.08.09.42v.37l-.18.08a2.64,2.64,0,0,1-.51.13,7.89,7.89,0,0,1-1.82,0Z" fill="#e6be70" stroke="#e6be70" stroke-miterlimit="2"/><rect width="50" height="50" fill="none"/></svg>