<svg xmlns="http://www.w3.org/2000/svg" viewBox="0 0 50 50"><path d="M34.83,48.51c-1.14-.18-1.22-.61-.24-1.3s1.11-1,1.16-2.57c0-1.72-.12-2.16-1-2.6a26.43,26.43,0,0,0-3.06-1.17,10.72,10.72,0,0,0-1.16,2.48c-1.25,3.12-1.71,3.87-2.55,4.13a5.58,5.58,0,0,1-.85.11c-1.23.06-2.07-.33-2-.92.05-.29.38-.57,1-.86a2.31,2.31,0,0,0,1.34-1.36,16.55,16.55,0,0,0,1.17-4.15c0-.63,0-.74-.39-.92A15.79,15.79,0,0,1,24.58,36c-.15-.18-.48-.64-.73-1-.58-.89-.71-1-1.34-1a5.78,5.78,0,0,0-1.12.15,17.38,17.38,0,0,1-5.06.32l-1.61-.1-.17,0v1.45a14.52,14.52,0,0,1-.3,3.42,38.41,38.41,0,0,1-1.81,6.23c-.42,1.13-.71,1.59-1.14,1.8a4,4,0,0,1-1.78.23c-.73,0-1-.13-1.15-.44s0-.67.65-1.25a6,6,0,0,0,1.48-2.21,10.94,10.94,0,0,0,.63-2.09,5.83,5.83,0,0,0-.06-2.3c-.19-.4-.46-.24-.71.43a11.94,11.94,0,0,0-.29,1.22,8.32,8.32,0,0,1-.84,2.46c-1,2-2.7,3.91-3.79,4.22a2,2,0,0,1-1.18-.06c-.34-.17-.13-.57.7-1.3a6.48,6.48,0,0,0,2-2.55,8.18,8.18,0,0,0,.59-3.32,15.44,15.44,0,0,0-.8-4.76C6.3,33.94,6,32.9,6,32.44A6.85,6.85,0,0,0,4.8,30.16,10.68,10.68,0,0,1,3.58,28a24.14,24.14,0,0,1-1.69-9.22,12.73,12.73,0,0,1,.24-2.34,37.48,37.48,0,0,0,.52-7.1,15.9,15.9,0,0,0-.3-3.21C2.17,5.2,2.15,5,2.27,5a3.64,3.64,0,0,1,.46.48c.63.76,1,.93,1.13.58a2.07,2.07,0,0,0,0-1.12A3.82,3.82,0,0,1,3.8,3.4a2.07,2.07,0,0,1,.64-1.18c.44-.46.7-.65.91-.65s.5.28,1.09,1.46a12.38,12.38,0,0,0,.85,1.52A10.21,10.21,0,0,0,8.74,6.19a5.25,5.25,0,0,1,1.7,2.29A4.6,4.6,0,0,0,12.53,11a4.16,4.16,0,0,1,1.41,1.34c.08.4-.29.46-1.46.25C11,12.36,11,12.51,12,14.54a11.92,11.92,0,0,0,2.41,3.58,8.29,8.29,0,0,0,2.28,1.66c1.87,1,3.85,1.5,8.22,2.24,3.47.58,4.47.84,5.64,1.44a6.81,6.81,0,0,1,1.84,1.43,23.36,23.36,0,0,1,2.68,3.6c.62.93,1.3,1.94,1.52,2.23,2.39,3.21,5.15,5.36,7.76,6,.26.07.92.19,1.47.27a6.17,6.17,0,0,1,1,.19s-.49.24-1,.5-1.06.49-1.12.53,0,.16.48.2a5.05,5.05,0,0,0,2.47-.52c.33-.17.66-.17.69,0s-1.44,1.33-2.74,2a5.13,5.13,0,0,1-3.75.7,8.21,8.21,0,0,1-2.63-.86,10.09,10.09,0,0,1-3.51-3,8.47,8.47,0,0,0-1.25-1.56c-.84-.64-.52.68.57,2.34a14.22,14.22,0,0,0,1.79,2.21A4.17,4.17,0,0,1,38,42a14.67,14.67,0,0,1-.27,5.34c-.15.7-.27.91-.6,1.08s-.33.13-1.14.14a8.6,8.6,0,0,1-1.15,0Z" fill="#e6be70" stroke="#e6be70" stroke-miterlimit="2"/><rect width="50" height="50" fill="none"/></svg>