<svg xmlns="http://www.w3.org/2000/svg" viewBox="0 0 50 50"><path d="M37.65,1.1c-.39,0-.4.56-.2.81s.4.33.23.56c-.5.82-1.39,1.32-1.87,2.16a6.91,6.91,0,0,0-.3,2.44,4.3,4.3,0,0,1-.21,1.52,4.89,4.89,0,0,0-1,.76c-.72.67-1.37,1.47-2.07,2.14a9.08,9.08,0,0,0-2.87-2.65,1,1,0,0,1-.61-.92,7.64,7.64,0,0,0-.51-2.68A4.49,4.49,0,0,0,26.8,3.56a6.92,6.92,0,0,1-1-.57.6.6,0,0,1,0-.63c0-.26.21-.67-.09-.83s-.57.3-.77.52a2.76,2.76,0,0,0-.6,1.18c.06.35.47.48.72.69a4.79,4.79,0,0,1,2.23,2.26c.3,1-.23,2-.51,2.88a.35.35,0,0,0,.31.49,4.77,4.77,0,0,1,1.34.23,4.37,4.37,0,0,1,2.15,1.78,1.91,1.91,0,0,1,.19,1c-.34,0-.56-.32-.81-.51a6.47,6.47,0,0,0-2.4-1.79.62.62,0,0,0-.81.5,3.85,3.85,0,0,0,.44,1.72,1.74,1.74,0,0,0,1.45,1.1,1.15,1.15,0,0,1,1.14.6,5.29,5.29,0,0,1,.12,2.31,6.56,6.56,0,0,1-.48,2c-.16.28-.51.15-.75.29-1.37.49-2.51,1.45-3.85,2a19.39,19.39,0,0,1-4.63.67,12.62,12.62,0,0,0-6.59,2.25,7.71,7.71,0,0,0-2.83,4.85,13.71,13.71,0,0,0-.08,3.2,11.24,11.24,0,0,0,.45,2.31c.13.29.36.71.74.63s.45-.71.52-1.09a5.51,5.51,0,0,1,.25-1.86c.12-.12.23.16.27.25a6.16,6.16,0,0,1,0,2.6,7,7,0,0,1-.66,2A14.59,14.59,0,0,0,11.47,42a16.37,16.37,0,0,0,.64,5,2.38,2.38,0,0,0,1,1.49c.23.07.55.14.74,0s-.15-.63-.18-.94A31.56,31.56,0,0,1,13.24,43a18,18,0,0,1,.17-4c0-.11.06-.34.19-.35a2.9,2.9,0,0,1,.46,1.17c.33,1.45.46,3,.93,4.37a12.76,12.76,0,0,0,1.55,3.5,1.92,1.92,0,0,0,1.41.8c.33-.09.22-.51.15-.74-.57-1.73-1.58-3.3-1.92-5.09a7.06,7.06,0,0,1,.22-3.62,26.39,26.39,0,0,1,2.22-4.41l.72-1.26c1.06-.09,2.12,0,3.19-.09s2.38,0,3.56,0c.47,3.95.61,7.93.84,11.9A11.64,11.64,0,0,0,27.34,48a1.45,1.45,0,0,0,1.53.8c.22-.15.07-.47,0-.68a21,21,0,0,1-.36-4c0-2.83,0-5.66.05-8.48a14.13,14.13,0,0,1,.23-2.16,17.54,17.54,0,0,1,.34,2.81c.23,3.34.19,6.71.51,10a5.5,5.5,0,0,0,.59,2.33,1.11,1.11,0,0,0,1.39.27c.25-.22,0-.6,0-.87a23.89,23.89,0,0,1-.46-5.92,49.36,49.36,0,0,1,.59-8.59,2.43,2.43,0,0,1,.42-1.18.69.69,0,0,0,.44-.52,3.6,3.6,0,0,1,.61-1.67,2.32,2.32,0,0,0,.42-1.44,10.62,10.62,0,0,1,0-1.87C33.84,25,34.88,23.3,35,21.41c.07-2.47,0-4.94-.19-7.41a7.76,7.76,0,0,0,2.57-1.63,3.15,3.15,0,0,0,.87-2.16c0-.4-.53-.43-.84-.33a4.8,4.8,0,0,0-2.27,1.71c-.23.21-.44.52-.76.59-.14-.17-.07-.45,0-.66A6.31,6.31,0,0,1,36,9.84a3,3,0,0,1,1.54-.68.36.36,0,0,0,.31-.39.35.35,0,0,0,0-.12c-.3-.73-1-1.31-1-2.13a3.41,3.41,0,0,1,2.16-3.34c.22-.08.58-.24.43-.54a4,4,0,0,0-1.44-1.47.59.59,0,0,0-.26-.07Z" fill="#e6be70" stroke="#e6be70" stroke-miterlimit="2"/><rect width="50" height="50" fill="none"/></svg>