<svg xmlns="http://www.w3.org/2000/svg" viewBox="0 0 50 50"><path d="M24.67,36.53l-.14-.07c0-.07.17-.36.36-.49a.71.71,0,0,1,.6-.13c.33.09.45,0,.52-.51a4.51,4.51,0,0,0-.58-2.44,2.18,2.18,0,0,0-.79-.78,1,1,0,0,0-.49-.1.9.9,0,0,0-.51.12,3.33,3.33,0,0,0-1.37,2.06,2.66,2.66,0,0,0-.09.9c0,.62,0,.65-.24.75a5.32,5.32,0,0,1-2.48-.2c-.16-.08-.36-.27-.36-.34s.15-.18.29-.24A3,3,0,0,1,20,35a2,2,0,0,0,.84-.14c.3-.16.53-.5.94-1.45.57-1.31.59-1.52.18-2.17a4.89,4.89,0,0,0-1.87-1.54c-1.91-1-2.82-2-3.17-3.3a3.35,3.35,0,0,1-.09-1.06,8.47,8.47,0,0,1,.59-3.11,15,15,0,0,0,.73-3.61c.08-1.2-.1-2-.48-2.18a6.48,6.48,0,0,0-2-.26c-1.44,0-1.82-.08-1.82-.18a17.46,17.46,0,0,1,1.77-1.72,3.94,3.94,0,0,1,1.2-.62,2.46,2.46,0,0,1,1,0,2.54,2.54,0,0,1,1.42,1.07A7.56,7.56,0,0,1,20,17.5,28.42,28.42,0,0,1,20.19,21c0,1,0,1.89,0,1.89s.56.13,1.23.26a26.54,26.54,0,0,1,6.32,1.75,8.91,8.91,0,0,1,.79.47,4.14,4.14,0,0,0,1.4.68,25.53,25.53,0,0,1,3.86,1.67c1.51.74,2.11,1.11,2.21,1.33s0,.1,0,.16-.64.07-1.59-.24a3.12,3.12,0,0,0-.85-.2c-.2,0-.22,0-.26.09s.08.39.43.8.41.51.41.63-.34.21-1.27.13a12.37,12.37,0,0,0-4.19.37,6.81,6.81,0,0,0-2.1.82c-.13.12-.15.34-.13,1.09a5.59,5.59,0,0,0,.46,2.32.62.62,0,0,0,.32.27c.47.22.53.25.58.37s.06.13,0,.22-.31.2-.61.13a.64.64,0,0,0-.72.19,1.35,1.35,0,0,1-.78.31A3.81,3.81,0,0,1,24.67,36.53Z" fill="#e6be70" stroke="#e6be70" stroke-miterlimit="2"/><rect width="50" height="50" fill="none"/></svg>