<svg xmlns="http://www.w3.org/2000/svg" viewBox="0 0 50 50"><path d="M17.21,13.27a1.75,1.75,0,0,0-1.23.87,1.26,1.26,0,0,1-.87.75,2.66,2.66,0,0,0-1.26.42,1.64,1.64,0,0,0-.67.71c0,.2.23.25.38.29a2.88,2.88,0,0,1,1.3.26,1,1,0,0,1,.44.83,1.87,1.87,0,0,0,.38,1.09,2,2,0,0,1,0,.84,21.22,21.22,0,0,0-1,4.15,5.8,5.8,0,0,0,.28,2.34,8.51,8.51,0,0,0,3,3.68,18.13,18.13,0,0,0,2.6,1.74,3.7,3.7,0,0,0,2,.35,28.17,28.17,0,0,1,3-.19c.07,0,.19.06.1.13a2,2,0,0,1-.93.35,13.08,13.08,0,0,0-3.62.84,4.77,4.77,0,0,0-1.9,2.21c-.07.19-.21.4-.15.61s.24,0,.32-.13a7.67,7.67,0,0,1,1.19-1.35.61.61,0,0,1,.25-.08c-.22.37-.65.67-.62,1.14a.86.86,0,0,0,.24.65c.15,0,.16-.19.23-.28A3.4,3.4,0,0,1,21.63,34c.1-.08.28-.15.34,0s.11.36.29.35.18-.31.27-.45a1.17,1.17,0,0,1,.62-.75c.8-.31,1.68-.37,2.49-.67a3.71,3.71,0,0,0,1.44-.92c.18-.13.4-.38.64-.23a2.91,2.91,0,0,1,.57,1A7,7,0,0,1,29,34.81a1.32,1.32,0,0,1-.45,1.08c-.26.27-.65.33-.95.55a.2.2,0,0,0,.16.34c.6,0,1-.54,1.56-.67-.06.17-.26.35-.32.54a.15.15,0,0,0,.19.21c.3-.11.38-.46.55-.69.26,0,.41.32.66.31s.12-.32.15-.46a2.27,2.27,0,0,1,.13-.87c.21-.26.64,0,.82-.32s-.2-.32-.36-.37c-.36-.12-.79,0-1.08-.32a3.75,3.75,0,0,1-.81-1.72,1.91,1.91,0,0,1,0-1.37,2.26,2.26,0,0,1,2-1.22,4.71,4.71,0,0,1,2.23.67A9.41,9.41,0,0,1,36,32.33a3.5,3.5,0,0,1,.51.93c0,.11.19,0,.17-.07A5.38,5.38,0,0,0,36.17,31,22.47,22.47,0,0,1,34.9,26a4,4,0,0,0-.35-1.19c-.15-.2-.41-.05-.58,0a12.89,12.89,0,0,1-3.36.81,28.28,28.28,0,0,1-5.52.19,14.26,14.26,0,0,1-2.58-.54,1.78,1.78,0,0,1-.64-.29,2.34,2.34,0,0,1,.95-.05,32.11,32.11,0,0,0,3.53.3,43.73,43.73,0,0,0,6.55-.8,11.1,11.1,0,0,0,2.27-.64.29.29,0,0,0,.2-.39,4.87,4.87,0,0,0-1-1.39,13.15,13.15,0,0,0-2.82-2.39,6.77,6.77,0,0,0-3.46-.87,21.66,21.66,0,0,0-4.79,1c-1.39.39-2.75.87-4.16,1.16a2.46,2.46,0,0,1-1.29,0,1.09,1.09,0,0,1-.48-1c-.06-1.08.15-2.16.14-3.25a2.25,2.25,0,0,0-.43-1.3c-.14-.22-.37-.52-.2-.79a3.39,3.39,0,0,0,.65-1c0-.2-.15-.29-.32-.27Z" fill="#e6be70" stroke="#e6be70" stroke-miterlimit="2"/><rect width="50" height="50" fill="none"/></svg>