<svg xmlns="http://www.w3.org/2000/svg" viewBox="0 0 50 50"><path d="M32,16c-.62-.19-1.24-1.3-1.49-2.71a13.93,13.93,0,0,1-.11-1.39,6.4,6.4,0,0,0-.19-1.85c-.18-.53-.4-.76-1.57-1.59-.82-.59-1.42-1.13-1.39-1.26s.39-.09,1,.12a2.72,2.72,0,0,0,1,.2,1.22,1.22,0,0,0,.6-.09c.35-.17.5-.61.42-1.25a6,6,0,0,0-1.13-2.58c-.35-.36-.52-.39-1.63-.26s-1.47.13-1.6,0-.09-.08,0-.26a3.25,3.25,0,0,1,.39-.53,1.54,1.54,0,0,1,.67-.53,3.31,3.31,0,0,1,1.77-.38c.79,0,1,.05,1.29.32a1.31,1.31,0,0,0,.34.24,8.91,8.91,0,0,0,3.83,0,2.16,2.16,0,0,0,1.11-.45,2.27,2.27,0,0,1,1.49-.57A1.74,1.74,0,0,1,38.71,2a2.17,2.17,0,0,1-.35,2c-.12.08-.14.08-.25,0a.61.61,0,0,1-.26-.43c-.1-.33-.83-.45-1.32-.22a4.16,4.16,0,0,0-2,2.74,3.84,3.84,0,0,0,0,.68c.05.71.19.73,1.27.22a2.41,2.41,0,0,1,.6-.23c.32,0,0,.66-1.07,2.09a5.67,5.67,0,0,0-1.12,2.25,10,10,0,0,0-.13,1.3A4.91,4.91,0,0,1,33,15.69.94.94,0,0,1,32,16Z" fill="#e6be70" stroke="#e6be70" stroke-miterlimit="2"/><path d="M39.53,34.12c-.77-.4-1.77-1.67-3-3.78-.52-.9-.7-1.15-.9-1.28-.44-.27-.72,0-1,1a1.71,1.71,0,0,1-.18.41c-.08.07-.28-.13-.54-.53a1.32,1.32,0,0,1-.33-1c0-.34,0-.42-.35-.42a.44.44,0,0,0-.39.14,2.45,2.45,0,0,0-.5,1.1A3,3,0,0,1,31.87,31c-.17.18-.33.21-.81.19a2.24,2.24,0,0,1-1.69-1.12,3.85,3.85,0,0,1-.61-1.9c0-.52-.11-.7-.3-.85s-.51-.08-.81.51-.42.66-.65.55-.33-.33-.63-.92a2,2,0,0,0-.32-.51c-.15-.08-.32.15-.65.94-.51,1.18-.89,1.8-1.1,1.76s-.33-.45-.42-1.19c0-.22-.06-1.32-.09-2.43a25.11,25.11,0,0,0-.52-5.56,33.05,33.05,0,0,0-2.18-6.22c-.26-.57-.55-1.28-.66-1.56A8.8,8.8,0,0,1,19.9,7.4a1.16,1.16,0,0,1,.39-.57,27,27,0,0,1,4.9-3.5s0,0,0,.12C25,4.89,25,5.18,25.15,5.28s.31-.06,1-.39a11.54,11.54,0,0,1,1.17-.5A1.35,1.35,0,0,1,29,5a1.61,1.61,0,0,1,.14.65c0,.47,0,.59-.28.68s-.19.06-1.46-.11c-.87-.12-1.08,0-1.13.47a1.57,1.57,0,0,0,.39,1A10.28,10.28,0,0,0,28.1,9.33c1.36,1.39,1.37,1.39,1.43,3.25s.17,2.35.76,3.08a5.8,5.8,0,0,0,2.13,1.71c.52,0,1.49-1.09,2.07-2.31a4.61,4.61,0,0,0,.49-1.9A9.74,9.74,0,0,1,37.16,7.8a2.77,2.77,0,0,0,.66-1.39c0-.31,0-.41-.27-.53a3,3,0,0,0-1.21,0c-.44.06-.63,0-.63-.08a2.42,2.42,0,0,1,.55-.85,1.2,1.2,0,0,1,1.08-.34c.31.09.47.24.67.64s.39.56.61.52.46-.32.66-.94c.14-.43.22-.58.33-.58A9.1,9.1,0,0,1,40.8,5.47c1.32,1.59,1.84,3.07,2.17,6.12a16,16,0,0,1-.27,6.14A30.18,30.18,0,0,0,42,24.61a12.83,12.83,0,0,1-.69,4.94,9.15,9.15,0,0,0-.57,2.68c-.06,1.06-.2,1.58-.47,1.84a.71.71,0,0,1-.72,0Z" fill="#e6be70" stroke="#e6be70" stroke-miterlimit="2"/><path d="M21.48,49.14a1.56,1.56,0,0,1-.93-.43c-.76-.7-1.08-2.16-1.22-5.55,0-.64-.07-2.68-.1-4.53,0-2.47-.06-3.49-.1-3.82-.11-.72-.22-.92-.53-.92a.41.41,0,0,0-.43.23,2.59,2.59,0,0,0-.2,1.21,7.3,7.3,0,0,1-.11,1.06,5.24,5.24,0,0,1-1.42,2.19,11.45,11.45,0,0,0-2.39,3.82,12.07,12.07,0,0,0-.59,4.18c0,.74.13.94.47,1.28s.29.3.29.42c0,.28-.32.44-.79.4s-.58-.13-.72-.42c-.27-.54-.33-1.32-.54-6.52-.24-6.16-.32-6.62-1.61-9.48a23.43,23.43,0,0,1-1.08-2.75,9.49,9.49,0,0,1-.58-2.63c-.06-.91-.15-1.16-.43-1.16s-.78.77-1.43,2.56c-.2.58-.39,1-.4,1a11,11,0,0,1-.11-1.91,41.34,41.34,0,0,1,3.8-11A18.46,18.46,0,0,1,13.75,12,12.87,12.87,0,0,1,16.68,9.9l1.09-.59.37-.2.26.94a29.8,29.8,0,0,0,1.5,4.26l.58,1.35c1.48,3.43,1.9,5.55,2.3,11.62a33.34,33.34,0,0,0,.32,3.52c.09.44.13.55.25.68s.55.05,1.67-1.21a4.06,4.06,0,0,1,1.13-1c.11,0,.24.07.33.29s.24.44.4.44.25-.06.75-.44a1,1,0,0,1,.24-.15c.16,0,.43.49,1,1.78S29.68,32.87,30,33s.16.07.27,0a1.36,1.36,0,0,0,.26-.37,1.15,1.15,0,0,1,.21-.33c.09,0,.31.06.67.32.56.43,1.17.4,1.4-.07.08-.16.08-.24.06-.79s0-.8.1-.91.08-.07.23,0a2.28,2.28,0,0,1,.43.3c.61.53.88.57,1.31.18.21-.19.35-.28.45-.28s.35.29.54.67c.48,1,.2,1.45-2.16,3.74l-1.52,1.47-.22.19,0,1.54c.11,5.7.29,8.6.57,9.36a1.84,1.84,0,0,1,.12.42c0,.15,0,.17-.12.24a2.25,2.25,0,0,1-1.07,0c-1.07-.35-1.66-2.07-1.87-5.39,0-.4-.05-1.65-.07-2.78,0-3.06-.11-3.87-.35-3.92-.43-.08-.72,1.58-.84,4.94a34,34,0,0,0,0,3.68A3.92,3.92,0,0,0,29,47.51c.34.54.39.68.28.76a3.36,3.36,0,0,1-1.44,0c-.74-.23-1.15-1-1.36-2.36a37.07,37.07,0,0,1-.21-4.36c0-1.46-.06-2.86-.08-3.11-.17-1.8-.44-2.47-1.11-2.77a2.43,2.43,0,0,0-1.39,0c-.63.24-.94,1-1.59,4.09a26.29,26.29,0,0,0-.76,5.62,4.45,4.45,0,0,0,.1,1.4,1.76,1.76,0,0,0,.57.94,1.13,1.13,0,0,1,.41,1.2c-.13.25-.5.35-.94.27Z" fill="#e6be70" stroke="#e6be70" stroke-miterlimit="2"/><rect width="50" height="50" fill="none"/></svg>