<svg xmlns="http://www.w3.org/2000/svg" viewBox="0 0 50 50"><path d="M9.4,36.49a3.64,3.64,0,0,1-1.1-.24c-.19-.1-.23-.16-.17-.27s.38-.24.94-.31a3.12,3.12,0,0,0,.77-.18A9.33,9.33,0,0,0,12.41,33a10.31,10.31,0,0,0,2.48-4.53c.16-.65.58-2.83.55-2.86s-2.45.4-2.86.52A12.51,12.51,0,0,0,8.21,28.3l-.36.39c-.13.14-.14.14-.18,0a1.09,1.09,0,0,1,0-.25.56.56,0,0,0-.1-.28C7.37,28,7.18,28,6.71,28a1.91,1.91,0,0,0-1.42.7c-.42.44-.75.64-.89.56s-.1-.44.13-.94a2.25,2.25,0,0,0,.3-1.23.63.63,0,0,0-.43-.64c-.2-.07-.23-.07-.52,0A6.84,6.84,0,0,1,2.05,27c-.48,0-.6,0-.48-.27a5.92,5.92,0,0,1,.57-.68c1-1.16,1.39-1.7,1.46-2.4a8.39,8.39,0,0,1,1.49-3.54c.35-.44.42-.48.9-.48a1.81,1.81,0,0,0,1.24-.51,2.12,2.12,0,0,1,1-.47,1.48,1.48,0,0,1,.36.08c.4.16.59.08,1.66-.63a53,53,0,0,1,6-3.36,8.63,8.63,0,0,1,4.09-.69c2,0,2.59.12,3.49.67s1.65.66,5.44.32c2-.17,2.93-.22,4.27-.22A13,13,0,0,1,39.71,16,11.5,11.5,0,0,1,43,18.51,8.89,8.89,0,0,1,44.33,20c1,1.53,1.52,3.34,2.2,7.87a17.38,17.38,0,0,0,.68,3A11.32,11.32,0,0,0,48.16,33a8.6,8.6,0,0,1,.46,1c.08.24.08.27,0,.41-.3.57-2.56,1.55-3.57,1.55a.89.89,0,0,1-.63-.29c0-.09.27-.25.73-.39,1.12-.33,1.5-.53,1.63-.85a.72.72,0,0,0,.05-.38c-.11-.65-.74-1-2.61-1.45L43,32.22A2.52,2.52,0,0,1,41.55,31a2.27,2.27,0,0,0-.58-.92c-.44-.45-.6-.41-1.58.36-.73.56-1.48,1.22-2.74,2.39-2.28,2.12-2.83,2.53-3.85,2.86a8.14,8.14,0,0,1-3.28.26c-.23-.1-.24-.22,0-.4A4.46,4.46,0,0,1,31.64,35l.64-.06,0-.6c0-.34,0-1.86-.06-3.4s0-2.79,0-2.8l-1.38-.09c-3-.15-4-.06-4.45.43-.13.14-.15.19-.15.46a2.51,2.51,0,0,0,.56,1.34,3.92,3.92,0,0,1,.71,2.14A1.36,1.36,0,0,1,27,33.58c-.28.29-.33.46-.21.74s-.17.48-.83.65a10,10,0,0,1-2.26.13l-.85,0,.84-.36a5.72,5.72,0,0,0,2-1.1A10,10,0,0,0,24,31.71,38.57,38.57,0,0,0,21.08,29c-.17-.12-.24-.15-.31-.11a11.87,11.87,0,0,0-1.59,1.57,32.22,32.22,0,0,1-5,4.47,7.41,7.41,0,0,1-2.89,1.5,8,8,0,0,1-1.84.08Z" fill="#e6be70" stroke="#e6be70" stroke-miterlimit="2"/><rect width="50" height="50" fill="none"/></svg>