<svg xmlns="http://www.w3.org/2000/svg" viewBox="0 0 50 50"><path d="M21,32.67a21.92,21.92,0,0,1-2.94-.35,7.62,7.62,0,0,1-4-1.84c-.38-.38-.47-.53-.47-.77,0-.5.6-1,2.82-2.4A9.16,9.16,0,0,0,18.26,26c-.12-.2-2.94.87-4.17,1.59a4.69,4.69,0,0,1-.71.34c-.22.05-.16-.16.11-.4a14.31,14.31,0,0,1,3.87-2,9.78,9.78,0,0,1,5.05-.47,19.76,19.76,0,0,1,4.33,1.15,1.38,1.38,0,0,1,.45.32c.23.24.31.27.45.13.32-.32.24-1.35-.27-3.64a6.59,6.59,0,0,1-.24-1.48,2.39,2.39,0,0,1,.23-1,7.74,7.74,0,0,1,1.72-2.63c.44-.44.63-.56.94-.61a3.39,3.39,0,0,1,2.22.72,2.9,2.9,0,0,1,.29.46,4.86,4.86,0,0,1,.38,1.19,3.44,3.44,0,0,0,1,1.63,5,5,0,0,0,1.87,1.13c.6.21,1,.44,1,.56s-.48.21-1,.18a8.88,8.88,0,0,1-2.09-.37,4.56,4.56,0,0,0-1.36-.26,2.12,2.12,0,0,0-1.25.22c-.29.2-.32.38-.11.87a12.85,12.85,0,0,0,.83,1.5A8,8,0,0,1,32.86,28a4.93,4.93,0,0,1,0,1.51,1.79,1.79,0,0,1-.55.89,6.11,6.11,0,0,1-2.46,1.34,22,22,0,0,1-5.65.94c-.5,0-2.62,0-3.12,0Z" fill="#e6be70" stroke="#e6be70" stroke-miterlimit="2"/><rect width="50" height="50" fill="none"/></svg>