<svg xmlns="http://www.w3.org/2000/svg" viewBox="0 0 50 50"><path d="M34.23,1.37a4.46,4.46,0,0,0-1.59.49.63.63,0,0,0-.27.67c-.2.39-.65.59-1,.85-1.47.88-3.09,1.51-4.49,2.51a5.93,5.93,0,0,0-1.72,1.55.27.27,0,0,0,.3.39c.56,0,1.07-.3,1.62-.29.17.07-.07.27-.12.37-.69.85-1.6,1.53-2.23,2.44a22.17,22.17,0,0,1-1.54,2.88,3,3,0,0,0-.5,2c.19.45.77.3,1.13.21.19,0,.44-.16.6-.11-.42,2.59-1.19,5.14-1.36,7.78,0,.5,0,1.16.46,1.48s1.19,0,1.78,0c.15,0,.43,0,.52.13a7.33,7.33,0,0,1-1.27,1.61,52.47,52.47,0,0,1-6.89,6.1,13.29,13.29,0,0,0-3.37,3.68,5.06,5.06,0,0,1-1.11,1.32,4.5,4.5,0,0,1,.47-1.81c1.33-3.33,3.55-6.25,4.6-9.71a8,8,0,0,0,.3-3.64,5.07,5.07,0,0,0-1.9-3.15A6.88,6.88,0,0,0,12,17.94a6.44,6.44,0,0,0-4.94,2.73,30.08,30.08,0,0,1-2.87,4.06c-.17.19-.12.58.18.56a2.33,2.33,0,0,0,2-.92c.21-.2.33-.53.61-.65.09.16,0,.59.35.55a2.27,2.27,0,0,0,.85-1.14,7.22,7.22,0,0,0,.48-1.88,2.88,2.88,0,0,1,1.81-1.49,6.43,6.43,0,0,1,3.93-.15,4,4,0,0,1,2.24,2.26,3.87,3.87,0,0,1-.4,3.37c-1.41,2.76-3,5.42-4.24,8.29a19.42,19.42,0,0,0-1.79,7.52,5.45,5.45,0,0,0,1,3.18,5.34,5.34,0,0,1,1.12,2.13,2.15,2.15,0,0,0,1.13,1.75,10,10,0,0,0,3.31.52c2.85.08,5.7,0,8.55,0a11.08,11.08,0,0,0,3.35-.3.6.6,0,0,0,.16-.95c-.39-.56-.72-1.3-1.43-1.48a13.44,13.44,0,0,0-3.23.09,9.28,9.28,0,0,1-2.47-.06c-.21,0-.48-.24-.27-.45C22,44.78,23,44.6,23.66,44a10,10,0,0,0,3.28-5.46,4,4,0,0,0-.79-3.56,3.77,3.77,0,0,0-3.8-.83,9.93,9.93,0,0,0-3.81,2.26c-.27.17-.6.53-.94.34-.14-.16,0-.42.09-.58a7.15,7.15,0,0,1,1.64-1.7,7,7,0,0,1,7-.58,3.55,3.55,0,0,1,2,3c.07.77-.24,1.55-.11,2.32.11.36.58.24.85.17,1.42-.52,2.81-1.15,4.21-1.76a3.92,3.92,0,0,0,.06-1,18.76,18.76,0,0,1,.41-4.67A5.55,5.55,0,0,1,35,29.29c.18-.15.51-.41.71-.19s-.14.73-.25,1.07a8.46,8.46,0,0,0-.83,4.21,12.82,12.82,0,0,0,1,5.29A25.44,25.44,0,0,1,37,45.73c.15,1,.29,1.91.44,2.86.26.14.61,0,.91.08,1.86,0,3.73,0,5.58-.08.4-.05.87-.27.86-.74a2.12,2.12,0,0,0-1.74-2.08c-.53-.18-1.21,0-1.6-.5a5.51,5.51,0,0,1-.74-2.85A20.93,20.93,0,0,1,41,37.36a19.7,19.7,0,0,1,2.16-5.51c.23-.31.43-.75.85-.81a.62.62,0,0,0,.68-.39,8.61,8.61,0,0,0,.45-3.23,21.66,21.66,0,0,0-.93-6.5c-.34-1.11-1.23-1.94-1.65-3-.08-.29.31-.37.5-.45a3.27,3.27,0,0,0,2-1.82,7,7,0,0,0,.71-4.48,1.91,1.91,0,0,0-1.1-1.4A5.77,5.77,0,0,1,43.28,8,8.32,8.32,0,0,1,42,5.15a7,7,0,0,0-1.58-1.89,7.83,7.83,0,0,0-2.38-1.67c-.27.11-.48.45-.84.39-1-.05-2-.53-3-.61Z" fill="#e6be70" stroke="#e6be70" stroke-miterlimit="2"/><rect width="50" height="50" fill="none"/></svg>