<svg xmlns="http://www.w3.org/2000/svg" viewBox="0 0 50 50"><path d="M10.29,48.63a.38.38,0,0,1-.18-.24,6.49,6.49,0,0,1,.13-1.15c.22-1.31.45-2.79.78-5.1a34.58,34.58,0,0,1,1.06-5.4,4.52,4.52,0,0,0,.29-1.67,13.81,13.81,0,0,0-.81-3.88,12,12,0,0,1-.66-3.89,10.8,10.8,0,0,1,1.83-6.07,12.58,12.58,0,0,1,1.7-2,7.59,7.59,0,0,1,4-2.28c.52-.12.92-.19,2.57-.46a6.08,6.08,0,0,0,2.46-.93,5.45,5.45,0,0,0,1.73-2.12,9.62,9.62,0,0,0,.87-2.91c0-.58-.16-.75-.75-.84s-.76-.26-1.39-.87C23.13,8,22.71,7.27,23,7.16s.88.23,1.79.88a3.83,3.83,0,0,0,1.28.74c.18,0,.25-.21.23-.64a1.31,1.31,0,0,0-.19-.72,3.31,3.31,0,0,0-.49-.64,2.87,2.87,0,0,0-3-.93A3.5,3.5,0,0,0,21.39,7.9a3.69,3.69,0,0,0-.3,2.21,6.33,6.33,0,0,0,1.5,2.18c.66.65,1,.87,1.45.92a1.11,1.11,0,0,1,.33.08c.11.06-.05.29-.3.42-.55.28-1.69-.07-2.95-.9a7,7,0,0,1-2.43-2.88,9.68,9.68,0,0,1-1-3.16A5.58,5.58,0,0,1,18.79,4a4.81,4.81,0,0,1,3.4-1.89,6.62,6.62,0,0,1,4.06,1A9.8,9.8,0,0,1,27.9,4.5l.58.56.33-.3,1.09-1c1.57-1.46,2.39-2,3.52-2.24a8.27,8.27,0,0,1,2.32-.05,3.68,3.68,0,0,1,1.83,1A6.51,6.51,0,0,1,39.7,6.14a6.59,6.59,0,0,1-.1,2.3,7.45,7.45,0,0,1-2,3.41,11.37,11.37,0,0,1-1.82,1.48,16,16,0,0,0-1.7,1.34l-.14.14.07.84c.09,1,.66,9.51.66,9.74s-.14.36-.71,1.18a20.11,20.11,0,0,0-1.76,2.93A16.82,16.82,0,0,0,30.32,35a62.33,62.33,0,0,0,.32,8.47,10,10,0,0,0,.25,1.69c.11.46.11.79,0,1a1.29,1.29,0,0,1-.86.36c-.21,0-.25,0-.44-.21-.42-.42-.55-1.06-.61-3-.08-2.64-.23-4.56-.63-8.19-.26-2.4-.5-3.47-.82-3.79a.52.52,0,0,0-.53-.06c-.23.13-.25.72-.08,2.07.21,1.59.43,4,.59,6.38a59.73,59.73,0,0,0,.74,7c.16.4,0,.69-.46.87-1.42.57-1.74-.16-2-4.64-.17-3.14-.24-4.12-.41-5.64-.32-2.75-.76-4.68-1.17-5.12a.29.29,0,0,0-.47,0,.42.42,0,0,0-.1.23c0,.29-1,1.49-3.48,4.2-.72.8-1.32,1.46-1.32,1.48,0,.54.17,3.76.22,4.27a19.51,19.51,0,0,0,.9,4.24c.52,1.36.59,1.68.45,1.86s-.14.11-.35.11a3.51,3.51,0,0,1-1-.24c-.47-.19-.7-.65-1.16-2.26-.36-1.24-1.29-4.79-1.48-5.65A7.08,7.08,0,0,1,16.47,36a5,5,0,0,1,.73-1.51c.24-.33.32-.55.27-.77s-.76-.41-1.18-.22c-1,.45-2.13,2.83-3,6.15a35.25,35.25,0,0,0-.95,5.83c-.33,3.22-.35,3.27-1.44,3.27-.41,0-.53,0-.65-.09ZM33.93,13.24A9.17,9.17,0,0,0,35.79,11,16.53,16.53,0,0,0,37.1,8.36a2,2,0,0,0,.16-.94,1.87,1.87,0,0,0-.13-.79,2.85,2.85,0,0,0-1.91-1.8,4.65,4.65,0,0,0-2.61,1.22c-1,1-1.21,2.15-.31,1.83A6.75,6.75,0,0,0,33.72,7a3.82,3.82,0,0,1,1.43-.78c.12,0,.13,0,.13.2A4.85,4.85,0,0,1,33.9,8.53l-.9.88c-.42.38-.45.43-.5.68a1.45,1.45,0,0,0,0,.65,18.94,18.94,0,0,0,.66,2.2c.2.46.42.54.75.3Z" fill="#e6be70" stroke="#e6be70" stroke-miterlimit="2"/><rect width="50" height="50" fill="none"/></svg>