<svg xmlns="http://www.w3.org/2000/svg" viewBox="0 0 50 50"><path d="M30.82,44.29c-.46-.2-.26-.65,1.1-2.34,1.92-2.42,2.91-4.52,2.91-6.19a2.22,2.22,0,0,0-1-2.07c-.76-.51-.88-.91-.67-2.14a5.17,5.17,0,0,0,.06-1.14,1.65,1.65,0,0,0-.21-1c-.35-.7-.9-1-2-1a3.88,3.88,0,0,0-2.27.64c-.2.17-.27.35-.31.78a35.6,35.6,0,0,1-.7,3.79c-.78,3.53-.82,4.15-.4,6a4.16,4.16,0,0,1,.19,1.5c0,.19-.07.24-.22.3a2.73,2.73,0,0,0-.88,1.14,2.22,2.22,0,0,1-1.05,1.12,5.53,5.53,0,0,1-1.89.08c-.49-.08-.8-.25-.82-.44a.44.44,0,0,1,.42-.42c.49,0,1-.95,1.22-2.45a15.39,15.39,0,0,0,0-3.65,34.29,34.29,0,0,1-.28-3.42,3.66,3.66,0,0,0-.14-1.31c-.13-.26-.23-.33-.41-.28-.44.11-.56,1.36-.46,5s0,4-1,5.3a4.31,4.31,0,0,1-1.88,1.55,3.28,3.28,0,0,1-1.33.14l-1,0,.32-.44.59-.85A10.1,10.1,0,0,0,20.46,37a5.41,5.41,0,0,0-.9-2.74,10.52,10.52,0,0,1-1.24-3.39A5.75,5.75,0,0,0,17,28.25a22.71,22.71,0,0,1-2.55-3.65,13.26,13.26,0,0,0-1.48-2.23c-1-1.29-2.28-2.39-2.71-2.39s-.49.33-.57,1.09a4,4,0,0,1-1.11,2.38l-.91.87-.65.6-.34-.52A6,6,0,0,0,6,23.6a2.63,2.63,0,0,0-1.42-.71,1.74,1.74,0,0,1-.51-.15,2.3,2.3,0,0,1-.7-2.22,5.79,5.79,0,0,1,.5-1.78,10.84,10.84,0,0,0,.63-2.34,9.87,9.87,0,0,0,.12-2c0-2.08,0-2.16-1.61-2.71-1.37-.49-2.08-1-1.61-1.19A4.27,4.27,0,0,1,3,10.57a2.74,2.74,0,0,0,1.46,0c.16-.11.23-.39.23-.88a7.77,7.77,0,0,1,.7-3.15c.26-.53.5-.83.68-.83s.34.24.43.46.07.43-.25,1a4.78,4.78,0,0,0-.6,2.38c0,.76.14,1.14.43,1.14S6.69,10.18,7.22,9a8.48,8.48,0,0,1,1.5-2.48C9.14,6,9.61,5.82,9.78,6s.05.14,0,.44A7.49,7.49,0,0,1,9,8.15C8,10,8.72,10.39,11.3,9.29c.42-.18,1.57-.72,2.56-1.21C17,6.53,17.77,6.29,20,6.15a20.44,20.44,0,0,1,3.32.09,12.59,12.59,0,0,1,3.72,1,11.61,11.61,0,0,0,4.81,1,31,31,0,0,0,5.7-.45,11.69,11.69,0,0,1,2-.15,3.58,3.58,0,0,1,1.42.15,8,8,0,0,1,2.91,1.65,2.74,2.74,0,0,1,.75,1.15,1.05,1.05,0,0,0,.59.67,4.65,4.65,0,0,1,1.26,1.39,10.39,10.39,0,0,1,1.64,3.12c.48,1.8.19,5-.55,6-.26.37-.38.1-.44-1,0-.89-.12-1.18-.32-1.18S46,20.32,45.42,22a16.3,16.3,0,0,0-.8,7.13,17.7,17.7,0,0,1-.16,3.79c-.17,1.38-.37,3.2-.57,5.27-.28,2.87-.43,3.82-.7,4.36-.13.26-.16.28-.5.35-.19,0-.6.36-.6.48s-.19.24-.54.33a7,7,0,0,1-2.1,0l-.62-.06.66-1.27a11.52,11.52,0,0,0,1.13-2.7A14.22,14.22,0,0,0,41.07,36a6.07,6.07,0,0,0-.62-3.2,5.91,5.91,0,0,1-.67-2.59,3.18,3.18,0,0,0-.43-1.69c-.25-.15-.5.86-.67,2.62l-.17,1.8a20.42,20.42,0,0,1-.73,3.94A42.92,42.92,0,0,1,36,42a6.27,6.27,0,0,1-1.52,1.38,5.81,5.81,0,0,1-2.91,1A3.41,3.41,0,0,1,30.82,44.29Z" fill="#e6be70" stroke="#e6be70" stroke-miterlimit="2"/><rect width="50" height="50" fill="none"/></svg>