<svg xmlns="http://www.w3.org/2000/svg" viewBox="0 0 50 50"><path d="M27.74,48.88c-.65-.11-.81-.76-1.47-5.91a51.5,51.5,0,0,0-1.42-7.84c-.43-1.45-.84-2.25-1.21-2.4-.66-.26-3.09-.32-8.15-.19-1.47,0-2.68.07-2.69.08s-.15.41-.32.9a15.49,15.49,0,0,1-1.19,2.67,7.45,7.45,0,0,0-.75,1.56,6.21,6.21,0,0,0,0,2.19,22.84,22.84,0,0,0,1.91,4.87c.54,1.15,1.09,2.42,1.28,3s.14.44.06.53c-.29.32-1.32.17-1.72-.25a7.88,7.88,0,0,1-.44-.91C10.87,45.38,9,41.48,8.15,40s-.85-1.68-.57-2.22a6.21,6.21,0,0,0,.81-2.25,7.33,7.33,0,0,0,.07-1.89c-.09-.42-.3-.61-.48-.41s-1.15,3.31-1.32,3.94a12.12,12.12,0,0,0-.3,3.22c0,1,.28,4.63.4,6,.17,1.91,0,2.38-.61,2.45-.21,0-.23,0-.4-.16-.47-.47-.6-1.78-.7-7.19,0-2.21,0-3,0-3.84.08-1.56.18-1.91.71-2.54a3.61,3.61,0,0,0,1.09-2.61,12.35,12.35,0,0,0-.5-3c-.47-1.94-.84-3.74-1-4.94a8.6,8.6,0,0,1,0-2.16c.43-2,1.91-3.09,4.58-3.45a19.09,19.09,0,0,1,3.31,0c.9.08,2.36.3,3.54.53a24.55,24.55,0,0,0,5.63.46c3.73,0,6.53-.32,7.63-.88s2.88-2.46,3-3.31a.41.41,0,0,0-.15-.43,2.21,2.21,0,0,0-.6-.39,2,2,0,0,1-1.06-1.1,16.2,16.2,0,0,1-1-3.64A36.22,36.22,0,0,0,29,5.79c-.54-1.55-.68-2.65-.42-3.22a.64.64,0,0,1,.18-.26.66.66,0,0,1,.44,0c.22.08.26.51.14,1.4a2,2,0,0,0,.18,1.55c.13.14.27.13.43,0a2.34,2.34,0,0,0,.4-1c.34-1.23,1.6-3.11,2-3,.2,0,0,.64-.42,1.72a14.17,14.17,0,0,0-1.35,5.52c0,.84.12,1.19.4,1.15s.28-.26.33-1A6.6,6.6,0,0,1,31.6,7a9.16,9.16,0,0,1,1.14-2.57c.24-.33.66-.59.81-.5s.06.64-.43,1.47a6.71,6.71,0,0,0-.92,2.21c-.14.73,0,1.18.32,1.24a5.15,5.15,0,0,0,1.92-.4,1.25,1.25,0,0,0,.68-.5.78.78,0,0,1,.68-.28c.28,0,.48.11.51.27s-.52.67-1.23,1.06a5.83,5.83,0,0,1-1.41.56,3,3,0,0,0-1.66,1c-.22.26-.25.45-.12.63a4.19,4.19,0,0,0,1,.74c.31.15.43.11.8-.3.65-.72,1-.75.82-.07a.65.65,0,0,0,0,.38,2.74,2.74,0,0,0,2.26,1.56.64.64,0,0,0,.48-.13,1.56,1.56,0,0,0,.54-.82,3.41,3.41,0,0,1,1.09-1.81c.48-.43.57-.61.56-1.13a8.08,8.08,0,0,0-.92-3A20.24,20.24,0,0,1,37,3c-.14-.55-.14-.63,0-.71s.57.15.89.78a7.68,7.68,0,0,1,.54,1.45A5.57,5.57,0,0,0,39,5.85c.31.43.75-.23,1-1.46,0-.16.08-.69.12-1.18a2.68,2.68,0,0,1,.17-1.12c.14-.28.29-.32.38-.1a5.38,5.38,0,0,1,.19,1.26,8.62,8.62,0,0,1-.32,2.8,2,2,0,0,0-.36.57,8.94,8.94,0,0,0,0,1.89,2,2,0,0,0,.35,1,.65.65,0,0,0,.73.05,2.93,2.93,0,0,0,1-1.18A8.42,8.42,0,0,0,43,5.85c.18-1.08.32-1.59.43-1.59s.11.07.15.16a5.85,5.85,0,0,1,.1,2.46,2.73,2.73,0,0,0,.05,1.34c.06.08.07.08.18,0a1.07,1.07,0,0,0,.35-.73c.07-.44.28-.65.68-.65.25,0,.33.08.33.29,0,.48-.86,1.51-2,2.32a8.82,8.82,0,0,1-1.64,1c-1.6.85-3,1.92-3.15,2.35,0,.21,0,.26.29.24a7,7,0,0,0,1.88-.89,5.58,5.58,0,0,1,2.09-.94.49.49,0,0,1,.26.11c.12.1.13.14.12.38a4.89,4.89,0,0,1-1.68,2.75,2.29,2.29,0,0,1-.94.53c-.66.22-.86.45-.83.93a3.86,3.86,0,0,0,1.07,2c.68.84.79,1.17.54,1.57a1.88,1.88,0,0,1-1.68.58,1.15,1.15,0,0,0-.73.12c-.48.23-.92.84-2,2.72a29,29,0,0,1-3.34,4.65,13.07,13.07,0,0,0-2.54,3.67c-.45,1.15-.58,2.38-.58,5.54A56.72,56.72,0,0,0,31.26,47c.15.73.15.9,0,1.1a.72.72,0,0,1-.42.26c-.23,0-.57-.55-.8-1.29a34.82,34.82,0,0,1-1-8.46c-.13-3.57-.31-4.91-.72-5.32a.37.37,0,0,0-.57,0,.69.69,0,0,0-.19.72,17.26,17.26,0,0,1,.21,1.8c.06.75.11,1.46.26,4a41.3,41.3,0,0,0,.85,6.87A4.28,4.28,0,0,1,29,48.39a.75.75,0,0,1-.21.3c-.15.13-.19.15-.71.21a1.52,1.52,0,0,1-.35,0Z" fill="#e6be70" stroke="#e6be70" stroke-miterlimit="2"/><rect width="50" height="50" fill="none"/></svg>