<svg xmlns="http://www.w3.org/2000/svg" viewBox="0 0 50 50"><path d="M30.67,35.4a1.62,1.62,0,0,1-1.07-.46,5,5,0,0,1-.87-2.06,3,3,0,0,0-.61-1.35,1.16,1.16,0,0,0-1.75.06,3.28,3.28,0,0,0-.84,1.48,1.58,1.58,0,0,0,0,1.25c.11.21.27.33.67.52s.54.32.53.47v.1h-.19A2.46,2.46,0,0,1,25.45,35c-.7-.41-.8-.6-.7-1.32a4.05,4.05,0,0,0,.08-1.13A1.16,1.16,0,0,0,24.6,32a1.86,1.86,0,0,1-.27-1.16,2.42,2.42,0,0,0,0-.48,1.7,1.7,0,0,0-.62-.78,16.43,16.43,0,0,1-2-2.18c-1.57-1.88-3.28-4.07-3.84-4.92-.26-.38-.29-.46-.14-.37a12.83,12.83,0,0,1,1.16.94l.75.66A6,6,0,0,0,21.51,25c.08,0,.11,0,.11-.05a33.76,33.76,0,0,0-3.68-5.09,56.25,56.25,0,0,0-3.68-4.3c-.64-.66-1-1.14-.95-1.2s.89.52,2.81,2.31c.75.69,1,.95,2.78,2.62a44.44,44.44,0,0,0,5.16,4.47,6.35,6.35,0,0,0,4.78,0A12,12,0,0,0,30.45,23a6.55,6.55,0,0,0,1.66-1.46,2.87,2.87,0,0,0,.39-1.38,1.67,1.67,0,0,0,0-.84c-.05-.1-.1-.14-.31-.24s-.46-.32-.26-.37a6.62,6.62,0,0,1,1.73-.11c1.36,0,1.41,0,1.71.25.12.1.41.3.63.45.57.38.82.64.76.79s-.2.05-.88-.21c-.22-.08-.42-.1-.49,0a1,1,0,0,0-.15.23,3.46,3.46,0,0,1-.51.72c-.33.36-.39.69-.43,2.12A9,9,0,0,1,34,25a9.28,9.28,0,0,1-2.11,3.81c-.11.13-.49.53-.85.89a8.09,8.09,0,0,0-1.64,2,1.63,1.63,0,0,0-.21.86,3.72,3.72,0,0,0,.65,2,1.41,1.41,0,0,0,.8.36c.75.18,1.14.35,1.14.51l-.1.06A3.2,3.2,0,0,1,30.67,35.4Z" fill="#e6be70" stroke="#e6be70" stroke-miterlimit="2"/><rect width="50" height="50" fill="none"/></svg>