<svg xmlns="http://www.w3.org/2000/svg" viewBox="0 0 50 50"><path d="M14.45,33.23a.75.75,0,0,1-.42-.18C14,33,14,33,14,32.86a1.29,1.29,0,0,1,.71-.38c.74-.22.94-.6,1.52-2.74a19,19,0,0,0,.46-1.95c0-.1-.05-.16-.27-.37A25.35,25.35,0,0,0,13.5,25.3a11.74,11.74,0,0,0-2.73-1.51l-.34-.11H8.7c-1,0-1.83,0-2-.05-.47-.08-.7-.25-.64-.48a.42.42,0,0,1,.37-.21c.25,0,.52-.17.93-.58a9.23,9.23,0,0,0,2-3.51,14.93,14.93,0,0,0,.45-2l0-.25.36.58a4.85,4.85,0,0,0,1.53,1.7,10.66,10.66,0,0,0,2.42,1.18,7.54,7.54,0,0,0,3.36.48c1,0,1.46-.05,3.92-.27,2.08-.19,2.44-.22,3.54-.24a10,10,0,0,1,2.61.18,17.1,17.1,0,0,1,7.6,3.53c.54.43,1,.89,1.87,1.68a31.58,31.58,0,0,0,6.12,4.9c.52.27.68.4.62.5a.8.8,0,0,1-.49.26,14.25,14.25,0,0,1-2.57.06,22.77,22.77,0,0,1-5-.87,13.14,13.14,0,0,1-2-1,5.32,5.32,0,0,1-.71-.56,7.4,7.4,0,0,1-1.46-2.21,7,7,0,0,0-.88-1.35c-.14-.16-.19-.18-.31-.18-.39,0-.42.51-.06.81a1.42,1.42,0,0,1,.43,1.11,3.68,3.68,0,0,0,.79,1.77,2.06,2.06,0,0,1,.48,1.59,4.9,4.9,0,0,1-.75,2.6c-.31.3-.63.39-1.44.37h-.54l.53-.47a4,4,0,0,0,1.26-1.51c.23-.64-.11-1.25-1.24-2.22a7.68,7.68,0,0,0-2.59-1.64c-.32,0-.26.17.21.72a4,4,0,0,1,.42.58c.11.21.11.23.06.36a18.8,18.8,0,0,1-3.3,3.68c-.22.17-.25.18-.42.16s-.3-.07-.3-.22.23-.56,1.31-1.77a4.39,4.39,0,0,0,1.05-1.56,8.39,8.39,0,0,0-2.52-2.73,1,1,0,0,0-.87,0,4.11,4.11,0,0,1-1.71.39c-.56,0-.76.11-.94.34a6.72,6.72,0,0,0-.81,1.87c-.45,1.32-.49,1.73-.16,1.88a2,2,0,0,0,.59.1,2.44,2.44,0,0,1,1.14.3c.39.25.45.63.12.72a5.12,5.12,0,0,1-2.66-.49c-.35-.19-.41-.46-.38-1.51,0-.75,0-1-.12-1s-.52.4-.76,1.1c-.05.13-.17.52-.28.86a4.75,4.75,0,0,1-.62,1.42,1.42,1.42,0,0,1-1.36.62,4.23,4.23,0,0,1-.57,0Z" fill="#e6be70" stroke="#e6be70" stroke-miterlimit="2"/><rect width="50" height="50" fill="none"/></svg>