<svg xmlns="http://www.w3.org/2000/svg" viewBox="0 0 50 50"><path d="M17.6,48.71a1.23,1.23,0,0,1-.8-1.05,10.58,10.58,0,0,1,.37-3.06,39.88,39.88,0,0,0,.46-7v-1.4l-1.83,0c-2.09,0-2.13,0-2.69.42s-.41.27-3.74,4.23l-.2.24.13,1.75a27.69,27.69,0,0,0,.56,4.77,2.88,2.88,0,0,1,.08.49c0,.23-.11.31-.49.34a2.16,2.16,0,0,1-.9-.11s-.11-.79-.21-1.71l-.3-3c-.3-3-.26-3.59.33-4.64a11.12,11.12,0,0,0,1.23-2.6c.15-.58.1-.92-.15-1a.39.39,0,0,0-.32.05c-.73.35-1.88,3.15-2.53,6.15a19,19,0,0,0-.48,3.93c-.11,2.29-.19,2.7-.56,2.85a.83.83,0,0,1-.91-.15c-.08-.16-.08-.24,0-.85.16-.89.31-2.19.5-4.23.13-1.42.17-1.75.28-2.44a9.59,9.59,0,0,1,.49-1.93,7,7,0,0,0,.45-1.71,25.47,25.47,0,0,0,.31-2.68c.17-1.86.32-3.27.46-4.23s.1-1.49-.17-1.49-.52.64-.74,1.95a5.54,5.54,0,0,1-.37,1.51c-.24.46-.45,0-.51-1.07-.12-1.88.27-3.58,1-4.27A1.57,1.57,0,0,1,7,26.44c.24-.09,1-.41,1.64-.7,1.86-.83,2.11-.89,3.26-.89A25.68,25.68,0,0,1,15,25.1a16.24,16.24,0,0,0,4.62-.22,7.25,7.25,0,0,0,3.48-1.05,10.73,10.73,0,0,0,1.25-1.19,5.25,5.25,0,0,0-.54-.65c-.68-.75-.87-1-.88-1.22s0-.16.17-.17a3,3,0,0,1,1.27.42,3.35,3.35,0,0,0,1.34.42c.27,0,.31-.11.17-.36a2.83,2.83,0,0,0-1.23-.95,5.24,5.24,0,0,0-1.73-.49,24.9,24.9,0,0,1-6.54-2,4.57,4.57,0,0,1-2.46-2.44,3.78,3.78,0,0,0-.53-1C12.55,13,11,11.69,10.49,11.69a1.39,1.39,0,0,1-.66-.18.31.31,0,0,1,0-.5.84.84,0,0,1,.25-.16c.23-.07.3-.19.3-.5a6.86,6.86,0,0,0-.48-1.83,9,9,0,0,1-.61-3.13,3.32,3.32,0,0,1,.29-1.56c.11-.23.26-.43.33-.43s.07.06.11.14.07.28.08,1.33a6.31,6.31,0,0,0,.12,1.74c.3,1.41.81,2.48,1.22,2.56a.21.21,0,0,0,.22-.07,4.3,4.3,0,0,0,.36-2c0-1.18.21-2.3.43-2.34s.2.23.26.6c0,.15.06,1,.07,1.79s0,1.52,0,1.54.33-.61.7-1.38a36.82,36.82,0,0,1,2.48-4.79c.54-.82.84-1,.72-.55,0,.12-.24.8-.46,1.52a27.44,27.44,0,0,0-1.42,5.56c0,.44,0,.54.23.54s.49-.23,1.15-.93a9.66,9.66,0,0,1,2.21-2c.24,0-.36.92-1.54,2.35a6.52,6.52,0,0,0-1.47,2.42,3.08,3.08,0,0,0,0,1.54,8.43,8.43,0,0,0,1.89,2.75c.61.63,1.07.95,1.31.89s.1,0,.09-.23a3.47,3.47,0,0,0-.22-.64A5.42,5.42,0,0,1,18,13.16a4.58,4.58,0,0,1,.54-2.44,3.4,3.4,0,0,1,.92-.91c.4-.1.36.35-.09,1.12a3.62,3.62,0,0,0-.61,1.65,4.15,4.15,0,0,0,.45,2.29A7.14,7.14,0,0,0,23,18.17a4.19,4.19,0,0,0,1.56.52c.22,0,.27,0,.36-.11s.17-.65,0-1.49a14.48,14.48,0,0,1-.31-2.34c0-.49,0-.64,0-.66s.08,0,.13.07A16.53,16.53,0,0,1,26,17.41a7.59,7.59,0,0,1,.3,1.67c.06.69.15.81.7.9a9.53,9.53,0,0,0,1.85,0c.53-.09.6-.19.68-1a6.89,6.89,0,0,1,.87-2.75,24.56,24.56,0,0,0,1.05-2.8l.32-1,0,.7c0,.39,0,.9,0,1.14a10.22,10.22,0,0,1-.78,3c-.52,1.17-.54,1.42-.12,1.42A5.94,5.94,0,0,0,32.73,18a9.4,9.4,0,0,0,3.15-2,3.75,3.75,0,0,0,1.17-2.91,4.3,4.3,0,0,0-.51-1.71,9.64,9.64,0,0,0-2.15-2.68c-1.22-1.23-1.69-1.76-1.61-1.78s.62.3,2.1,1.41C36.56,9.58,37.19,10,37.55,10c.17,0,.18,0,.19-.13s-.29-.76-1.09-1.71-1.25-1.63-1.17-1.7.66.33,2,1.63l1.07,1,0-.8c0-.79.07-1.06.19-1.15s.46.32.6.95a8,8,0,0,1,.07,2c0,.19-.13.61-.22.94-.2.68-.26,1.12-.16,1.24.25.33.92-.86,1.29-2.3A3.77,3.77,0,0,0,40.5,8.9a2.5,2.5,0,0,0-.73-2.17,10.54,10.54,0,0,1-1.21-1.58,8.51,8.51,0,0,1-1.4-2.8c.15-.38,1.77.92,2.69,2.16a6.84,6.84,0,0,1,.47.75,1.72,1.72,0,0,0,.68.8c.55.13.91-.69.91-2.06a6.28,6.28,0,0,0-.27-1.94c-.16-.57-.19-.79-.13-.9s.22-.11.46.14a5,5,0,0,1,.92,3.09,2.58,2.58,0,0,0,.29,1.47c.17.2.35.18.74-.09s.77-.28.76.28a2.18,2.18,0,0,1-.47,1.25c-.74,1.25-.65,1.72.29,1.53.44-.09.65-.1.72,0s-.27.56-1.17,1a10,10,0,0,0-.93.53,4.78,4.78,0,0,0-1.44,1.83,4.72,4.72,0,0,0-.36,1.59,3.68,3.68,0,0,1-.17.94c-.59,1.57-2.8,3-6.57,4.31a33.17,33.17,0,0,0-3.86,1.54c-1,.49-1.65.88-1.65,1s.51,0,1.34-.2c1.66-.49,2.32-.61,2.49-.48s.05.26-.08.44a3,3,0,0,1-1.08.68c-1,.4-1.41.73-1.66,1.54a5.87,5.87,0,0,0,0,1.88,2,2,0,0,1,0,1,.92.92,0,0,1-.24.43,1.9,1.9,0,0,0-.39,1.16,3.72,3.72,0,0,1-.18.87,10.54,10.54,0,0,1-1.94,3.24,1.17,1.17,0,0,1-.73.47c-.74.12-1.44,1.21-2,3.07a20.77,20.77,0,0,0-.62,6A22.56,22.56,0,0,0,24.82,47c.1.47.19.92.19,1a.4.4,0,0,1-.47.44,1.17,1.17,0,0,1-.68-.36,4.51,4.51,0,0,1-.7-2.79A24.83,24.83,0,0,0,22.49,40c-.44-1.76-1-3-1.49-3.21a1.07,1.07,0,0,0-1.07.32c-.23.26-.32.55-.64,2.25-.18.89-.36,1.79-.56,2.68a19.58,19.58,0,0,0-.66,4.1,7.15,7.15,0,0,0,.08,1.44c.1.79.09,1.09,0,1.22s-.21.1-.52,0Z" fill="#e6be70" stroke="#e6be70" stroke-miterlimit="2"/><rect width="50" height="50" fill="none"/></svg>