<svg xmlns="http://www.w3.org/2000/svg" viewBox="0 0 50 50"><path d="M5.38,48.93a.9.9,0,0,1-.51-.46c-.08-.18-.09-.27-.08-.9a18.75,18.75,0,0,1,.52-3.73,42.06,42.06,0,0,0,.78-5.35c.19-2.21.45-3.13,1.15-4.15,1.3-1.91,1.34-2,1.33-3.75,0-.85-.18-4.65-.26-5.76l0-.36,1.28-1,2.3-1.89,1-.85.2,0,1.53.16a37,37,0,0,0,11.56-.16,5.37,5.37,0,0,0,2-.44c1.46-.77,2.36-3.12,1.53-4a1,1,0,0,0-.78-.33c-.28,0-.73-.34-1.17-.89A3.12,3.12,0,0,1,27.13,14c0-.12,0-.13.12-.15s.43.06,1.26.47a3.21,3.21,0,0,0,1,.4c.21,0,.23,0,.3-.1a2.37,2.37,0,0,0,.05-1.26c-.16-.56-.53-.84-2.16-1.63-.59-.29-1.3-.66-1.56-.82a14.73,14.73,0,0,1-4.82-5,4.93,4.93,0,0,1-.59-2.56c0-.88.12-1.35.36-1.35s.3.41.38,1.54c.08,1.31.22,1.82.51,1.85s.26-.12.31-.5a1.49,1.49,0,0,1,.22-.78c.28-.37.5.09.57,1.18,0,.79.09,1,.26.94s.53-.86.75-2.44a18.5,18.5,0,0,1,.4-2.19,1.19,1.19,0,0,1,.34-.6c.11,0,.27.19.3.41a14.8,14.8,0,0,1-.28,2.82,13.79,13.79,0,0,0-.28,2.72,4.28,4.28,0,0,0,.26,1.8,2.4,2.4,0,0,0,1.25,1.35c.36.22.7.31.71.2,0-.29-.07-.52-.55-1.38-.58-1-.68-1.44-.43-1.78s.34-.34.41-.3a.69.69,0,0,1,0,.29,6.23,6.23,0,0,0,1.29,2.67A3.75,3.75,0,0,0,29,11c.29,0,.2-.44-.16-.78s-.43-.53-.43-1.27a2.31,2.31,0,0,1,.08-.85c.15-.43.35-.59.62-.48s.27.26.22.66c0,.17,0,.53,0,.8a1.27,1.27,0,0,0,.17.83,8.8,8.8,0,0,0,1.16,1.6c.62.71,2,2.2,2,2.22s2.16-2.2,2.7-2.8A10.73,10.73,0,0,0,36.63,9.1a1,1,0,0,0,.09-.37c0-.41.12-.39.61.09s.48.55.43.73a2.26,2.26,0,0,1-.43.48c-.76.69-1,.9-1,1s0,.1.15.08a6.61,6.61,0,0,0,1.41-.63c1.65-.9,2.14-1.32,2.35-2a7.46,7.46,0,0,0,.07-2c0-1.81,0-1.93.17-1.93s.59.92.66,2.21a11.52,11.52,0,0,0,.21,2.13c.06.19.1.23.2.24s.14,0,.25-.17a4.19,4.19,0,0,0,.52-1.11,2.14,2.14,0,0,0-.13-1.2,22.15,22.15,0,0,0-1.86-3.53,1.74,1.74,0,0,1-.42-1c-.05-.88.45-.58,1.24.73.11.19.43.77.72,1.31C43.06,6.29,43.4,6.59,44,6a2.24,2.24,0,0,0,.58-1.08,8.43,8.43,0,0,0,0-1.9,9.84,9.84,0,0,1-.11-1.55.09.09,0,0,1,.09-.08c.1,0,.42.44.59.81a3.25,3.25,0,0,1,.32,1.61,4.43,4.43,0,0,1-1,2.9,19.19,19.19,0,0,0-1.35,2,2.79,2.79,0,0,1-1.67,1.46,10.94,10.94,0,0,0-1.89.8c-.59.33-.78.4-.86.33a.25.25,0,0,0-.15-.05,12.58,12.58,0,0,0-3.15,2,3,3,0,0,0-.77,1.15.26.26,0,0,0,.26.34A2.66,2.66,0,0,0,36,14.4a5.63,5.63,0,0,1,2-.74c.27.1-.29,1.05-1,1.71a1.66,1.66,0,0,1-1,.56,1,1,0,0,0-1,.6,7,7,0,0,0,0,3.33,27.6,27.6,0,0,1,.43,4A7.66,7.66,0,0,1,33.39,28a27,27,0,0,1-3.17,2.84c-1.58,1.29-1.62,1.33-1.62,1.48,0,.52.18,7.27.22,8.13a24,24,0,0,0,.49,5,4.61,4.61,0,0,0,.61,1.21,4.08,4.08,0,0,1,.28.55c0,.15,0,.18-.05.26s-.16.1-.57.12a3.79,3.79,0,0,1-1.37-.1c-.19-.1-.23-.2-.3-.72a1.89,1.89,0,0,0-.11-.52c-.07-.09-.21-.09-.35,0-.3.17-.35,0-.22-.61a4.27,4.27,0,0,0,.07-1.33,98.31,98.31,0,0,0-1.11-10.55c-.16-.76-.3-1-.52-.93s-.68,1.93-1,4.48a27.31,27.31,0,0,0-.26,4A7.24,7.24,0,0,0,25,44.06a5.56,5.56,0,0,1,.45,1.65c-.06.16-.65,0-1.19-.23s-.64-.41-.69-.69a60.32,60.32,0,0,1-.38-6.74c0-1.54-.1-3.06-.16-3.48a2.21,2.21,0,0,0-.48-1.28,1.39,1.39,0,0,0-.76-.25c-.41,0-3.67.14-4.27.23a3.86,3.86,0,0,0-1.47.47,9.22,9.22,0,0,0-3,3c-.11.24-.12.26-.11,1.15a16.55,16.55,0,0,0,.3,3.07,23.76,23.76,0,0,0,1.46,5.32,10.88,10.88,0,0,1,.64,1.88c0,.1-.17.14-.39.1a4.47,4.47,0,0,1-1.38-.72,1,1,0,0,1-.46-.7.64.64,0,0,0-.45-.5c-.37-.06-.43-.24-.42-1.37,0-1.69-.2-3-1.22-7l-.57-2.26.81-.9a8.65,8.65,0,0,0,1.61-2.08c.29-.57.33-.88.16-1a.47.47,0,0,0-.62,0,.42.42,0,0,0-.12.19,10.65,10.65,0,0,1-2.1,2.69,11.71,11.71,0,0,0-2,2.75C7.33,39,7,40.55,6.79,44.19c-.2,3.17-.37,4.24-.75,4.64C5.9,49,5.85,49,5.7,49a1.23,1.23,0,0,1-.32-.07Z" fill="#e6be70" stroke="#e6be70" stroke-miterlimit="2"/><rect width="50" height="50" fill="none"/></svg>