<svg xmlns="http://www.w3.org/2000/svg" viewBox="0 0 50 50"><path d="M28.69,49c-.67-.12-1.09-.87-1.3-2.36a21.07,21.07,0,0,1-.17-2.73,20.16,20.16,0,0,0-1-6.25c-.54-1.81-.77-2.64-1-3.67-.1-.45-.2-.83-.21-.85s-.72.08-1.56.19a27,27,0,0,1-5.66.42,8.89,8.89,0,0,1-4-1c-1.11-.62-1.7-.85-1.86-.75s-.29.45-.51,1.21a28,28,0,0,0-.82,4.14,20.12,20.12,0,0,0,2.54,8.49c.48.65.53.74.53.9,0,.33-.31.45-.88.36a1.5,1.5,0,0,1-1.09-.64c-1.21-1.55-3.15-6.34-3.79-9.37a6.37,6.37,0,0,1-.17-2c.1-.89,0-1.55-.15-1.55a9.58,9.58,0,0,0-2.31,2,4,4,0,0,0-1.37,2.21A34.46,34.46,0,0,0,3.61,43,6.11,6.11,0,0,0,4,45.32c.25.6.26.92.06,1.15s-.42.23-.85.08a3.37,3.37,0,0,1-1.13-.71,2.87,2.87,0,0,1-.5-1.73c0-.34-.06-2.41-.07-5.23l0-4.67.87-.91,1.53-1.61L4.57,31l-.51-2.23a25.16,25.16,0,0,1-.91-5.16l0-.73.15-.22a10.29,10.29,0,0,1,1.81-1.58,15.11,15.11,0,0,1,3.09-2,5.39,5.39,0,0,1,2.35-.32,52.25,52.25,0,0,1,6.24.32,21.38,21.38,0,0,0,6.76-.2,10.75,10.75,0,0,1,5,0,16.06,16.06,0,0,0,3,.36,7.47,7.47,0,0,0,4.71-1c.37-.29.44-.43.36-.69a7.1,7.1,0,0,0-.9-1.41,11.48,11.48,0,0,0-3.82-2.48,8.07,8.07,0,0,0-3.15-.73,5.5,5.5,0,0,0-2.14.24,11.56,11.56,0,0,0-3.29,2.14c-1.09.85-1.25.95-1.48,1s-.41-.06-.43-.21.21-.51.56-.79c.53-.42.55-.55.16-.9s-.34-.46-.15-.63.4-.2.86-.17a1.25,1.25,0,0,0,.76-.1,5.52,5.52,0,0,0,2.3-1.72.62.62,0,0,0,.05-.25.17.17,0,0,0-.12-.19,3.74,3.74,0,0,0-1.89.28c-1.25.38-1.63.37-2-.09-.22-.24-.19-.29.22-.34a7.21,7.21,0,0,0,.72-.15c.45-.14,1.88-.64,1.93-.69a10.56,10.56,0,0,0-.72-1,8.45,8.45,0,0,1-1.81-2.84c0-.12,0-.14.08-.13a5.13,5.13,0,0,1,1.57,1.43,7.1,7.1,0,0,0,1.71,1.67.71.71,0,0,0,1.09-.37,1.17,1.17,0,0,0,.14-.68,1,1,0,0,0-.36-.9,2.14,2.14,0,0,1-.36-.4A18.48,18.48,0,0,1,24.3,3.92l-.09-.28.11-.09c.25-.2.43-.07.9.67.16.25.48.83.72,1.3.65,1.33,1.09,2,1.43,2.12s.35-.08.15-.61a6.65,6.65,0,0,0-.27-.61c-.29-.52-.32-.74-.12-.79s.54.23.92,1a3.24,3.24,0,0,0,1.43,1.69c.19.08.23.08.34,0A.63.63,0,0,0,30,8.15a3.64,3.64,0,0,0,0-1.74,18.74,18.74,0,0,0-.76-2.62,9.53,9.53,0,0,1-.63-2.28c0-.14,0-.16.17-.17s.17,0,.34.23a12.63,12.63,0,0,1,1.41,3.1,21.46,21.46,0,0,1,.75,2.87,6.31,6.31,0,0,0,1.24,3c.35.41.52.54.59.46s0-.39-.41-1.4a3.71,3.71,0,0,1-.29-1V8.46l.25.26a9.94,9.94,0,0,1,1.65,2.83c.36.79.58,1.17.74,1.25a1.26,1.26,0,0,0,.9-.13c.51-.23.7-.58.7-1.28a3.16,3.16,0,0,0-.35-1.47c-.27-.6-.31-.74-.18-.81.31-.17.63,0,.88.52a4.08,4.08,0,0,1,.4,1.63,1.73,1.73,0,0,1-.25,1.27c-.46.57-.55.84-.35,1.09a1.52,1.52,0,0,0,.75.38,3,3,0,0,0,2.09-.87,1.43,1.43,0,0,0,.5-.87.74.74,0,0,1,.28-.57c.2-.14.48.06.53.38a.49.49,0,0,0,.1.27c.17.14.83-.42,1.09-.93s.1-1-.56-1.76c-.38-.43-.59-.82-.55-1s.62-.29,1.14,0a2.31,2.31,0,0,1,1,2.85,3.82,3.82,0,0,1-1.57,2.14c-.63.44-.95.89-.76,1.09a10.89,10.89,0,0,0,3.68.38c2.42,0,4,.31,4.09.78,0,.17-.1.3-.55.6s-.75.81-.53,1,.13.1.49.07.41,0,.47.05.11.2,0,.43a2.76,2.76,0,0,1-1.17.92,3.34,3.34,0,0,0-1.73,1.89,7.22,7.22,0,0,1-.76,1.44A10,10,0,0,1,43.24,24,7.21,7.21,0,0,0,41,27.54a1.7,1.7,0,0,1-.14.52A4.53,4.53,0,0,1,39,29.59a4.07,4.07,0,0,1-1.76.5,8.4,8.4,0,0,0-2.87.77c-1,.46-1.07.75-1.26,3.18A89.86,89.86,0,0,0,33,43.12a24.55,24.55,0,0,0,.41,5.14c.12.34.12.36,0,.42s-.18.06-.44,0a5.35,5.35,0,0,1-1.38-.26c-.67-.35-.84-1.19-1-5a35.33,35.33,0,0,0-.31-3.79A19.53,19.53,0,0,0,29,34.63c-.38-.79-.84-.91-.93-.24a15,15,0,0,0,.52,3.53,35.14,35.14,0,0,1,.74,6.53,13.93,13.93,0,0,0,.22,2.46,1.49,1.49,0,0,0,.32.79.7.7,0,0,1-.29,1.15,1.82,1.82,0,0,1-.91.12Zm5.39-35.48c.11-.28-1.81-2-2.53-2.3a.37.37,0,0,0-.47.44,6.43,6.43,0,0,0,2.13,1.66C33.77,13.57,34,13.63,34.08,13.49Zm-4.89-2a1.18,1.18,0,0,0,.62-.83c0-.19,0-.21-.15-.36a2,2,0,0,0-1.45-.39c-1.78-.07-2.28.65-.92,1.32A2.53,2.53,0,0,0,29.19,11.46Z" fill="#e6be70" stroke="#e6be70" stroke-miterlimit="2"/><rect width="50" height="50" fill="none"/></svg>