<svg xmlns="http://www.w3.org/2000/svg" viewBox="0 0 50 50"><path d="M22.4,48.6c-.39-.18-.33-.5.14-.79s.54-.35.65-.57a5.73,5.73,0,0,0,.25-2.53,23.59,23.59,0,0,0-.68-4c-.38-1.64-.63-2.84-.87-4.08-.31-1.58-.59-2.37-.9-2.47s-.28.07-.77,2a35.22,35.22,0,0,0-1.17,6.47A9.1,9.1,0,0,1,18.4,46,3.33,3.33,0,0,1,16,47.78c-.51,0-.79-.21-.61-.57.08-.16.12-.19.36-.25s.56-.28.8-.78c.65-1.34,1.1-3.61,1.54-7.8a35.57,35.57,0,0,0,.32-4.23c0-1.49-.05-1.67-.79-2.45a15.26,15.26,0,0,1-2.06-3.06,29.25,29.25,0,0,1-3.82-9.59,20.27,20.27,0,0,0-1.42-5.23,5.41,5.41,0,0,0-.45-.72,4.54,4.54,0,0,1-.72-1.28,2,2,0,0,1,.15-1.69c.17-.35.26-.45.4-.45s.36.27.89,1.27a5,5,0,0,0,1.1,1.63.43.43,0,0,0,.31,0c.16-.07.17-.09.15-.23A30.68,30.68,0,0,0,10,8C8.88,6,8.59,5.12,8.59,3.65a3.33,3.33,0,0,1,.54-2.14l.13-.1.11.12c.19.23.23.61.18,1.63-.1,2.23,0,2.68.69,3.6.3.38.46.47.51.3a4.65,4.65,0,0,0,.05-.51c0-.58.11-.82.29-1a.52.52,0,0,1,.71,0,3.48,3.48,0,0,1,.06,1.76A5.81,5.81,0,0,0,12,10a5.53,5.53,0,0,0,1.25,2.12A5.84,5.84,0,0,0,14.55,10a2.81,2.81,0,0,0,.15-.93,4.51,4.51,0,0,0-.22-1.7,3,3,0,0,1,0-1.8c.13-.12.22-.1.35.09s.09.25.09.73c0,.64,0,.71.3.76s.53-.2.61-.92a13.85,13.85,0,0,1,.68-2.79c.2-.62.42-1.28.47-1.47.11-.38.22-.58.33-.58a.64.64,0,0,1,.25.16c.3.27.33.68.1,1.69-.05.18-.3,1-.57,1.82A24.74,24.74,0,0,0,16.21,8a12.41,12.41,0,0,1-1.07,2.75c-.59,1.25-.75,1.63-.69,1.72s.19.05.49-.06a2.56,2.56,0,0,0,1.12-1.24c.47-.87.91-1.32,1.17-1.2.51.23.39,1.83-.22,3a6.67,6.67,0,0,1-.47.75c-.81,1.08-.86,1.68-.3,3.72a5,5,0,0,0,1.34,2.44c.59.6,1,.74,2.59.87,1,.09,5.1.09,6.15,0,.43,0,1.55-.17,2.49-.3A22.92,22.92,0,0,1,33.35,20a6.64,6.64,0,0,1,1.89.11,7.6,7.6,0,0,1,2.89,1.37A16.32,16.32,0,0,1,41,24.18a2.12,2.12,0,0,1,.48,1.3c0,.88-.34,1.38-2.21,3.24-1.6,1.59-1.67,1.69-1.67,2.24a2.8,2.8,0,0,0,.19.87,8.49,8.49,0,0,0,2.07,3.28c.51.52.7.76.7.84s-.63,5.56-.75,6.42c-.41,2.92-.91,4.42-1.67,5a1.94,1.94,0,0,1-1.44.4c-.54,0-.67,0-.79-.09a.27.27,0,0,1-.13-.18c0-.13.25-.41.74-.85a4.18,4.18,0,0,0,1.27-2.12,18.49,18.49,0,0,0,.58-5.91,9.25,9.25,0,0,0-1.47-4.56c-.23-.24-.28-.27-.43-.25s-.3.21-.15.6a6.08,6.08,0,0,1,.46,2.53,8.38,8.38,0,0,1-.56,3.16,8.43,8.43,0,0,1-.62,1c-.24.35-.72,1.07-1.06,1.59l-1.08,1.65c-.88,1.34-1.53,1.74-2.54,1.57-.43-.08-.57-.16-.57-.34s.22-.49.81-.93a6,6,0,0,0,1.69-1.85,15.52,15.52,0,0,0,2.37-5.15c.11-.89-.27-2.15-1.18-4A8.93,8.93,0,0,0,32.19,31L32,30.8l-1.05,0a54.06,54.06,0,0,0-7.15.78c-.18.05-.19.06-.21.28a104.75,104.75,0,0,0,1.21,12.62l.2.75a2.65,2.65,0,0,1,0,1.42A4,4,0,0,1,24.13,48c-.64.64-1.2.83-1.73.6Z" fill="#e6be70" stroke="#e6be70" stroke-miterlimit="2"/><rect width="50" height="50" fill="none"/></svg>