<svg xmlns="http://www.w3.org/2000/svg" viewBox="0 0 50 50"><path d="M32.94,48.62a1,1,0,0,1-.63-.54,10.82,10.82,0,0,1-.72-2.27,20.92,20.92,0,0,0-3.43-7.41c-2.33-3.6-3-4.5-3.53-4.5s-.53.44-.75,2.09a30.51,30.51,0,0,1-1.2,5.71,7,7,0,0,0-.4,2.3,3.32,3.32,0,0,0,.54,2.11c.49.82.61,1.31.36,1.48-.53.34-1.36.1-2-.6a1.45,1.45,0,0,1-.41-1.76,27.29,27.29,0,0,0,.77-4.9c.16-1.89.44-6.49.4-6.53s-2-.38-2.58-.45c-1-.1-2.68-.16-4.59-.14h-2l-.29.9a5.1,5.1,0,0,0-.39,2.78,21.89,21.89,0,0,0,1.2,4,21.62,21.62,0,0,0,1.12,2.22c.11.17.42.59.7.93.58.72.75,1,.63,1.13a2.2,2.2,0,0,1-.95.17,2.82,2.82,0,0,1-1.14-.26,1.71,1.71,0,0,1-1.14-1.21,36.75,36.75,0,0,0-2-6.62A6.78,6.78,0,0,1,9.68,34c.1-.57.06-.74-.17-.74s-.66.37-1.46,1.17a8.35,8.35,0,0,0-1.13,1.29,8.19,8.19,0,0,0-1.28,5.51c.18,1.19.76,2.41,1.19,2.5s.46.44.23.59a2.81,2.81,0,0,1-2.15.09,1.26,1.26,0,0,1-.58-.81,18.1,18.1,0,0,1,0-4,31.37,31.37,0,0,1,.92-5.9c.24-.68.44-.94,1.56-2.15L7.38,31l-.3-2a51.56,51.56,0,0,1-.8-6.58A4.49,4.49,0,0,1,7.9,18.24c1.26-1.3,1.6-1.48,2.94-1.57a34.08,34.08,0,0,1,3.88.12,3.89,3.89,0,0,1,1.91.52,6.56,6.56,0,0,0,3.77,1.07,6.67,6.67,0,0,0,2.05-.29A4.09,4.09,0,0,1,24,17.9a11.45,11.45,0,0,1,3.29.5,12.25,12.25,0,0,0,3.37.55h.83l.55-.19a10.29,10.29,0,0,0,2.38-1.2,1.45,1.45,0,0,0,.63-1.21,3.33,3.33,0,0,0-.39-1.41,2.12,2.12,0,0,0-.79-.85,6.29,6.29,0,0,1-1.48-.45,20.08,20.08,0,0,1-4-2.4,11.28,11.28,0,0,0-5-2.28,5.14,5.14,0,0,0-1.61,0,.76.76,0,0,0-.56.55c-.08.33-.3.46-.74.44s-.66-.22-.46-.64a5.45,5.45,0,0,1,.68-.79,4.27,4.27,0,0,0,.7-.85A3,3,0,0,0,21.55,6c-.15-.86-.14-1.16,0-1.34s.16-.14.38-.14c.45,0,.68.27.75.87a3.36,3.36,0,0,0,2.58,2.47c.71.23.84.2,1-.22a13.27,13.27,0,0,0,.13-2.42,25.13,25.13,0,0,1,.17-3.32,1.46,1.46,0,0,1,.18-.57,2.59,2.59,0,0,1,.4,1c.17.62.42,1.84.68,3.3.42,2.37.93,3.86,1.34,3.91.12,0,.15,0,.24-.21a6.41,6.41,0,0,0,.2-1.8c0-.77.21-1.56.41-1.59s.44,1.24.45,3.13c0,2.23.11,2.41,1.77,3a5.19,5.19,0,0,0,1.84.38,1.3,1.3,0,0,0,.73-.12.72.72,0,0,0,.46-.62,1.07,1.07,0,0,0-.7-1.09,1.42,1.42,0,0,0-.71-.12,1.83,1.83,0,0,0-1.28.38,2,2,0,0,1-.79.39.34.34,0,0,1-.22-.14.4.4,0,0,1-.09-.37,2.91,2.91,0,0,1,.47-1.09A1.07,1.07,0,0,0,32.07,9a2.33,2.33,0,0,0-.51-1.27c-.51-.8-.61-1.27-.26-1.27s.59.22,1.14.71a9.68,9.68,0,0,0,2.47,1.63A2.41,2.41,0,0,0,36,9.07c.19-.07.25-.37.27-1.28a13.6,13.6,0,0,0-.47-3.86c-.18-.71-.21-1-.1-1.15s.08-.09.23,0a3.91,3.91,0,0,1,1.17,1.91,9.6,9.6,0,0,1,.64,3.05,6.71,6.71,0,0,0,.64,2.75c.34.69.67,1,1,1s.44-.18.58-.86.34-1,.62-1,.38.2.48.45.19.19.25,0a4.2,4.2,0,0,0,.1-.71c.08-.87.25-1.14.55-.87a1.47,1.47,0,0,1,.25,1.39,4.84,4.84,0,0,1-.72,1.44,5.36,5.36,0,0,0-.93,1.49c0,.15,0,.15.22.13a5.88,5.88,0,0,0,1.51-.66,3.1,3.1,0,0,0,1.56-3.73c-.12-.52-.15-.77-.08-.77a2.51,2.51,0,0,1,.65.5c1.3,1.31.17,4.48-1.87,5.21a3.54,3.54,0,0,1-.68.11c-.74.07-1.21.31-1.21.64,0,.16.19.27.54.32l.38.07c.14.06.2.29.15.53a1.18,1.18,0,0,0,.32,1A7.61,7.61,0,0,0,44.14,18a6,6,0,0,0,.83.38c.82.33,1,.58.86,1.16a3.23,3.23,0,0,1-.61,1.15,4.35,4.35,0,0,1-2.35.78c-2,.27-2.49.39-3,.71A9.75,9.75,0,0,0,38,24.14a12.18,12.18,0,0,1-3.88,3.49A12.79,12.79,0,0,0,31,30a5.05,5.05,0,0,0-1.89,3.74,6.41,6.41,0,0,0,.83,3A16.23,16.23,0,0,1,31.11,40a30.67,30.67,0,0,0,2.19,5.59c.67,1.35.92,1.73,1.37,2.06s.4.58.13.76a3.49,3.49,0,0,1-1.86.18Zm3.93-35.47a1,1,0,0,0,.7-.59c.21-.63-.32-1.67-.85-1.67-.25,0-.34.11-.37.46a7.12,7.12,0,0,1-.17.73c-.23.77-.22.93,0,1.05a.9.9,0,0,0,.64,0Z" fill="#e6be70" stroke="#e6be70" stroke-miterlimit="2"/><rect width="50" height="50" fill="none"/></svg>