<svg xmlns="http://www.w3.org/2000/svg" viewBox="0 0 50 50"><path d="M22,31.49c-.49,0-1.34-.06-1.72-.11a11.18,11.18,0,0,1-4.43-1.44,3.62,3.62,0,0,1-.92-.91,2.35,2.35,0,0,1,.13-2.4,8.27,8.27,0,0,1,.78-1.21,6.36,6.36,0,0,0,1.5-2.89c0-.34-.08-.44-.44-.53a13.36,13.36,0,0,0-2.52-.27l-1.09-.07s2-2,2.35-2.36c1.12-1,1.79-1.11,2.63-.55a2.74,2.74,0,0,1,1.12,1.57,6.45,6.45,0,0,1,.07,3.86c-.06.14-.14.38-.2.53-.15.41-.14.55.05.55s.22,0,.85-.31a9.57,9.57,0,0,1,1.6-.6,27.64,27.64,0,0,1,5.4-.84,24.51,24.51,0,0,0,5.55-1,20.12,20.12,0,0,0,2.46-.92c.61-.25,1.25-.5,1.43-.54s.08,0,.08.08a14.72,14.72,0,0,1-1.94,3.55A19.2,19.2,0,0,1,32.07,28a11.56,11.56,0,0,1-3.29,2.43,12.47,12.47,0,0,1-5.1,1.1C23.08,31.51,22.78,31.51,22,31.49Z" fill="#e6be70" stroke="#e6be70" stroke-miterlimit="2"/><rect width="50" height="50" fill="none"/></svg>