<svg xmlns="http://www.w3.org/2000/svg" viewBox="0 0 50 50"><path d="M7.76,48.6a3,3,0,0,1-1.08-1.06c-.39-.79-.44-1.43-.44-4.94s0-4.15.45-4.94a9,9,0,0,1,1.1-1.51,4,4,0,0,0,.77-1.41,11.24,11.24,0,0,0-.38-5.27C7.77,28,7.28,27.14,7,27.31s-.12.62.44,2.88c.37,1.47.42,1.84.26,2s-.67.11-1-.23a4.49,4.49,0,0,1-.77-2.81,7.87,7.87,0,0,1,.73-3.91,4.82,4.82,0,0,1,1.76-1.7,22.93,22.93,0,0,1,3.12-1.74L13.15,21l1.29,0c10.22-.24,11.46-.28,13.63-.42a13,13,0,0,0,3.2-.43c.37-.17.63-.78.71-1.71a4.1,4.1,0,0,1,.82-2.21c.31-.47.41-.71.37-.9s-.26-.26-.85-.3a1.9,1.9,0,0,1-1.3-.45c-.52-.46-.88-1.62-.6-1.9s.93,0,1.77.76c.67.59.94.73,1,.55a.84.84,0,0,0-.14-.7,14.62,14.62,0,0,0-2.63-2.7,9.66,9.66,0,0,1-3-4.84c-.45-1.32-.52-1.76-.35-2.3.26-.83,1.8-2.55,1.8-2a3.45,3.45,0,0,1-.5,1,2.42,2.42,0,0,0-.45,1.53,4,4,0,0,0,.16,1.17,2.42,2.42,0,0,0,.19.62s.43-.46.91-1c.9-1,1.21-1.3,1.37-1.28s.1.06.11.2c0,.31-.24.76-.8,1.36s-.78,1-.8,1.5a2.24,2.24,0,0,0,.29,1.22,7.65,7.65,0,0,0,1.09,1.5l.67.8,0-.72a7,7,0,0,1,.08-1,1.28,1.28,0,0,1,.38-.74c.2-.06.3.22.36,1.08a2.79,2.79,0,0,0,.54,1.62,11.77,11.77,0,0,0,1.83,1.89c.58.49.87.69,1,.69s.51-.21,1-.75a11.93,11.93,0,0,0,1.69-2.21,3.85,3.85,0,0,0,.66-1.67c.06-.51.09-.6.19-.64s.57.59.71,1.54a1.19,1.19,0,0,0,.14.47l.08.11.2-.11a11,11,0,0,0,2.12-2.1,1.25,1.25,0,0,0,.26-.9,2.33,2.33,0,0,0-.64-1.33,8.73,8.73,0,0,1-1-1.47c-.15-.3-.19-.55-.09-.58s.55.26,1.17,1,1.15,1.18,1.34.89a3.6,3.6,0,0,0,0-2.4,1.57,1.57,0,0,0-.24-.32,1.09,1.09,0,0,1-.34-.86c0-.42,0-.46.3-.24a6,6,0,0,1,1,1.29,2.7,2.7,0,0,1,.21,1.62,8.42,8.42,0,0,1-.77,3c-.68,1.29-1.53,2.19-4.29,4.51a16,16,0,0,0-1.85,1.83c-.16.23-.19.39-.08.43s.45-.16.88-.53c.83-.7,1.17-.89,1.7-.92.3,0,.34,0,.47.11.5.42.18,1.6-.56,2a2.38,2.38,0,0,1-1.11.3c-.55,0-.71.09-.91.27s-.15.48.22.66c.19.1.28.24.42.64a9.91,9.91,0,0,1,.3,4.38A20.27,20.27,0,0,1,35.19,27a22.9,22.9,0,0,0-2.38,3.28,23,23,0,0,1-2,2.92c-.68.82-.77,1.54-.68,5.34.1,4.51.29,6.62.72,8,.24.76.51,1.16.92,1.35s.41.25.37.4-.55.32-1.07.19c-1.07-.28-1.46-1.11-1.79-3.83a32.16,32.16,0,0,0-1.45-6.4,17.65,17.65,0,0,1-.93-3.55c-.06-.72-.21-.89-.49-.57a11.28,11.28,0,0,0-1.23,3.31c-.32,1.06-.6,1.94-1,3a18.4,18.4,0,0,0-.61,5.64c.06.83.14,1.09.35,1.25.51.39.45.93-.11,1s-1-.36-1.34-1.07A3.1,3.1,0,0,1,22.23,45a33.42,33.42,0,0,0,.44-4.82c.09-2.11.22-6.41.21-6.42l-1.7-.18c-2.88-.26-3.9-.46-4.87-.93-.51-.25-.86-.3-1.1-.17a3.51,3.51,0,0,0-.93.94c-.66.83-2,2.33-3.43,4a12.75,12.75,0,0,0-3.31,5.77,5.23,5.23,0,0,0-.1,1.3,5.53,5.53,0,0,0,.76,3.09c.22.47.42.9.43,1C8.71,48.79,8.21,48.84,7.76,48.6Z" fill="#e6be70" stroke="#e6be70" stroke-miterlimit="2"/><path d="M13.43,47.87a2.6,2.6,0,0,1-.91-.38,1.57,1.57,0,0,1-.37-.47,32.07,32.07,0,0,1-2.07-6l-.1-.49.14-.3A7.29,7.29,0,0,1,11.9,38a3.58,3.58,0,0,1-.16,1.32,4.8,4.8,0,0,0-.12,1.45,8.8,8.8,0,0,0,.48,2.55A13.33,13.33,0,0,0,14,47.07c.32.45.57.83.57.84a7,7,0,0,1-1.17,0Z" fill="#e6be70" stroke="#e6be70" stroke-miterlimit="2"/><rect width="50" height="50" fill="none"/></svg>