<svg xmlns="http://www.w3.org/2000/svg" viewBox="0 0 50 50"><path d="M21.4,48.67c-.08-.05-.09,0,.3-.49a3.86,3.86,0,0,0,.7-2.51,45.68,45.68,0,0,0-.67-8.4c-.08-.61-.17-1.23-.25-1.84l-1.24,0a5.27,5.27,0,0,1-2.15-.27.94.94,0,0,1-.63-.6,1.82,1.82,0,0,0-.43-.82c-.38-.52-1-1.23-1.88-2.22a23.43,23.43,0,0,1-1.78-2.1,28.11,28.11,0,0,1-2.44-3.91,18.46,18.46,0,0,1-1.56-3.94A6.23,6.23,0,0,0,9,20.47a2.17,2.17,0,0,0-.94-.91A3.41,3.41,0,0,1,7,18.69c-.79-.83-1.23-1.76-.92-1.93s.62.07,1.53.53a3.9,3.9,0,0,0,1.1.46c.18,0,.25,0,.28,0,.16-.24-.13-.82-1.15-2.28A12.57,12.57,0,0,1,5.5,10.91a5.77,5.77,0,0,1,0-2.1,3,3,0,0,1,.21.55c.09.31.34,1,.55,1.52a9.36,9.36,0,0,1,.62,2,1.07,1.07,0,0,0,.09.33c.11.07.27,0,.49-.34a1.58,1.58,0,0,1,.27-.32.58.58,0,0,1,.06.28,5,5,0,0,0,1.25,2.2,10,10,0,0,1,1.66,2.41.62.62,0,0,0,.68.47.61.61,0,0,0,.65-.55A8.11,8.11,0,0,1,13.4,15.5,6,6,0,0,0,15,12.71a.88.88,0,0,1,0-.29c0-.1.06-.11.11-.07a.17.17,0,0,1,.07.11c0,.11.28.39.42.43a.39.39,0,0,0,.46-.17,1.63,1.63,0,0,0,.12-.44,7.14,7.14,0,0,1,.54-1.61c.53-1.17,1.07-2.36,1.08-2.35s-.16,1.7-.21,2a9.77,9.77,0,0,1-1.07,3.07,14,14,0,0,1-2,2.75,6.5,6.5,0,0,0-.94,1.32c-.33.69,0,.68.81,0a2.62,2.62,0,0,1,1.51-.74c.29,0,.36,0,.43.06s.07.22-.22.82a5.81,5.81,0,0,1-1.92,2.2c-.68.48-.77.65-.6,1.14A6.72,6.72,0,0,0,15,23.2c.29.24,3.15.32,12.27.38,7.66,0,8.79.08,10.13.3a8.78,8.78,0,0,1,3.8,1.88,15.65,15.65,0,0,1,2.36,2.29,3.27,3.27,0,0,1,.89,2.35.73.73,0,0,1-.14.33c-.08.07-.1.08-.22,0-.3-.15-.59-.66-1.08-1.83a3.55,3.55,0,0,0-.31-.64s-.24.4-.49.88a18.3,18.3,0,0,1-2.08,3.34A6.23,6.23,0,0,0,39.17,34a3.74,3.74,0,0,0-.3,1.81,6.92,6.92,0,0,0,.41,2.48,6,6,0,0,1,.36,2.13A22.4,22.4,0,0,1,39,44.74c-.44,2.25-.66,2.94-1.09,3.4a1.62,1.62,0,0,1-1.07.46,12.94,12.94,0,0,1-1.56.1s.28-.18.62-.38a6.9,6.9,0,0,0,.83-.55c.54-.48.79-1.26,1.18-3.65a15,15,0,0,0,.28-2.66c0-1.38-.22-2.07-1.34-4.13s-1.47-2.48-2.14-2.42a3.08,3.08,0,0,0-1.1.41,6.08,6.08,0,0,1-3.6.73,28,28,0,0,1-5.64-.63l-.66-.1s-.36,5-.39,6a29.73,29.73,0,0,0,.12,4.28c.17,1.34,0,2.27-.41,2.7A1.34,1.34,0,0,1,22,48.7a1.8,1.8,0,0,1-.56,0Z" fill="#e6be70" stroke="#e6be70" stroke-miterlimit="2"/><path d="M6.6,10a5.38,5.38,0,0,1-.37-2.8,12.12,12.12,0,0,1,.92-4.83c.17-.32.4-.51.56-.48.36.09.31.51-.16,1.28a2.52,2.52,0,0,0-.43,1.9c.13.4.35.31,1.25-.49s1.31-1.07,1.42-1-.2.5-.5.87-.54.63-.83.93A4,4,0,0,0,7,8.83C6.93,10.17,6.86,10.41,6.6,10ZM16.69,8.57c0-.3,0-.6-.05-.9a6.66,6.66,0,0,0-.09-1,3.34,3.34,0,0,0-1.22-1.88,3.2,3.2,0,0,1-1-1.39c0-.18.25-.09.69.25s.92.53,1.06.32a1.78,1.78,0,0,0-.2-1.33c-.17-.36-.34-.55-.54-.61A.43.43,0,0,1,15,1.7c0-.19.08-.39.21-.39a1.52,1.52,0,0,1,.68.48,6.43,6.43,0,0,1,1.4,3,10.28,10.28,0,0,1,0,2.35,5.62,5.62,0,0,1-.5,1.72A.66.66,0,0,1,16.69,8.57Zm2.65,40.12c-.1-.1,0-.26.52-.79a2.35,2.35,0,0,0,.81-1.22,61,61,0,0,0-.54-9.31c-.13-.75-.13-.89,0-1s.2,0,.34.25A6.83,6.83,0,0,1,21,39.05,62.59,62.59,0,0,1,21.52,46c0,1-.1,1.3-.44,1.75a3.62,3.62,0,0,1-1,.86A1.24,1.24,0,0,1,19.34,48.69Zm20.38,0c-.28-.12-.15-.38.49-.93l.56-.5a2.25,2.25,0,0,0,.37-.84,25.44,25.44,0,0,0,0-4.91,13.74,13.74,0,0,0-.65-3.19,6.44,6.44,0,0,1-.13-4.5.55.55,0,0,1,.13-.22c.06,0,.12.29.18.82a4.84,4.84,0,0,0,1.09,2.65c.71.81.8,1.29.75,4-.1,5.41-.4,7-1.46,7.54a1.28,1.28,0,0,1-.7.13A2.62,2.62,0,0,1,39.72,48.67Z" fill="#e6be70" stroke="#e6be70" stroke-miterlimit="2"/><rect width="50" height="50" fill="none"/></svg>