<svg xmlns="http://www.w3.org/2000/svg" viewBox="0 0 50 50"><path d="M6.15,48.4c-.73-.39-1-.67-1.15-1.12a11.85,11.85,0,0,1,0-2.82c.11-1.3.77-7.51.8-7.65a9.72,9.72,0,0,1,1.11-1c2.28-1.85,2.77-2.5,2.77-3.68a4.92,4.92,0,0,0-.37-1.78,11.67,11.67,0,0,1-.79-2.91.88.88,0,0,1,.08-.59c.42-.87,4-3.26,5.71-3.85a46.23,46.23,0,0,1,6.06-.61c1.4-.08,2.38-.15,3.21-.23,4.58-.44,8.44-1.44,9.93-2.56a6.69,6.69,0,0,0,2.23-4.31,1.12,1.12,0,0,0-.32-.86,4.67,4.67,0,0,1-.8-2,2.83,2.83,0,0,0-1.76-2.15c-2.68-1.47-3.4-2.05-4.39-3.53a15.52,15.52,0,0,1-1.77-3.49,3.48,3.48,0,0,1-.23-1.62l0-.46.51.66c.83,1.05,1,1.38,1.14,1.92a1.36,1.36,0,0,0,.16.42.81.81,0,0,0,.55.23c.2,0,.44.13.44.24a1.71,1.71,0,0,1-.08.3c-.19.54.18,1.29.5,1A2.94,2.94,0,0,0,30,5.37c.24-.77.37-1,.66-1.2s.28-.06.32.11a1.27,1.27,0,0,0,0,.18s0,.19,0,.36a3.92,3.92,0,0,0,.66,3,5.16,5.16,0,0,0,2.79,1.71c.62.21.92.22,1.09,0s.12-.16.11-.55a6.5,6.5,0,0,0-.9-3.17,2.12,2.12,0,0,1-.21-.36,1.33,1.33,0,0,1,0-.88c.27-.4.65,0,1.27,1.19a12.34,12.34,0,0,1,1.13,3.31c.26,1.31.53,1.91,1,2.17s1.24,0,2.11-1c.64-.76,1.23-1.49,1.23-1.52s-.38-.33-.84-.7-1-.79-1.13-.94a3.29,3.29,0,0,1-.74-1c0-.11,0-.14.1-.19s.46,0,.82.32.81.55,1.1.39.44-.53.52-1.83a4.15,4.15,0,0,1,.16-1.28c.18-.4.49-.32.66.17a6.3,6.3,0,0,1,.1,2c0,1.81,0,2.1.22,2.27s.26.06.38-.11a1.91,1.91,0,0,0,.26-1c.06-.8.29-1.31.58-1.31.12,0,.24.23.24.45,0,.38.21.6.47.48a1.81,1.81,0,0,0,.46-1.34,2,2,0,0,1,.23-.95c.33-.45.63.29.59,1.48S45.09,7.25,43.1,9a18.85,18.85,0,0,0-2.27,2.33c-.19.28-.24.38-.23.52,0,.35.32.23,1-.42.92-.86,1.65-1.32,2-1.27.54.09.64.79.23,1.64a4.23,4.23,0,0,1-.92,1.27c-.6.65-.76.88-.77,1.11s0,.2.23.37c.5.41.7.64.78.91.25.83-.52,1.56-2.14,2-1.47.44-1.53.53-1.8,2.63a18.43,18.43,0,0,1-.81,3.43,19,19,0,0,1-1.07,2.64,26.47,26.47,0,0,0-1.25,3,4.71,4.71,0,0,1-.71,1.51,11,11,0,0,1-1.93,2.1l-.84.77v3.87c0,2.14,0,4.51,0,5.27.08,2.47.19,2.92,1,4,.43.58.58.84.55,1s-.22.28-.47.34a3.12,3.12,0,0,1-2.14-.73c-.18-.18-.18-.18-.24-.79-.16-1.64-1.24-7.27-1.82-9.45-.08-.31-.34-1.17-.59-1.91l-.43-1.35H19.38l-1.61,1.64a37.88,37.88,0,0,0-3,3.19A3,3,0,0,0,14,40.7c.07.92.42,1.64,2.08,4.19A20.26,20.26,0,0,1,18,48a1.55,1.55,0,0,1-.67.12c-.39,0-.65-.14-1.13-.63a19.79,19.79,0,0,1-2.07-2.75,47,47,0,0,1-3.53-5.83c0-.22.3-.56.91-1s.88-.87.67-1-1.79.68-3.25,2.09-1.65,1.82-1.81,5.2c-.15,3-.33,4.45-.54,4.45A2,2,0,0,1,6.15,48.4Z" fill="#e6be70" stroke="#e6be70" stroke-miterlimit="2"/><rect width="50" height="50" fill="none"/></svg>