<svg xmlns="http://www.w3.org/2000/svg" viewBox="0 0 50 50"><path d="M27.21,36.58a5.41,5.41,0,0,1-1.65-.25l-.07-.06.1-.05a4,4,0,0,1,.87-.19,12.58,12.58,0,0,0,2-.31c.23-.06.28-.09.33-.18s.08-.28,0-.51a8.79,8.79,0,0,0-3.59-2.54,1.51,1.51,0,0,0-.65-.12.88.88,0,0,0-.55.1c-.39.19-.68.63-1,1.54-.59,1.69-1.28,2.34-2.42,2.28-.45,0-.59-.11-.48-.28a2.8,2.8,0,0,1,.9-.59c.75-.39.88-.54,1-1.19a18,18,0,0,0,.31-2.72c0-.94-.22-1.24-1.52-2a4.51,4.51,0,0,1-1-.78,9.33,9.33,0,0,1-1.39-2.41,5,5,0,0,0-.37-.69,2,2,0,0,0-.71-.63l-.36-.18a2.14,2.14,0,0,1-1-1.39,2.39,2.39,0,0,1,.17-1.54,7.12,7.12,0,0,1,1.61-2.63c.58-.61.71-.89.62-1.36a6.3,6.3,0,0,1,.31-2.5,3.45,3.45,0,0,1,.77-1.57c.45-.42.74-.3,1,.39a3.6,3.6,0,0,1-.14,2,5.45,5.45,0,0,0-.29,1.22c0,.26,0,.34.18.34s.64-.58,1-1.41a3,3,0,0,1,1.36-1.8,4.08,4.08,0,0,1,.43-.17c.29-.08.42.07.59.69.21.77.09,1.1-.87,2.29-1.23,1.54-1.29,1.7-.9,2.61.58,1.38,1.14,1.74,3,1.95l.94.09c2.67.19,4.1.58,5.4,1.45a6,6,0,0,1,1.37,1.34,8.12,8.12,0,0,1,.93,1.89,18.84,18.84,0,0,1,.78,5.59c.08,2.24.09,3,.07,3a6,6,0,0,1-.63.06,5.38,5.38,0,0,0-1.29.18.82.82,0,0,0-.56.54c-.08.24-.14.33-.28.4a2.49,2.49,0,0,1-.9.17C30.09,36.6,27.74,36.61,27.21,36.58Z" fill="#e6be70" stroke="#e6be70" stroke-miterlimit="2"/><rect width="50" height="50" fill="none"/></svg>