<svg xmlns="http://www.w3.org/2000/svg" viewBox="0 0 50 50"><path d="M21.27,11.82a9.26,9.26,0,0,0-3.75,1.12c-.93.44-1.9.8-2.83,1.25a1.2,1.2,0,0,0-.53,1.05,5.69,5.69,0,0,1-.58,2.64c-.13.2-.3.54-.58.5s0-.31,0-.44c.1-.64.6-1.24.39-1.91A5.66,5.66,0,0,0,12.15,14c-.15-.21-.51-.31-.65,0-.36.62-.17,1.41-.56,2a.78.78,0,0,1-1.1-.15c-.32-.4-.45-1-.92-1.23-.17-.08-.43-.24-.61-.1s.08.44.11.65a3.72,3.72,0,0,1,.34,1.64,6.42,6.42,0,0,1-.88,1.92,5,5,0,0,0-.51,1.56c-.22.78-.9,1.32-1.19,2.07A1.45,1.45,0,0,0,7.62,24a6.64,6.64,0,0,0,3-.74,10.08,10.08,0,0,1,3.88-.68c1,0,1.93,0,2.9,0,.77,1.19,1.65,2.32,2.3,3.57.16.36.45.74.28,1.14-.54,1.66-1.62,3.09-2.12,4.76-.14.46.24.85.45,1.2A31,31,0,0,0,22,37.55c.29.23.56.58.95.64s.36-.52.3-.79a7.11,7.11,0,0,0-1.19-2.59c-.52-.77-1.44-1.17-1.87-2-.08-.17.13-.35.18-.52A28.43,28.43,0,0,1,22.8,29c.21-.2-.16-.41-.23-.61a17.2,17.2,0,0,1-2.3-3.95c-.05-.23-.17-.59.08-.72s.29.22.4.34a25.68,25.68,0,0,0,1.37,2.38,9.46,9.46,0,0,0,2,1.83c-.09,2.19-.32,4.38-.27,6.58a7.69,7.69,0,0,0,.36,2.9c.08.22.37.48.6.27a3.36,3.36,0,0,0,.5-1.42c.26-1.53.52-3.06.87-4.57s.65-3,1.13-4.37c0-.24.3-.12.47-.12a6.94,6.94,0,0,1,2.24.64,4.49,4.49,0,0,1,1.38,2.07,11,11,0,0,1,.89,2.61,2.59,2.59,0,0,1-.68,1.49,6.18,6.18,0,0,1-2.3,2c-.35.17-.77.48-.68.93s.64.55,1,.55a3.73,3.73,0,0,0,2.09-1.15,30.52,30.52,0,0,0,2.73-2.84,1.49,1.49,0,0,0,.4-1.37,8.27,8.27,0,0,1-.48-3.22,2.8,2.8,0,0,1,1.33-1.62.93.93,0,0,1,1.22.14,17.8,17.8,0,0,1,1,1.77A38.73,38.73,0,0,0,40.69,33a3.68,3.68,0,0,1,.91,2,1.76,1.76,0,0,1-1,1.45c-.51.38-1.18.57-1.55,1.11a.39.39,0,0,0,.29.51,3.36,3.36,0,0,0,1.48,0c.79-.16,1.21-.93,1.58-1.58.56-1,1.15-2.08,1.64-3.16a7.15,7.15,0,0,0-.56-1,10.2,10.2,0,0,1-1.65-3.19,3,3,0,0,1,.33-2,.17.17,0,0,1,.3,0,2.7,2.7,0,0,1,.23,1.23,3.69,3.69,0,0,0,.75,2.27c.09.13.33.14.33,0a14.31,14.31,0,0,0-.16-2.85,23.24,23.24,0,0,0-2.32-6.71,5.93,5.93,0,0,0-1.73-2.26,11.06,11.06,0,0,0-4-1.92,8.24,8.24,0,0,1-1.7-.33A64,64,0,0,1,27.3,13.8c-1.91-.89-3.86-2-6-2Z" fill="#e6be70" stroke="#e6be70" stroke-miterlimit="2"/><rect width="50" height="50" fill="none"/></svg>