<svg xmlns="http://www.w3.org/2000/svg" viewBox="0 0 50 50"><path d="M11.5,1.22c-.29,0-.78.12-.69.5s.76.73,1.14,1.08a2.14,2.14,0,0,1,.41,1.94c-.37,2.17-1.56,4.1-2,6.24,0,.26-.18.7-.48.53-.31-.33-.27-.82-.47-1.2-.76-2.1-2-4-2.28-6.28,0-.47-.14-1,.19-1.43S8,2,7.87,1.52s-.48-.35-.71-.18A3.84,3.84,0,0,0,5.6,4.61a2.5,2.5,0,0,0,.52,1.55,25.75,25.75,0,0,1,1.79,4.47,2.18,2.18,0,0,1,.12.75c-.49-.22-.74-.74-1.07-1.14a20.68,20.68,0,0,0-2.3-2.82c-.19-.2-.6-.23-.68.1a4.46,4.46,0,0,0,0,1.82c.26,1.13,1.24,1.85,2,2.67a5.82,5.82,0,0,1,1.42,2c1,2.44,1.45,5.1,2.45,7.55a7.37,7.37,0,0,0,2.86,3.56,14.37,14.37,0,0,1,2.07,1.3,10.21,10.21,0,0,1,2.52,2.72,8.15,8.15,0,0,1,.41,3.15,42.31,42.31,0,0,1-.78,10,24.64,24.64,0,0,1-1.5,4.05c-.14.42-.38,1-.08,1.37s.83.18,1.23.21.7-.12.79-.43a5.45,5.45,0,0,1,.29-1.55,56.19,56.19,0,0,0,1.85-8.82,44.4,44.4,0,0,1,.85-5c.06-.09.11.26.15.33.63,2.48,1,5,1.47,7.54a27.21,27.21,0,0,1,.45,4,4.31,4.31,0,0,1-.79,2.27,2.71,2.71,0,0,0-.29,2.25c.18.42.73.33,1.06.17a2.21,2.21,0,0,0,1.08-1.93,2,2,0,0,1,.52-1.33,2.87,2.87,0,0,0,.2-1.81c-.31-2.55-.47-5.12-.65-7.69-.16-2.26-.43-4.51-.75-6.76,2.75-.06,5.5.09,8.24-.13a9.46,9.46,0,0,0,3-.8,3,3,0,0,1,1.36-.25c1.58,2,3.2,3.95,4.64,6a4.49,4.49,0,0,1,.91,2.51,23.69,23.69,0,0,1-.89,6.9,7.14,7.14,0,0,1-1.25,2.71c-.1.2-.41.52-.16.72a2.22,2.22,0,0,0,1.5.09,2.68,2.68,0,0,0,1.29-2c.38-1.63.46-3.32.81-5a11.14,11.14,0,0,1,.9-3c.08-.12.28-.38.4-.15a5.19,5.19,0,0,1,.58,1.7,36.53,36.53,0,0,1,.67,5.22,4.42,4.42,0,0,1-.55,2.72,6.16,6.16,0,0,0-1,1.82c0,.34.37.41.62.34a2.61,2.61,0,0,0,2-1.28,9.81,9.81,0,0,0,.36-3.54q-.08-4.44-.51-8.87a4.05,4.05,0,0,0-.38-1.62c-.8-1-2-1.46-2.82-2.41a7.43,7.43,0,0,1-1.59-2.53,1.32,1.32,0,0,1,0-.88,5.18,5.18,0,0,1,.92,1.25A4.69,4.69,0,0,0,43,30.21c.27.11.64-.08.58-.39-.09-.86-.94-1.41-1-2.25a9.71,9.71,0,0,1,.7-2.69,7.05,7.05,0,0,0,.36-4.32,4.82,4.82,0,0,0-1.83-2.17,16.7,16.7,0,0,0-5.17-2.12,17.77,17.77,0,0,0-7.54.28,55.37,55.37,0,0,1-6.8.83,13.24,13.24,0,0,0-4.5,1.12,12.41,12.41,0,0,1-3.23,1c-.42.1-.69-.29-.9-.58a8.81,8.81,0,0,1-1.41-3.32,1.47,1.47,0,0,1,.23-1.15c.75-1.37,1.89-2.48,2.74-3.79a4.63,4.63,0,0,0,.91-2.87c-.06-.27-.16-.61-.44-.72s-.69.43-1,.7c-1,1.06-1.68,2.31-2.54,3.44-.05.06-.24.24-.25.06A8.26,8.26,0,0,1,12.48,9c.47-1.33,1-2.63,1.38-4a3.55,3.55,0,0,0-.76-2.55,2.66,2.66,0,0,0-1.37-1.19Z" fill="#e6be70" stroke="#e6be70" stroke-miterlimit="2"/><rect width="50" height="50" fill="none"/></svg>