<svg xmlns="http://www.w3.org/2000/svg" viewBox="0 0 50 50"><path d="M26.77,34.49a3.07,3.07,0,0,1-1.69-.43C25,34,25,34,25,33.82s-.05-.35-.79-.39a2.67,2.67,0,0,1-1.37-.3,1,1,0,0,1-.32-.41s.08-.08.21-.11.2-.19.19-.56a1,1,0,0,0-.23-.77,2.91,2.91,0,0,0-1.17-.63,18.42,18.42,0,0,1-2.39-1.2c-.27-.16-1-.6-1.54-1l-1.05-.7-.18,0-.83.22a5,5,0,0,1-2.13.27c-.29-.12,0-.35.77-.57A2.41,2.41,0,0,0,15.51,27a2.37,2.37,0,0,1,1.19-.73,9.13,9.13,0,0,0,1.53-.77c.25-.16.5-.33.74-.51a20.55,20.55,0,0,1,3-1.82,17.84,17.84,0,0,1,4.47-1.66,8.33,8.33,0,0,1,1.35-.14c.6,0,.74-.05.87-.15s.09-.27-.16-.54a1.57,1.57,0,0,1-.34-1.07,4,4,0,0,1,0-.85,3.38,3.38,0,0,1,.58-1.95A3.79,3.79,0,0,1,31,15.48a2.83,2.83,0,0,1,1.05,0,5.65,5.65,0,0,1,2.1,1.38c.51.45,2.52,2.31,2.51,2.32l-1.16-.08C33.59,19,32.86,19,32.31,19a1.58,1.58,0,0,0-.63.05c-.09.06-.1.07-.08.2a3.6,3.6,0,0,0,.91,1.42,6.63,6.63,0,0,1,.83,1.16A6.21,6.21,0,0,1,34.18,24a8.07,8.07,0,0,1-2,3.78,13.18,13.18,0,0,1-2.83,2.38,7.75,7.75,0,0,1-2.25.92c-.56.12-.77.28-.83.62a1.17,1.17,0,0,0,.07.67c.1.16.17.19.63.22s.62.06.45.28a1.32,1.32,0,0,1-.81.52.47.47,0,0,0-.2.06.2.2,0,0,0,0,.26,2.6,2.6,0,0,0,1.37.06,6.62,6.62,0,0,1,1.06,0,2.79,2.79,0,0,1,1.11.14c.22.08.31.16.26.23a2.19,2.19,0,0,1-1.08.3A18.84,18.84,0,0,1,26.77,34.49Zm-1.22-1.94c.14-.07.15-.16.06-.46a3.74,3.74,0,0,1-.12-.45.62.62,0,0,0-.1-.24,2.86,2.86,0,0,0-1.52-.22c-.22.05-.27.12-.27.4,0,.59.18.88.61,1a4.22,4.22,0,0,0,1.34,0Z" fill="#e6be70" stroke="#e6be70" stroke-miterlimit="2"/><rect width="50" height="50" fill="none"/></svg>