<svg xmlns="http://www.w3.org/2000/svg" viewBox="0 0 50 50"><path d="M44.27,48.71a1.07,1.07,0,0,1-.61-.25c-.46-.39-.43-1.1.09-2.34a12,12,0,0,0,.7-4.86,19.78,19.78,0,0,0-1-6.74,18,18,0,0,0-2.11-4c-.47-.61-.82-.87-1-.79a6.09,6.09,0,0,0-1.49,2.15,9.16,9.16,0,0,0-1,2.87,16.21,16.21,0,0,1-1.91,4.79,16.71,16.71,0,0,0-1.55,3.8A4.53,4.53,0,0,1,33,45.82a1.92,1.92,0,0,1-1.67.75,1.19,1.19,0,0,1-.73-.44.83.83,0,0,1-.1-.49c0-.55.26-1,1.07-2a20.44,20.44,0,0,0,3.07-5.5c.36-1.12.42-1.85.46-5.62,0-2.63,0-2.77,0-2.77s-1.22.2-2.11.39c-2.56.57-3.19.92-3.66,2s-.62,2.55-.54,5.82c.06,2.38.3,6.36.46,7.76a6,6,0,0,0,.12.7c.11.43.07.46-.42.43-.87-.07-1.15-.29-1.32-1.11-.07-.36-.17-1.25-.27-2.5a23.84,23.84,0,0,0-.69-4.49c-.22-.85-.53-2.16-.77-3.3-.46-2.15-.6-2.41-1.11-1.9A5.46,5.46,0,0,0,23.84,36a47.39,47.39,0,0,0-.8,6.69c-.18,2.52-.27,3.26-.48,3.63s-.27.33-.79.35-.47,0-.59-.09-.24-.62-.05-2.06a73.76,73.76,0,0,0,.33-9.09c-.05-4.19-.14-5.08-.63-6.1a6.78,6.78,0,0,0-1.52-2,.54.54,0,0,1-.26-.29,11.21,11.21,0,0,1-.45-1.88c-.21-1.27-.42-1.89-.67-2-.09,0-.18-.18-.33-.47a12.66,12.66,0,0,1-.8-2.32c-.17-.58-.32-1.07-.34-1.09A26,26,0,0,0,15.28,22a6.87,6.87,0,0,0-.21.76c0,.12-.06.23-.09.24s-.46-.23-.68-.51a2.14,2.14,0,0,1-.49-1.06,5.44,5.44,0,0,0-1.54-2.79,1.32,1.32,0,0,0-.86-.44,5.5,5.5,0,0,0-2.13.66,2.27,2.27,0,0,1-2.61,0,2.36,2.36,0,0,1-1.46-3.27,3.22,3.22,0,0,1,.89-1.47,7.51,7.51,0,0,1,2-1.36,27.28,27.28,0,0,0,3.5-2.22,7.16,7.16,0,0,0,1.16-1,4.82,4.82,0,0,0-.68-.16,32.93,32.93,0,0,1-4.17-1.1A7.62,7.62,0,0,1,3.51,5.11a1.6,1.6,0,0,1-.36-1.24c.11-.75.52-.62,1,.3a2.9,2.9,0,0,0,.79,1.08c.36.24.61.15.66-.26A1.94,1.94,0,0,1,6,4.08a4,4,0,0,1,.88-1c.31-.22.43-.24.49-.08a4.45,4.45,0,0,1,0,1.4,2.89,2.89,0,0,0,0,1.24c.15.18.53,0,.71-.26a4.19,4.19,0,0,0,.34-2c.07-1.65.15-2,.45-2s.58.47.65,1.65c.05.8.12,1.07.33,1.22s.21.11.63.12c.95,0,1.18-.14,1.78-1.36s.88-1.46,1.09-1.05c.08.15.08.29.08,1.37a9.55,9.55,0,0,0,0,1.34c0,.13.07.14.24.14a5.43,5.43,0,0,0,1.87-1c1.37-.9,1.51-1,1.6-.63a.8.8,0,0,1,0,.34A3.72,3.72,0,0,1,16,4.92C14.87,6,14.5,6.43,14.43,6.78a.39.39,0,0,0,.19.44c.17.08.36,0,.78-.5a1.86,1.86,0,0,1,.43-.39,8.66,8.66,0,0,1-.55,2.48c-.16.45-.17.64-.07.72s.63-.22,1.09-.82a8.67,8.67,0,0,0,.53-.87C17.47,6.64,18,6,18.49,6c.21,0,.26.16.3,1,0,1,.1,1.17.49,1.17a3.9,3.9,0,0,0,1.56-.58,3,3,0,0,0,1-.6c.32-.33.34-.53.22-1.56A5.77,5.77,0,0,1,22,3.77c.08,0,.3.1.5.33A3.69,3.69,0,0,1,23.33,6c0,.38.13.61.25.62s.39-.14.58-.55a6.7,6.7,0,0,0,.39-1.37A3.74,3.74,0,0,1,25,3.6c.23-.25.49.11.61.87a6,6,0,0,1,0,1.74,6.17,6.17,0,0,0-.09.76c0,.21,0,.25.11.29.29.13,1.31-.41,1.79-1a1.64,1.64,0,0,1,.33-.3c.31-.16.73,0,.73.26s-.23.6-1,1.38a3.19,3.19,0,0,0-.85,1.25c0,.17,0,.18.09.21.3.08.82-.26,1.8-1.16a7,7,0,0,1,.68-.58,6,6,0,0,1-.27,1.29,3.74,3.74,0,0,1-1.7,1.43,11.22,11.22,0,0,1-3.62.93,6.67,6.67,0,0,0-2.27.5c-.18.2.66.41,2.25.55a11.66,11.66,0,0,1,4.41,1c.45.25.63.49.59.78s.05.34.3.62A8.17,8.17,0,0,0,31,16a7.69,7.69,0,0,0,5,.26c1.46-.31,2.36-.22,5.31.51,1.48.36,2.71.7,3.55,1,.67.21.72.25,1,.77a8.9,8.9,0,0,1,.82,2.74,7.5,7.5,0,0,1-.43,3,14.33,14.33,0,0,0-.46,5.5c.13,1.87.17,3.54.19,8a79.27,79.27,0,0,1-.23,9.66c-.14.79-.29,1.12-.57,1.27a1.88,1.88,0,0,1-.94.09Z" fill="#e6be70" stroke="#e6be70" stroke-miterlimit="2"/><rect width="50" height="50" fill="none"/></svg>