<svg xmlns="http://www.w3.org/2000/svg" viewBox="0 0 50 50"><path d="M28.62,48.7c-.73-.1-1.1-.25-1.27-.53a2.35,2.35,0,0,1-.19-.56c-.11-.53-.24-.77-.46-.88s-.17-.09-.17-.29A2.31,2.31,0,0,1,26.6,46c0-.14.11-.37.14-.49a95.44,95.44,0,0,0,1-10.36,27.45,27.45,0,0,0,0-3.39c-.07-.12-.66-.15-2.5-.15-3.4,0-4.89-.14-6.5-.65l-1.13-.36-.33-.1-1.54,1.27C13,34,12.1,34.87,11.59,35.8a3.36,3.36,0,0,0-.33,2.07,26.76,26.76,0,0,0,2.51,6.68,8.21,8.21,0,0,1,.53,1.18c0,.09-.23.16-.44.16-.56,0-1.1-.56-1.63-1.69a26.16,26.16,0,0,1-1.44-4.1l-.53-1.75a6,6,0,0,0-.59.69c-1.39,1.76-1.88,2-1.54.69.07-.23.25-.77.41-1.19.63-1.64.65-1.57-1.46-6-.26-.56-.52-1.11-.79-1.66a2.06,2.06,0,0,1-.2-.54c0-.23.22-.43.8-.71l.93-.44c.75-.36,1-.65,1-1.08s-.24-.82-1-1.67a4.15,4.15,0,0,1-1.1-2,10.84,10.84,0,0,1-.11-1.39,15.15,15.15,0,0,0-.81-4.75,7.94,7.94,0,0,1-.38-2.26,2.88,2.88,0,0,1,.17-1.13,16,16,0,0,1,.94-2.37c.27-.52.59-1,.67-.91a3.59,3.59,0,0,1,0,1.24l-.12,1a9.76,9.76,0,0,0,.1,2.23A6,6,0,0,0,8.64,19c.46.56.67.7,1,.68a4.06,4.06,0,0,0,1.13-.42A7.16,7.16,0,0,1,14,18.67a26.17,26.17,0,0,1,5.4.69,38,38,0,0,0,4.82.74c4.24.37,7.46-.25,8.73-1.67a2.44,2.44,0,0,0,.59-1.25l.47-2c.42-1.66.45-1.81.39-2s-.17-.24-.68-.29c-.78-.08-1.29-.39-2.39-1.45l-.69-.68.87,0a4.56,4.56,0,0,1,1.22.12,4.69,4.69,0,0,1,1.28.54,1.43,1.43,0,0,0,.84.31c.23,0,.35-.69.18-1s-.82-.82-1.94-1.24a10.52,10.52,0,0,1-3-1.73C29.18,7,28.72,6.2,28.87,5.65c.06-.24.25-.42.35-.35a2.62,2.62,0,0,1,.45.82c.15.33.35.54.51.54.33,0,.51-.45.72-1.76A11.93,11.93,0,0,1,32,1.23c.23-.34.29-.13.21.72,0,.6-.09.92-.31,2.33-.36,2.22-.29,3.79.17,4a.33.33,0,0,0,.43-.2A16.31,16.31,0,0,0,33,5c.15-1.09.39-1.93.56-1.93s.1.08.13.18a14.1,14.1,0,0,1,0,2.94,11,11,0,0,0,0,2.21.75.75,0,0,0,.14.31c.09.08.1.08.26,0a1.36,1.36,0,0,0,.5-.79.71.71,0,0,1,.13-.3s.1.09.17.25a5.81,5.81,0,0,0,1.29,2c.54.48,1.11.65,1.36.4s.08-.35-.08-.78A12.4,12.4,0,0,1,37,7.77c0-.21,0-.22,0-.16a8.72,8.72,0,0,1,1.18,1.61.66.66,0,0,0,.23.29.43.43,0,0,0,.49-.16c.08-.11.09-.18.09-.61a11.84,11.84,0,0,0-.43-2.54A15,15,0,0,1,38.15,4c0-.42.23-.62.43-.39a5.43,5.43,0,0,1,.52,1.74,7.36,7.36,0,0,0,1.25,3.31c.26.25.61.15.79-.22a1.31,1.31,0,0,0,.09-.68A4.59,4.59,0,0,0,40.84,6c-.34-.92-.49-1.72-.33-1.85s.66.56,1,1.42c.56,1.35.89,1.82,1.27,1.82a1.15,1.15,0,0,0,.84-.94c0-.11,0-.18-.24-.34s-.41-.5-.34-.72a.32.32,0,0,1,.45-.21,2.54,2.54,0,0,1,.93,1.39c0,.28-.12.55-.56,1a14.57,14.57,0,0,1-2,1.58,21.64,21.64,0,0,1-2.33,1.35,3.44,3.44,0,0,0-.74.45s.72.38,1.59.79,1.69.81,1.82.89c.8.48,1.15.87,1,1.16A6.48,6.48,0,0,1,41,15.42c-.39.22-.82.48-1,.57a2.1,2.1,0,0,0-.8,1.69,38.1,38.1,0,0,1-1.53,6.73c-.87,2.76-1.18,4.72-.9,5.69.14.51.41.7,2.37,1.69l1.38.7v2c0,3.68-.14,5.39-.51,5.87a7.44,7.44,0,0,1-2.94,1.85c-.19,0-.22,0-.23-.09a1.92,1.92,0,0,1,.44-.85,12.53,12.53,0,0,1,.93-1,2.56,2.56,0,0,0,1.07-2.57c0-.7-.14-3.82-.16-3.83l-.94-.22a21.72,21.72,0,0,1-3.89-1.23A4.35,4.35,0,0,0,32.23,32c-.69,0-.74,0-.95.12-.58.29-.85,1-1.8,4.88-1.06,4.28-1.22,5.25-1.22,7.5A5.67,5.67,0,0,0,29,48c.32.54.36.65.24.7a2.13,2.13,0,0,1-.63,0ZM9.72,33.9a7,7,0,0,0,1.59-1.54c1-1.1,1.27-1.5,1.28-1.72s0-.17-.15-.21A12.41,12.41,0,0,0,9,31c-.74.27-.94.52-.84,1.06a4.64,4.64,0,0,0,.72,1.7C9.11,34.05,9.34,34.08,9.72,33.9Z" fill="#e6be70" stroke="#e6be70" stroke-miterlimit="2"/><rect width="50" height="50" fill="none"/></svg>