<svg xmlns="http://www.w3.org/2000/svg" viewBox="0 0 50 50"><path d="M35.68,36.59c-.18,0-.25-.1-.25-.22a2.67,2.67,0,0,1,.49-.87,4.69,4.69,0,0,0,.86-2.7c0-1-.18-1.73-.56-1.8a.54.54,0,0,0-.46.16c-.16.17-.2.43-.17,1.09A5.85,5.85,0,0,1,35,35.11c-.23.45-.35.6-.61.72s-.24.11-.77.11c-1,0-1.08-.12-.59-.78A6.05,6.05,0,0,0,33.78,34a3.2,3.2,0,0,0,.16-1.69,5.82,5.82,0,0,0-1.42-2.63l-.35-.42-1.29.44a10.46,10.46,0,0,1-5.07.76,3.83,3.83,0,0,0-1.59.13,1.35,1.35,0,0,0-.79.75,5.56,5.56,0,0,0-.38,1.5,25.28,25.28,0,0,1-.61,2.46c-.32,1-.49,1.12-1.55,1.23-.67.07-1.26,0-1.26-.22A.33.33,0,0,1,19.9,36c.22-.06.39-.25.63-.72a10.34,10.34,0,0,0,.87-2.69,2.3,2.3,0,0,0,0-.92.33.33,0,0,0-.37-.25c-.14,0-.18,0-.31.16a1.89,1.89,0,0,0-.4,1.09,6.38,6.38,0,0,1-.18.84,5.8,5.8,0,0,1-1.14,2,1.6,1.6,0,0,1-1.4.44c-.39,0-.65-.07-.68-.13a9.54,9.54,0,0,1,.88-1.46,4.85,4.85,0,0,0,1.07-3.27c-.11-2.26-.82-3.36-2.38-3.71a9.68,9.68,0,0,0-1.59-.09c-1.36,0-1.47,0-1.84-.21a1.9,1.9,0,0,1-.41-.27,3.72,3.72,0,0,0-1.64-.66c-.21,0-.85-.11-1.42-.15-2.05-.15-2.54-.27-3-.73a4.07,4.07,0,0,1-.74-1.61c0-.2.06-.28.47-.62s.47-.46.51-.7a5.1,5.1,0,0,1,.76-1.72c.34-.51.52-.63.65-.44s0,.35-.12.72-.19.65-.07.78.5,0,1.31-.85a6.6,6.6,0,0,0,1.81-2.48,10.17,10.17,0,0,1,1.88-3,7.61,7.61,0,0,1,1.4-1.44c.12-.05.13-.05.21.05s.11.27,0,.72,0,.57.08.65.1.05.23,0a2.36,2.36,0,0,0,.71-.93c.41-.76.8-1.19,1.08-1.19s.29.23.16.92-.13.76.5.47A3.17,3.17,0,0,1,19,14.3a11.56,11.56,0,0,1,3.83.57,30.07,30.07,0,0,1,3.54,1.76,30.78,30.78,0,0,0,3.73,1.78,24.45,24.45,0,0,0,2.47.82c1.34.32,1.61.39,2,.52,2.29.77,4.06,2,4.76,3.41a4.45,4.45,0,0,0,.75,1.09,2.32,2.32,0,0,0,1.51.33c.69,0,1.12-.12,1.15-.32s.87-.69,1.14-.57c.09,0,.1.06.08.23a1.91,1.91,0,0,1-.42.87,1.77,1.77,0,0,1-.86.4c-.16,0-.83.09-1.5.14L40,25.41s-.93,2.91-1,3.18A2.94,2.94,0,0,0,39,30.4a1.85,1.85,0,0,1-.27,2,5.53,5.53,0,0,0-.58,2.1c-.14,1.31-.54,1.93-1.36,2.11a4.67,4.67,0,0,1-1.12,0Z" fill="#e6be70" stroke="#e6be70" stroke-miterlimit="2"/><rect width="50" height="50" fill="none"/></svg>