<svg xmlns="http://www.w3.org/2000/svg" viewBox="0 0 50 50"><path d="M27.71,34.34c-1.21-.1-2.62-.65-5.72-2.21A15.32,15.32,0,0,0,19.5,31a10.78,10.78,0,0,0-2.35-.35c-1.55-.12-3-.26-3.3-.34a1.08,1.08,0,0,1-.48-.26.29.29,0,0,1,0-.16c0-.13.14-.2.43-.23A2.84,2.84,0,0,0,15.18,29a3.13,3.13,0,0,1,2.32-.69,5.38,5.38,0,0,1,1.68.43,5.29,5.29,0,0,0,2,.37,2.57,2.57,0,0,0,2-.65,1.36,1.36,0,0,0,.38-.67,9.65,9.65,0,0,0,0-1.92,15,15,0,0,1,0-2.86,11.15,11.15,0,0,1,.57-2.11,17.62,17.62,0,0,1,2.4-5.1.57.57,0,0,1,.18-.12,4.57,4.57,0,0,1,.77.84,9.75,9.75,0,0,1,1.68,3,3.38,3.38,0,0,1,0,1.38A7.21,7.21,0,0,1,28,23.27a11.66,11.66,0,0,0-1.72,3.65,2,2,0,0,0,0,1c.25.54.55.38.73-.39,0-.11.07-.35.11-.54A8,8,0,0,1,27.91,25a36.32,36.32,0,0,1,3.34-4.57c1.19-1.44,1.92-2.19,2.11-2.19s.82,1.14,1.08,2.3a4,4,0,0,1,.08,1.11,4,4,0,0,1-.07,1,4.45,4.45,0,0,1-.9,2,3.71,3.71,0,0,0-.74,2A8.42,8.42,0,0,1,32,29.2c-.52,1.1-.51,1.16.34,1.73a33.36,33.36,0,0,0,3.51,2l1,.5-.93.12c-2.35.3-5.58.67-6.56.75a15.83,15.83,0,0,1-1.67.06Z" fill="#e6be70" stroke="#e6be70" stroke-miterlimit="2"/><rect width="50" height="50" fill="none"/></svg>