<svg xmlns="http://www.w3.org/2000/svg" viewBox="0 0 50 50"><path d="M12.19,41.94c-.26-.08-.22-.17.29-.79,1-1.22,1.91-4.58,2-7.82A7.45,7.45,0,0,0,14.08,30c-.52-.83-2.16-1.06-3.75-.53A3.66,3.66,0,0,0,8,31.33c-.27.75-.45.94-.9,1-.69.05-1.39-.58-1.94-1.76a5.08,5.08,0,0,1-.48-1.43.31.31,0,0,0-.12-.28,2.39,2.39,0,0,0-1.17-.34c-1.24-.12-1.74-.27-1.88-.53a9.31,9.31,0,0,1,.09-4.62A.53.53,0,0,1,1.92,23c.32-.17.31-.41,0-1.12a6.55,6.55,0,0,1-.57-3c0-1.23.14-1.78.48-1.87s.25-.22.05-.66a2.42,2.42,0,0,1-.13-1.87c.18-.47.56-.66.72-.36.07.12.07.16,0,.37-.19.64-.08,1,.29,1s.34-.05.74-.43a2.2,2.2,0,0,1,1.4-.65c.51-.05.81-.16.93-.35s.07-.55-.14-1c-.29-.6-.28-.79,0-.84a1.21,1.21,0,0,1,.91.49,6.37,6.37,0,0,1,.58.83,5.45,5.45,0,0,0,.93,1.23.21.21,0,0,0,.28,0A6.75,6.75,0,0,0,10,12.89c1.52-2.24,2-2.75,3.61-3.52A16.28,16.28,0,0,1,17.21,8a5.82,5.82,0,0,1,2.28,0,6.74,6.74,0,0,1,1.61.67c.76.42,2.55,1.32,3.25,1.63a36.72,36.72,0,0,0,11.71,3c5.08.65,6.67,1.15,8.17,2.59A8.37,8.37,0,0,1,46,18.3a4.15,4.15,0,0,1,.47,1.47,13.81,13.81,0,0,0,1,3.32,16.57,16.57,0,0,1,.77,2.38,10.07,10.07,0,0,1,.31,2.29c0,.7-.09,1.06-.32,1.23l-.13.1L48,29c-.55-.52-1.89-4.55-2.24-6.74,0-.18-.07-.64-.1-1-.08-1.27-.38-2.26-.68-2.26-.15,0-.19.19-.24,1.13A13.18,13.18,0,0,1,44,23.8a4.41,4.41,0,0,0,.84,4.7c.8,1.07,1,1.93,1.11,6.38.2,5.12.15,6.35-.24,6.82-.23.27-.39.3-1.77.28H42.68l.45-1.21A5.67,5.67,0,0,0,43.75,38a16.78,16.78,0,0,0-.45-3.39A6.3,6.3,0,0,0,41,30.42a7.48,7.48,0,0,0-1.66-1.35c-.39-.16-.41.17-.06.89a1.4,1.4,0,0,1,.22.85c0,.62-.25,1.13-1.65,3.41-1.53,2.51-2.29,4.09-2.39,5a3.08,3.08,0,0,1-.12.62.65.65,0,0,1-.51.45c-.39,0-.6.28-.7.92a1.62,1.62,0,0,1-.13.52,1.12,1.12,0,0,1-.28.18c-.2.09-.32.1-1.69.11L30.6,42l.49-.57a15.86,15.86,0,0,0,2.38-3.75,39.08,39.08,0,0,0,2.28-5.55c.18-.73.11-1.07-.45-2.14s-.87-1.5-1.11-1.5-.4.14-.82.51a3.92,3.92,0,0,1-.66.49.73.73,0,0,1-.54.09,3.26,3.26,0,0,1-.78-.22,3.78,3.78,0,0,0-1.6-.35,5.07,5.07,0,0,0-3.17,1.39,10.25,10.25,0,0,0-2.81,3.23,6.57,6.57,0,0,0-.65,2.63,6.25,6.25,0,0,0,.54,2.42c.4,1,.4,1.14,0,1.54-.26.25-.32.33-.36.54a1.49,1.49,0,0,0,.06.78c.05.2-.08.33-.41.4a19.73,19.73,0,0,1-2.66,0s.17-.5.38-1.07a7.23,7.23,0,0,0,.72-3,6.63,6.63,0,0,0-.95-2.48c-.36-.73-.69-1.42-.73-1.54-.1-.31-.13-.34-.37-.34a2.75,2.75,0,0,0-1.72,1.33A15,15,0,0,0,16.12,38,2,2,0,0,0,16,39.12a2.3,2.3,0,0,1-.32,1.2,3.85,3.85,0,0,0-.43,1.19l0,.26-.27.09a4.47,4.47,0,0,1-1.42.11A9.6,9.6,0,0,1,12.19,41.94Z" fill="#e6be70" stroke="#e6be70" stroke-miterlimit="2"/><rect width="50" height="50" fill="none"/></svg>