<svg xmlns="http://www.w3.org/2000/svg" viewBox="0 0 30 30"><path d="M24.8,2.66a2.19,2.19,0,0,0-.53-.84,1.12,1.12,0,0,0-.88-.3c-.44.13-.41.53-.27,1,.41,1.22.76,2.46,1.12,3.69a3.23,3.23,0,0,1,.07.63,7.23,7.23,0,0,1-2.53-2.23c-.24-.41-.58-.85-1.08-.36a1,1,0,0,0-.16.87,9.77,9.77,0,0,0,1.22,1.77,12.74,12.74,0,0,0,1.46,1.28c.6.48,1.16,1,.9,1.86s-.61,2.07-1.78,2.45-2.11.63-3.27,1c0-.68,0-1.36,0-2,0-.45.05-1-.64-1s-.58.55-.64,1c-.16,1.3-.36,2.59-.54,3.88a.56.56,0,0,1-.55.47H13.3a.56.56,0,0,1-.55-.47c-.18-1.29-.38-2.58-.54-3.88-.06-.45.07-1-.64-1s-.62.58-.64,1c0,.68,0,1.36,0,2-1.16-.34-2.23-.63-3.27-1S6.17,11,5.88,10s.3-1.38.9-1.86A12.74,12.74,0,0,0,8.24,6.85,9.77,9.77,0,0,0,9.46,5.08a1,1,0,0,0-.16-.87c-.5-.49-.84,0-1.08.36A7.23,7.23,0,0,1,5.69,6.8a3.23,3.23,0,0,1,.07-.63c.36-1.23.71-2.47,1.12-3.69.14-.43.17-.83-.27-1a1.12,1.12,0,0,0-.88.3,2.19,2.19,0,0,0-.53.84A12.23,12.23,0,0,0,4.09,8.92c.26,3.17,1.22,4.58,4.26,5.47a12.94,12.94,0,0,1,2.5,1.18c.28.16.44.53.66.8l-.17.19A6.51,6.51,0,0,0,6.75,15.5,4.54,4.54,0,0,0,8,18a3.84,3.84,0,0,0,3.17,1c0,.56,0,1.05,0,1.53a1.56,1.56,0,0,0,.61,1.39,11.69,11.69,0,0,1,1.9,2.2,1.59,1.59,0,0,0,2.7,0,11.69,11.69,0,0,1,1.9-2.2,1.56,1.56,0,0,0,.61-1.39c0-.48,0-1,0-1.53A3.84,3.84,0,0,0,22,18a4.54,4.54,0,0,0,1.22-2.51,6.51,6.51,0,0,0-4.59,1.06l-.17-.19c.22-.27.38-.64.66-.8a12.94,12.94,0,0,1,2.5-1.18c3-.89,4-2.3,4.26-5.47A12.23,12.23,0,0,0,24.8,2.66Z" fill="#212121"/><path d="M27.94,24.81c-1.14.22-2.27.4-3.38.64s-2.22.48-3.25.79a16.1,16.1,0,0,0-2.95,1.31A24.86,24.86,0,0,0,15.6,29.3H14.4a22.18,22.18,0,0,0-2.76-1.74,16.85,16.85,0,0,0-3-1.32c-1-.31-2.14-.57-3.25-.79S3.2,25,2.06,24.81a20.09,20.09,0,0,1,3.47-.33,18.41,18.41,0,0,1,3.53.25,13.5,13.5,0,0,1,3.44,1.14,22.11,22.11,0,0,1,3.1,1.83H14.4a21.18,21.18,0,0,1,3.1-1.83,13.5,13.5,0,0,1,3.44-1.14,21.24,21.24,0,0,1,7,.08Z" fill="#212121"/><rect width="30" height="30" fill="none"/></svg>