<svg xmlns="http://www.w3.org/2000/svg" viewBox="0 0 30 30"><path d="M21.54,2,20.43,3,18.31,5.44l-2.18,3-.21-.06-1.26,2.36.18.11-.39.75L13.9,13.1l-.34,1.56-.15,2.6-.85.43L11,18.46,9.5,19.51l-.7.94v.79l.44.83.73.62L6.65,25.06,4.76,26.17,4.44,26l-.2.12.15.5.73,1,.32.34.15-.13,0-.32L6,27.2l.66-.49,1.21-.77.73-.44,1.5-.75,1.9-.87.37,0,.44-.26.05-.25.31-.2,1.13-.93.89-1.07,1-1.48.73-1.9.72-2.06.59-1.13.58-.86.26.11,2-2-.18-.24.68-.61L23.13,9.8l1.61-.94.93-.46.09-.27-.31-1L24.31,5.07,22.84,3.12l-.76-.83ZM13.07,18.8l-.35.95-.53.82-.7.77-.28.06-.31.49-.72.53-.72-.5-.3-.61,0-.66.57-.79L10.9,19l1.25-.7,1.16-.58Z" fill="#212121"/><rect width="30" height="30" fill="none"/></svg>