<svg xmlns="http://www.w3.org/2000/svg" viewBox="0 0 30.04 30"><path d="M15,30a3,3,0,0,1-2.07-1C9,25,5,21.11,1.13,17.15c-1.56-1.59-1.57-2.69,0-4.27C5,8.92,9,5,12.9,1.08c1.38-1.38,2.75-1.4,4.14,0L29,13a2.51,2.51,0,0,1,0,4q-6,6-12.1,12.08A2.71,2.71,0,0,1,15,30Z" transform="translate(0.04)" fill="#dfb767"/><path d="M15,28.36a2.6,2.6,0,0,1-1.85-.93c-3.5-3.5-7-7-10.5-10.51-1.4-1.42-1.4-2.4,0-3.81,3.47-3.54,7-7,10.5-10.52a2.3,2.3,0,0,1,3.69,0L27.46,13.23a2.23,2.23,0,0,1,0,3.54q-5.38,5.4-10.78,10.78A2.41,2.41,0,0,1,15,28.36Z" transform="translate(0.04)" fill="#00002f"/><path d="M6.71,11.7a2.9,2.9,0,0,0,5.51,0" transform="translate(0.04)" fill="none" stroke="#7095f3" stroke-miterlimit="10"/><path d="M12.22,11.7a2.9,2.9,0,0,0,5.5,0" transform="translate(0.04)" fill="none" stroke="#7095f3" stroke-miterlimit="10"/><path d="M17.73,11.7a2.9,2.9,0,0,0,5.5,0" transform="translate(0.04)" fill="none" stroke="#7095f3" stroke-miterlimit="10"/><path d="M9.47,16.32a2.9,2.9,0,0,0,5.5,0" transform="translate(0.04)" fill="none" stroke="#7095f3" stroke-miterlimit="10"/><path d="M20.48,16.32a2.9,2.9,0,0,1-5.51,0" transform="translate(0.04)" fill="none" stroke="#7095f3" stroke-miterlimit="10"/><rect x="0.04" width="30" height="30" fill="none"/></svg>