<svg xmlns="http://www.w3.org/2000/svg" viewBox="0 0 30 30"><path d="M15,30a3,3,0,0,1-2.07-1C9,25,5.08,21.1,1.18,17.14c-1.57-1.59-1.57-2.69,0-4.27C5.07,8.91,9,5,12.94,1.07c1.38-1.38,2.76-1.4,4.14,0L29,13a2.5,2.5,0,0,1,0,4q-6,6-12.09,12.08A2.67,2.67,0,0,1,15,30Z" fill="#dfb767"/><path d="M15,28.35a2.63,2.63,0,0,1-1.84-.92c-3.51-3.5-7-7-10.51-10.52-1.4-1.42-1.4-2.4,0-3.81,3.48-3.53,7-7,10.5-10.52a2.31,2.31,0,0,1,3.7,0C20.4,6.12,24,9.66,27.5,13.22a2.23,2.23,0,0,1,0,3.54q-5.39,5.4-10.79,10.78A2.41,2.41,0,0,1,15,28.35Z" fill="#030"/><path d="M12.39,15.71c.51-1.74.38-3-1.1-3.9a3.55,3.55,0,0,1-1-1.19c-.47-.76-.67-1.62.14-2.24s1.6-.1,2,.69c.81,1.48,1.6.87,2.34,0,.54-.63.89-1.42,1.64-1.86a2,2,0,0,1,2.66.19c.83.83.55,1.75-.08,2.61a4.62,4.62,0,0,1-2.68,1.78,2,2,0,0,0-1.76,2.46c.12,1.25-.17,2.54.33,3.88a2.87,2.87,0,0,0,.52-.48c.51-.84,1.25-1.55,2.17-.87s.58,1.73,0,2.56-1.93,1.76-.89,3.25c.19.28-.1.75-.5.92A1,1,0,0,1,15,23.2a7,7,0,0,1-1.53-2.65,2.68,2.68,0,0,0-2.33-2.19A5.94,5.94,0,0,1,8,16.54c-.82-.92-1.19-1.93-.22-2.89s2-.65,2.92.17C11.29,14.34,11.74,15,12.39,15.71Z" fill="#95fe4e"/><rect width="30" height="30" fill="none"/></svg>