<svg xmlns="http://www.w3.org/2000/svg" viewBox="0 0 30 30"><path d="M28.13,14.58l-1.49.1-2.07.21h0L19.67,15H18.25V13.77l3.81.67a.22.22,0,0,0,.27-.22V11.46a.22.22,0,0,0-.27-.22l-3.83.83h0l-1.35.14H15.74V6.41A.22.22,0,0,1,16,6.2l1.71.59L15,2V26.1L17.57,28a.23.23,0,0,0,.36-.21l-.48-4.43-.24-.65-.35-.42-.42-.4-.26-.53,0-.74.37-.76.51-.47.77-.21,1.07,0h0l1.62.17,2.68.31,1,.08,1.09,0,.43-.09.22-.22.13-.49,0-1.29L26,17.21l-.32-.4L25,16.58l-.32-.38v-.26H26l1.06.11.86.07.39,0,.24-.27V14.72ZM15.69,15,16,13.77h1L17.33,15Zm7.82,1.18-.47.44H16.83l-.25-.22.42-.42h6.51Z" fill="#212121"/><path d="M1.5,14.72v1.09l.24.27.39,0L3,16.05l1.06-.11H5.28v.26L5,16.58l-.61.23-.32.4-.13.48,0,1.29.13.49.22.22.43.09,1.09,0,1-.08,2.68-.31,1.62-.17h0l1.07,0,.77.21.51.47.37.76,0,.74-.26.53-.42.4-.35.42-.24.65-.48,4.43a.23.23,0,0,0,.36.21L15,26.1V2l-2.75,4.8L14,6.2a.22.22,0,0,1,.3.21v5.8H13.15l-1.35-.14h0l-3.83-.83a.22.22,0,0,0-.27.22v2.76a.22.22,0,0,0,.27.22l3.81-.67V15H10.33l-4.88-.07h0l-2.07-.21-1.49-.1ZM12.67,15,13,13.77h1L14.31,15Zm-6.18,1H13l.42.42-.25.22H7l-.47-.44Z" fill="#212121"/><rect width="30" height="30" fill="none"/></svg>