<svg xmlns="http://www.w3.org/2000/svg" viewBox="0 0 30 30"><path d="M23.79,3.46a1.75,1.75,0,0,0-.47-.76,1,1,0,0,0-.79-.27c-.39.12-.37.48-.24.87.37,1.09.68,2.2,1,3.31a3.75,3.75,0,0,1,.06.56,6.33,6.33,0,0,1-2.27-2c-.22-.37-.52-.77-1-.32a.82.82,0,0,0-.14.78,8.62,8.62,0,0,0,1.09,1.59,10.2,10.2,0,0,0,1.31,1.14c.54.44,1,.86.81,1.68s-.55,1.85-1.6,2.19-1.9.57-2.93.88c0-.61,0-1.22,0-1.84,0-.4.05-.91-.57-.92s-.52.49-.57.9c-.15,1.16-.33,2.32-.49,3.48a.5.5,0,0,1-.49.42H13.47a.5.5,0,0,1-.49-.42c-.16-1.16-.34-2.32-.49-3.48-.05-.41.07-.91-.57-.9s-.56.52-.57.92c0,.62,0,1.23,0,1.84-1-.31-2-.57-2.93-.88S7.08,11,6.81,10s.27-1.24.81-1.68A10.2,10.2,0,0,0,8.93,7.22,8.62,8.62,0,0,0,10,5.63a.82.82,0,0,0-.14-.78c-.45-.45-.75,0-1,.32a6.33,6.33,0,0,1-2.27,2,3.75,3.75,0,0,1,.06-.56c.33-1.11.64-2.22,1-3.31.13-.39.15-.75-.24-.87a1,1,0,0,0-.79.27,1.75,1.75,0,0,0-.47.76,10.91,10.91,0,0,0-1,5.61C5.44,11.92,6.3,13.18,9,14a11.49,11.49,0,0,1,2.24,1.07c.25.14.4.47.6.71l-.15.17A5.85,5.85,0,0,0,7.6,15a4,4,0,0,0,1.09,2.24,3.48,3.48,0,0,0,2.85.89c0,.5,0,.93,0,1.37a1.43,1.43,0,0,0,.55,1.25,9.78,9.78,0,0,1,1.71,2,1.44,1.44,0,0,0,2.42,0,9.78,9.78,0,0,1,1.71-2,1.43,1.43,0,0,0,.55-1.25c0-.44,0-.87,0-1.37a3.48,3.48,0,0,0,2.85-.89A4,4,0,0,0,22.4,15a5.85,5.85,0,0,0-4.12.94l-.15-.17c.2-.24.35-.57.6-.71A11.49,11.49,0,0,1,21,14c2.73-.8,3.59-2.06,3.83-4.91A10.91,10.91,0,0,0,23.79,3.46Z" fill="#212121"/><rect x="24" y="14.25" width="3.87" height="1.5" rx="0.51" fill="#212121"/><rect x="2.13" y="14.25" width="3.87" height="1.5" rx="0.51" fill="#212121"/><rect x="14.25" y="2.13" width="1.5" height="3.87" rx="0.51" fill="#212121"/><rect x="14.25" y="24" width="1.5" height="3.87" rx="0.51" fill="#212121"/><path d="M27.34,8.39a.39.39,0,0,0-.62-.08l-.6.59a.68.68,0,0,0-.12.77A12,12,0,0,1,27.08,17a12.31,12.31,0,0,1-10.9,10.17,11.77,11.77,0,0,1-1.18,0,11.77,11.77,0,0,1-1.18,0A12.31,12.31,0,0,1,2.92,17,12,12,0,0,1,4,9.67a.68.68,0,0,0-.12-.77l-.6-.59a.39.39,0,0,0-.62.08A14,14,0,1,0,29,15,13.91,13.91,0,0,0,27.34,8.39Z" fill="#212121"/><path d="M10.51,3.22a.64.64,0,0,0,.67.15,12.08,12.08,0,0,1,7.64,0,.64.64,0,0,0,.67-.15l.34-.34a.67.67,0,0,0-.26-1.09,13.61,13.61,0,0,0-9.14,0,.67.67,0,0,0-.26,1.09Z" fill="#212121"/><rect width="30" height="30" fill="none"/></svg>