<svg xmlns="http://www.w3.org/2000/svg" viewBox="0 0 30 30"><path d="M25.6,3.84A2.28,2.28,0,0,0,25,2.92a1.21,1.21,0,0,0-1-.32c-.47.15-.45.57-.29,1,.44,1.32.82,2.66,1.21,4a3.55,3.55,0,0,1,.07.67A7.82,7.82,0,0,1,22.34,5.9c-.26-.44-.63-.92-1.17-.39a1,1,0,0,0-.17,1,10,10,0,0,0,1.32,1.91A12.3,12.3,0,0,0,23.9,9.75c.64.52,1.25,1,1,2S24.21,14,23,14.42s-2.29.68-3.54,1.05c0-.74,0-1.47,0-2.21,0-.49.06-1.1-.69-1.11s-.62.59-.69,1.08c-.18,1.4-.39,2.8-.59,4.2a.61.61,0,0,1-.59.51H13.16a.61.61,0,0,1-.59-.51c-.2-1.4-.41-2.8-.59-4.2-.07-.49.07-1.09-.69-1.08s-.68.62-.69,1.11c0,.74,0,1.47,0,2.21-1.25-.37-2.4-.68-3.54-1.05s-1.6-1.53-1.92-2.65.33-1.5,1-2A12.3,12.3,0,0,0,7.68,8.37,10,10,0,0,0,9,6.46a1,1,0,0,0-.17-1c-.54-.53-.91,0-1.17.39A7.82,7.82,0,0,1,4.93,8.31,3.55,3.55,0,0,1,5,7.64c.39-1.34.77-2.68,1.21-4,.16-.47.18-.89-.29-1a1.21,1.21,0,0,0-1,.32,2.28,2.28,0,0,0-.57.92A13.22,13.22,0,0,0,3.19,10.6c.29,3.43,1.32,5,4.61,5.92a13.37,13.37,0,0,1,2.7,1.29c.31.17.49.57.73.86l-.19.21a7.07,7.07,0,0,0-5-1.15,4.89,4.89,0,0,0,1.32,2.71,4.17,4.17,0,0,0,3.44,1.07c0,.6,0,1.13,0,1.65a1.7,1.7,0,0,0,.66,1.51,12,12,0,0,1,2.06,2.38,1.72,1.72,0,0,0,2.92,0,12,12,0,0,1,2.06-2.38,1.7,1.7,0,0,0,.66-1.51c0-.52,0-1.05,0-1.65a4.17,4.17,0,0,0,3.44-1.07,4.89,4.89,0,0,0,1.32-2.71,7.07,7.07,0,0,0-5,1.15l-.19-.21c.24-.29.42-.69.73-.86a13.37,13.37,0,0,1,2.7-1.29c3.29-1,4.32-2.49,4.61-5.92A13.22,13.22,0,0,0,25.6,3.84Z" fill="#212121"/><path d="M22.75,3.39a1.44,1.44,0,0,1,.67,1.19,1.22,1.22,0,0,1-.7.94.13.13,0,0,1-.13,0,1.15,1.15,0,0,1-.12-1.78Z" fill="#212121"/><path d="M22.67,5.38a1.67,1.67,0,0,1,0,.45,5.65,5.65,0,0,1-.14.6" fill="#212121" stroke="#212121" stroke-miterlimit="10" stroke-width="0.25"/><path d="M22.71,10.26a1.46,1.46,0,0,1,1.29.51A1.23,1.23,0,0,1,24.06,12a.2.2,0,0,1-.13.06,1.18,1.18,0,0,1-1.24-1.32C22.7,10.56,22.7,10.41,22.71,10.26Z" fill="#212121"/><path d="M23.94,11.92a1.79,1.79,0,0,0,.31.35c.17.14.5.37.5.37" fill="#212121" stroke="#212121" stroke-miterlimit="10" stroke-width="0.25"/><path d="M28.47,5.23a2,2,0,0,1,.44,1.85,1.7,1.7,0,0,1-1.3,1,.23.23,0,0,1-.16-.1A1.61,1.61,0,0,1,28,5.55Z" fill="#212121"/><path d="M27.75,7.76a2.67,2.67,0,0,1-.4.48,8.46,8.46,0,0,1-.67.54" fill="#212121" stroke="#212121" stroke-miterlimit="10" stroke-width="0.25"/><path d="M21.71,11.24a1.79,1.79,0,0,0-1.65.48,1.53,1.53,0,0,0-.21,1.46.21.21,0,0,0,.15.09,1.45,1.45,0,0,0,1.68-1.49Z" fill="#212121"/><path d="M19.35,13.58a2.33,2.33,0,0,0,.48-.31c.21-.18.55-.54.55-.54" fill="#212121" stroke="#212121" stroke-miterlimit="10" stroke-width="0.25"/><path d="M7.25,3.39a1.44,1.44,0,0,0-.67,1.19,1.22,1.22,0,0,0,.7.94.13.13,0,0,0,.13,0,1.15,1.15,0,0,0,.12-1.78Z" fill="#212121"/><path d="M7.33,5.38a1.67,1.67,0,0,0,0,.45,5.65,5.65,0,0,0,.14.6" fill="#212121" stroke="#212121" stroke-miterlimit="10" stroke-width="0.25"/><path d="M7.29,10.26A1.46,1.46,0,0,0,6,10.77,1.23,1.23,0,0,0,5.94,12a.2.2,0,0,0,.13.06A1.18,1.18,0,0,0,7.31,10.7C7.3,10.56,7.3,10.41,7.29,10.26Z" fill="#212121"/><path d="M6.06,11.92a1.79,1.79,0,0,1-.31.35c-.17.14-.5.37-.5.37" fill="#212121" stroke="#212121" stroke-miterlimit="10" stroke-width="0.25"/><path d="M1.53,5.23a2,2,0,0,0-.44,1.85,1.7,1.7,0,0,0,1.3,1A.23.23,0,0,0,2.55,8,1.61,1.61,0,0,0,2,5.55Z" fill="#212121"/><path d="M2.25,7.76a2.67,2.67,0,0,0,.4.48,8.46,8.46,0,0,0,.67.54" fill="#212121" stroke="#212121" stroke-miterlimit="10" stroke-width="0.25"/><path d="M8.29,11.24a1.79,1.79,0,0,1,1.65.48,1.53,1.53,0,0,1,.21,1.46.21.21,0,0,1-.15.09,1.45,1.45,0,0,1-1.68-1.49Z" fill="#212121"/><path d="M10.65,13.58a2.33,2.33,0,0,1-.48-.31c-.21-.18-.55-.54-.55-.54" fill="#212121" stroke="#212121" stroke-miterlimit="10" stroke-width="0.25"/><path d="M19.81,2.14v.35a10.56,10.56,0,0,1-.14,2.17,3,3,0,0,1-1.1,1.85,2.13,2.13,0,0,1-2.14.35c.34-.12.59-.41,1-.38A1.08,1.08,0,0,0,18.37,6a2.82,2.82,0,0,0-2.94,1.3,1.34,1.34,0,0,0-.16.6c0,.63,0,1.27,0,1.91a.4.4,0,0,1-.16.28s-.18,0-.25-.06a.32.32,0,0,1-.07-.2,4.86,4.86,0,0,1,0-.54,2.2,2.2,0,0,0-1.07-2,1.34,1.34,0,0,0-.78-.27,2.61,2.61,0,0,1-2.46-2,8,8,0,0,1-.25-1.48c0-.45,0-.91,0-1.39l.07,0a5,5,0,0,0,1.9.92,3,3,0,0,1,1.52,1,2.85,2.85,0,0,1,.48,2.28c-.37-.24-.72-.44-1-.67s-.64-.49-1-.76a1.49,1.49,0,0,0,.3.79,2.69,2.69,0,0,0,1.08.84,3,3,0,0,1,1.24,1.11c0-.09,0-.14,0-.19,0-.56,0-1.12,0-1.69,0-.16,0-.3.24-.32s.25.1.25.33v.86A12.19,12.19,0,0,1,17.57,5l0,0-.09.3a1.45,1.45,0,0,0,1.65-.9l-.6.18-.65.14a1.29,1.29,0,0,0,.25-1.36c-.39.44-.5,1.05-1.07,1.34l.07-.31c-.66.29-1,.87-1.4,1.4A2.35,2.35,0,0,1,16,4.45,2.92,2.92,0,0,1,17.94,3a4.76,4.76,0,0,0,1.77-.81S19.75,2.17,19.81,2.14Z" fill="#212121"/><rect width="30" height="30" fill="none"/></svg>