<svg xmlns="http://www.w3.org/2000/svg" viewBox="0 0 30 30"><path d="M29.18,19c-.24-.33-.94-1.38-1.17-1.73a1,1,0,0,1-.08-.11c-.33-.55-.7-1-1-1.56-.23-.38-.45-.54-.78-.28s-.51.3-.79,0c-1.08-1.11-2.17-2.17-3.5-2.37a1,1,0,0,1-.38-.25A35.84,35.84,0,0,1,16.8,8.35a4.44,4.44,0,0,0-.57-.5.7.7,0,0,0-.89-.1A6.21,6.21,0,0,0,13.87,9a36.51,36.51,0,0,1-3.71,3.57,1.8,1.8,0,0,0-.67.89,6,6,0,0,1-2.28,3.13c-.25.16-.41.19-.63-.08-.48-.58-1-1.08-1.46-1.64s-.71-.41-1.09,0a18.15,18.15,0,0,0-2.22,2.83s-.53.92-.86,1.4a8.11,8.11,0,0,1-.72,1.06c-.17.14-.25.23-.23.33s0,.11.12.12L8.8,20.5c.31,0,.6.07.79-.55.08-.3.29-.75.59-.66a2.67,2.67,0,0,0,2-.2.44.44,0,0,1,.61.48l-.1.54a.33.33,0,0,0,.33.38,10.17,10.17,0,0,1,1.66,0c.78.13,1.31-.31,1.72-1.33.2-.49.44-1.21.72-1.3.46-.14.43-.57.41-1a8,8,0,0,0-.28-1.65h0c-.31-1-.37-.52-.51-.22-.42.86-1.1.45-1.6,1-.3.31-.48.08-.45-.58.09-1.81.4-3.56.6-5.33C15.4,9,15.4,9,16,9.53c1.42,1.29,1.33,2,2.9,2.87,0,0,.2.08.21.46a.14.14,0,0,1,0,.06c-1.24,1.75-.78,4.6-.85,6.9,0,.22-.13.54.1.65a.37.37,0,0,0,.54-.2,8.33,8.33,0,0,1,.61-1,.59.59,0,0,0,0-.85c-.31-.52.29-3.14.46-3.65s.3-1.14.51-1,.44.39.63.39c1.06,0,1.85,1.06,2.78,1.57a2.47,2.47,0,0,1,.78,1.1c.17.43-.81,0-1.12-.3-.48-.47-1.14-.29-1.55-1,0,0-.11,0-.15.08-.3.43-.6.82-1,.63-.1-.05-.15.11-.18.29a15.75,15.75,0,0,1-.53,3.49.39.39,0,0,0,.41.53,17.9,17.9,0,0,1,1.82-.21c1.49,0,2.34.35,3.8.41a.09.09,0,0,0,.1-.1v0a.47.47,0,0,0-.16-.33c-.52-.46-.53-1.59-1-2.17-.18-.22.15-.76.2-1.18.09-.74.34-.87.69-.37.77,1.08,1.55,2.15,2.27,3.31a1.51,1.51,0,0,0,1.37.89c.16,0,.26-.18.35-.39S29.46,19.42,29.18,19ZM5.47,17.09H5.12s-.61.06-.15-.49c.15-.18,0-.33-.11-.39a.45.45,0,0,1-.27-.56.24.24,0,0,1,.44-.1l.71,1A.36.36,0,0,1,5.47,17.09Z" fill="#212121"/><rect width="30" height="30" fill="none"/></svg>