<svg xmlns="http://www.w3.org/2000/svg" viewBox="0 0 30 30"><path d="M15,30a3,3,0,0,1-2.07-1C9,25,5.08,21.1,1.18,17.14c-1.57-1.59-1.57-2.69,0-4.27C5.07,8.91,9,5,12.94,1.07c1.38-1.38,2.76-1.4,4.14,0L29,13a2.5,2.5,0,0,1,0,4q-6,6-12.09,12.08A2.67,2.67,0,0,1,15,30Z" fill="#dfb767"/><path d="M15,28.35a2.63,2.63,0,0,1-1.84-.92c-3.51-3.5-7-7-10.51-10.52-1.4-1.42-1.4-2.4,0-3.81,3.48-3.53,7-7,10.5-10.52a2.31,2.31,0,0,1,3.7,0C20.4,6.12,24,9.66,27.5,13.22a2.23,2.23,0,0,1,0,3.54q-5.39,5.4-10.79,10.78A2.41,2.41,0,0,1,15,28.35Z" fill="#333433"/><text transform="translate(7.86 16.74) scale(1.18 1)" font-size="12.37" fill="#a7a7a7" font-family="BerlinSansFBDemi-Bold, Berlin Sans FB Demi" font-weight="700">Z</text><text transform="translate(17.12 19.65) scale(1.18 1)" font-size="9.4" fill="#a7a7a7" font-family="BerlinSansFBDemi-Bold, Berlin Sans FB Demi" font-weight="700">Z</text><text transform="translate(11.92 23.22) scale(1.19 1)" font-size="7.25" fill="#a7a7a7" font-family="BerlinSansFBDemi-Bold, Berlin Sans FB Demi" font-weight="700">Z</text><rect width="30" height="30" fill="none"/></svg>